<?xml version="1.0" standalone="no"?>
<!DOCTYPE svg PUBLIC "-//W3C//DTD SVG 1.1//EN" "http://www.w3.org/Graphics/SVG/1.1/DTD/svg11.dtd" >
<svg xmlns="http://www.w3.org/2000/svg">
<metadata>Generated by IcoMoon</metadata>
<defs>
<font id="icomoon" horiz-adv-x="512">
<font-face units-per-em="512" ascent="480" descent="-32" />
<missing-glyph horiz-adv-x="512" />
<glyph unicode="&#x20;" d="" horiz-adv-x="256" />
<glyph unicode="&#xe600;" d="M508.689 192.003c4.002-27.741 6.608-65.696-5.832-80.223-20.571-24.022-150.856-24.022-150.856 24.021 0 24.199 21.428 40.067 0.856 64.089-20.236 23.631-56.513 24.015-96.857 24.021-40.343-0.006-76.621-0.39-96.857-24.021-20.571-24.023 0.857-39.89 0.857-64.089 0-48.043-130.285-48.043-150.857-24.022-12.439 14.527-9.834 52.482-5.831 80.223 3.080 18.519 10.862 38.498 35.774 63.997 0 0.001 0.001 0.001 0.001 0.002 37.369 34.871 93.923 63.369 214.913 63.984v0.015c0.672 0 1.332-0.005 2-0.007 0.669 0.002 1.328 0.007 2 0.007v-0.014c120.99-0.615 177.544-29.113 214.913-63.984 0.001-0.001 0.001-0.002 0.001-0.002 24.912-25.498 32.695-45.477 35.775-63.997z" />
<glyph unicode="&#xe601;" d="M352 160c-32-32-32-64-64-64s-64 32-96 64-64 64-64 96 32 32 64 64-64 128-96 128-96-96-96-96c0-64 65.75-193.75 128-256s192-128 256-128c0 0 96 64 96 96s-96 128-128 96z" />
<glyph unicode="&#xe602;" d="M368 480h-64c-8.832 0-16-7.168-16-16v-146.664c-16.088-5.336-32-19.12-32-45.336v-288c0-8.832 7.168-16 16-16h128c8.832 0 16 7.168 16 16v288c0 26.216-15.912 40-32 45.336v146.664c0 8.832-7.168 16-16 16zM304 288c8.832 0 16 7.168 16 16v144h32v-144c0-8.68 7.136-15.776 15.816-16 7.376-0.184 16.184-3.112 16.184-16v-64h-96v64c0 12.888 8.808 15.816 16 16zM288 176h96v-64h-96v64zM288 0v80h96v-80h-96zM216.872 146.688c4.456 2.968 7.128 7.96 7.128 13.312v128c0 8.832-7.168 16-16 16h-96c-8.832 0-16-7.168-16-16v-128c0-5.352 2.672-10.344 7.128-13.312l40.872-27.248v-119.44h-24c-8.832 0-16-7.168-16-16s7.168-16 16-16h80c8.832 0 16 7.168 16 16s-7.168 16-16 16h-24v119.44l40.872 27.248zM128 272h64v-103.44l-32-21.336-32 21.336v103.44z" />
<glyph unicode="&#xe603;" d="M16 8h480c8.832 0 16 7.168 16 16v400c0 8.832-7.168 16-16 16h-480c-8.832 0-16-7.168-16-16v-400c0-8.832 7.168-16 16-16zM32 40v272h448v-272h-448zM480 408v-64h-448v64h448zM80 360c4.16 0 8.32 1.68 11.36 4.72 2.96 2.96 4.64 7.040 4.64 11.28 0 4.16-1.68 8.32-4.72 11.28-5.92 6-16.64 6-22.56 0-3.040-2.96-4.72-7.040-4.72-11.28 0-4.24 1.68-8.32 4.72-11.36 2.96-2.96 7.112-4.64 11.28-4.64zM128 360c4.16 0 8.32 1.68 11.28 4.72 3.040 2.96 4.72 7.040 4.72 11.28 0 4.24-1.68 8.32-4.72 11.28-5.92 6-16.64 6-22.56 0-3.040-2.96-4.72-7.040-4.72-11.28 0-4.24 1.68-8.32 4.72-11.36 2.96-2.96 7.040-4.64 11.28-4.64zM176 360c4.24 0 8.32 1.68 11.28 4.64 3.040 3.040 4.72 7.12 4.72 11.36 0 4.24-1.68 8.32-4.72 11.36-5.92 5.92-16.64 5.92-22.56-0.080-3.040-2.96-4.72-7.12-4.72-11.28 0-4.24 1.68-8.32 4.72-11.36 2.96-2.96 7.040-4.64 11.28-4.64zM432 280h-352c-8.832 0-16-7.168-16-16s7.168-16 16-16h352c8.832 0 16 7.168 16 16s-7.168 16-16 16zM432 216h-352c-8.832 0-16-7.168-16-16s7.168-16 16-16h352c8.832 0 16 7.168 16 16s-7.168 16-16 16zM432 152h-352c-8.832 0-16-7.168-16-16s7.168-16 16-16h352c8.832 0 16 7.168 16 16s-7.168 16-16 16z" />
<glyph unicode="&#xe604;" d="M496 440h-480c-8.832 0-16-7.168-16-16v-400c0-8.832 7.168-16 16-16h480c8.832 0 16 7.168 16 16v400c0 8.832-7.168 16-16 16zM480 408v-64h-448v64h448zM32 40v272h448v-272h-448zM80 360c4.16 0 8.32 1.68 11.28 4.72 3.040 2.96 4.72 7.12 4.72 11.28s-1.68 8.32-4.72 11.36c-5.92 5.92-16.64 5.92-22.64-0.080-2.96-2.96-4.64-7.040-4.64-11.28 0-4.24 1.68-8.32 4.72-11.36 2.96-2.96 7.112-4.64 11.28-4.64zM128 360c4.16 0 8.32 1.68 11.36 4.72 2.96 2.96 4.64 7.12 4.64 11.28s-1.68 8.32-4.72 11.36c-5.92 5.92-16.64 5.92-22.64-0.080-2.96-2.96-4.64-7.12-4.64-11.28s1.68-8.32 4.72-11.36c2.96-2.96 7.112-4.64 11.28-4.64zM176 360c4.24 0 8.32 1.68 11.28 4.72 3.040 2.96 4.72 7.040 4.72 11.28 0 4.16-1.68 8.32-4.72 11.36-5.92 5.92-16.64 5.92-22.64-0.080-2.96-2.96-4.64-7.12-4.64-11.28 0-4.24 1.68-8.32 4.72-11.28 2.96-3.040 7.112-4.72 11.28-4.72zM248 280h-168c-8.832 0-16-7.168-16-16s7.168-16 16-16h168c8.832 0 16 7.168 16 16s-7.168 16-16 16zM248 216h-168c-8.832 0-16-7.168-16-16s7.168-16 16-16h168c8.832 0 16 7.168 16 16s-7.168 16-16 16zM248 152h-168c-8.832 0-16-7.168-16-16s7.168-16 16-16h168c8.832 0 16 7.168 16 16s-7.168 16-16 16zM432 280h-120c-8.832 0-16-7.168-16-16v-128c0-8.832 7.168-16 16-16h120c8.832 0 16 7.168 16 16v128c0 8.832-7.168 16-16 16zM416 152h-88v96h88v-96z" />
<glyph unicode="&#xe605;" d="M256 480c-88.366 0-160-71.634-160-160 0-160 160-352 160-352s160 192 160 352c0 88.366-71.635 160-160 160zM256 222c-54.124 0-98 43.876-98 98s43.876 98 98 98 98-43.876 98-98-43.876-98-98-98zM194 320c0 34.241 27.758 62 62 62s62-27.759 62-62c0-34.241-27.759-62-62-62-34.242 0-62 27.759-62 62z" />
<glyph unicode="&#xe606;" d="M256 480c-88.366 0-160-71.634-160-160 0-160 160-352 160-352s160 192 160 352c0 88.366-71.635 160-160 160zM256 224c-53.020 0-96 42.98-96 96s42.98 96 96 96 96-42.98 96-96-42.98-96-96-96z" />
<glyph unicode="&#xe607;" d="M160 128c-8.832 0-16-7.168-16-16v-48c0-8.832 7.168-16 16-16s16 7.168 16 16v48c0 8.832-7.168 16-16 16zM288 128c-8.832 0-16-7.168-16-16v-64c0-8.832 7.168-16 16-16s16 7.168 16 16v64c0 8.832-7.168 16-16 16zM224 128c-8.832 0-16-7.168-16-16v-112c0-8.832 7.168-16 16-16s16 7.168 16 16v112c0 8.832-7.168 16-16 16zM352 128c-8.832 0-16-7.168-16-16v-112c0-8.832 7.168-16 16-16s16 7.168 16 16v112c0 8.832-7.168 16-16 16zM447.408 302.512c-7.408 90.28-83.248 161.488-175.408 161.488-81.792 0-152.336-53.080-172.728-128h-3.272c-52.936 0-96-43.064-96-96s43.064-96 96-96h336c44.112 0 80 35.888 80 80 0 38.84-27.832 71.312-64.592 78.512zM432 176h-336c-35.288 0-64 28.712-64 64s28.712 64 64 64h16c7.696 0 14.304 5.48 15.728 13.040 12.52 66.616 73.192 114.96 144.272 114.96 79.4 0 144-64.6 144-144 0-8.832 7.168-16 16-16 26.472 0 48-21.528 48-48s-21.528-48-48-48z" />
<glyph unicode="&#xe608;" d="M160-32h192c8.832 0 16 7.168 16 16v104.336c39.064 32.312 64 81.128 64 135.664s-24.936 103.352-64 135.664v104.336c0 8.832-7.168 16-16 16h-192c-8.832 0-16-7.168-16-16v-104.336c-39.064-32.312-64-81.128-64-135.664s24.936-103.352 64-135.664v-104.336c0-8.832 7.168-16 16-16zM336 0h-160v67.312c24.024-12.312 51.2-19.312 80-19.312s55.976 7 80 19.312v-67.312zM176 448h160v-67.312c-24.024 12.312-51.2 19.312-80 19.312s-55.976-7-80-19.312v67.312zM112 224c0 79.4 64.6 144 144 144s144-64.6 144-144-64.6-144-144-144-144 64.6-144 144zM248.84 209.688l64-32c2.304-1.152 4.744-1.688 7.152-1.688 5.864 0 11.52 3.232 14.328 8.84 3.952 7.904 0.744 17.512-7.16 21.472l-55.16 27.576v86.112c0 8.832-7.168 16-16 16s-16-7.168-16-16v-96c0-6.064 3.424-11.6 8.84-14.312z" />
<glyph unicode="&#xe609;" d="M32 112h89.376l139.312-139.312c3.064-3.064 7.144-4.688 11.312-4.688 2.064 0 4.144 0.4 6.128 1.216 5.976 2.48 9.872 8.312 9.872 14.784v480c0 6.472-3.896 12.304-9.872 14.784-6 2.48-12.856 1.12-17.44-3.472l-139.312-139.312h-89.376c-8.832 0-16-7.168-16-16v-192c0-8.832 7.168-16 16-16zM48 304h80c4.24 0 8.312 1.688 11.312 4.688l116.688 116.68v-402.744l-116.688 116.688c-3 3-7.072 4.688-11.312 4.688h-80v160zM324.688 140.688c3.128-3.128 7.216-4.688 11.312-4.688s8.184 1.56 11.312 4.688l60.688 60.688 60.688-60.688c3.128-3.128 7.216-4.688 11.312-4.688s8.184 1.56 11.312 4.688c6.248 6.248 6.248 16.376 0 22.624l-60.688 60.688 60.688 60.688c6.248 6.248 6.248 16.376 0 22.624s-16.376 6.248-22.624 0l-60.688-60.688-60.688 60.688c-6.248 6.248-16.376 6.248-22.624 0-6.248-6.248-6.248-16.376 0-22.624l60.688-60.688-60.688-60.688c-6.248-6.248-6.248-16.376 0-22.624z" />
<glyph unicode="&#xe60a;" d="M64 112h89.376l139.312-139.312c3.064-3.064 7.144-4.688 11.312-4.688 2.064 0 4.144 0.4 6.128 1.216 5.976 2.48 9.872 8.312 9.872 14.784v480c0 6.472-3.896 12.304-9.872 14.784-5.992 2.48-12.856 1.12-17.44-3.472l-139.312-139.312h-89.376c-8.832 0-16-7.168-16-16v-192c0-8.832 7.168-16 16-16zM80 304h80c4.24 0 8.312 1.688 11.312 4.688l116.688 116.68v-402.744l-116.688 116.688c-3 3-7.072 4.688-11.312 4.688h-80v160zM368 160c-8.832 0-16-7.168-16-16s7.168-16 16-16c52.936 0 96 43.064 96 96s-43.064 96-96 96c-8.832 0-16-7.168-16-16s7.168-16 16-16c35.288 0 64-28.712 64-64s-28.712-64-64-64z" />
<glyph unicode="&#xe60b;" d="M24 112h89.376l139.312-139.312c3.064-3.064 7.144-4.688 11.312-4.688 2.064 0 4.144 0.4 6.128 1.216 5.976 2.48 9.872 8.312 9.872 14.784v480c0 6.472-3.896 12.304-9.872 14.784-6 2.48-12.856 1.12-17.44-3.472l-139.312-139.312h-89.376c-8.832 0-16-7.168-16-16v-192c0-8.832 7.168-16 16-16zM40 304h80c4.24 0 8.312 1.688 11.312 4.688l116.688 116.68v-402.744l-116.688 116.688c-3 3-7.072 4.688-11.312 4.688h-80v160zM328 160c-8.832 0-16-7.168-16-16s7.168-16 16-16c52.936 0 96 43.064 96 96s-43.064 96-96 96c-8.832 0-16-7.168-16-16s7.168-16 16-16c35.288 0 64-28.712 64-64s-28.712-64-64-64zM328 48c97.048 0 176 78.952 176 176s-78.952 176-176 176c-8.832 0-16-7.168-16-16s7.168-16 16-16c79.4 0 144-64.6 144-144s-64.6-144-144-144c-8.832 0-16-7.168-16-16s7.168-16 16-16z" />
<glyph unicode="&#xe60c;" d="M503.76 333.992c-5.080 2.832-11.304 2.656-16.24-0.424l-103.52-64.704v51.136c0 8.832-7.168 16-16 16h-41.376l-64 64h-214.624c-8.832 0-16-7.168-16-16s7.168-16 16-16h201.368l32-32h-265.368c-8.832 0-16-7.168-16-16v-256c0-8.832 7.168-16 16-16h352c8.832 0 16 7.168 16 16v51.136l103.52-64.704c2.592-1.616 5.528-2.432 8.48-2.432 2.664 0 5.336 0.664 7.76 2.008 5.080 2.824 8.24 8.176 8.24 13.992v256c0 5.816-3.16 11.168-8.24 13.992zM480 92.864l-103.52 64.704c-4.936 3.088-11.152 3.248-16.24 0.424-5.080-2.824-8.24-8.176-8.24-13.992v-64h-320v224h320v-64c0-5.816 3.16-11.168 8.24-13.992 5.096-2.832 11.312-2.664 16.24 0.424l103.52 64.704v-198.272zM64 240h32c8.832 0 16 7.168 16 16s-7.168 16-16 16h-32c-8.832 0-16-7.168-16-16s7.168-16 16-16zM192 208h-128c-8.832 0-16-7.168-16-16v-64c0-8.832 7.168-16 16-16h128c8.832 0 16 7.168 16 16v64c0 8.832-7.168 16-16 16zM176 144h-96v32h96v-32z" />
<glyph unicode="&#xe60d;" d="M398.832 206.512c-0.032 0.232-0.088 0.448-0.112 0.68 17.2 13.888 33.28 32.76 33.28 64.808 0 55.4-44.856 104-96 104-28.656 0-55-12.496-73.296-34.248-9.872 1.432-20.096 2.248-30.704 2.248-66.4 0-112.088-34.232-139.376-104.56-37.248-3.528-92.624-24.64-92.624-87.44 0-39.824 29.688-80 96-80h288c44.256 0 64 19.736 64 64 0 37.888-18.848 64.168-49.168 70.512zM336 344c36.632 0 64-38.008 64-72 0-11.472-2.888-20.248-10.016-28.88-15.328 42.128-47.312 73.576-90.512 89.384 10.568 7.392 23.168 11.496 36.528 11.496zM384 104h-288c-47.184 0-64 24.8-64 48 0 22.808 10.904 38.48 33.344 47.896 18.84 7.912 38.496 8.104 38.656 8.104h11.392l3.728 10.76c22.352 64.48 57.16 93.24 112.88 93.24 80.44 0 132.552-46.264 136.016-120.744l0.712-15.256h15.272c26.448 0 32-21.752 32-40 0-26.616-5.384-32-32-32zM496 296h-32c-8.832 0-16-7.168-16-16s7.168-16 16-16h32c8.832 0 16 7.168 16 16s-7.168 16-16 16zM352 408v32c0 8.832-7.168 16-16 16s-16-7.168-16-16v-32c0-8.832 7.168-16 16-16s16 7.168 16 16zM435.312 372.688l24 24c6.248 6.248 6.248 16.376 0 22.624s-16.376 6.248-22.624 0l-24-24c-6.248-6.248-6.248-16.376 0-22.624 3.128-3.128 7.216-4.688 11.312-4.688s8.184 1.56 11.312 4.688zM248 368c4.096 0 8.184 1.56 11.312 4.688 6.248 6.248 6.248 16.376 0 22.624l-24 24c-6.248 6.248-16.376 6.248-22.624 0s-6.248-16.376 0-22.624l24-24c3.128-3.128 7.216-4.688 11.312-4.688z" />
<glyph unicode="&#xe60e;" d="M256.008 0c8.832 0 15.992 7.168 15.992 16v217.384l36.704-36.696c3.12-3.128 7.216-4.688 11.312-4.688s8.192 1.56 11.312 4.688c6.248 6.248 6.248 16.376 0 22.624l-64 64c-6.24 6.248-16.384 6.248-22.624 0l-64-64c-6.248-6.248-6.248-16.376 0-22.624 6.24-6.248 16.376-6.248 22.616 0l36.68 36.68v-217.368c0-8.832 7.168-16 16.008-16zM16 128h176c8.832 0 16 7.168 16 16s-7.168 16-16 16h-160v256h448v-256h-160c-8.832 0-16-7.168-16-16s7.168-16 16-16h176c8.832 0 16 7.168 16 16v288c0 8.832-7.168 16-16 16h-480c-8.832 0-16-7.168-16-16v-288c0-8.832 7.168-16 16-16z" />
<glyph unicode="&#xe60f;" d="M16 96h176c8.832 0 16 7.168 16 16s-7.168 16-16 16h-160v320h137.368l59.32-59.312c3-3 7.072-4.688 11.312-4.688h240v-256h-160c-8.832 0-16-7.168-16-16s7.168-16 16-16h176c8.832 0 16 7.168 16 16v288c0 8.832-7.168 16-16 16h-249.368l-59.32 59.312c-3 3-7.072 4.688-11.312 4.688h-160c-8.832 0-16-7.168-16-16v-352c0-8.832 7.168-16 16-16zM256-32c8.832 0 16 7.168 16 16v217.384l36.704-36.696c3.12-3.128 7.216-4.688 11.312-4.688s8.192 1.56 11.312 4.688c6.248 6.248 6.248 16.376 0 22.624l-64 64c-6.24 6.248-16.384 6.248-22.624 0l-64-64c-6.248-6.248-6.248-16.376 0-22.624 6.24-6.248 16.384-6.248 22.624 0l36.672 36.664v-217.352c0-8.832 7.168-16 16-16z" />
<glyph unicode="&#xe610;" d="M256 480c-219.016 0-255.44-203.32-255.784-205.368-0.776-4.64 0.528-9.384 3.576-12.976 3.040-3.584 7.504-5.656 12.208-5.656h224v-240c0-26.472 21.528-48 48-48s48 21.528 48 48c0 8.832-7.168 16-16 16s-16-7.168-16-16c0-8.824-7.176-16-16-16s-16 7.176-16 16v240h224c0.056 0.008 0.104 0 0.16 0 8.832 0 16 7.168 16 16 0 1.872-0.328 3.672-0.92 5.352-5.16 24.32-50.12 202.648-255.24 202.648zM36.36 288c13.696 45.992 63.416 160 219.64 160s205.944-114.008 219.64-160h-439.28z" />
<glyph unicode="&#xe611;" d="M496 416h-480c-8.832 0-16-7.168-16-16v-320c0-8.832 7.168-16 16-16h224v-64h-64c-8.832 0-16-7.168-16-16s7.168-16 16-16h160c8.832 0 16 7.168 16 16s-7.168 16-16 16h-64v64h224c8.832 0 16 7.168 16 16v320c0 8.832-7.168 16-16 16zM480 96h-448v288h448v-288z" />
<glyph unicode="&#xe612;" d="M256 480c-141.385 0-256-114.615-256-256s114.615-256 256-256 256 114.615 256 256-114.615 256-256 256zM256 352c70.692 0 128-57.308 128-128s-57.308-128-128-128-128 57.308-128 128 57.308 128 128 128zM408.735 71.265c-40.797-40.797-95.040-63.265-152.735-63.265-57.696 0-111.938 22.468-152.735 63.265-40.797 40.797-63.265 95.039-63.265 152.735 0 57.695 22.468 111.938 63.265 152.735l33.941-33.941c0 0 0 0 0 0-65.503-65.503-65.503-172.085 0-237.588 31.731-31.731 73.919-49.206 118.794-49.206 44.874 0 87.062 17.475 118.794 49.206 65.503 65.503 65.503 172.084 0 237.588l33.941 33.941c40.797-40.797 63.265-95.040 63.265-152.735 0-57.696-22.468-111.938-63.265-152.735z" />
<glyph unicode="&#xe613;" d="M496 448h-160c-5.040 0-9.784-2.368-12.8-6.4l-43.2-57.6h-48l-43.2 57.6c-3.016 4.032-7.76 6.4-12.8 6.4h-160c-8.832 0-16-7.168-16-16v-128c0-8.832 7.168-16 16-16h80v-272c0-8.832 7.168-16 16-16h288c8.832 0 16 7.168 16 16v272h80c8.832 0 16 7.168 16 16v128c0 8.832-7.168 16-16 16zM480 320h-80c-8.832 0-16-7.168-16-16v-272h-256v272c0 8.832-7.168 16-16 16h-80v96h136l43.2-57.6c3.016-4.024 7.76-6.4 12.8-6.4h64c5.040 0 9.784 2.368 12.8 6.4l43.2 57.6h136v-96z" />
<glyph unicode="&#xe614;" d="M312 480h-112c-8.832 0-16-7.168-16-16v-48h-104c-8.832 0-16-7.168-16-16s7.168-16 16-16h16v-400c0-8.832 7.168-16 16-16h288c8.832 0 16 7.168 16 16v400h16c8.832 0 16 7.168 16 16s-7.168 16-16 16h-104v48c0 8.832-7.168 16-16 16zM384 384v-384h-256v384h256zM216 416v32h80v-32h-80zM208 32c8.832 0 16 7.168 16 16v272c0 8.832-7.168 16-16 16s-16-7.168-16-16v-272c0-8.832 7.168-16 16-16zM304 32c8.832 0 16 7.168 16 16v272c0 8.832-7.168 16-16 16s-16-7.168-16-16v-272c0-8.832 7.168-16 16-16z" />
<glyph unicode="&#xe615;" d="M353.888 432l-19.576 39.16c-2.712 5.416-8.256 8.84-14.312 8.84h-128c-6.056 0-11.6-3.424-14.312-8.84l-19.576-39.16h-78.112c-8.832 0-16-7.168-16-16v-432c0-8.832 7.168-16 16-16h352c8.832 0 16 7.168 16 16v432c0 8.832-7.168 16-16 16h-78.112zM201.888 448h108.224l32-64h-172.224l32 64zM416 0h-320v400h46.112l-12.424-24.84c-2.48-4.96-2.216-10.848 0.704-15.568 2.912-4.72 8.064-7.592 13.608-7.592h224c0.056 0 0.104 0 0.16 0 8.832 0 16 7.168 16 16 0 3.344-1.024 6.448-2.776 9.008l-11.496 22.992h46.112v-400zM368 304h-144c-8.832 0-16-7.168-16-16s7.168-16 16-16h144c8.832 0 16 7.168 16 16s-7.168 16-16 16zM368 224h-144c-8.832 0-16-7.168-16-16s7.168-16 16-16h144c8.832 0 16 7.168 16 16s-7.168 16-16 16zM368 144h-144c-8.832 0-16-7.168-16-16s7.168-16 16-16h144c8.832 0 16 7.168 16 16s-7.168 16-16 16zM368 64h-144c-8.832 0-16-7.168-16-16s7.168-16 16-16h144c8.832 0 16 7.168 16 16s-7.168 16-16 16zM160 304h-16c-8.832 0-16-7.168-16-16s7.168-16 16-16h16c8.832 0 16 7.168 16 16s-7.168 16-16 16zM160 224h-16c-8.832 0-16-7.168-16-16s7.168-16 16-16h16c8.832 0 16 7.168 16 16s-7.168 16-16 16zM160 144h-16c-8.832 0-16-7.168-16-16s7.168-16 16-16h16c8.832 0 16 7.168 16 16s-7.168 16-16 16zM160 64h-16c-8.832 0-16-7.168-16-16s7.168-16 16-16h16c8.832 0 16 7.168 16 16s-7.168 16-16 16z" />
<glyph unicode="&#xe616;" d="M432-32c8.832 0 16 7.168 16 16v432c0 8.832-7.168 16-16 16h-78.112l-19.576 39.16c-2.712 5.416-8.248 8.84-14.312 8.84h-128c-6.064 0-11.6-3.424-14.312-8.84l-19.576-39.16h-78.112c-8.832 0-16-7.168-16-16v-432c0-8.832 7.168-16 16-16h352zM201.888 448h108.216l32-64h-172.216l32 64zM96 400h46.112l-12.424-24.84c-2.48-4.96-2.208-10.848 0.704-15.568s8.064-7.592 13.608-7.592h224c0.064 0 0.128 0 0.16 0 8.84 0 16 7.168 16 16 0 3.344-1.024 6.448-2.776 9.008l-11.496 22.992h46.112v-400h-320v400zM308.688 251.312l-68.688-68.68-36.688 36.68c-6.248 6.248-16.376 6.248-22.624 0s-6.248-16.376 0-22.624l48-48c3.128-3.128 7.216-4.688 11.312-4.688s8.184 1.56 11.312 4.688l80 80c6.248 6.248 6.248 16.376 0 22.624s-16.376 6.248-22.624 0z" />
<glyph unicode="&#xe617;" d="M177.688 471.16l-19.576-39.16h-78.112c-8.832 0-16-7.168-16-16v-432c0-8.832 7.168-16 16-16h352c8.832 0 16 7.168 16 16v432c0 8.832-7.168 16-16 16h-78.112l-19.576 39.16c-2.712 5.416-8.248 8.84-14.312 8.84h-128c-6.064 0-11.6-3.424-14.312-8.84zM416 400v-400h-320v400h46.112l-12.424-24.84c-2.48-4.96-2.208-10.848 0.704-15.568s8.064-7.592 13.608-7.592h224c0.064 0 0.12 0 0.16 0 8.84 0 16 7.168 16 16 0 3.344-1.024 6.448-2.776 9.008l-11.496 22.992h46.112zM310.112 448l32-64h-172.224l32 64h108.224zM320 224h-48v48c0 8.832-7.168 16-16 16s-16-7.168-16-16v-48h-48c-8.832 0-16-7.168-16-16s7.168-16 16-16h48v-48c0-8.832 7.168-16 16-16s16 7.168 16 16v48h48c8.832 0 16 7.168 16 16s-7.168 16-16 16z" />
<glyph unicode="&#xe618;" d="M4.688 148.688l42.752-42.744c6.248-6.248 16.384-6.248 22.624 0 9.064 9.064 21.112 14.056 33.936 14.056 26.472 0 48-21.528 48-48 0-12.824-5-24.872-14.064-33.944-3-3-4.688-7.072-4.688-11.312s1.688-8.312 4.688-11.312l42.752-42.744c3.128-3.128 7.216-4.688 11.312-4.688s8.192 1.56 11.312 4.688l304 304c3.008 3 4.688 7.072 4.688 11.312s-1.688 8.312-4.688 11.312l-42.752 42.744c-6.248 6.248-16.384 6.248-22.624 0-9.064-9.064-21.112-14.056-33.936-14.056-26.472 0-48 21.528-48 48 0 12.824 5 24.872 14.064 33.944 3 3 4.688 7.072 4.688 11.312s-1.688 8.312-4.688 11.312l-42.752 42.744c-6.248 6.248-16.384 6.248-22.624 0l-304-304c-3.008-3-4.688-7.072-4.688-11.312s1.688-8.312 4.688-11.312zM208 329.376l12.688-12.688c3.12-3.128 7.216-4.688 11.312-4.688s8.192 1.56 11.312 4.688c6.248 6.248 6.248 16.376 0 22.624l-12.688 12.688 89.376 89.376 21.248-21.24c-8.616-12.976-13.248-28.208-13.248-44.136 0-44.112 35.888-80 80-80 15.936 0 31.152 4.624 44.128 13.24l21.24-21.24-89.368-89.376-12.688 12.688c-6.24 6.248-16.384 6.248-22.624 0-6.248-6.248-6.248-16.376 0-22.624l12.688-12.688-169.376-169.376-21.248 21.24c8.616 12.976 13.248 28.208 13.248 44.136 0 44.112-35.888 80-80 80-15.936 0-31.152-4.624-44.128-13.24l-21.24 21.24 169.368 169.376zM268.688 268.688c3.12-3.128 7.216-4.688 11.312-4.688s8.192 1.56 11.312 4.688c6.248 6.248 6.248 16.376 0 22.624l-16 16c-6.24 6.248-16.384 6.248-22.624 0-6.248-6.248-6.248-16.376 0-22.624l16-16zM300.688 236.688l16-16c3.12-3.128 7.216-4.688 11.312-4.688s8.192 1.56 11.312 4.688c6.248 6.248 6.248 16.376 0 22.624l-16 16c-6.24 6.248-16.384 6.248-22.624 0-6.248-6.248-6.248-16.376 0-22.624z" />
<glyph unicode="&#xe619;" d="M192-32c8.832 0 16 7.168 16 16v480c0 8.832-7.168 16-16 16s-16-7.168-16-16v-480c0-8.832 7.168-16 16-16zM256-32c8.832 0 16 7.168 16 16v480c0 8.832-7.168 16-16 16s-16-7.168-16-16v-480c0-8.832 7.168-16 16-16zM320-32c8.832 0 16 7.168 16 16v480c0 8.832-7.168 16-16 16s-16-7.168-16-16v-480c0-8.832 7.168-16 16-16z" />
<glyph unicode="&#xe61a;" d="M496 176h-480c-8.832 0-16-7.168-16-16s7.168-16 16-16h480c8.832 0 16 7.168 16 16s-7.168 16-16 16zM496 240h-480c-8.832 0-16-7.168-16-16s7.168-16 16-16h480c8.832 0 16 7.168 16 16s-7.168 16-16 16zM496 304h-480c-8.832 0-16-7.168-16-16s7.168-16 16-16h480c8.832 0 16 7.168 16 16s-7.168 16-16 16z" />
<glyph unicode="&#xe61b;" d="M448-16v480c0 8.832-7.168 16-16 16h-352c-8.832 0-16-7.168-16-16v-480c0-8.832 7.168-16 16-16h352c8.832 0 16 7.168 16 16zM416 0h-320v448h320v-448zM244.64 59.28c-2.96-2.96-4.64-7.112-4.64-11.28 0-4.16 1.68-8.32 4.72-11.36 2.96-2.96 7.112-4.64 11.28-4.64 4.16 0 8.32 1.68 11.36 4.72 2.96 2.96 4.64 7.12 4.64 11.28 0 4.168-1.68 8.32-4.72 11.28-5.92 6-16.64 6-22.64 0zM216 384h80c8.832 0 16 7.168 16 16s-7.168 16-16 16h-80c-8.832 0-16-7.168-16-16s7.168-16 16-16z" />
<glyph unicode="&#xe61c;" d="M256 368c-79.4 0-144-64.6-144-144s64.6-144 144-144 144 64.6 144 144-64.6 144-144 144zM256 112c-61.76 0-112 50.24-112 112s50.24 112 112 112 112-50.24 112-112-50.24-112-112-112zM240 464v-64c0-8.832 7.168-16 16-16s16 7.168 16 16v64c0 8.832-7.168 16-16 16s-16-7.168-16-16zM256 64c-8.832 0-16-7.168-16-16v-64c0-8.832 7.168-16 16-16s16 7.168 16 16v64c0 8.832-7.168 16-16 16zM496 240h-64c-8.832 0-16-7.168-16-16s7.168-16 16-16h64c8.832 0 16 7.168 16 16s-7.168 16-16 16zM96 224c0 8.832-7.168 16-16 16h-64c-8.832 0-16-7.168-16-16s7.168-16 16-16h64c8.832 0 16 7.168 16 16zM404.688 395.312l-32-32c-6.248-6.248-6.248-16.376 0-22.624 3.12-3.128 7.216-4.688 11.312-4.688s8.192 1.56 11.312 4.688l32 32c6.248 6.248 6.248 16.376 0 22.624-6.24 6.248-16.384 6.248-22.624 0zM116.688 107.312l-32-32c-6.248-6.248-6.248-16.376 0-22.624 3.12-3.128 7.216-4.688 11.312-4.688s8.192 1.56 11.312 4.688l32 32c6.248 6.248 6.248 16.376 0 22.624-6.24 6.248-16.384 6.248-22.624 0zM395.312 107.312c-6.24 6.248-16.384 6.248-22.624 0-6.248-6.248-6.248-16.376 0-22.624l32-32c3.12-3.128 7.216-4.688 11.312-4.688s8.192 1.56 11.312 4.688c6.248 6.248 6.248 16.376 0 22.624l-32 32zM84.688 395.312c-6.248-6.248-6.248-16.376 0-22.624l32-32c3.12-3.128 7.216-4.688 11.312-4.688s8.192 1.56 11.312 4.688c6.248 6.248 6.248 16.376 0 22.624l-32 32c-6.24 6.248-16.384 6.248-22.624 0z" />
<glyph unicode="&#xe61d;" d="M331.312 92.688c6.248 6.248 6.248 16.376 0 22.624-6.248 6.248-16.376 6.248-22.624 0l-45.808-45.8 48-32-18.192-18.2c-6.248-6.248-6.248-16.376 0-22.624 3.128-3.128 7.216-4.688 11.312-4.688s8.184 1.56 11.312 4.688l45.808 45.8-48 32 18.192 18.2zM203.312 92.688c6.248 6.248 6.248 16.376 0 22.624-6.248 6.248-16.376 6.248-22.624 0l-45.808-45.8 48-32-18.192-18.2c-6.248-6.248-6.248-16.376 0-22.624 3.128-3.128 7.216-4.688 11.312-4.688s8.184 1.56 11.312 4.688l45.808 45.8-48 32 18.192 18.2zM447.408 294.512c-7.408 90.28-83.248 161.488-175.408 161.488-81.792 0-152.336-53.080-172.728-128h-3.272c-52.936 0-96-43.064-96-96s43.064-96 96-96h336c44.112 0 80 35.888 80 80 0 38.84-27.832 71.312-64.592 78.512zM432 168h-336c-35.288 0-64 28.712-64 64s28.712 64 64 64h16c7.696 0 14.304 5.48 15.728 13.040 12.52 66.616 73.192 114.96 144.272 114.96 79.4 0 144-64.6 144-144 0-8.832 7.168-16 16-16 26.472 0 48-21.528 48-48s-21.528-48-48-48z" />
<glyph unicode="&#xe61e;" d="M16 256h192c8.832 0 16 7.168 16 16v192c0 8.832-7.168 16-16 16h-192c-8.832 0-16-7.168-16-16v-192c0-8.832 7.168-16 16-16zM32 448h160v-160h-160v160zM512 464c0 8.832-7.168 16-16 16h-192c-8.832 0-16-7.168-16-16v-192c0-8.832 7.168-16 16-16h192c8.832 0 16 7.168 16 16v192zM480 288h-160v160h160v-160zM16-32h200c8.832 0 16 7.168 16 16v200c0 8.832-7.168 16-16 16h-200c-8.832 0-16-7.168-16-16v-200c0-8.832 7.168-16 16-16zM32 168h168v-168h-168v168zM496 192h-192c-8.832 0-16-7.168-16-16v-192c0-8.832 7.168-16 16-16h192c8.832 0 16 7.168 16 16v192c0 8.832-7.168 16-16 16zM480 0h-160v160h160v-160z" />
<glyph unicode="&#xe61f;" d="M493.88 447.856l-237.88-31.712-237.88 31.712c-4.616 0.64-9.192-0.776-12.656-3.816s-5.464-7.432-5.464-12.040v-384c0-8.016 5.936-14.8 13.88-15.856l240-32c0.704-0.096 1.416-0.144 2.12-0.144s1.416 0.048 2.12 0.144l240 32c7.944 1.056 13.88 7.84 13.88 15.856v384c0 4.608-1.992 9-5.464 12.040s-8.040 4.408-12.656 3.816zM32 413.728l208-27.736v-351.72l-208 27.736v351.72zM480 62.008l-208-27.736v351.72l208 27.736v-351.72zM78.016 336.128l128-16c0.672-0.088 1.344-0.128 2.008-0.128 7.944 0 14.84 5.92 15.848 14.016 1.096 8.768-5.128 16.768-13.888 17.856l-128 16c-8.744 1.12-16.768-5.12-17.856-13.888-1.096-8.768 5.12-16.768 13.888-17.856zM209.984 271.872l-128 16c-8.744 1.152-16.768-5.12-17.856-13.888-1.096-8.768 5.128-16.768 13.888-17.856l128-16c0.672-0.088 1.344-0.128 2.008-0.128 7.944 0 14.84 5.92 15.848 14.016 1.096 8.768-5.12 16.768-13.888 17.856zM209.984 191.872l-128 16c-8.744 1.136-16.768-5.12-17.856-13.888-1.096-8.768 5.128-16.768 13.888-17.856l128-16c0.672-0.088 1.344-0.128 2.008-0.128 7.944 0 14.84 5.92 15.848 14.016 1.096 8.768-5.12 16.768-13.888 17.856zM209.984 111.872l-128 16c-8.744 1.12-16.768-5.12-17.856-13.888-1.096-8.768 5.128-16.768 13.888-17.856l128-16c0.672-0.088 1.344-0.128 2.008-0.128 7.944 0 14.84 5.92 15.848 14.016 1.096 8.768-5.12 16.768-13.888 17.856zM303.976 320c0.664 0 1.336 0.040 2.008 0.128l128 16c8.768 1.096 14.984 9.096 13.888 17.856-1.096 8.776-9.184 15.008-17.856 13.888l-128-16c-8.768-1.096-14.984-9.096-13.888-17.856 1.008-8.096 7.904-14.016 15.848-14.016zM303.976 240c0.664 0 1.336 0.040 2.008 0.128l128 16c8.768 1.096 14.984 9.096 13.888 17.856-1.096 8.776-9.184 15.040-17.856 13.888l-128-16c-8.768-1.096-14.984-9.096-13.888-17.856 1.008-8.096 7.904-14.016 15.848-14.016zM303.976 160c0.664 0 1.336 0.040 2.008 0.128l128 16c8.768 1.096 14.984 9.096 13.888 17.856-1.096 8.776-9.184 15.024-17.856 13.888l-128-16c-8.768-1.096-14.984-9.096-13.888-17.856 1.008-8.096 7.904-14.016 15.848-14.016zM430.016 127.872l-128-16c-8.768-1.096-14.984-9.096-13.888-17.856 1.008-8.096 7.904-14.016 15.848-14.016 0.664 0 1.336 0.040 2.008 0.128l128 16c8.768 1.096 14.984 9.096 13.888 17.856-1.088 8.776-9.184 15.008-17.856 13.888z" />
<glyph unicode="&#xe620;" d="M384 480h-256c-8.832 0-16-7.168-16-16v-480c0-8.832 7.168-16 16-16h256c8.832 0 16 7.168 16 16v480c0 8.832-7.168 16-16 16zM368 0h-224v448h224v-448zM264 64h-16c-8.832 0-16-7.168-16-16s7.168-16 16-16h16c8.832 0 16 7.168 16 16s-7.168 16-16 16zM200 384h112c8.832 0 16 7.168 16 16s-7.168 16-16 16h-112c-8.832 0-16-7.168-16-16s7.168-16 16-16z" />
<glyph unicode="&#xe621;" d="M496 480h-480c-8.832 0-16-7.168-16-16v-480c0-8.832 7.168-16 16-16h480c8.832 0 16 7.168 16 16v480c0 8.832-7.168 16-16 16zM480 0h-448v448h448v-448zM80 352h32v-304c0-8.832 7.168-16 16-16s16 7.168 16 16v304h32c8.832 0 16 7.168 16 16s-7.168 16-16 16h-32v16c0 8.832-7.168 16-16 16s-16-7.168-16-16v-16h-32c-8.832 0-16-7.168-16-16s7.168-16 16-16zM336 64h32v-16c0-8.832 7.168-16 16-16s16 7.168 16 16v16h32c8.832 0 16 7.168 16 16s-7.168 16-16 16h-32v304c0 8.832-7.168 16-16 16s-16-7.168-16-16v-304h-32c-8.832 0-16-7.168-16-16s7.168-16 16-16zM208 208h32v-160c0-8.832 7.168-16 16-16s16 7.168 16 16v160h32c8.832 0 16 7.168 16 16s-7.168 16-16 16h-32v160c0 8.832-7.168 16-16 16s-16-7.168-16-16v-160h-32c-8.832 0-16-7.168-16-16s7.168-16 16-16z" />
<glyph unicode="&#xe622;" d="M0 400c0-8.832 7.168-16 16-16h49.328l30.672-353.384c0-0.024 0-0.040 0-0.056 0-34.624 29.16-62.56 63.968-62.56 29.752 0 54.792 20.448 61.92 48h68.216c7.136-27.552 32.136-48 61.888-48 35.288 0 64 28.712 64 64s-28.712 64-64 64c-29.76 0-54.76-20.448-61.888-48h-68.216c-7.136 27.552-32.136 48-61.888 48-13.568 0-26.144-4.272-36.504-11.504l-4.488 51.6c0.328-0.016 0.64-0.096 0.976-0.096 0.264 0 0.528 0.008 0.8 0.016l328 16c6.84 0.336 12.72 5 14.6 11.584l48 168c1.384 4.832 0.416 10.024-2.608 14.032s-7.752 6.368-12.776 6.368h-395.768l-4.296 49.384c-0.72 8.272-7.64 14.616-15.936 14.616h-64c-8.832 0-16-7.168-16-16zM352 64c17.648 0 32-14.352 32-32s-14.352-32-32-32-32 14.352-32 32 14.352 32 32 32zM160 64c17.648 0 32-14.352 32-32s-14.352-32-32-32-32 14.352-32 32 14.352 32 32 32zM474.792 320l-39.024-136.576-316.544-15.44c-1.016-0.048-1.992-0.216-2.944-0.448l-13.264 152.464h371.776z" />
<glyph unicode="&#xe623;" d="M0 400c0-8.832 7.168-16 16-16h49.328l30.672-353.384c0-0.024 0-0.040 0-0.056 0-34.624 29.16-62.56 63.968-62.56 29.752 0 54.792 20.448 61.92 48h68.216c7.136-27.552 32.136-48 61.888-48 35.288 0 64 28.712 64 64s-28.712 64-64 64c-29.76 0-54.76-20.448-61.888-48h-68.216c-7.136 27.552-32.136 48-61.888 48-13.568 0-26.144-4.272-36.504-11.504l-4.488 51.6c0.328-0.016 0.64-0.096 0.976-0.096 0.264 0 0.528 0.008 0.8 0.016l328 16c6.84 0.336 12.72 5 14.6 11.584l48 168c1.384 4.832 0.416 10.024-2.608 14.032s-7.752 6.368-12.776 6.368h-51.928l-28.688 100.4c-1.96 6.864-8.24 11.6-15.384 11.6h-112c-4.24 0-8.312-1.688-11.312-4.688l-43.312-43.312h-73.376c-7.344 0-13.744-5-15.52-12.12l-12.976-51.88h-31.272l-4.296 49.384c-0.72 8.272-7.64 14.616-15.936 14.616h-64c-8.832 0-16-7.168-16-16zM352 64c17.648 0 32-14.352 32-32s-14.352-32-32-32-32 14.352-32 32 14.352 32 32 32zM160 64c17.648 0 32-14.352 32-32s-14.352-32-32-32-32 14.352-32 32 14.352 32 32 32zM294.624 432h93.304l22.856-80h-142.288l-10.776 43.096 36.904 36.904zM172.496 384h55.016l8-32h-71.016l8 32zM431.944 320c0.016 0 0.032 0 0.048 0s0.040 0 0.056 0h42.744l-39.024-136.576-316.544-15.44c-1.016-0.048-1.992-0.216-2.944-0.448l-13.264 152.464h328.928z" />
<glyph unicode="&#xe624;" d="M384-32c8.832 0 16 7.168 16 16v344c0 4.24-1.688 8.312-4.688 11.312l-136 136c-6.24 6.248-16.384 6.248-22.624 0l-136-136c-3-3-4.688-7.072-4.688-11.312v-344c0-8.832 7.168-16 16-16h272zM128 321.368l120 120 120-120v-321.368h-240v321.368z" />
<glyph unicode="&#xe625;" d="M16 72h344c4.24 0 8.312 1.688 11.312 4.688l136 136c6.248 6.248 6.248 16.376 0 22.624l-136 136c-3 3-7.072 4.688-11.312 4.688h-344c-8.832 0-16-7.168-16-16v-272c0-8.832 7.168-16 16-16zM32 344h321.368l120-120-120-120h-321.368v240z" />
<glyph unicode="&#xe626;" d="M140.688 76.688c3-3 7.072-4.688 11.312-4.688h344c8.832 0 16 7.168 16 16v272c0 8.832-7.168 16-16 16h-344c-4.24 0-8.312-1.688-11.312-4.688l-136-136c-6.248-6.248-6.248-16.376 0-22.624l136-136zM158.632 344h321.368v-240h-321.368l-120 120 120 120z" />
<glyph unicode="&#xe627;" d="M248-32c4.096 0 8.192 1.56 11.312 4.688l136 136c3 3 4.688 7.072 4.688 11.312v344c0 8.832-7.168 16-16 16h-272c-8.832 0-16-7.168-16-16v-344c0-4.24 1.688-8.312 4.688-11.312l136-136c3.12-3.128 7.216-4.688 11.312-4.688zM128 448h240v-321.368l-120-120-120 120v321.368z" />
<glyph unicode="&#xe628;" d="M96 48c30.904 0 58.376 14.744 75.944 37.504l132.976-49c5.608-38.672 38.888-68.504 79.080-68.504 44.112 0 80 35.888 80 80s-35.888 80-80 80c-36.544 0-67.376-24.664-76.904-58.192l-119.96 44.192c3.112 9.448 4.864 19.52 4.864 30 0 20.176-6.288 38.896-16.96 54.36l147.792 88.672c20.104-19.176 47.256-31.032 77.168-31.032 61.76 0 112 50.24 112 112s-50.24 112-112 112-112-50.24-112-112c0-20.24 5.48-39.192 14.904-55.592l-150.936-90.568c-15.784 11.376-35.080 18.16-55.968 18.16-52.936 0-96-43.064-96-96s43.064-96 96-96zM384 96c26.472 0 48-21.528 48-48s-21.528-48-48-48-48 21.528-48 48 21.528 48 48 48zM400 448c44.112 0 80-35.888 80-80s-35.888-80-80-80-80 35.888-80 80 35.888 80 80 80zM96 208c35.288 0 64-28.712 64-64s-28.712-64-64-64-64 28.712-64 64 28.712 64 64 64z" />
<glyph unicode="&#xe629;" d="M16 160h52.472l9.224-27.68-41.008-41.008c-6.248-6.248-6.248-16.376 0-22.624l64-64c6.24-6.248 16.384-6.248 22.624 0l41.008 41.008 27.68-9.224v-52.472c0-8.832 7.168-16 16-16h96c8.832 0 16 7.168 16 16v52.472l27.68 9.224 41.008-41.008c6.24-6.248 16.384-6.248 22.624 0l64 64c6.248 6.248 6.248 16.376 0 22.624l-41.008 41.008 9.224 27.68h52.472c8.832 0 16 7.168 16 16v96c0 8.832-7.168 16-16 16h-52.472l-9.224 27.68 41.008 41.008c6.248 6.248 6.248 16.376 0 22.624l-64 64c-6.24 6.248-16.384 6.248-22.624 0l-41.008-41.008-27.68 9.224v52.472c0 8.832-7.168 16-16 16h-96c-8.832 0-16-7.168-16-16v-52.472l-27.68-9.224-41.008 41.008c-6.24 6.248-16.384 6.248-22.624 0l-64-64c-6.248-6.248-6.248-16.376 0-22.624l41.008-41.008-9.224-27.68h-52.472c-8.832 0-16-7.168-16-16v-96c0-8.832 7.168-16 16-16zM32 256h48c6.888 0 13 4.408 15.176 10.944l16 48c1.912 5.752 0.416 12.088-3.864 16.368l-36.68 36.688 41.368 41.368 36.688-36.68c4.28-4.288 10.624-5.776 16.368-3.864l48 16c6.536 2.176 10.944 8.288 10.944 15.176v48h64v-48c0-6.888 4.408-13 10.944-15.176l48-16c5.76-1.92 12.088-0.424 16.368 3.864l36.688 36.68 41.368-41.368-36.68-36.688c-4.288-4.288-5.784-10.624-3.864-16.368l16-48c2.176-6.536 8.288-10.944 15.176-10.944h48v-64h-48c-6.888 0-13-4.408-15.176-10.944l-16-48c-1.912-5.752-0.416-12.088 3.864-16.368l36.68-36.688-41.368-41.368-36.688 36.68c-4.288 4.288-10.624 5.792-16.368 3.864l-48-16c-6.536-2.176-10.944-8.288-10.944-15.176v-48h-64v48c0 6.888-4.408 13-10.944 15.176l-48 16c-5.736 1.912-12.088 0.416-16.368-3.864l-36.688-36.68-41.368 41.368 36.68 36.688c4.288 4.288 5.784 10.624 3.864 16.368l-16 48c-2.176 6.536-8.288 10.944-15.176 10.944h-48v64zM256 160c35.288 0 64 28.712 64 64s-28.712 64-64 64-64-28.712-64-64 28.712-64 64-64zM256 256c17.648 0 32-14.352 32-32s-14.352-32-32-32-32 14.352-32 32 14.352 32 32 32z" />
<glyph unicode="&#xe62a;" d="M363.312 203.312c-6.24 6.248-16.384 6.248-22.624 0l-12.688-12.688-25.376 25.376 56 56h25.376c62.808 0 96 38.728 96 112 0 5.544-2.872 10.696-7.592 13.608-4.712 2.92-10.608 3.184-15.568 0.704l-53.68-26.84-15.688 15.688 26.84 53.68c2.48 4.96 2.216 10.848-0.704 15.568-2.912 4.72-8.064 7.592-13.608 7.592-73.272 0-112-33.192-112-96v-25.368l-56-56-89.376 89.368 12.688 12.688c3.488 3.488 5.168 8.376 4.568 13.264-0.6 4.888-3.424 9.232-7.648 11.768l-80 48c-6.288 3.784-14.352 2.784-19.544-2.408l-16-16c-5.192-5.192-6.184-13.248-2.408-19.544l48-80c2.536-4.224 6.872-7.048 11.768-7.648 0.648-0.080 1.304-0.12 1.952-0.12 4.216 0 8.296 1.664 11.312 4.688l12.688 12.688 89.376-89.376-188.688-188.688c-1.76-1.752-3.080-3.896-3.864-6.256l-16-48c-1.912-5.752-0.416-12.088 3.864-16.368l16-16c3.048-3.048 7.136-4.688 11.312-4.688 1.688 0 3.4 0.272 5.056 0.824l48 16c2.36 0.784 4.496 2.112 6.256 3.864l188.688 188.688 25.376-25.376-12.688-12.688c-6.248-6.248-6.248-16.376 0-22.624l144-144c3.12-3.128 7.216-4.688 11.312-4.688s8.192 1.56 11.312 4.688l48 48c6.248 6.248 6.248 16.376 0 22.624l-144 144zM99.176 377.808l-28.528 47.544 47.544-28.528-19.016-19.016zM71.352 29.984l-35.032-11.68-2.016 2.016 11.68 35.032 269.328 269.336c3 3 4.688 7.072 4.688 11.312v32c0 27.080 6.96 54.68 53.152 62.080l-19.464-38.928c-3.080-6.16-1.872-13.6 3-18.472l32-32c4.872-4.872 12.32-6.080 18.472-3l38.928 19.464c-7.408-46.184-35.008-53.144-62.088-53.144h-32c-4.24 0-8.312-1.688-11.312-4.688l-269.336-269.328zM448 22.632l-121.368 121.368 25.368 25.368 121.368-121.368-25.368-25.368z" />
<glyph unicode="&#xe62b;" d="M240 464c0-8.832 7.168-16 16-16 59.832 0 116.080-23.304 158.384-65.616 42.312-42.304 65.616-98.552 65.616-158.384 0-59.048-22.736-114.584-64-156.696v44.696c0 8.832-7.168 16-16 16s-16-7.168-16-16v-96h96c8.832 0 16 7.168 16 16s-7.168 16-16 16h-38.208c45.288 47.744 70.208 109.944 70.208 176 0 68.376-26.632 132.664-74.992 181.016-48.344 48.352-112.632 74.984-181.008 74.984-8.832 0-16-7.168-16-16zM74.992 42.984c48.344-48.352 112.632-74.984 181.008-74.984 8.832 0 16 7.168 16 16s-7.168 16-16 16c-59.832 0-116.080 23.304-158.384 65.616-42.312 42.304-65.616 98.552-65.616 158.384 0 59.048 22.736 114.584 64 156.696v-44.696c0-8.832 7.168-16 16-16s16 7.168 16 16v96h-96c-8.832 0-16-7.168-16-16s7.168-16 16-16h38.208c-45.288-47.744-70.208-109.944-70.208-176 0-68.376 26.632-132.664 74.992-181.016z" />
<glyph unicode="&#xe62c;" d="M187.312 123.312c-6.248 6.248-16.376 6.248-22.624 0l-48-48c-6.248-6.248-6.248-16.376 0-22.624 3.128-3.128 7.216-4.688 11.312-4.688s8.184 1.56 11.312 4.688l48 48c6.248 6.248 6.248 16.376 0 22.624zM372.688 123.312l-64-64c-6.248-6.248-6.248-16.376 0-22.624 3.128-3.128 7.216-4.688 11.312-4.688s8.184 1.56 11.312 4.688l64 64c6.248 6.248 6.248 16.376 0 22.624-6.248 6.248-16.376 6.248-22.624 0zM268.688 123.312l-112-112c-6.248-6.248-6.248-16.376 0-22.624 3.128-3.128 7.216-4.688 11.312-4.688s8.184 1.56 11.312 4.688l112 112c6.248 6.248 6.248 16.376 0 22.624-6.248 6.248-16.376 6.248-22.624 0zM447.408 302.512c-7.408 90.28-83.248 161.488-175.408 161.488-81.792 0-152.336-53.080-172.728-128h-3.272c-52.936 0-96-43.064-96-96s43.064-96 96-96h336c44.112 0 80 35.888 80 80 0 38.84-27.832 71.312-64.592 78.512zM432 176h-336c-35.288 0-64 28.712-64 64s28.712 64 64 64h16c7.696 0 14.304 5.48 15.728 13.040 12.52 66.616 73.192 114.96 144.272 114.96 79.4 0 144-64.6 144-144 0-8.832 7.168-16 16-16 26.472 0 48-21.528 48-48s-21.528-48-48-48z" />
<glyph unicode="&#xe62d;" d="M256 144c66.168 0 120 68.184 120 152s-53.832 152-120 152-120-68.184-120-152 53.832-152 120-152zM256 416c47.704 0 88-54.952 88-120s-40.296-120-88-120-88 54.952-88 120 40.296 120 88 120zM32.824 117.064l-32-96c-1.624-4.88-0.808-10.24 2.2-14.416 3-4.176 7.832-6.648 12.976-6.648h480c5.144 0 9.976 2.472 12.976 6.648 3.008 4.168 3.832 9.528 2.2 14.416l-32 96c-1.672 5.008-5.704 8.864-10.784 10.32l-112 32c-3.856 1.112-7.968 0.72-11.552-1.072l-88.84-44.424-88.84 44.424c-3.584 1.792-7.696 2.176-11.552 1.072l-112-32c-5.088-1.456-9.112-5.312-10.784-10.32zM158.416 126.904l90.432-45.216c4.496-2.248 9.816-2.248 14.312 0l90.432 45.216 97.904-27.968 22.312-66.936h-435.616l22.312 66.936 97.912 27.968z" />
<glyph unicode="&#xe62e;" d="M256 144c69.384 0 128 69.608 128 152s-58.616 152-128 152-128-69.608-128-152 58.616-152 128-152zM256 416c52.040 0 96-54.952 96-120s-43.96-120-96-120-96 54.952-96 120 43.96 120 96 120zM32.824 117.064l-32-96c-1.624-4.88-0.808-10.24 2.2-14.416 3-4.176 7.832-6.648 12.976-6.648h480c5.144 0 9.976 2.472 12.976 6.648 3.008 4.168 3.832 9.528 2.2 14.416l-32 96c-1.672 5.008-5.704 8.864-10.784 10.32l-112 32c-3.856 1.112-7.968 0.72-11.552-1.072l-88.84-44.424-88.84 44.424c-3.584 1.792-7.696 2.176-11.552 1.072l-112-32c-5.088-1.456-9.112-5.312-10.784-10.32zM158.416 126.904l90.432-45.216c4.496-2.248 9.816-2.248 14.312 0l90.432 45.216 97.904-27.968 22.312-66.936h-435.616l22.312 66.936 97.912 27.968zM388.688 356.688c3.128-3.128 7.216-4.688 11.312-4.688s8.184 1.56 11.312 4.688l28.688 28.688 28.688-28.688c3.128-3.128 7.216-4.688 11.312-4.688s8.184 1.56 11.312 4.688c6.248 6.248 6.248 16.376 0 22.624l-28.688 28.688 28.688 28.688c6.248 6.248 6.248 16.376 0 22.624s-16.376 6.248-22.624 0l-28.688-28.688-28.688 28.688c-6.248 6.248-16.376 6.248-22.624 0s-6.248-16.376 0-22.624l28.688-28.688-28.688-28.688c-6.248-6.248-6.248-16.376 0-22.624z" />
<glyph unicode="&#xe62f;" d="M256 144c69.384 0 128 69.608 128 152s-58.616 152-128 152-128-69.608-128-152 58.616-152 128-152zM256 416c52.040 0 96-54.952 96-120s-43.96-120-96-120-96 54.952-96 120 43.96 120 96 120zM32.824 117.064l-32-96c-1.624-4.88-0.808-10.24 2.2-14.416 3-4.176 7.832-6.648 12.976-6.648h480c5.144 0 9.976 2.472 12.976 6.648 3.008 4.168 3.832 9.528 2.2 14.416l-32 96c-1.672 5.008-5.704 8.864-10.784 10.32l-112 32c-3.856 1.112-7.968 0.72-11.552-1.072l-88.84-44.424-88.84 44.424c-3.584 1.792-7.696 2.176-11.552 1.072l-112-32c-5.088-1.456-9.112-5.312-10.784-10.32zM158.416 126.904l90.432-45.216c4.496-2.248 9.816-2.248 14.312 0l90.432 45.216 97.904-27.968 22.312-66.936h-435.616l22.312 66.936 97.912 27.968zM496 432h-32v32c0 8.832-7.168 16-16 16s-16-7.168-16-16v-32h-32c-8.832 0-16-7.168-16-16s7.168-16 16-16h32v-32c0-8.832 7.168-16 16-16s16 7.168 16 16v32h32c8.832 0 16 7.168 16 16s-7.168 16-16 16z" />
<glyph unicode="&#xe630;" d="M16 48h96v-64c0-8.832 7.168-16 16-16h256c8.832 0 16 7.168 16 16v64h96c8.832 0 16 7.168 16 16v256c0 8.832-7.168 16-16 16h-96v128c0 8.832-7.168 16-16 16h-256c-8.832 0-16-7.168-16-16v-128h-96c-8.832 0-16-7.168-16-16v-256c0-8.832 7.168-16 16-16zM368 0h-224v160h224v-160zM144 448h224v-112h-224v112zM32 304h448v-224h-80v96c0 8.832-7.168 16-16 16h-256c-8.832 0-16-7.168-16-16v-96h-80v224zM91.28 275.28c-5.92 6-16.64 6-22.56 0-3.040-2.96-4.72-7.040-4.72-11.28 0-4.16 1.68-8.32 4.72-11.36 2.96-2.96 7.040-4.64 11.28-4.64s8.32 1.68 11.36 4.72c2.96 2.96 4.64 7.12 4.64 11.28 0 4.24-1.68 8.32-4.72 11.28zM128 248c4.24 0 8.32 1.68 11.28 4.72 3.040 2.96 4.72 7.12 4.72 11.28s-1.68 8.32-4.72 11.36c-5.92 5.92-16.64 5.92-22.56-0.080-3.040-2.96-4.72-7.040-4.72-11.28 0-4.16 1.68-8.32 4.72-11.36 2.96-2.96 7.040-4.64 11.28-4.64zM336 128h-160c-8.832 0-16-7.168-16-16s7.168-16 16-16h160c8.832 0 16 7.168 16 16s-7.168 16-16 16zM336 64h-160c-8.832 0-16-7.168-16-16s7.168-16 16-16h160c8.832 0 16 7.168 16 16s-7.168 16-16 16z" />
<glyph unicode="&#xe631;" d="M196.688-27.312c3.12-3.128 7.216-4.688 11.312-4.688s8.192 1.56 11.312 4.688l288 288c3 3 4.688 7.072 4.688 11.312v192c0 8.832-7.168 16-16 16h-192c-4.24 0-8.312-1.688-11.312-4.688l-288-288c-6.248-6.248-6.248-16.376 0-22.624l192-192zM310.632 448h169.368v-169.376l-272-272-169.368 169.376 272 272zM376 280c35.288 0 64 28.712 64 64s-28.712 64-64 64-64-28.712-64-64 28.712-64 64-64zM376 376c17.648 0 32-14.352 32-32s-14.352-32-32-32-32 14.352-32 32 14.352 32 32 32z" />
<glyph unicode="&#xe632;" d="M16 48h480c8.832 0 16 7.168 16 16v48c0 8.832-7.168 16-16 16h-32v256c0 8.832-7.168 16-16 16h-384c-8.832 0-16-7.168-16-16v-256h-32c-8.832 0-16-7.168-16-16v-48c0-8.832 7.168-16 16-16zM80 368h352v-240h-352v240zM32 96h448v-16h-448v16zM244.64 347.36c-2.96-3.040-4.64-7.192-4.64-11.36 0-4.24 1.68-8.32 4.72-11.28 2.96-3.040 7.040-4.72 11.28-4.72s8.32 1.68 11.36 4.72c2.96 2.96 4.64 7.12 4.64 11.28 0 4.168-1.68 8.32-4.72 11.36-5.92 5.92-16.64 5.92-22.64 0z" />
<glyph unicode="&#xe633;" d="M256 480c-68.384 0-132.672-26.64-181.016-74.992-48.36-48.344-74.992-112.632-74.992-181.008s26.632-132.664 74.992-181.008c48.344-48.36 112.632-74.992 181.016-74.992 68.376 0 132.664 26.64 181.016 74.992 48.36 48.352 74.992 112.632 74.992 181.008s-26.632 132.664-74.992 181.008c-48.352 48.36-112.64 74.992-181.016 74.992zM414.392 65.616c-42.312-42.312-98.56-65.616-158.392-65.616s-116.088 23.304-158.392 65.624c-42.312 42.304-65.616 98.544-65.616 158.376s23.304 116.072 65.616 158.384c42.304 42.312 98.56 65.616 158.392 65.616 59.832 0 116.080-23.304 158.392-65.624 42.312-42.304 65.616-98.552 65.616-158.376s-23.304-116.072-65.616-158.384zM400 240h-128v128c0 8.832-7.168 16-16 16s-16-7.168-16-16v-128h-128c-8.832 0-16-7.168-16-16s7.168-16 16-16h128v-128c0-8.832 7.168-16 16-16s16 7.168 16 16v128h128c8.832 0 16 7.168 16 16s-7.168 16-16 16z" />
<glyph unicode="&#xe634;" d="M25.288-26.856c3.768 0 7.744 0.92 11.832 2.736l114.768 51.008c9.872 4.392 23.096 13.472 30.744 21.12l313.368 313.36c6.032 6.032 9.36 14.072 9.36 22.632s-3.328 16.6-9.36 22.624l-57.376 57.384c-6.032 6.024-14.064 9.344-22.624 9.344s-16.592-3.32-22.624-9.352l-321.376-321.368c-7.744-7.736-16.72-21.208-20.896-31.336l-43.808-106.408c-4.752-11.552-1.392-19.36 1.032-22.984 3.728-5.568 9.912-8.76 16.96-8.76zM160 70.632c0 0 0-0.008 0 0l-57.376 57.368 265.376 265.376 57.376-57.376-265.376-265.368zM416 441.376l57.376-57.376-25.376-25.376-57.376 57.376 25.376 25.376zM80.704 99.112c0.472 1.136 1.104 2.424 1.808 3.752l49.704-49.704-86.208-38.304 34.696 84.256z" />
<glyph unicode="&#xe635;" d="M20.816 472.256c-10.024 0-20.816-7.584-20.816-24.256v-448c0-17.648 14.352-32 32-32h448c15.6 0 21.112 9.232 22.76 13.2 1.64 3.968 4.272 14.392-6.76 25.424l-457.376 457.376c-6.824 6.832-13.456 8.256-17.808 8.256zM32 0v32h32c8.832 0 16 7.168 16 16s-7.168 16-16 16h-32v32h16c8.832 0 16 7.168 16 16s-7.168 16-16 16h-16v32h32c8.832 0 16 7.168 16 16s-7.168 16-16 16h-32v32h16c8.832 0 16 7.168 16 16s-7.168 16-16 16h-16v32h32c8.832 0 16 7.168 16 16s-7.168 16-16 16h-32v104l425.352-424h-425.352zM128 32h192c15.6 0 21.112 9.232 22.76 13.2 1.64 3.968 4.272 14.392-6.76 25.424l-201.376 201.376c-6.832 6.832-13.456 8.256-17.816 8.256-10.016 0-20.808-7.584-20.808-24.256v-192c0-17.648 14.352-32 32-32zM128.008 233.36l169.352-169.36h-169.36l0.008 169.36zM443.648 108.592l32.952-8.232c2.528-0.632 5.056-0.952 7.504-0.952 0 0 0 0 0.008 0 7.8 0 14.856 3.312 19.376 9.096 4.832 6.176 6.304 14.312 4.16 22.896l-8.232 32.952c-2.824 11.296-11.168 26.032-19.408 34.272l-265.384 265.376c-6.032 6.032-14.064 9.352-22.624 9.352s-16.592-3.32-22.624-9.352l-25.376-25.376c-12.48-12.48-12.48-32.776 0-45.248l265.376-265.376c8.24-8.24 22.976-16.584 34.272-19.408zM468.36 156.6l5.648-22.608-22.608 5.648c-5.768 1.44-15.184 6.784-19.4 10.984l-217.376 217.376 25.376 25.376 217.376-217.376c4.2-4.208 9.544-13.632 10.984-19.4zM192 441.376l25.376-25.376-25.376-25.376-25.376 25.376 25.376 25.376z" />
<glyph unicode="&#xe636;" d="M280-32c17.648 0 32 14.352 32 32v448c0 17.648-14.352 32-32 32h-96c-17.648 0-32-14.352-32-32v-448c0-17.648 14.352-32 32-32h96zM184 448h96v-48h-48c-8.832 0-16-7.168-16-16s7.168-16 16-16h48v-48h-8c-8.832 0-16-7.168-16-16s7.168-16 16-16h8v-48h-48c-8.832 0-16-7.168-16-16s7.168-16 16-16h48v-48h-8c-8.832 0-16-7.168-16-16s7.168-16 16-16h8v-48h-48c-8.832 0-16-7.168-16-16s7.168-16 16-16h48v-48h-96v448zM72-23.592c8.952 0 16.784 5.376 21.472 14.752l17.688 35.376c5.032 10.080 8.84 26.192 8.84 37.464v368c0 17.648-14.352 32-32 32h-32c-17.648 0-32-14.352-32-32v-368c0-11.272 3.808-27.384 8.84-37.472l17.688-35.376c4.688-9.368 12.52-14.744 21.472-14.744zM82.528 40.84l-10.528-21.056-10.528 21.064c-2.816 5.616-5.472 16.872-5.472 23.152v288h32v-288c0-6.28-2.656-17.536-5.472-23.16zM88 432v-48h-32v48h32zM431.16 421.472l-17.688 35.376c-4.688 9.368-12.52 14.744-21.472 14.744s-16.784-5.376-21.472-14.752l-17.688-35.376c-5.032-10.080-8.84-26.192-8.84-37.464v-368c0-17.648 14.352-32 32-32h32c17.648 0 32 14.352 32 32h16c17.648 0 32 14.352 32 32v64c0 8.832-7.168 16-16 16s-16-7.168-16-16v-64h-16v336c0 11.272-3.808 27.384-8.84 37.472zM408 16h-32v368c0 6.28 2.656 17.536 5.472 23.16l10.528 21.056 10.528-21.064c2.816-5.616 5.472-16.872 5.472-23.152v-368z" />
<glyph unicode="&#xe637;" d="M416-32c17.648 0 32 14.352 32 32v448c0 17.648-14.352 32-32 32h-208c-13.104 0-29.344-6.728-38.624-16l-89.376-89.368c-9.272-9.272-16-25.512-16-38.632v-336c0-17.648 14.352-32 32-32h320zM416 448v-448h-320v336h80c17.648 0 32 14.352 32 32v80h208zM176 425.376v-57.376h-57.376l57.376 57.376zM256 352h96c8.832 0 16 7.168 16 16s-7.168 16-16 16h-96c-8.832 0-16-7.168-16-16s7.168-16 16-16zM352 304h-192c-8.832 0-16-7.168-16-16s7.168-16 16-16h192c8.832 0 16 7.168 16 16s-7.168 16-16 16zM352 224h-192c-8.832 0-16-7.168-16-16s7.168-16 16-16h192c8.832 0 16 7.168 16 16s-7.168 16-16 16zM352 144h-192c-8.832 0-16-7.168-16-16s7.168-16 16-16h192c8.832 0 16 7.168 16 16s-7.168 16-16 16zM352 64h-192c-8.832 0-16-7.168-16-16s7.168-16 16-16h192c8.832 0 16 7.168 16 16s-7.168 16-16 16z" />
<glyph unicode="&#xe638;" d="M0 16c0-17.648 14.352-32 32-32h288c17.648 0 32 14.352 32 32v320c0 13.12-6.728 29.36-16 38.624l-73.376 73.384c-9.28 9.264-25.52 15.992-38.624 15.992h-192c-17.648 0-32-14.352-32-32v-416zM297.368 368h-41.368v41.376l41.368-41.376zM32 432h192v-64c0-17.648 14.352-32 32-32h64v-320h-288v416zM480 464h-32c-17.648 0-32-14.352-32-32v-368c0-11.272 3.8-27.384 8.84-37.472l17.688-35.376c4.688-9.376 12.512-14.752 21.472-14.752s16.784 5.376 21.472 14.752l17.688 35.376c5.040 10.088 8.84 26.2 8.84 37.472v368c0 17.648-14.352 32-32 32zM480 432v-48h-32v48h32zM474.528 40.84l-10.528-21.056-10.528 21.064c-2.816 5.616-5.472 16.872-5.472 23.152v288h32v-288c0-6.28-2.656-17.536-5.472-23.16zM80 352h88c8.832 0 16 7.168 16 16s-7.168 16-16 16h-88c-8.832 0-16-7.168-16-16s7.168-16 16-16zM272 304h-192c-8.832 0-16-7.168-16-16s7.168-16 16-16h192c8.832 0 16 7.168 16 16s-7.168 16-16 16zM272 240h-192c-8.832 0-16-7.168-16-16s7.168-16 16-16h192c8.832 0 16 7.168 16 16s-7.168 16-16 16zM272 176h-192c-8.832 0-16-7.168-16-16s7.168-16 16-16h192c8.832 0 16 7.168 16 16s-7.168 16-16 16zM272 112h-192c-8.832 0-16-7.168-16-16s7.168-16 16-16h192c8.832 0 16 7.168 16 16s-7.168 16-16 16z" />
<glyph unicode="&#xe639;" d="M424.84 26.528l17.688-35.376c4.688-9.376 12.512-14.752 21.472-14.752s16.784 5.376 21.472 14.752l17.688 35.376c5.040 10.088 8.84 26.2 8.84 37.472v368c0 17.648-14.352 32-32 32h-32c-17.648 0-32-14.352-32-32h-16c-17.648 0-32-14.352-32-32v-64c0-8.832 7.168-16 16-16s16 7.168 16 16v64h16v-336c0-11.272 3.8-27.384 8.84-37.472zM448 432h32v-368c0-6.28-2.656-17.536-5.472-23.16l-10.528-21.056-10.528 21.064c-2.816 5.616-5.472 16.872-5.472 23.152v368zM32-16h288c17.648 0 32 14.352 32 32v320c0 13.12-6.728 29.36-16 38.624l-73.376 73.384c-9.28 9.264-25.52 15.992-38.624 15.992h-192c-17.648 0-32-14.352-32-32v-416c0-17.648 14.352-32 32-32zM297.368 368h-41.368v41.376l41.368-41.376zM32 432h192v-64c0-17.648 14.352-32 32-32h64v-320h-288v416zM80 352h88c8.832 0 16 7.168 16 16s-7.168 16-16 16h-88c-8.832 0-16-7.168-16-16s7.168-16 16-16zM272 304h-192c-8.832 0-16-7.168-16-16s7.168-16 16-16h192c8.832 0 16 7.168 16 16s-7.168 16-16 16zM272 240h-192c-8.832 0-16-7.168-16-16s7.168-16 16-16h192c8.832 0 16 7.168 16 16s-7.168 16-16 16zM272 176h-192c-8.832 0-16-7.168-16-16s7.168-16 16-16h192c8.832 0 16 7.168 16 16s-7.168 16-16 16zM272 112h-192c-8.832 0-16-7.168-16-16s7.168-16 16-16h192c8.832 0 16 7.168 16 16s-7.168 16-16 16z" />
<glyph unicode="&#xe63a;" d="M503.944 301.888c-4.984 2.84-11.104 2.824-16.056-0.104l-111.888-65.808v52.024c0 8.832-7.168 16-16 16h-40.656c15.272 17.008 24.656 39.4 24.656 64 0 52.936-43.064 96-96 96-45.44 0-83.512-31.768-93.416-74.232-9.984 6.44-21.84 10.232-34.584 10.232-35.288 0-64-28.712-64-64 0-11.664 3.184-22.568 8.664-32h-48.664c-8.832 0-16-7.168-16-16v-192c0-7.44 5.128-13.896 12.376-15.584l344-80c1.2-0.272 2.416-0.416 3.624-0.416 3.576 0 7.096 1.2 9.952 3.472 3.824 3.032 6.048 7.648 6.048 12.528v52.024l111.888-65.816c4.944-2.912 11.064-2.944 16.056-0.104 4.984 2.856 8.056 8.152 8.056 13.896v272c0 5.744-3.072 11.040-8.056 13.888zM248 432c35.288 0 64-28.712 64-64s-28.712-64-64-64-64 28.712-64 64 28.704 64 64 64zM176.648 304h-1.312c0.168 0.288 0.36 0.568 0.52 0.856 0.264-0.288 0.528-0.568 0.792-0.856zM88 336c0 17.648 14.352 32 32 32s32-14.352 32-32-14.352-32-32-32-32 14.352-32 32zM480 43.976l-111.888 65.816c-4.952 2.92-11.072 2.952-16.056 0.104-4.984-2.856-8.056-8.152-8.056-13.896v-59.848l-312 72.552v163.296h312v-64c0-5.744 3.072-11.040 8.056-13.888 4.992-2.848 11.112-2.832 16.056 0.104l111.888 65.808v-216.048z" />
<glyph unicode="&#xe63b;" d="M144-32c44.112 0 80 35.888 80 80v227.064l192 41.144v-156.36c-13.392 10.088-29.984 16.152-48 16.152-44.112 0-80-35.888-80-80s35.888-80 80-80 80 35.888 80 80v240.104c0 0.016 0 0.032 0 0.048v127.848c0 4.832-2.184 9.408-5.944 12.44-3.752 3.040-8.696 4.216-13.408 3.2l-224-48c-7.376-1.576-12.648-8.096-12.648-15.64v-128.104c0-0.016 0-0.032 0-0.048v-176c-13.392 10.088-29.984 16.152-48 16.152-44.112 0-80-35.888-80-80s35.888-80 80-80zM368 48c-26.472 0-48 21.528-48 48s21.528 48 48 48 48-21.528 48-48-21.528-48-48-48zM416 444.208v-95.272l-192-41.144v95.272l192 41.144zM144 96c26.472 0 48-21.528 48-48s-21.528-48-48-48-48 21.528-48 48 21.528 48 48 48z" />
<glyph unicode="&#xe63c;" d="M176-32c44.112 0 80 35.888 80 80v228.096l148.6 44.584c6.768 2.024 11.4 8.256 11.4 15.32v128c0 5.056-2.392 9.816-6.448 12.832s-9.312 3.944-14.152 2.488l-160-48c-6.768-2.024-11.4-8.256-11.4-15.32v-127.632c0-0.24 0-0.488 0-0.728v-175.792c-13.392 10.088-29.984 16.152-48 16.152-44.112 0-80-35.888-80-80s35.888-80 80-80zM256 404.096l128 38.4v-94.592l-128-38.4v94.592zM176 96c26.472 0 48-21.528 48-48s-21.528-48-48-48-48 21.528-48 48 21.528 48 48 48z" />
<glyph unicode="&#xe63d;" d="M256 480c-68.376 0-132.664-26.632-181.008-74.992-48.36-48.344-74.992-112.632-74.992-181.008s26.64-132.664 74.992-181.008c48.344-48.36 112.632-74.992 181.008-74.992s132.664 26.632 181.008 74.992c48.36 48.344 74.992 112.632 74.992 181.008s-26.64 132.664-74.992 181.008c-48.344 48.36-112.632 74.992-181.008 74.992zM414.376 65.616c-42.304-42.312-98.544-65.616-158.376-65.616s-116.072 23.304-158.384 65.616c-42.312 42.304-65.616 98.552-65.616 158.384s23.304 116.080 65.624 158.384c42.304 42.312 98.544 65.616 158.376 65.616s116.072-23.304 158.384-65.616c42.312-42.304 65.616-98.552 65.616-158.384s-23.304-116.080-65.624-158.384zM336 320h-160c-8.832 0-16-7.168-16-16v-160c0-8.832 7.168-16 16-16h160c8.832 0 16 7.168 16 16v160c0 8.832-7.168 16-16 16zM320 160h-128v128h128v-128z" />
<glyph unicode="&#xe63e;" d="M432 112h-336v137.376l36.688-36.688c3.128-3.128 7.216-4.688 11.312-4.688s8.184 1.56 11.312 4.688c6.248 6.248 6.248 16.376 0 22.624l-63.992 63.992c-0.744 0.744-1.568 1.416-2.456 2.008-0.376 0.248-0.792 0.424-1.184 0.64-0.512 0.28-1.016 0.592-1.56 0.832-0.52 0.208-1.064 0.336-1.6 0.496-0.464 0.136-0.904 0.312-1.384 0.416-2.072 0.408-4.192 0.408-6.264 0-0.48-0.104-0.92-0.28-1.384-0.416-0.536-0.16-1.080-0.28-1.6-0.496-0.544-0.232-1.048-0.544-1.56-0.832-0.4-0.216-0.816-0.392-1.184-0.64-0.88-0.592-1.712-1.264-2.456-2.008l-63.992-63.992c-6.248-6.248-6.248-16.376 0-22.624s16.376-6.248 22.624 0l36.68 36.688v-153.376c0-8.832 7.168-16 16-16h352c8.832 0 16 7.168 16 16s-7.168 16-16 16zM484.688 235.312l-36.688-36.688v153.376c0 8.832-7.168 16-16 16h-352c-8.832 0-16-7.168-16-16s7.168-16 16-16h336v-137.376l-36.688 36.688c-6.248 6.248-16.376 6.248-22.624 0s-6.248-16.376 0-22.624l63.992-63.992c0.744-0.744 1.568-1.416 2.456-2.008 0.376-0.248 0.792-0.424 1.184-0.64 0.512-0.28 1.016-0.592 1.56-0.832 0.52-0.208 1.064-0.336 1.6-0.496 0.464-0.136 0.904-0.312 1.384-0.416 1.032-0.192 2.088-0.304 3.136-0.304s2.104 0.112 3.136 0.312c0.48 0.104 0.92 0.28 1.384 0.416 0.536 0.16 1.080 0.28 1.6 0.496 0.544 0.232 1.048 0.544 1.56 0.832 0.4 0.216 0.816 0.392 1.184 0.64 0.88 0.592 1.712 1.264 2.456 2.008l63.992 63.992c6.248 6.248 6.248 16.376 0 22.624s-16.376 6.24-22.624-0.008z" />
<glyph unicode="&#xe63f;" d="M511.272 356.512c-0.16 0.536-0.28 1.080-0.496 1.6-0.232 0.544-0.544 1.048-0.832 1.56-0.216 0.4-0.392 0.816-0.64 1.184-0.592 0.88-1.264 1.712-2.008 2.456l-63.992 63.992c-6.248 6.248-16.376 6.248-22.624 0s-6.248-16.376 0-22.624l36.696-36.68h-80l-256-256h-105.376c-8.832 0-16-7.168-16-16s7.168-16 16-16h118.624l256 256h66.752l-36.688-36.688c-6.248-6.248-6.248-16.376 0-22.624 3.128-3.128 7.216-4.688 11.312-4.688s8.184 1.56 11.312 4.688l63.992 63.992c0.744 0.744 1.416 1.568 2.008 2.456 0.248 0.376 0.424 0.792 0.64 1.184 0.28 0.512 0.592 1.016 0.832 1.56 0.208 0.52 0.336 1.064 0.496 1.6 0.136 0.464 0.312 0.904 0.416 1.384 0.408 2.072 0.408 4.192 0 6.264-0.112 0.48-0.288 0.928-0.424 1.384zM510.784 89.88c0.208 0.52 0.336 1.064 0.496 1.6 0.136 0.464 0.312 0.904 0.416 1.384 0.408 2.072 0.408 4.192 0 6.264-0.104 0.48-0.28 0.92-0.416 1.384-0.16 0.536-0.28 1.080-0.496 1.6-0.232 0.544-0.544 1.048-0.832 1.56-0.216 0.4-0.392 0.816-0.64 1.184-0.592 0.88-1.264 1.712-2.008 2.456l-63.992 63.992c-6.248 6.248-16.376 6.248-22.624 0s-6.248-16.376 0-22.624l36.688-36.68h-66.752l-75.312 75.312c-6.248 6.248-16.376 6.248-22.624 0s-6.248-16.376 0-22.624l84.688-84.688h80l-36.688-36.688c-6.248-6.248-6.248-16.376 0-22.624 3.128-3.128 7.216-4.688 11.312-4.688s8.184 1.56 11.312 4.688l63.992 63.992c0.744 0.744 1.416 1.568 2.008 2.456 0.248 0.376 0.424 0.792 0.64 1.184 0.28 0.512 0.592 1.016 0.832 1.56zM16 336h105.376l75.312-75.312c3.128-3.128 7.216-4.688 11.312-4.688s8.184 1.56 11.312 4.688c6.248 6.248 6.248 16.376 0 22.624l-84.688 84.688h-118.624c-8.832 0-16-7.168-16-16s7.168-16 16-16z" />
<glyph unicode="&#xe640;" d="M256 480.008c-68.376 0-132.664-26.632-181.008-74.992-48.36-48.352-74.992-112.64-74.992-181.016s26.632-132.664 74.984-181.016c48.352-48.36 112.64-74.992 181.016-74.992s132.664 26.632 181.016 74.992c48.352 48.352 74.984 112.64 74.984 181.016s-26.632 132.664-74.992 181.016c-48.344 48.36-112.632 74.992-181.008 74.992zM414.392 65.608c-42.312-42.312-98.56-65.616-158.392-65.616s-116.080 23.304-158.384 65.616c-42.312 42.312-65.616 98.56-65.616 158.392s23.304 116.080 65.616 158.392c42.304 42.312 98.552 65.616 158.384 65.616 59.832 0 116.080-23.304 158.392-65.616 42.312-42.312 65.608-98.56 65.608-158.392s-23.296-116.080-65.608-158.392zM337.888 236.576l-112 88c-4.816 3.784-11.368 4.488-16.88 1.816-5.512-2.68-9.008-8.264-9.008-14.392v-176c0-6.128 3.496-11.712 9-14.392 2.224-1.080 4.616-1.608 7-1.608 3.52 0 7.016 1.168 9.888 3.424l112 88c3.856 3.032 6.112 7.672 6.112 12.576s-2.256 9.544-6.112 12.576zM232 168.92v110.16l70.104-55.080-70.104-55.080z" />
<glyph unicode="&#xe641;" d="M192 312c-8.832 0-16-7.168-16-16v-144c0-8.832 7.168-16 16-16s16 7.168 16 16v144c0 8.832-7.168 16-16 16zM320 312c-8.832 0-16-7.168-16-16v-144c0-8.832 7.168-16 16-16s16 7.168 16 16v144c0 8.832-7.168 16-16 16zM256 480c-68.376 0-132.664-26.632-181.008-74.992-48.36-48.344-74.992-112.632-74.992-181.008s26.632-132.664 74.984-181.008c48.352-48.36 112.64-74.992 181.016-74.992s132.664 26.632 181.016 74.992c48.352 48.344 74.984 112.632 74.984 181.008s-26.632 132.664-74.984 181.008c-48.352 48.36-112.64 74.992-181.016 74.992zM414.384 65.616c-42.304-42.312-98.552-65.616-158.384-65.616s-116.080 23.304-158.384 65.616c-42.312 42.304-65.616 98.552-65.616 158.384s23.304 116.080 65.616 158.384c42.304 42.312 98.552 65.616 158.384 65.616 59.832 0 116.080-23.304 158.392-65.616 42.312-42.304 65.608-98.552 65.608-158.384s-23.296-116.080-65.616-158.384z" />
<glyph unicode="&#xe642;" d="M256 480c-68.384 0-132.664-26.632-181.016-74.992-48.36-48.344-74.992-112.632-74.992-181.008s26.632-132.664 74.992-181.008c48.352-48.36 112.632-74.992 181.016-74.992 68.376 0 132.664 26.632 181.008 74.992 48.36 48.344 74.992 112.632 74.992 181.008s-26.632 132.664-74.992 181.008c-48.344 48.36-112.632 74.992-181.008 74.992zM414.384 65.616c-42.304-42.312-98.552-65.616-158.384-65.616s-116.080 23.304-158.392 65.616c-42.312 42.304-65.616 98.552-65.616 158.384s23.304 116.080 65.616 158.384c42.312 42.312 98.56 65.616 158.392 65.616s116.080-23.304 158.384-65.616c42.312-42.304 65.616-98.552 65.616-158.384s-23.304-116.080-65.616-158.384zM377.88 236.576l-112 88c-4.824 3.792-11.376 4.48-16.872 1.816-5.504-2.68-9.008-8.264-9.008-14.392v-176c0-6.128 3.504-11.712 9.008-14.392 2.216-1.080 4.608-1.608 6.992-1.608 3.512 0 7.008 1.168 9.88 3.424l112 88c3.864 3.032 6.12 7.672 6.12 12.576s-2.256 9.544-6.12 12.576zM272 168.92v110.16l70.104-55.080-70.104-55.080zM217.88 236.576l-112 88c-4.824 3.792-11.384 4.48-16.872 1.816-5.504-2.68-9.008-8.264-9.008-14.392v-176c0-6.128 3.504-11.712 9.008-14.392 2.216-1.080 4.608-1.608 6.992-1.608 3.512 0 7.008 1.168 9.88 3.424l112 88c3.864 3.032 6.12 7.672 6.12 12.576s-2.256 9.544-6.12 12.576zM112 168.92v110.16l70.104-55.080-70.104-55.080zM400 296v-144c0-8.832 7.168-16 16-16s16 7.168 16 16v144c0 8.832-7.168 16-16 16s-16-7.168-16-16z" />
<glyph unicode="&#xe643;" d="M256 480c-68.384 0-132.664-26.632-181.016-74.992-48.36-48.344-74.992-112.632-74.992-181.008s26.632-132.664 74.992-181.008c48.352-48.36 112.632-74.992 181.016-74.992 68.376 0 132.664 26.632 181.008 74.992 48.36 48.344 74.992 112.632 74.992 181.008s-26.632 132.664-74.992 181.008c-48.344 48.36-112.632 74.992-181.008 74.992zM414.384 65.616c-42.304-42.312-98.552-65.616-158.384-65.616s-116.080 23.304-158.392 65.616c-42.312 42.304-65.616 98.552-65.616 158.384s23.304 116.080 65.616 158.384c42.312 42.312 98.56 65.616 158.392 65.616s116.080-23.304 158.384-65.616c42.312-42.304 65.616-98.552 65.616-158.384s-23.304-116.080-65.616-158.384zM409.88 236.576l-112 88c-4.832 3.792-11.384 4.48-16.872 1.816-5.504-2.68-9.008-8.264-9.008-14.392v-176c0-6.128 3.504-11.712 9.008-14.392 2.216-1.080 4.608-1.608 6.992-1.608 3.512 0 7.008 1.168 9.88 3.424l112 88c3.864 3.032 6.12 7.672 6.12 12.576s-2.256 9.544-6.12 12.576zM304 168.92v110.16l70.104-55.080-70.104-55.080zM249.88 236.576l-112 88c-4.824 3.792-11.392 4.48-16.872 1.816-5.504-2.68-9.008-8.264-9.008-14.392v-176c0-6.128 3.504-11.712 9.008-14.392 2.216-1.080 4.608-1.608 6.992-1.608 3.512 0 7.008 1.168 9.88 3.424l112 88c3.864 3.032 6.12 7.672 6.12 12.576s-2.256 9.544-6.12 12.576zM144 168.92v110.16l70.104-55.080-70.104-55.080z" />
<glyph unicode="&#xe644;" d="M256 480c-68.376 0-132.664-26.632-181.008-74.992-48.36-48.344-74.992-112.632-74.992-181.008s26.632-132.664 74.992-181.008c48.344-48.36 112.632-74.992 181.008-74.992s132.664 26.632 181.008 74.992c48.36 48.344 74.992 112.632 74.992 181.008s-26.632 132.664-74.992 181.008c-48.344 48.36-112.632 74.992-181.008 74.992zM414.384 65.616c-42.304-42.312-98.552-65.616-158.384-65.616s-116.080 23.304-158.384 65.616c-42.312 42.304-65.616 98.552-65.616 158.384s23.304 116.080 65.616 158.384c42.304 42.312 98.552 65.616 158.384 65.616s116.080-23.304 158.384-65.616c42.312-42.304 65.616-98.552 65.616-158.384s-23.304-116.080-65.616-158.384zM268.576 329.88c-6.064 7.72-19.096 7.72-25.16 0l-88-112c-3.792-4.816-4.496-11.368-1.816-16.872s8.272-9.008 14.4-9.008h176c6.128 0 11.712 3.504 14.392 9.008s1.976 12.064-1.816 16.872l-88 112zM200.92 224l55.080 70.104 55.080-70.104h-110.16zM336 176h-160c-8.832 0-16-7.168-16-16s7.168-16 16-16h160c8.832 0 16 7.168 16 16s-7.168 16-16 16z" />
<glyph unicode="&#xe645;" d="M256 480c-68.376 0-132.664-26.632-181.008-74.992-48.36-48.344-74.992-112.632-74.992-181.008s26.632-132.664 74.984-181.008c48.352-48.36 112.64-74.992 181.016-74.992s132.664 26.632 181.008 74.992c48.36 48.344 74.992 112.632 74.992 181.008s-26.632 132.664-74.984 181.008c-48.352 48.36-112.64 74.992-181.016 74.992zM414.384 65.616c-42.304-42.312-98.552-65.616-158.384-65.616s-116.080 23.304-158.384 65.616c-42.312 42.304-65.616 98.552-65.616 158.384s23.304 116.080 65.616 158.384c42.304 42.312 98.552 65.616 158.384 65.616s116.080-23.304 158.384-65.616c42.312-42.304 65.616-98.552 65.616-158.384s-23.304-116.080-65.616-158.384zM263 326.392c-5.512 2.672-12.072 1.968-16.88-1.816l-112-88c-3.864-3.032-6.12-7.672-6.12-12.576s2.256-9.544 6.112-12.576l112-88c2.88-2.256 6.368-3.424 9.888-3.424 2.376 0 4.768 0.528 6.992 1.608 5.512 2.68 9.008 8.264 9.008 14.392v176c0 6.128-3.496 11.712-9 14.392zM240 168.92l-70.104 55.080 70.104 55.080v-110.16zM406.112 324.576l-112-88c-3.856-3.032-6.112-7.672-6.112-12.576s2.256-9.544 6.112-12.576l112-88c2.88-2.256 6.368-3.424 9.888-3.424 2.376 0 4.768 0.528 6.992 1.608 5.512 2.68 9.008 8.264 9.008 14.392v176c0 6.128-3.496 11.712-9 14.392-5.52 2.672-12.064 1.968-16.888-1.816zM400 168.92l-70.104 55.080 70.104 55.080v-110.16zM96 312c-8.832 0-16-7.168-16-16v-144c0-8.832 7.168-16 16-16s16 7.168 16 16v144c0 8.832-7.168 16-16 16z" />
<glyph unicode="&#xe646;" d="M256 480c-68.376 0-132.664-26.632-181.008-74.992-48.36-48.344-74.992-112.632-74.992-181.008s26.632-132.664 74.984-181.008c48.352-48.36 112.64-74.992 181.016-74.992s132.664 26.632 181.008 74.992c48.36 48.344 74.992 112.632 74.992 181.008s-26.632 132.664-74.984 181.008c-48.352 48.36-112.64 74.992-181.016 74.992zM414.384 65.616c-42.304-42.312-98.552-65.616-158.384-65.616s-116.080 23.304-158.384 65.616c-42.312 42.304-65.616 98.552-65.616 158.384s23.304 116.080 65.616 158.384c42.304 42.312 98.552 65.616 158.384 65.616s116.080-23.304 158.384-65.616c42.312-42.304 65.616-98.552 65.616-158.384s-23.304-116.080-65.616-158.384zM231 326.392c-5.512 2.672-12.064 1.968-16.88-1.816l-112-88c-3.864-3.032-6.12-7.672-6.12-12.576s2.256-9.544 6.112-12.576l112-88c2.88-2.256 6.368-3.424 9.888-3.424 2.376 0 4.768 0.528 6.992 1.608 5.512 2.68 9.008 8.264 9.008 14.392v176c0 6.128-3.496 11.712-9 14.392zM208 168.92l-70.104 55.080 70.104 55.080v-110.16zM391 326.392c-5.512 2.672-12.072 1.968-16.88-1.816l-112-88c-3.864-3.032-6.12-7.672-6.12-12.576s2.256-9.544 6.112-12.576l112-88c2.88-2.256 6.368-3.424 9.888-3.424 2.376 0 4.768 0.528 6.992 1.608 5.512 2.68 9.008 8.264 9.008 14.392v176c0 6.128-3.496 11.712-9 14.392zM368 168.92l-70.104 55.080 70.104 55.080v-110.16z" />
<glyph unicode="&#xe647;" d="M496 432h-416c-8.832 0-16-7.168-16-16v-48h-48c-8.832 0-16-7.168-16-16v-320c0-8.832 7.168-16 16-16h416c8.832 0 16 7.168 16 16v48h48c8.832 0 16 7.168 16 16v320c0 8.832-7.168 16-16 16zM416 336v-253.208l-85.584 73.36c-5.248 4.488-12.76 5.112-18.648 1.568l-68.528-41.12-103.2 117.936c-2.912 3.328-7.080 5.304-11.504 5.456-4.408 0.12-8.712-1.544-11.84-4.68l-84.696-84.688v185.376h384zM32 105.376l95.216 95.216 100.744-115.136c5.112-5.832 13.64-7.176 20.272-3.176l70.112 42.064 89.072-76.344h-375.416v57.376zM480 112h-32v240c0 8.832-7.168 16-16 16h-336v32h384v-288zM328 192c30.872 0 56 25.128 56 56s-25.128 56-56 56-56-25.128-56-56 25.128-56 56-56zM328 272c13.232 0 24-10.768 24-24s-10.768-24-24-24-24 10.768-24 24 10.768 24 24 24z" />
<glyph unicode="&#xe648;" d="M256 480c-68.384 0-132.672-26.632-181.016-74.984-48.36-48.352-74.992-112.64-74.992-181.016s26.632-132.664 74.992-181.008c48.344-48.36 112.632-74.992 181.016-74.992s132.672 26.632 181.016 74.984c48.36 48.352 74.992 112.64 74.992 181.016s-26.632 132.664-74.992 181.008c-48.344 48.36-112.632 74.992-181.016 74.992zM414.392 65.616c-42.304-42.312-98.56-65.616-158.392-65.616s-116.088 23.304-158.392 65.616c-42.312 42.304-65.616 98.552-65.616 158.384s23.304 116.080 65.616 158.384c42.304 42.312 98.56 65.616 158.392 65.616s116.088-23.304 158.392-65.616c42.312-42.304 65.616-98.552 65.616-158.384s-23.304-116.080-65.616-158.384zM400 240h-288c-8.832 0-16-7.168-16-16s7.168-16 16-16h288c8.832 0 16 7.168 16 16s-7.168 16-16 16z" />
<glyph unicode="&#xe649;" d="M36.688 36.688l64-64c3-3 7.072-4.688 11.312-4.688h48c4.24 0 8.312 1.688 11.312 4.688l164.688 164.68 25.376-25.368-52.688-52.688c-6.248-6.248-6.248-16.376 0-22.624 6.248-6.248 16.376-6.248 22.624 0l64 64c6.248 6.248 6.248 16.376 0 22.624l-48 48c-6.248 6.248-16.376 6.248-22.624 0l-171.312-171.312h-34.752l-48 48 9.376 9.376 20.688-20.688c3.128-3.128 7.216-4.688 11.312-4.688s8.184 1.56 11.312 4.688l207.144 207.144c9.472-2.408 19.336-3.832 29.544-3.832 66.168 0 120 53.832 120 120s-53.832 120-120 120-120-53.832-120-120c0-10.208 1.424-20.072 3.832-29.544l-207.144-207.144c-6.248-6.248-6.248-16.376 0-22.624l20.688-20.688-20.688-20.688c-6.248-6.248-6.248-16.376 0-22.624zM360 448c48.52 0 88-39.48 88-88s-39.48-88-88-88-88 39.48-88 88 39.48 88 88 88zM298.512 257.144l-42.512-42.52-41.376 41.376 42.512 42.512c10.184-16.968 24.408-31.184 41.376-41.368zM192 233.376l41.376-41.376-121.376-121.368-41.376 41.368 121.376 121.376z" />
<glyph unicode="&#xe64a;" d="M240 129.248v-129.248h-104c-8.832 0-16-7.168-16-16s7.168-16 16-16h240c8.832 0 16 7.168 16 16s-7.168 16-16 16h-104v129.248c66.784 9.384 128 75.44 128 142.752 0 8.832-7.168 16-16 16s-16-7.168-16-16c0-55.48-56.52-112-112-112s-112 56.52-112 112c0 8.832-7.168 16-16 16s-16-7.168-16-16c0-67.32 61.216-133.368 128-142.752zM256 192c44.112 0 80 35.888 80 80v128c0 44.112-35.888 80-80 80s-80-35.888-80-80v-128c0-44.112 35.888-80 80-80zM256 448c26.472 0 48-21.528 48-48v-8h-16c-8.832 0-16-7.168-16-16s7.168-16 16-16h16v-32h-16c-8.832 0-16-7.168-16-16s7.168-16 16-16h16v-24c0-26.472-21.528-48-48-48s-48 21.528-48 48v24h16c8.832 0 16 7.168 16 16s-7.168 16-16 16h-16v32h16c8.832 0 16 7.168 16 16s-7.168 16-16 16h-16v8c0 26.472 21.528 48 48 48z" />
<glyph unicode="&#xe64b;" d="M496 352h-136v48c0 8.832-7.168 16-16 16h-176c-8.832 0-16-7.168-16-16v-48h-136c-8.832 0-16-7.168-16-16v-288c0-8.832 7.168-16 16-16h480c8.832 0 16 7.168 16 16v288c0 8.832-7.168 16-16 16zM184 384h144v-32h-144v32zM480 64h-448v256h448v-256zM272 208v64c0 8.832-7.168 16-16 16s-16-7.168-16-16v-64h-64c-8.832 0-16-7.168-16-16s7.168-16 16-16h64v-64c0-8.832 7.168-16 16-16s16 7.168 16 16v64h64c8.832 0 16 7.168 16 16s-7.168 16-16 16h-64z" />
<glyph unicode="&#xe64c;" d="M504.968 453.248c-4.4 2.968-9.976 3.576-14.912 1.608l-154.056-61.624-154.056 61.624c-3.832 1.52-8.064 1.52-11.888 0l-160-64c-6.072-2.432-10.056-8.312-10.056-14.856v-368c0-5.312 2.632-10.272 7.032-13.248 2.688-1.816 5.808-2.752 8.968-2.752 2.008 0 4.024 0.376 5.944 1.144l154.056 61.624 154.056-61.624c3.832-1.52 8.064-1.52 11.888 0l160 64c6.072 2.432 10.056 8.312 10.056 14.856v368c0 5.312-2.632 10.272-7.032 13.248zM192 416.368l128-51.2v-333.536l-128 51.2v333.536zM32 365.168l128 51.2v-333.536l-128-51.2v333.536zM480 82.832l-128-51.2v333.536l128 51.2v-333.536z" />
<glyph unicode="&#xe64d;" d="M496 384h-480c-8.832 0-16-7.168-16-16v-288c0-8.832 7.168-16 16-16h480c8.832 0 16 7.168 16 16v288c0 8.832-7.168 16-16 16zM444.776 352l-188.776-117.168-188.776 117.168h377.552zM32 96v240.2l224-139.032 224 139.032v-240.2h-448z" />
<glyph unicode="&#xe64e;" d="M501.944 286.856l-69.944 27.976v149.168c0 8.832-7.168 16-16 16h-320c-8.832 0-16-7.168-16-16v-149.168l-69.944-27.976c-6.248-2.504-10.032-8.504-10.040-14.856h-0.016v-288c0-8.832 7.168-16 16-16h480c8.832 0 16 7.168 16 16v288h-0.016c-0.008 6.352-3.792 12.352-10.040 14.856zM463.632 267.712l-31.632-19.64v32.288l31.632-12.648zM400 448v-144.248c0-0.032 0-0.064 0-0.096v-75.448l-144-89.376-144 89.376v75.448c0 0.032 0 0.064 0 0.096v144.248h288zM80 248.072l-31.632 19.64 31.632 12.648v-32.288zM32 0v240.2l215.56-133.8c2.592-1.592 5.512-2.4 8.44-2.4s5.848 0.808 8.44 2.408l215.56 133.792v-240.2h-448zM288 384h64c8.832 0 16 7.168 16 16s-7.168 16-16 16h-64c-8.832 0-16-7.168-16-16s7.168-16 16-16zM160 320h192c8.832 0 16 7.168 16 16s-7.168 16-16 16h-192c-8.832 0-16-7.168-16-16s7.168-16 16-16zM160 256h192c8.832 0 16 7.168 16 16s-7.168 16-16 16h-192c-8.832 0-16-7.168-16-16s7.168-16 16-16z" />
<glyph unicode="&#xe64f;" d="M363.312 187.312c-6.248 6.248-16.376 6.248-22.624 0l-12.688-12.688-30.488 30.488c24.024 29.064 38.488 66.32 38.488 106.888 0 92.64-75.368 168-168 168s-168-75.36-168-168 75.368-168 168-168c40.568 0 77.824 14.464 106.888 38.488l30.488-30.488-12.688-12.688c-6.248-6.248-6.248-16.376 0-22.624l144-144c3.128-3.128 7.216-4.688 11.312-4.688s8.184 1.56 11.312 4.688l48 48c6.248 6.248 6.248 16.376 0 22.624l-144 144zM32 312c0 74.992 61.008 136 136 136s136-61.008 136-136-61.008-136-136-136-136 61.008-136 136zM448 6.632l-121.376 121.368 25.376 25.368 121.376-121.368-25.376-25.368z" />
<glyph unicode="&#xe650;" d="M168 144c40.568 0 77.824 14.464 106.888 38.488l30.488-30.488-12.688-12.688c-6.248-6.248-6.248-16.376 0-22.624l144-144c3.128-3.128 7.216-4.688 11.312-4.688s8.184 1.56 11.312 4.688l48 48c6.248 6.248 6.248 16.376 0 22.624l-144 144c-6.248 6.248-16.376 6.248-22.624 0l-12.688-12.688-30.488 30.488c24.024 29.064 38.488 66.32 38.488 106.888 0 92.64-75.368 168-168 168s-168-75.36-168-168 75.368-168 168-168zM473.376 32l-25.376-25.368-121.376 121.368 25.376 25.368 121.376-121.368zM168 448c74.992 0 136-61.008 136-136s-61.008-136-136-136-136 61.008-136 136 61.008 136 136 136zM96 296h56v-56c0-8.832 7.168-16 16-16s16 7.168 16 16v56h56c8.832 0 16 7.168 16 16s-7.168 16-16 16h-56v56c0 8.832-7.168 16-16 16s-16-7.168-16-16v-56h-56c-8.832 0-16-7.168-16-16s7.168-16 16-16z" />
<glyph unicode="&#xe651;" d="M363.312 187.312c-6.248 6.248-16.376 6.248-22.624 0l-12.688-12.688-30.488 30.488c24.024 29.064 38.488 66.32 38.488 106.888 0 92.64-75.368 168-168 168s-168-75.36-168-168 75.368-168 168-168c40.568 0 77.824 14.464 106.888 38.488l30.488-30.488-12.688-12.688c-6.248-6.248-6.248-16.376 0-22.624l144-144c3.128-3.128 7.216-4.688 11.312-4.688s8.184 1.56 11.312 4.688l48 48c6.248 6.248 6.248 16.376 0 22.624l-144 144zM32 312c0 74.992 61.008 136 136 136s136-61.008 136-136-61.008-136-136-136-136 61.008-136 136zM448 6.632l-121.376 121.368 25.376 25.368 121.376-121.368-25.376-25.368zM240 328h-144c-8.832 0-16-7.168-16-16s7.168-16 16-16h144c8.832 0 16 7.168 16 16s-7.168 16-16 16z" />
<glyph unicode="&#xe652;" d="M96-32h320c8.832 0 16 7.168 16 16v480c0 8.832-7.168 16-16 16h-320c-8.832 0-16-7.168-16-16v-480c0-8.832 7.168-16 16-16zM112 448h288v-448h-288v448zM256 256c-61.76 0-112-50.24-112-112s50.24-112 112-112 112 50.24 112 112-50.24 112-112 112zM256 64c-44.112 0-80 35.888-80 80s35.888 80 80 80 80-35.888 80-80-35.888-80-80-80zM256 288c35.288 0 64 28.712 64 64s-28.712 64-64 64-64-28.712-64-64 28.712-64 64-64zM256 384c17.648 0 32-14.352 32-32s-14.352-32-32-32-32 14.352-32 32 14.352 32 32 32zM256 168c-13.232 0-24-10.768-24-24s10.768-24 24-24 24 10.768 24 24-10.768 24-24 24zM256 136c-4.408 0-8 3.592-8 8s3.592 8 8 8 8-3.592 8-8-3.592-8-8-8z" />
<glyph unicode="&#xe653;" d="M48 208v-224c0-8.832 7.168-16 16-16h384c8.832 0 16 7.168 16 16v224c0 8.832-7.168 16-16 16h-304v112c0 61.76 50.24 112 112 112s112-50.24 112-112v-32c0-8.832 7.168-16 16-16s16 7.168 16 16v32c0 79.4-64.6 144-144 144s-144-64.6-144-144v-112h-48c-8.832 0-16-7.168-16-16zM80 192h352v-192h-352v192zM256 160c-26.472 0-48-21.528-48-48 0-20.848 13.392-38.592 32-45.2v-18.8c0-8.832 7.168-16 16-16s16 7.168 16 16v18.8c18.608 6.608 32 24.344 32 45.2 0 26.472-21.528 48-48 48zM256 96c-8.824 0-16 7.176-16 16s7.176 16 16 16 16-7.176 16-16-7.176-16-16-16z" />
<glyph unicode="&#xe654;" d="M112 336v-112h-48c-8.832 0-16-7.168-16-16v-224c0-8.832 7.168-16 16-16h384c8.832 0 16 7.168 16 16v224c0 8.832-7.168 16-16 16h-48v112c0 79.4-64.6 144-144 144s-144-64.6-144-144zM432 0h-352v192h352v-192zM256 448c61.76 0 112-50.24 112-112v-112h-224v112c0 61.76 50.24 112 112 112zM256 160c-26.472 0-48-21.528-48-48 0-20.848 13.392-38.592 32-45.2v-18.8c0-8.832 7.168-16 16-16s16 7.168 16 16v18.8c18.608 6.608 32 24.344 32 45.2 0 26.472-21.528 48-48 48zM256 96c-8.824 0-16 7.176-16 16s7.176 16 16 16 16-7.176 16-16-7.176-16-16-16z" />
<glyph unicode="&#xe655;" d="M16 304h48c8.832 0 16 7.168 16 16s-7.168 16-16 16h-48c-8.832 0-16-7.168-16-16s7.168-16 16-16zM496 336h-320c-8.832 0-16-7.168-16-16s7.168-16 16-16h320c8.832 0 16 7.168 16 16s-7.168 16-16 16zM16 208h48c8.832 0 16 7.168 16 16s-7.168 16-16 16h-48c-8.832 0-16-7.168-16-16s7.168-16 16-16zM496 240h-320c-8.832 0-16-7.168-16-16s7.168-16 16-16h320c8.832 0 16 7.168 16 16s-7.168 16-16 16zM16 112h48c8.832 0 16 7.168 16 16s-7.168 16-16 16h-48c-8.832 0-16-7.168-16-16s7.168-16 16-16zM496 144h-320c-8.832 0-16-7.168-16-16s7.168-16 16-16h320c8.832 0 16 7.168 16 16s-7.168 16-16 16z" />
<glyph unicode="&#xe656;" d="M256 480c-141.16 0-256-114.84-256-256s114.84-256 256-256 256 114.84 256 256-114.84 256-256 256zM470.632 288h-86.632c-2.608 0-5.032-0.68-7.2-1.792-12.976 25.088-33.496 45.608-58.584 58.584 1.104 2.176 1.784 4.6 1.784 7.208v86.632c72.128-21.544 129.088-78.504 150.632-150.632zM388.040 256h89.64c1.504-10.456 2.32-21.136 2.32-32s-0.824-21.544-2.32-32h-89.64c2.488 10.28 3.96 20.96 3.96 32s-1.472 21.72-3.96 32zM256 120c-57.344 0-104 46.656-104 104s46.656 104 104 104 104-46.656 104-104-46.656-104-104-104zM288 445.68v-89.64c-10.28 2.496-20.96 3.96-32 3.96s-21.72-1.464-32-3.96v89.64c10.456 1.496 21.136 2.32 32 2.32s21.544-0.824 32-2.32zM192 438.632v-86.632c0-2.608 0.68-5.032 1.792-7.2-25.096-12.976-45.608-33.496-58.584-58.584-2.176 1.104-4.6 1.784-7.208 1.784h-86.632c21.544 72.128 78.504 129.088 150.632 150.632zM32 224c0 10.864 0.824 21.544 2.32 32h89.64c-2.488-10.28-3.96-20.96-3.96-32s1.472-21.72 3.96-32h-89.64c-1.496 10.456-2.32 21.136-2.32 32zM41.368 160h86.632c2.608 0 5.032 0.68 7.2 1.792 12.976-25.088 33.496-45.608 58.584-58.584-1.104-2.176-1.784-4.6-1.784-7.208v-86.632c-72.128 21.544-129.088 78.504-150.632 150.632zM224 2.32v89.64c10.28-2.496 20.96-3.96 32-3.96s21.72 1.464 32 3.96v-89.64c-10.456-1.496-21.136-2.32-32-2.32s-21.544 0.824-32 2.32zM320 9.368v86.632c0 2.608-0.68 5.032-1.792 7.2 25.096 12.976 45.608 33.496 58.584 58.584 2.176-1.104 4.6-1.784 7.208-1.784h86.632c-21.544-72.128-78.504-129.088-150.632-150.632z" />
<glyph unicode="&#xe657;" d="M273.12 433.12c-62.496 62.496-163.744 62.496-226.256 0-62.496-62.464-62.496-163.808 0-226.24 0.016 0 113.136-110.88 113.136-238.88 0 128 113.12 238.88 113.12 238.88 62.512 62.432 62.512 163.776 0 226.24zM160 256c-35.376 0-64 28.624-64 64s28.624 64 64 64 64-28.624 64-64-28.624-64-64-64z" horiz-adv-x="320" />
<glyph unicode="&#xe658;" d="M400 336c-56.312 0-102.912-41.816-110.72-96h-273.28c-8.832 0-16-7.168-16-16s7.168-16 16-16h16v-48c0-8.832 7.168-16 16-16s16 7.168 16 16v48h32v-16c0-8.832 7.168-16 16-16s16 7.168 16 16v16h161.28c7.808-54.184 54.408-96 110.72-96 61.76 0 112 50.24 112 112s-50.24 112-112 112zM400 144c-44.112 0-80 35.888-80 80s35.888 80 80 80 80-35.888 80-80-35.888-80-80-80z" />
<glyph unicode="&#xe659;" d="M256 480c141.385 0 256-114.615 256-256 0-130.547-97.719-238.265-224-254.013v190.013h88l8 64h-96v32c0 17.673 14.327 32 32 32h64v64h-64c-53.020 0-96-42.98-96-96v-32h-48v-64h48v-190.013c-126.281 15.748-224 123.466-224 254.013 0 141.385 114.615 256 256 256z" />
<glyph unicode="&#xe65a;" d="M16 40h480c8.832 0 16 7.168 16 16v336c0 8.832-7.168 16-16 16h-480c-8.832 0-16-7.168-16-16v-336c0-8.832 7.168-16 16-16zM32 72v24.92l159.472 144.976 85.216-85.208c3.28-3.28 7.792-4.936 12.448-4.648 4.632 0.328 8.88 2.648 11.664 6.36l37.504 50.008 141.696-127.536v-8.872h-448zM480 376v-252.080l-133.296 119.968c-3.336 3-7.768 4.496-12.256 4.032-4.472-0.432-8.552-2.728-11.248-6.32l-36.928-49.24-82.96 82.952c-6.040 6.040-15.752 6.272-22.072 0.52l-149.24-135.664v235.832h448zM408 248c30.88 0 56 25.128 56 56s-25.12 56-56 56-56-25.128-56-56 25.12-56 56-56zM408 328c13.232 0 24-10.768 24-24s-10.768-24-24-24-24 10.768-24 24 10.768 24 24 24z" />
<glyph unicode="&#xe65b;" d="M400 352v48h32c8.832 0 16 7.168 16 16v48c0 8.832-7.168 16-16 16h-352c-8.832 0-16-7.168-16-16v-48c0-8.832 7.168-16 16-16h32v-48c0-55.736 31.888-104.080 78.336-128-46.448-23.92-78.336-72.264-78.336-128v-48h-32c-8.832 0-16-7.168-16-16v-48c0-8.832 7.168-16 16-16h352c8.832 0 16 7.168 16 16v48c0 8.832-7.168 16-16 16h-32v48c0 55.736-31.888 104.080-78.336 128 46.448 23.92 78.336 72.264 78.336 128zM96 448h320v-16h-320v16zM416 0h-320v16h320v-16zM368 96v-48h-224v48c0 61.76 50.24 112 112 112s112-50.24 112-112zM256 240c-61.76 0-112 50.24-112 112v48h224v-48c0-61.76-50.24-112-112-112z" />
<glyph unicode="&#xe65c;" d="M320-32h96c8.832 0 16 7.168 16 16v224h64c6.472 0 12.304 3.896 14.784 9.88 2.48 5.976 1.112 12.856-3.472 17.432l-240 240c-6.248 6.248-16.376 6.248-22.624 0l-240-240c-4.576-4.576-5.944-11.456-3.472-17.432 2.48-5.984 8.312-9.88 14.784-9.88h64v-224c0-8.832 7.168-16 16-16h96c8.832 0 16 7.168 16 16v112h96v-112c0-8.832 7.168-16 16-16zM192 128c-8.832 0-16-7.168-16-16v-112h-64v224c0 8.832-7.168 16-16 16h-41.376l201.376 201.368 201.376-201.368h-41.376c-8.832 0-16-7.168-16-16v-224h-64v112c0 8.832-7.168 16-16 16h-128z" />
<glyph unicode="&#xe65d;" d="M384 456c-55.656 0-104.040-28.216-128-69.392-23.96 41.176-72.344 69.392-128 69.392-84.032 0-128-72.44-128-144 0-167.136 237.648-311.648 247.768-317.72 2.536-1.52 5.384-2.28 8.232-2.28s5.696 0.76 8.232 2.28c10.12 6.072 247.768 150.584 247.768 317.72 0 71.56-43.968 144-128 144zM255.992 26.912c-41.352 26.68-223.992 152.088-223.992 285.088 0 53.944 30.040 112 96 112 53.864 0 112-36.704 112-96 0-8.832 7.168-16 16-16s16 7.168 16 16c0 59.296 58.136 96 112 96 65.96 0 96-58.056 96-112 0-132.84-182.672-258.392-224.008-285.088z" />
<glyph unicode="&#xe65e;" d="M247.768-5.72l8.232-4.944 8.232 4.944c10.12 6.072 247.768 150.584 247.768 317.72 0 71.56-43.968 144-128 144-55.656 0-104.040-28.216-128-69.392-23.96 41.176-72.344 69.392-128 69.392-84.032 0-128-72.44-128-144 0-167.136 237.648-311.648 247.768-317.72zM384 424c65.96 0 96-58.056 96-112 0-128.56-171.072-250.28-219.568-282.192l38.88 38.88c6.248 6.248 6.248 16.376 0 22.624l-36.688 36.688 36.688 36.688c6.248 6.248 6.248 16.376 0 22.624l-36.688 36.688 52.688 52.688c6.248 6.248 6.248 16.376 0 22.624l-42.16 42.16c8.048 51.304 61.208 82.528 110.848 82.528zM128 424c53.864 0 112-36.704 112-96h2.208c0.688-1.176 1.472-2.304 2.48-3.312l36.688-36.688-52.688-52.688c-6.248-6.248-6.248-16.376 0-22.624l36.688-36.688-36.688-36.688c-6.248-6.248-6.248-16.376 0-22.624l36.688-36.688-35.432-35.432c-64.584 45.688-197.944 153.76-197.944 267.432 0 53.944 30.040 112 96 112z" />
<glyph unicode="&#xe65f;" d="M96 40h16c8.832 0 16 7.168 16 16v208c0 4.576 1.456 112 128 112 125.776 0 127.968-107.48 128-112v-208c0-8.832 7.168-16 16-16h16c52.936 0 96 43.064 96 96s-43.064 96-96 96v32c0 1.44-1.832 144-160 144s-160-142.56-160-144v-32c-52.936 0-96-43.064-96-96s43.064-96 96-96zM480 136c0-35.288-28.712-64-64-64v128c35.288 0 64-28.712 64-64zM96 200v-128c-35.288 0-64 28.712-64 64s28.712 64 64 64z" />
<glyph unicode="&#xe660;" d="M224 128c0 8.832-7.168 16-16 16s-16-7.168-16-16c0-32.896 31.104-64 64-64s64 31.104 64 64c0 8.832-7.168 16-16 16s-16-7.168-16-16c0-15.256-16.744-32-32-32s-32 16.744-32 32zM187.28 203.28c-5.92 6-16.64 6-22.56 0-3.040-2.96-4.72-7.040-4.72-11.28 0-4.24 1.68-8.32 4.72-11.28 2.96-3.040 7.040-4.72 11.28-4.72 4.24 0 8.32 1.68 11.28 4.72 3.040 2.96 4.72 7.040 4.72 11.28 0 4.24-1.68 8.32-4.72 11.28zM336 176c4.24 0 8.32 1.68 11.36 4.72 2.96 2.96 4.64 7.12 4.64 11.28s-1.68 8.32-4.64 11.28c-6 6-16.72 6-22.64 0-3.040-2.96-4.72-7.040-4.72-11.28 0-4.24 1.68-8.32 4.72-11.28 2.96-3.040 7.040-4.72 11.28-4.72zM256.304 488c-0.008 0-0.016 0-0.024 0-4.816 0-9.376-2.168-12.416-5.912-7.048-8.656-172.432-213.592-171.864-338.16 0.456-100.296 79.56-175.928 184-175.928 104.896 0 184 75.664 184 176 0 124.496-164.288 329.392-171.28 338.048-3.032 3.76-7.592 5.944-12.416 5.952zM256 0c-86.28 0-151.632 61.936-152 144.072-0.432 94.592 113.768 251.696 152.232 301.904 38.264-50.272 151.768-207.36 151.768-301.976 0-82.096-65.344-144-152-144z" />
<glyph unicode="&#xe661;" d="M256 480c-141.376 0-256-114.624-256-256s114.624-256 256-256 256 114.624 256 256-114.624 256-256 256zM160 96v256l256.128-128-256.128-128z" />
<glyph unicode="&#xe662;" d="M363.312 203.312c-6.24 6.248-16.384 6.248-22.624 0l-12.688-12.688-129.376 129.376 84.688 84.688c6.248 6.248 6.248 16.376 0 22.624l-32 32c-6.2 6.208-16.304 6.2-22.568 0.056-0.168-0.168-17.312-16.704-38.52-16.704-12.288 0-23.704 5.448-34.912 16.648-6.24 6.248-16.384 6.248-22.624 0l-128-128c-6.248-6.248-6.248-16.376 0-22.624l80-80c3.12-3.128 7.216-4.688 11.312-4.688s8.192 1.56 11.312 4.688l68.688 68.688 129.376-129.376-12.688-12.688c-6.248-6.248-6.248-16.376 0-22.624l144-144c3.12-3.128 7.216-4.688 11.312-4.688s8.192 1.56 11.312 4.688l48 48c6.248 6.248 6.248 16.376 0 22.624l-144 144zM96 262.632l-57.368 57.368 106.2 106.2c14.040-10.32 29.256-15.528 45.392-15.528 20.416 0 37.6 8.656 48.496 15.984l10.648-10.656-153.368-153.368zM448 22.632l-121.368 121.368 25.368 25.368 121.368-121.368-25.368-25.368z" />
<glyph unicode="&#xe663;" d="M496 0h-16v224c0 17.648-14.352 32-32 32h-48c-17.648 0-32-14.352-32-32v-224h-16v384c0 17.648-14.352 32-32 32h-48c-17.648 0-32-14.352-32-32v-384h-16v144c0 17.648-14.352 32-32 32h-48c-17.648 0-32-14.352-32-32v-144h-80v64h32c8.832 0 16 7.168 16 16s-7.168 16-16 16h-32v48c8.832 0 16 7.168 16 16s-7.168 16-16 16v48h32c8.832 0 16 7.168 16 16s-7.168 16-16 16h-32v48c8.832 0 16 7.168 16 16s-7.168 16-16 16v48h32c8.832 0 16 7.168 16 16s-7.168 16-16 16h-32v48c0 8.832-7.168 16-16 16s-16-7.168-16-16v-464c0-17.648 14.352-32 32-32h464c8.832 0 16 7.168 16 16s-7.168 16-16 16zM400 224h48v-224h-48v224zM272 384h48v-384h-48v384zM144 144h48v-144h-48v144z" />
<glyph unicode="&#xe664;" d="M496 0h-464v64h32c8.832 0 16 7.168 16 16s-7.168 16-16 16h-32v48c8.832 0 16 7.168 16 16s-7.168 16-16 16v48h32c8.832 0 16 7.168 16 16s-7.168 16-16 16h-32v48c8.832 0 16 7.168 16 16s-7.168 16-16 16v48h32c8.832 0 16 7.168 16 16s-7.168 16-16 16h-32v48c0 8.832-7.168 16-16 16s-16-7.168-16-16v-464c0-17.648 14.352-32 32-32h464c8.832 0 16 7.168 16 16s-7.168 16-16 16zM448 208c8.832 0 16 7.168 16 16v80c0 1.048-0.112 2.104-0.312 3.136-0.104 0.48-0.28 0.92-0.416 1.384-0.16 0.536-0.28 1.080-0.496 1.6-0.232 0.544-0.544 1.048-0.832 1.56-0.216 0.4-0.392 0.816-0.64 1.184-1.176 1.76-2.688 3.264-4.448 4.448-0.376 0.248-0.792 0.424-1.184 0.64-0.512 0.28-1.016 0.592-1.56 0.832-0.52 0.208-1.064 0.336-1.6 0.496-0.464 0.136-0.904 0.312-1.384 0.416-1.024 0.192-2.080 0.304-3.128 0.304h-80c-8.832 0-16-7.168-16-16s7.168-16 16-16h41.376l-153.376-153.376-36.688 36.688c-6.248 6.248-16.376 6.248-22.624 0l-80-80c-6.248-6.248-6.248-16.376 0-22.624 3.128-3.128 7.216-4.688 11.312-4.688s8.184 1.56 11.312 4.688l68.688 68.688 36.688-36.688c6.248-6.248 16.376-6.248 22.624 0l164.688 164.688v-41.376c0-8.832 7.168-16 16-16z" />
<glyph unicode="&#xe665;" d="M496 0h-464v64h32c8.832 0 16 7.168 16 16s-7.168 16-16 16h-32v48c8.832 0 16 7.168 16 16s-7.168 16-16 16v48h32c8.832 0 16 7.168 16 16s-7.168 16-16 16h-32v48c8.832 0 16 7.168 16 16s-7.168 16-16 16v48h32c8.832 0 16 7.168 16 16s-7.168 16-16 16h-32v48c0 8.832-7.168 16-16 16s-16-7.168-16-16v-464c0-17.648 14.352-32 32-32h464c8.832 0 16 7.168 16 16s-7.168 16-16 16zM251.312 331.312l-80 80c-6.248 6.248-16.376 6.248-22.624 0s-6.248-16.376 0-22.624l68.688-68.688-36.688-36.688c-6.248-6.248-6.248-16.376 0-22.624l164.688-164.688h-41.376c-8.832 0-16-7.168-16-16s7.168-16 16-16h80c1.048 0 2.104 0.112 3.136 0.312 0.48 0.104 0.92 0.28 1.384 0.416 0.536 0.16 1.080 0.28 1.6 0.496 0.544 0.232 1.048 0.544 1.56 0.832 0.4 0.216 0.816 0.392 1.184 0.64 1.76 1.176 3.264 2.688 4.448 4.448 0.248 0.376 0.424 0.792 0.64 1.184 0.28 0.512 0.592 1.016 0.832 1.56 0.208 0.52 0.336 1.064 0.496 1.6 0.136 0.464 0.312 0.904 0.416 1.384 0.192 1.032 0.304 2.080 0.304 3.128v80c0 8.832-7.168 16-16 16s-16-7.168-16-16v-41.376l-153.376 153.376 36.688 36.688c6.248 6.248 6.248 16.376 0 22.624z" />
<glyph unicode="&#xe666;" d="M288 448c105.864 0 192-86.128 192-192s-86.136-192-192-192c-33.576 0-63.424 1.064-88.608 14.184-7.824 4.072-17.496 1.040-21.576-6.792s-1.040-17.504 6.8-21.584c22.424-11.688 46.048-15.696 71.392-17.080v-32.728h-48c-8.832 0-16-7.168-16-16s7.168-16 16-16h128c8.832 0 16 7.168 16 16s-7.168 16-16 16h-48v32c123.512 0 224 100.488 224 224s-100.496 224-224.008 224c-8.832 0-16-7.168-16-16s7.168-16 16-16zM288 88c92.632 0 168 75.36 168 168s-75.368 168-168 168-168-75.36-168-168 75.368-168 168-168zM288 392c74.992 0 136-61.008 136-136s-61.008-136-136-136-136 61.008-136 136 61.008 136 136 136z" />
<glyph unicode="&#xe667;" d="M320 296c0 35.288-28.712 64-64 64s-64-28.712-64-64 28.712-64 64-64 64 28.712 64 64zM224 296c0 17.648 14.352 32 32 32s32-14.352 32-32-14.352-32-32-32-32 14.352-32 32zM255.728-32c4.592 0 8.96 1.976 12 5.416 7.056 8 172.84 197.456 172.272 322.384-0.464 101.568-83 184.2-184 184.2-101.464 0-184-82.664-184-184.272 0-124.856 164.68-314.272 171.696-322.272 3.040-3.464 7.184-5.344 12.032-5.456zM256 448c83.432 0 151.616-68.344 152-152.344 0.432-94.592-114.248-240.976-152.232-286.84-37.8 45.896-151.768 192.208-151.768 286.912 0 83.96 68.184 152.272 152 152.272z" />
<glyph unicode="&#xe668;" d="M0 416v-352c0-8.832 7.168-16 16-16h480c8.832 0 16 7.168 16 16v288c0 8.832-7.168 16-16 16h-249.368l-59.32 59.312c-3 3-7.072 4.688-11.312 4.688h-160c-8.832 0-16-7.168-16-16zM32 400h137.368l59.32-59.312c3-3 7.072-4.688 11.312-4.688h240v-256h-448v320z" />
<glyph unicode="&#xe669;" d="M96 480c-8.832 0-16-7.168-16-16v-480c0-8.832 7.168-16 16-16s16 7.168 16 16v240h304c5.544 0 10.696 2.872 13.608 7.592 2.912 4.712 3.176 10.608 0.704 15.568l-44.424 88.84 44.424 88.84c2.48 4.96 2.208 10.848-0.704 15.568-2.912 4.72-8.064 7.592-13.608 7.592h-304v16c0 8.832-7.168 16-16 16zM390.112 416l-36.424-72.84c-2.248-4.504-2.248-9.808 0-14.312l36.424-72.848h-278.112v160h278.112z" />
<glyph unicode="&#xe66a;" d="M336 40v64c0 8.832-7.168 16-16 16h-304c-8.832 0-16-7.168-16-16v-64c0-8.832 7.168-16 16-16h304c8.832 0 16 7.168 16 16zM304 56h-272v32h272v-32zM48 168c-8.832 0-16-7.168-16-16s7.168-16 16-16h240c8.832 0 16 7.168 16 16s-7.168 16-16 16h-240zM16 184h304c8.832 0 16 7.168 16 16 0 1.12-1.92 112-168 112s-168-110.88-168-112c0-8.832 7.168-16 16-16zM168 280c96.544 0 124.56-40.544 132.68-64h-265.36c8.12 23.456 36.136 64 132.68 64zM496 344h-82.448l-13.768 82.632c-1.448 8.72-9.712 14.576-18.408 13.152-8.72-1.456-14.608-9.696-13.152-18.408l12.888-77.376h-13.112c-4.4 0-8.6-1.808-11.624-5-3.016-3.192-4.592-7.496-4.352-11.88l16-288c0.472-8.488 7.48-15.12 15.976-15.12h96c8.496 0 15.504 6.632 15.976 15.112l16 288c0.24 4.392-1.336 8.688-4.352 11.88-3.024 3.2-7.224 5.008-11.624 5.008zM464.864 56h-65.728l-14.224 256h15.024c0.016 0 0.024 0 0.040 0s0.032 0 0.048 0h79.056l-14.216-256z" />
<glyph unicode="&#xe66b;" d="M256 360c-166.648 0-249.848-121.936-253.312-127.128-3.584-5.376-3.584-12.376 0-17.752 3.464-5.184 86.664-127.12 253.312-127.12s249.848 121.936 253.312 127.128c3.584 5.376 3.584 12.376 0 17.752-3.464 5.184-86.664 127.12-253.312 127.12zM256 120c-124.056 0-198.128 77.424-219.904 104.032 21.704 26.664 95.392 103.968 219.904 103.968 124.056 0 198.128-77.424 219.904-104.032-21.704-26.664-95.392-103.968-219.904-103.968zM256 296c-39.704 0-72-32.304-72-72s32.296-72 72-72 72 32.304 72 72-32.296 72-72 72zM256 184c-22.056 0-40 17.944-40 40s17.944 40 40 40 40-17.944 40-40-17.944-40-40-40z" />
<glyph unicode="&#xe66c;" d="M16 288c8.832 0 16 7.168 16 16v89.376l140.688-140.688c3.12-3.128 7.216-4.688 11.312-4.688s8.192 1.56 11.312 4.688c6.248 6.248 6.248 16.376 0 22.624l-140.688 140.688h89.376c8.832 0 16 7.168 16 16s-7.168 16-16 16h-128c-8.832 0-16-7.168-16-16v-128c0-8.832 7.168-16 16-16zM16 0h128c8.832 0 16 7.168 16 16s-7.168 16-16 16h-89.376l140.688 140.688c6.248 6.248 6.248 16.376 0 22.624-6.24 6.248-16.384 6.248-22.624 0l-140.688-140.688v89.376c0 8.832-7.168 16-16 16s-16-7.168-16-16v-128c0-8.832 7.168-16 16-16zM496 160c-8.832 0-16-7.168-16-16v-89.376l-140.688 140.688c-6.24 6.248-16.384 6.248-22.624 0-6.248-6.248-6.248-16.376 0-22.624l140.688-140.688h-89.376c-8.832 0-16-7.168-16-16s7.168-16 16-16h128c8.832 0 16 7.168 16 16v128c0 8.832-7.168 16-16 16zM496 448h-128c-8.832 0-16-7.168-16-16s7.168-16 16-16h89.376l-140.688-140.688c-6.248-6.248-6.248-16.376 0-22.624 3.12-3.128 7.216-4.688 11.312-4.688s8.192 1.56 11.312 4.688l140.688 140.688v-89.376c0-8.832 7.168-16 16-16s16 7.168 16 16v128c0 8.832-7.168 16-16 16z" />
<glyph unicode="&#xe66d;" d="M256.008 288c-8.84 0-16.008-7.168-16.008-16v-217.368l-36.68 36.68c-6.248 6.248-16.368 6.248-22.616 0s-6.248-16.376 0-22.624l64-64c3.128-3.128 7.216-4.688 11.312-4.688s8.184 1.56 11.312 4.688l64 64c6.248 6.248 6.248 16.376 0 22.624-6.248 6.248-16.376 6.248-22.624 0l-36.704-36.696v217.384c-0.016 8-7.16 16-15.992 16zM496 448h-480c-8.832 0-16-7.168-16-16v-288c0-8.832 7.168-16 16-16h176c8.832 0 16 7.168 16 16s-7.168 16-16 16h-160v256h448v-256h-160c-8.832 0-16-7.168-16-16s7.168-16 16-16h176c8.832 0 16 7.168 16 16v288c0 8.832-7.168 16-16 16z" />
<glyph unicode="&#xe66e;" d="M0 112c0-8.832 7.168-16 16-16h176c8.832 0 16 7.168 16 16s-7.168 16-16 16h-160v320h137.368l59.32-59.312c3-3 7.072-4.688 11.312-4.688h240v-256h-160c-8.832 0-16-7.168-16-16s7.168-16 16-16h176c8.832 0 16 7.168 16 16v288c0 8.832-7.168 16-16 16h-249.368l-59.32 59.312c-3 3-7.072 4.688-11.312 4.688h-160c-8.832 0-16-7.168-16-16v-352zM256 256c-8.832 0-16-7.168-16-16v-217.368l-36.688 36.68c-6.24 6.248-16.384 6.248-22.624 0-6.248-6.248-6.248-16.376 0-22.624l64-64c3.12-3.128 7.216-4.688 11.312-4.688s8.192 1.56 11.312 4.688l64 64c6.248 6.248 6.248 16.376 0 22.624-6.24 6.248-16.384 6.248-22.624 0l-36.688-36.68v217.368c0 8.832-7.168 16-16 16z" />
<glyph unicode="&#xe66f;" d="M200 0c110.28 0 200 89.72 200 200s-89.72 200-200 200-200-89.72-200-200 89.72-200 200-200zM200 368c92.64 0 168-75.36 168-168s-75.36-168-168-168-168 75.36-168 168 75.36 168 168 168zM200 64c74.992 0 136 61.008 136 136s-61.008 136-136 136-136-61.008-136-136 61.008-136 136-136zM200 304c57.344 0 104-46.656 104-104s-46.656-104-104-104-104 46.656-104 104 46.656 104 104 104zM440-32c8.832 0 16 7.168 16 16v306.232c32.92 9.104 56 45.080 56 77.768 0 34.208-27.2 112-72 112s-72-77.792-72-112c0-32.68 23.080-68.664 56-77.768v-306.232c0-8.832 7.168-16 16-16zM400 368c0 32.968 25.872 80 40 80s40-47.032 40-80c0-21.744-17.84-48-40-48s-40 26.256-40 48z" />
<glyph unicode="&#xe670;" d="M496 480c-8.832 0-16-7.168-16-16v-116.472l-16-5.336v121.808c0 8.832-7.168 16-16 16s-16-7.168-16-16v-121.8l-16 5.336v116.464c0 8.832-7.168 16-16 16s-16-7.168-16-16v-128c0-6.888 4.408-13 10.944-15.176l37.056-12.352v-324.472c0-8.832 7.168-16 16-16s16 7.168 16 16v324.472l37.056 12.352c6.536 2.176 10.944 8.288 10.944 15.176v128c0 8.832-7.168 16-16 16zM400 200c0 110.28-89.72 200-200 200s-200-89.72-200-200 89.72-200 200-200 200 89.72 200 200zM32 200c0 92.64 75.36 168 168 168s168-75.36 168-168-75.36-168-168-168-168 75.36-168 168zM336 200c0 74.992-61.008 136-136 136s-136-61.008-136-136 61.008-136 136-136 136 61.008 136 136zM96 200c0 57.344 46.656 104 104 104s104-46.656 104-104-46.656-104-104-104-104 46.656-104 104z" />
<glyph unicode="&#xe671;" d="M380.496 426c-3.040 3.792-7.64 6-12.496 6h-224c-4.856 0-9.456-2.208-12.496-6l-128-160c-5.096-6.368-4.584-15.544 1.176-21.312l240-240c3.128-3.128 7.224-4.688 11.32-4.688s8.192 1.56 11.312 4.688l240 240c5.768 5.768 6.272 14.944 1.176 21.312l-127.992 160zM462.704 272h-82.8l-38.4 128h18.808l102.392-128zM134.272 240l85.776-165.416-165.416 165.416h79.64zM170.32 240h69.68v-134.384l-69.68 134.384zM272 240h69.68l-69.68-134.384v134.384zM377.728 240h79.648l-165.424-165.416 85.776 165.416zM308.096 400l38.4-128h-74.496v128h36.096zM240 272h-74.496l38.4 128h36.096v-128zM151.688 400h18.808l-38.4-128h-82.8l102.392 128z" />
<glyph unicode="&#xe672;" d="M256 480c-141.376 0-256-114.624-256-256s114.624-256 256-256 256 114.624 256 256-114.624 256-256 256zM384 192h-256v64h256v-64z" />
<glyph unicode="&#xe673;" d="M256 224c26.472 0 48 21.528 48 48s-21.528 48-48 48-48-21.528-48-48 21.528-48 48-48zM256 288c8.824 0 16-7.176 16-16s-7.176-16-16-16-16 7.176-16 16 7.176 16 16 16zM128 224c26.472 0 48 21.528 48 48s-21.528 48-48 48-48-21.528-48-48 21.528-48 48-48zM128 288c8.824 0 16-7.176 16-16s-7.176-16-16-16-16 7.176-16 16 7.176 16 16 16zM384 224c26.472 0 48 21.528 48 48s-21.528 48-48 48-48-21.528-48-48 21.528-48 48-48zM384 288c8.824 0 16-7.176 16-16s-7.176-16-16-16-16 7.176-16 16 7.176 16 16 16zM496 456h-480c-8.832 0-16-7.168-16-16v-336c0-8.832 7.168-16 16-16h112v-80c0-6.248 3.64-11.928 9.312-14.536 2.144-0.984 4.416-1.464 6.688-1.464 3.752 0 7.464 1.32 10.416 3.848l107.504 92.152h234.080c8.832 0 16 7.168 16 16v336c0 8.832-7.168 16-16 16zM480 120h-224c-3.824 0-7.512-1.368-10.416-3.848l-85.584-73.36v61.208c0 8.832-7.168 16-16 16h-112v304h448v-304z" />
<glyph unicode="&#xe674;" d="M80 336h352c8.832 0 16 7.168 16 16s-7.168 16-16 16h-352c-8.832 0-16-7.168-16-16s7.168-16 16-16zM80 256h352c8.832 0 16 7.168 16 16s-7.168 16-16 16h-352c-8.832 0-16-7.168-16-16s7.168-16 16-16zM448 192c0 8.832-7.168 16-16 16h-352c-8.832 0-16-7.168-16-16s7.168-16 16-16h352c8.832 0 16 7.168 16 16zM0 104c0-8.832 7.168-16 16-16h112v-80c0-6.248 3.64-11.928 9.312-14.536 2.144-0.984 4.416-1.464 6.688-1.464 3.752 0 7.464 1.32 10.416 3.848l107.504 92.152h234.080c8.832 0 16 7.168 16 16v336c0 8.832-7.168 16-16 16h-480c-8.832 0-16-7.168-16-16v-336zM32 424h448v-304h-224c-3.824 0-7.512-1.368-10.416-3.848l-85.584-73.36v61.208c0 8.832-7.168 16-16 16h-112v304z" />
<glyph unicode="&#xe675;" d="M208 176c8.832 0 16 7.168 16 16 0 15.256 16.744 32 32 32s32-16.744 32-32c0-8.832 7.168-16 16-16s16 7.168 16 16c0 32.896-31.104 64-64 64s-64-31.104-64-64c0-8.832 7.168-16 16-16zM176 304c4.24 0 8.32 1.68 11.28 4.64 3.040 3.040 4.72 7.12 4.72 11.36 0 4.24-1.68 8.32-4.72 11.28-5.92 6-16.64 6-22.56 0-3.040-2.96-4.72-7.040-4.72-11.28 0-4.24 1.68-8.32 4.72-11.36 2.96-2.96 7.040-4.64 11.28-4.64zM336 304c4.16 0 8.32 1.68 11.36 4.72 2.96 2.96 4.64 7.12 4.64 11.28s-1.68 8.32-4.72 11.36c-5.92 5.92-16.64 5.92-22.56-0.080-3.040-2.96-4.72-7.040-4.72-11.28 0-4.24 1.68-8.32 4.72-11.36 2.96-2.96 7.12-4.64 11.28-4.64zM0 104c0-8.832 7.168-16 16-16h112v-80c0-6.248 3.64-11.928 9.312-14.536 2.144-0.984 4.416-1.464 6.688-1.464 3.752 0 7.464 1.32 10.416 3.848l107.504 92.152h234.080c8.832 0 16 7.168 16 16v336c0 8.832-7.168 16-16 16h-480c-8.832 0-16-7.168-16-16v-336zM32 424h448v-304h-224c-3.824 0-7.512-1.368-10.416-3.848l-85.584-73.36v61.208c0 8.832-7.168 16-16 16h-112v304z" />
<glyph unicode="&#xe676;" d="M256.008 176c32.896 0 64 31.104 64 64 0 8.832-7.168 16-16 16s-16-7.168-16-16c0-15.256-16.744-32-32-32s-32 16.744-32 32c0 8.832-7.168 16-16 16s-16-7.168-16-16c0-32.896 31.104-64 64-64zM176 304c4.24 0 8.32 1.68 11.36 4.72 2.96 2.96 4.64 7.040 4.64 11.28 0 4.24-1.68 8.32-4.64 11.28-6 6-16.72 6-22.72 0-2.96-2.96-4.64-7.040-4.64-11.28 0-4.24 1.68-8.32 4.72-11.28 2.96-3.040 7.12-4.72 11.28-4.72zM336 304c4.16 0 8.32 1.68 11.28 4.72 3.040 2.96 4.72 7.040 4.72 11.28 0 4.24-1.68 8.32-4.72 11.28-5.92 6-16.64 6-22.56 0-3.040-2.96-4.72-7.040-4.72-11.28 0-4.24 1.68-8.32 4.72-11.28 2.96-3.040 7.040-4.72 11.28-4.72zM0 104c0-8.832 7.168-16 16-16h112v-80c0-6.248 3.64-11.928 9.312-14.536 2.144-0.984 4.416-1.464 6.688-1.464 3.752 0 7.464 1.32 10.416 3.848l107.504 92.152h234.080c8.832 0 16 7.168 16 16v336c0 8.832-7.168 16-16 16h-480c-8.832 0-16-7.168-16-16v-336zM32 424h448v-304h-224c-3.824 0-7.512-1.368-10.416-3.848l-85.584-73.36v61.208c0 8.832-7.168 16-16 16h-112v304z" />
<glyph unicode="&#xe677;" d="M496 456h-480c-8.832 0-16-7.168-16-16v-336c0-8.832 7.168-16 16-16h112v-80c0-6.248 3.64-11.928 9.312-14.536 2.144-0.984 4.424-1.464 6.688-1.464 3.752 0 7.456 1.32 10.416 3.848l107.504 92.152h234.080c8.832 0 16 7.168 16 16v336c0 8.832-7.168 16-16 16zM480 120h-224c-3.824 0-7.512-1.368-10.416-3.848l-85.584-73.36v61.208c0 8.832-7.168 16-16 16h-112v304h448v-304zM188.688 204.688c3.128-3.128 7.216-4.688 11.312-4.688s8.184 1.56 11.312 4.688l44.688 44.688 44.688-44.688c3.128-3.128 7.216-4.688 11.312-4.688s8.184 1.56 11.312 4.688c6.248 6.248 6.248 16.376 0 22.624l-44.688 44.688 44.688 44.688c6.248 6.248 6.248 16.376 0 22.624s-16.376 6.248-22.624 0l-44.688-44.688-44.688 44.688c-6.248 6.248-16.376 6.248-22.624 0s-6.248-16.376 0-22.624l44.688-44.688-44.688-44.688c-6.248-6.248-6.248-16.376 0-22.624z" />
<glyph unicode="&#xe678;" d="M16 88h112v-80c0-6.248 3.64-11.928 9.312-14.536 2.144-0.984 4.416-1.464 6.688-1.464 3.752 0 7.464 1.32 10.416 3.848l107.504 92.152h234.080c8.832 0 16 7.168 16 16v336c0 8.832-7.168 16-16 16h-480c-8.832 0-16-7.168-16-16v-336c0-8.832 7.168-16 16-16zM32 424h448v-304h-224c-3.824 0-7.512-1.368-10.416-3.848l-85.584-73.36v61.208c0 8.832-7.168 16-16 16h-112v304zM184 256h56v-56c0-8.832 7.168-16 16-16s16 7.168 16 16v56h56c8.832 0 16 7.168 16 16s-7.168 16-16 16h-56v56c0 8.832-7.168 16-16 16s-16-7.168-16-16v-56h-56c-8.832 0-16-7.168-16-16s7.168-16 16-16z" />
<glyph unicode="&#xe679;" d="M140.688 108.688c3.128-3.128 7.216-4.688 11.312-4.688s8.184 1.56 11.312 4.688l92.688 92.688 92.688-92.688c3.128-3.128 7.216-4.688 11.312-4.688s8.184 1.56 11.312 4.688c6.248 6.248 6.248 16.376 0 22.624l-92.688 92.688 92.688 92.688c6.248 6.248 6.248 16.376 0 22.624s-16.376 6.248-22.624 0l-92.688-92.688-92.688 92.688c-6.248 6.248-16.376 6.248-22.624 0s-6.248-16.376 0-22.624l92.688-92.688-92.688-92.688c-6.248-6.248-6.248-16.376 0-22.624zM256-32c68.376 0 132.664 26.632 181.008 74.984 48.36 48.352 74.992 112.64 74.992 181.016s-26.632 132.664-74.992 181.008c-48.344 48.36-112.632 74.992-181.008 74.992s-132.664-26.632-181.008-74.984c-48.36-48.352-74.992-112.64-74.992-181.016s26.632-132.664 74.992-181.008c48.344-48.36 112.632-74.992 181.008-74.992zM97.616 382.384c42.304 42.312 98.552 65.616 158.384 65.616s116.080-23.304 158.384-65.616c42.312-42.304 65.616-98.552 65.616-158.384s-23.304-116.080-65.616-158.384c-42.304-42.312-98.552-65.616-158.384-65.616s-116.080 23.304-158.384 65.616c-42.312 42.304-65.616 98.552-65.616 158.384s23.304 116.080 65.616 158.384z" />
<glyph unicode="&#xe67a;" d="M0 64c0-8.832 7.168-16 16-16h480c8.832 0 16 7.168 16 16v288c0 8.832-7.168 16-16 16h-249.368l-59.32 59.312c-3 3-7.072 4.688-11.312 4.688h-160c-8.832 0-16-7.168-16-16v-352zM32 400h137.368l59.32-59.312c3-3 7.072-4.688 11.312-4.688h240v-256h-448v320zM331.312 283.312c-6.24 6.248-16.384 6.248-22.624 0l-52.688-52.688-52.688 52.688c-6.24 6.248-16.384 6.248-22.624 0-6.248-6.248-6.248-16.376 0-22.624l52.688-52.688-52.688-52.688c-6.248-6.248-6.248-16.376 0-22.624 3.12-3.128 7.216-4.688 11.312-4.688s8.192 1.56 11.312 4.688l52.688 52.688 52.688-52.688c3.12-3.128 7.216-4.688 11.312-4.688s8.192 1.56 11.312 4.688c6.248 6.248 6.248 16.376 0 22.624l-52.688 52.688 52.688 52.688c6.248 6.248 6.248 16.376 0 22.624z" />
<glyph unicode="&#xe67b;" d="M64 480c-8.832 0-16-7.168-16-16v-128c0-6.888 4.408-13 10.944-15.176l37.056-12.352v-324.472c0-8.832 7.168-16 16-16s16 7.168 16 16v324.472l37.056 12.352c6.536 2.176 10.944 8.288 10.944 15.176v128c0 8.832-7.168 16-16 16s-16-7.168-16-16v-116.472l-16-5.336v121.808c0 8.832-7.168 16-16 16s-16-7.168-16-16v-121.8l-16 5.336v116.464c0 8.832-7.168 16-16 16zM272-32c8.832 0 16 7.168 16 16v199.664c0 0.232 0 0.464 0 0.696v279.64c0 8.832-7.168 16-16 16h-32c-8.096 0-14.912-6.040-15.88-14.072l-32-264c-0.976-8.008 4.176-15.496 12-17.448l51.88-12.976v-187.504c0-8.832 7.168-16 16-16zM225.584 212.096l28.592 235.904h1.824v-243.504l-30.416 7.6zM392-32c8.832 0 16 7.168 16 16v306.232c32.92 9.104 56 45.080 56 77.768 0 34.208-27.2 112-72 112s-72-77.792-72-112c0-32.68 23.080-68.664 56-77.768v-306.232c0-8.832 7.168-16 16-16zM352 368c0 32.968 25.872 80 40 80s40-47.032 40-80c0-21.744-17.84-48-40-48s-40 26.256-40 48z" />
</font>
</defs>
</svg>
