<?xml version="1.0" standalone="no"?>
<!DOCTYPE svg PUBLIC "-//W3C//DTD SVG 1.1//EN" "http://www.w3.org/Graphics/SVG/1.1/DTD/svg11.dtd" >
<svg xmlns="http://www.w3.org/2000/svg">
<metadata>
Created by FontPrep 20130207 at Sat Mar 29 21:35:57 2014
 By jd
Uyghur Computer Science Association. Free distributed and all rights reserved. http://www.ukij.org
</metadata>
<defs>
<font id="ce1ec1d144ea9f4cb3a713e59b5adf2d" horiz-adv-x='1024' >
  <font-face 
    font-family="UKIJQolyazma"
    font-weight="400"
    font-stretch="normal"
    units-per-em="2048"
    panose-1="2 2 6 3 5 4 5 2 3 4"
    ascent="1638"
    descent="-410"
    x-height="1180"
    cap-height="1566"
    bbox="-431 -916 2552 1967"
    underline-thickness="180"
    underline-position="-720"
    unicode-range="U+0020-FEFC"
  />
<missing-glyph horiz-adv-x="1620" 
d="M318 150h984v1247h-984v-1247zM284 118v1313h1051v-1313h-1051z" />
    <glyph glyph-name="uni2163" unicode="&#x651;&#x64b;" horiz-adv-x="1931" 
d="M98 1490v50h497v-50q-148 0 -175 -50v-1194q19 -48 175 -48v-51h-497v51q157 0 175 30v1203q-18 59 -175 59zM1804 1490q-130 0 -157 -107l-407 -1267l-388 1201q-66 173 -167 173v50h432v-50q-173 0 -124 -149l283 -895l266 846q14 66 35 132t-119 66v50h346v-50z" />
    <glyph glyph-name="uni2467" unicode="&#x651;&#x64c;" 
d="M987 332q81 0 134 51t53 133t-54 134t-135 51q-79 0 -131 -54q-52 -53 -52 -131t52 -131t133 -53zM990 794q64 0 106 40t42 102t-44 105t-107 43t-105 -42t-43 -106q0 -62 44 -102t107 -40zM1289 516q1 -120 -83 -199t-218 -79t-217 80q-84 80 -84 186q-1 104 47 168
t128 78v3q-139 42 -139 185q1 100 73 168t191 68t193 -69t73 -170q0 -135 -135 -182v-3q171 -55 171 -234zM992 6q286 0 494 206t208 493q0 187 -95 350t-257 257t-350 95q-290 0 -496 -207t-206 -494q0 -288 208 -494t494 -206zM992 1532q220 0 412 -112t302 -303t111 -411
q0 -220 -111 -411t-303 -302q-191 -111 -411 -111t-412 111t-303 302t-111 411t110 412t303 303t413 111z" />
    <glyph glyph-name="uni2468" unicode="&#x651;&#x64d;" 
d="M1000 664q80 0 129 58t49 149t-50 152t-128 61t-132 -66t-54 -154q0 -90 54 -145q52 -55 132 -55zM1301 730q0 -492 -326 -492q-105 0 -175 56t-84 173l108 7q25 -142 152 -142q102 0 158 93t57 261h-3q-78 -122 -204 -122t-205 83t-79 219t80 222t208 86t220 -98
t93 -346zM992 6q286 0 494 206t208 493q0 187 -95 350t-257 257t-350 95q-290 0 -496 -207t-206 -494q0 -288 208 -494t494 -206zM992 1532q220 0 412 -112t302 -303t111 -411q0 -220 -111 -411t-303 -302q-191 -111 -411 -111t-412 111t-303 302t-111 411t110 412t303 303
t413 111z" />
    <glyph glyph-name="uni2469" unicode="&#x651;&#x64e;" 
d="M785 254h-113v717q-85 -79 -226 -135v108q194 94 266 230h73v-920zM1197 332q182 0 182 373q-1 203 -47 291t-137 88t-137 -90t-45 -289t47 -286t137 -87zM897 706q1 468 299 468t298 -468t-298 -468t-299 468zM992 6q286 0 494 206t208 493q0 187 -95 350t-257 257
t-350 95q-290 0 -496 -207t-206 -494q0 -288 208 -494t494 -206zM992 1532q220 0 412 -112t302 -303t111 -411q0 -220 -111 -411t-303 -302q-191 -111 -411 -111t-412 111t-303 302t-111 411t110 412t303 303t413 111z" />
    <glyph glyph-name="uni246A" unicode="&#x651;&#x64f;" 
d="M839 254h-111v717q-86 -79 -227 -135v108q193 94 266 230h72v-920zM1329 254h-113v717q-85 -79 -227 -135v108q195 94 267 230h73v-920zM992 6q286 0 494 206t208 493q0 187 -95 350t-257 257t-350 95q-290 0 -496 -207t-206 -494q0 -288 208 -494t494 -206zM992 1532
q220 0 412 -112t302 -303t111 -411q0 -220 -111 -411t-303 -302q-191 -111 -411 -111t-412 111t-303 302t-111 411t110 412t303 303t413 111z" />
    <glyph glyph-name="uni246B" unicode="&#x651;&#x650;" 
d="M770 254h-113v717q-85 -79 -227 -135v108q193 94 266 230h74v-920zM1490 254h-608q0 78 54 156t204 201q100 79 166 155t66 151t-48 121t-124 46q-74 0 -126 -47t-52 -141l-117 14q11 124 90 194t211 70t206 -74q76 -74 76 -172t-55 -177t-186 -188t-158 -135t-51 -66
h452v-108zM992 6q286 0 494 206t208 493q0 187 -95 350t-257 257t-350 95q-290 0 -496 -207t-206 -494q0 -288 208 -494t494 -206zM992 1532q220 0 412 -112t302 -303t111 -411q0 -220 -111 -411t-303 -302q-191 -111 -411 -111t-412 111t-303 302t-111 411t110 412t303 303
t413 111z" />
    <glyph glyph-name="afii64184" unicode="&#xfedf;&#xfee0;&#xfeea;" horiz-adv-x="1867" arabic-form="isolated" 
d="M501 329q86 0 158 85l-24 150q-126 -45 -183 -82q-75 -57 -120 -129q83 -24 169 -24zM974 130q-90 0 -172 53q-83 53 -115 131q-53 -78 -129 -131t-152 -53q-151 0 -241 22t-90 60q0 115 153 258t382 250q-3 21 -12 57q-9 35 -9 71t28 81t75 107q23 -158 45 -275
q23 -117 51 -265q37 -139 186 -139q67 0 96 18q32 14 90 99l-82 374q-9 33 -12 70q-11 51 -11 88t35 91q24 52 64 102q10 -58 26 -126q16 -69 26 -129t25 -135l49 -239q24 -96 72 -154t138 -57q77 0 92 115l-75 374q-6 27 -8 45t-9 25q-7 54 -7 86t32 92t67 103
q0 -19 12 -73q138 -593 139 -698q0 -104 -6 -158t-37 -108l-17 -32q-229 0 -345 96q-36 30 -70 71q-55 -94 -129 -135q-65 -32 -155 -32zM921 1412q-1 -113 65 -113q28 0 46 16q56 54 73 153l30 8q12 -51 21 -64q24 -26 68 -26t68 56t29 92l32 7q5 -38 5 -71q0 -93 -37 -161
t-88 -68q-50 0 -116 31q-17 -39 -50 -73q-49 -39 -97 -39t-76 36t-29 80q0 44 4 73t6 48zM971 1812q52 0 82 -51q19 -41 31 -63q38 -66 52 -168l-31 -13q-35 85 -104 154q-19 24 -92 84q10 57 62 57z" />
    <glyph glyph-name="afii62834" unicode="&#xfedf;&#xfe82;" horiz-adv-x="952" arabic-form="isolated" 
 />
    <glyph glyph-name="afii62835" unicode="&#xfee0;&#xfe82;" horiz-adv-x="1033" arabic-form="final" 
 />
    <glyph glyph-name="afii62836" unicode="&#xfedf;&#xfe84;" horiz-adv-x="1501" arabic-form="isolated" 
d="M1076 212q141 0 141 151v1248l128 129v-1377q0 -280 -269 -280h-254q0 -253 -40 -399t-107 -235q-15 -18 -115 -119h-16q4 0 44 80q106 214 105 430v243h-232q-170 0 -267 123q-94 112 -94 290t101 299q101 120 261 120t260 -117t100 -297v-289h254zM682 1508
q-84 -71 -122 -131t-94 -185q-5 16 -35 83q-60 134 -162 222l19 109q60 -31 110 -114q37 -72 75 -144q40 72 78 144q51 79 117 112zM461 212h232v289q-1 114 -65 199t-167 85t-168 -82q-65 -81 -65 -203t64 -205t169 -83z" />
    <glyph glyph-name="afii62837" unicode="&#xfee0;&#xfe84;" horiz-adv-x="1569" arabic-form="final" 
d="M1087 212q141 0 141 151v1260l128 129v-1358q0 -74 58 -128t125 -54h68v-129h-68q-158 0 -222 106q-71 -106 -230 -106h-265q0 -253 -40 -399t-107 -235q-15 -18 -115 -119h-16q4 0 44 80q106 214 105 430v243h-232q-170 0 -267 123q-94 112 -94 290t101 299
q101 120 261 120t260 -117t100 -297v-289h265zM682 1508q-84 -71 -122 -131t-94 -185q-5 16 -35 83q-60 134 -162 222l19 109q60 -31 110 -114q37 -72 75 -144q40 72 78 144q51 79 117 112zM461 212h232v289q-1 114 -65 199t-167 85t-168 -82q-65 -81 -65 -203t64 -205
t169 -83z" />
    <glyph glyph-name="afii62838" unicode="&#xfedf;&#xfe88;" horiz-adv-x="1501" arabic-form="isolated" 
d="M424 1316q0 -38 -26 -65t-66 -27q-38 0 -66 27t-28 65t26 66q26 27 67 27t67 -27q26 -28 26 -66zM651 1316q0 -38 -27 -65q-26 -27 -64 -27t-66 27t-28 65t27 66q27 27 65 27t66 -27q27 -28 27 -66zM540 1506q0 -38 -28 -65t-66 -27t-65 26t-27 66t27 66q27 27 65 27
t66 -27q28 -28 28 -66zM1076 212q141 0 141 151v1248l128 129v-1377q0 -280 -269 -280h-254q0 -253 -40 -399t-107 -235q-15 -18 -115 -119h-16q4 0 44 80q106 214 105 430v243h-232q-170 0 -267 123q-94 112 -94 290t101 299q101 120 261 120t260 -117t100 -297v-289h254z
M461 212h232v289q-1 114 -65 199t-167 85t-168 -82q-65 -81 -65 -203t64 -205t169 -83z" />
    <glyph glyph-name="afii62839" unicode="&#xfee0;&#xfe88;" horiz-adv-x="1569" arabic-form="final" 
d="M424 1316q0 -38 -26 -65t-66 -27q-38 0 -66 27t-28 65t26 66q26 27 67 27t67 -27q26 -28 26 -66zM651 1316q0 -38 -27 -65q-26 -27 -64 -27t-66 27t-28 65t27 66q27 27 65 27t66 -27q27 -28 27 -66zM540 1506q0 -38 -28 -65t-66 -27t-65 26t-27 66t27 66q27 27 65 27
t66 -27q28 -28 28 -66zM1087 212q141 0 141 151v1260l128 129v-1358q0 -74 58 -128t125 -54h68v-129h-68q-158 0 -222 106q-71 -106 -230 -106h-265q0 -253 -40 -399t-107 -235q-15 -18 -115 -119h-16q4 0 44 80q106 214 105 430v243h-232q-170 0 -267 123q-94 112 -94 290
t101 299q101 120 261 120t260 -117t100 -297v-289h265zM461 212h232v289q-1 114 -65 199t-167 85t-168 -82q-65 -81 -65 -203t64 -205t169 -83z" />
    <glyph glyph-name="afii62840" unicode="&#xfedf;&#xfe8e;" horiz-adv-x="1188" arabic-form="isolated" 
d="M951 212q0 81 -59 182q-44 -78 -68 -107q-52 -55 -124 -75h251zM1086 212v-129h-596l-68 162q107 0 206 63q124 74 180 212q-62 82 -156 176l-363 363q-191 193 -191 410v130l128 129v-236q0 -65 50 -176t124 -188l345 -343q27 -29 65 -69t42 -46q13 68 13 145v784
l131 129v-943q0 -132 -38 -252q128 -187 128 -321z" />
    <glyph glyph-name="afii62841" unicode="&#xfee0;&#xfe8e;" horiz-adv-x="1336" arabic-form="final" 
d="M972 791v808l130 129v-1045q0 -287 48 -389q39 -82 131 -82h55v-129h-55q-144 -1 -213 83t-69 223q-75 -157 -222 -277q-103 -86 -215 -136t-129 -50l-253 66q57 0 168 38q112 38 234 114t216 183q-60 283 -146 369l-363 363q-191 193 -191 410v130l128 129v-236
q0 -65 50 -176t124 -188l345 -343q134 -134 134 -342q93 157 93 348z" />
    <glyph glyph-name="afii52400" unicode="&#x622;" horiz-adv-x="417" arabic-form="isolated" 
 />
    <glyph glyph-name="afii57411" unicode="&#x623;" horiz-adv-x="921" arabic-form="isolated" 
d="M680 1508q-84 -71 -122 -131t-94 -185q-5 16 -35 83q-60 134 -162 222l19 109q60 -31 110 -114q37 -72 75 -144q40 72 78 144q51 79 117 112zM691 501q1 120 -63 202t-168 82t-169 -82q-65 -81 -65 -203t64 -205t168 -83t168 84t65 205zM820 501v-289q0 -538 -144 -750
q-30 -41 -118 -132h-16q4 0 44 80q106 214 105 430v340q-42 -44 -104 -70t-128 -27q-170 0 -267 123q-94 112 -94 290t101 299q101 120 260 120t260 -120t101 -294z" />
    <glyph glyph-name="afii57412" unicode="&#x624;" horiz-adv-x="921" arabic-form="isolated" 
d="M568 1442q0 -72 -54 -150t-130 -78q-10 0 -24 10q110 63 110 190q-42 -8 -59 -8q-98 0 -98 97l7 27q46 71 112 71q66 1 101 -43t35 -116zM691 501q1 120 -63 202t-168 82t-169 -82q-65 -81 -65 -203t64 -205t168 -83t168 84t65 205zM820 501v-289q0 -538 -144 -750
q-30 -41 -118 -132h-16q4 0 44 80q106 214 105 430v340q-42 -44 -104 -70t-128 -27q-170 0 -267 123q-94 112 -94 290t101 299q101 120 260 120t260 -120t101 -294z" />
    <glyph glyph-name="afii57413" unicode="&#x625;" horiz-adv-x="921" arabic-form="isolated" 
d="M422 1316q0 -38 -26 -65t-66 -27q-38 0 -66 27t-28 65t26 66q26 27 67 27t67 -27q26 -28 26 -66zM649 1316q0 -38 -27 -65q-26 -27 -64 -27t-66 27t-28 65t27 66q27 27 65 27t66 -27q27 -28 27 -66zM538 1506q0 -38 -28 -65t-66 -27t-65 26t-27 66t27 66q27 27 65 27
t66 -27q28 -28 28 -66zM691 501q1 120 -63 202t-168 82t-169 -82q-65 -81 -65 -203t64 -205t168 -83t168 84t65 205zM820 501v-289q0 -538 -144 -750q-30 -41 -118 -132h-16q4 0 44 80q106 214 105 430v340q-42 -44 -104 -70t-128 -27q-170 0 -267 123q-94 112 -94 290
t101 299q101 120 260 120t260 -120t101 -294z" />
    <glyph glyph-name="afii57414" unicode="&#x626;" horiz-adv-x="651" arabic-form="isolated" 
d="M551 363q0 -280 -269 -280h-282v129h282q68 0 103 31q37 38 37 120v422l129 130v-552zM308 1299q-24 0 -48 -20q-24 -19 -25 -53q1 -34 37 -61t78 -27q147 36 201 36l-58 -89q-44 -8 -174 -44q-110 -36 -203 -36h-48l59 92h24q31 0 48 13q-63 38 -63 107t51 104t103 35
t83 -22t53 -47l-19 -15q-75 27 -99 27z" />
    <glyph glyph-name="afii57415" unicode="&#x627;" horiz-adv-x="450" arabic-form="isolated" 
d="M349 83q0 -577 -237 -753h-14q6 0 37 68q84 184 84 510v1727l130 129v-1681z" />
    <glyph glyph-name="afii57416" unicode="&#x628;" horiz-adv-x="1743" arabic-form="isolated" 
d="M1016 -137q0 -39 -27 -66t-66 -27t-67 27t-27 66q-1 39 27 65t67 27q39 -1 66 -27t27 -65zM1640 363q0 -280 -269 -280h-851q-190 1 -306 75t-116 217q0 97 73 201q37 51 136 147l60 62l20 -26l-45 -63q-144 -182 -144 -283t114 -157q88 -44 208 -44h851q71 0 105 31
q36 38 36 120v422l128 130v-552z" />
    <glyph glyph-name="afii57417" unicode="&#x629;" horiz-adv-x="955" arabic-form="isolated" 
d="M722 501v284h-133q-163 0 -267 -89q-96 -86 -96 -206t70 -198q70 -80 185 -80q113 0 177 85t64 204zM853 501q-1 -191 -101 -305t-270 -113t-277 109t-107 294t130 307q130 122 361 122h264v-414z" />
    <glyph glyph-name="afii57418" unicode="&#x62a;" horiz-adv-x="1743" arabic-form="isolated" 
d="M1640 363q0 -280 -269 -280h-851q-190 1 -306 75t-116 217q0 97 73 201q37 51 136 147l60 62l20 -26l-45 -63q-144 -182 -144 -283t114 -157q88 -44 208 -44h851q71 0 105 31q36 38 36 120v422l128 130v-552zM951 878q0 -38 -27 -66q-28 -27 -66 -27t-66 27
q-28 28 -27 66q-1 38 27 65t66 27t66 -27q27 -27 27 -65zM1180 878q0 -38 -28 -66q-28 -27 -66 -27t-66 27q-28 28 -27 66q0 38 27 65q28 27 66 27t66 -27t28 -65z" />
    <glyph glyph-name="afii57419" unicode="&#x62b;" horiz-adv-x="1743" arabic-form="isolated" 
d="M884 1135q0 -37 -26 -65t-66 -28q-38 0 -66 27t-28 65t27 66t67 28t66 -28t26 -65zM1113 1135q1 -37 -27 -65t-66 -28t-66 27t-27 65t27 66t65 28t67 -28t27 -65zM1000 1324q0 -38 -27 -65t-65 -27t-64 27q-28 27 -28 65t26 65t65 27t66 -27t27 -65zM949 601q0 11 -11 20
l-85 39q-57 32 -57 71t15 59t47 40l78 40q66 33 122 33l-31 -94h-19q-12 0 -29 -8l-82 -41q-6 -6 -6 -16t6 -14l82 -41q65 -29 65 -91q0 -28 -14 -48q-14 -26 -57 -38l-37 -11q-32 -10 -67 -10t-116 49v14l43 -3q49 0 82 13l58 21q13 5 13 16zM1640 363q0 -280 -269 -280
h-851q-190 1 -306 75t-116 217q0 97 73 201q37 51 136 147l60 62l20 -26l-45 -63q-144 -182 -144 -283t114 -157q88 -44 208 -44h851q71 0 105 31q36 38 36 120v1272l128 129v-1401z" />
    <glyph glyph-name="afii57420" unicode="&#x62c;" horiz-adv-x="1361" arabic-form="isolated" 
d="M871 -137q0 -39 -27 -66t-65 -27q-37 0 -65 27t-28 66t27 65t65 27q38 -1 66 -27q27 -26 27 -65zM98 701q0 107 53 179q61 77 161 77h19q126 0 253 -101l247 -204q35 -26 101 -48t122 -23h206l-129 -129h-114q-149 0 -317 -81t-280 -213t-112 -276q0 -174 186 -344
q134 -124 322 -220t211 -96l-17 -31q-41 0 -251 76t-365 206q-214 180 -214 409q0 108 64 229t198 232t335 184l-276 223q-37 30 -87 54t-83 23h-19q-57 0 -109 -51t-52 -116v-64l-21 -8q-32 67 -32 113z" />
    <glyph glyph-name="afii57421" unicode="&#x62d;" horiz-adv-x="1361" arabic-form="isolated" 
d="M98 701q0 107 53 179q61 77 161 77h19q126 0 253 -101l247 -204q35 -26 101 -48t122 -23h206l-129 -129h-114q-149 0 -317 -81t-280 -213t-112 -276q0 -174 186 -344q134 -124 322 -220t211 -96l-17 -31q-41 0 -251 76t-365 206q-214 180 -214 409q0 108 64 229t198 232
t335 184l-276 223q-37 30 -87 54t-83 23h-19q-57 0 -109 -51t-52 -116v-64l-21 -8q-32 67 -32 113z" />
    <glyph glyph-name="afii57422" unicode="&#x62e;" horiz-adv-x="1361" arabic-form="isolated" 
d="M98 701q0 107 53 179q61 77 161 77h19q126 0 253 -101l247 -204q35 -26 101 -48t122 -23h206l-129 -129h-114q-149 0 -317 -81t-280 -213t-112 -276q0 -174 186 -344q134 -124 322 -220t211 -96l-17 -31q-41 0 -251 76t-365 206q-214 180 -214 409q0 108 64 229t198 232
t335 184l-276 223q-37 30 -87 54t-83 23h-19q-57 0 -109 -51t-52 -116v-64l-21 -8q-32 67 -32 113zM751 1135q0 -37 -27 -65q-28 -28 -66 -28t-66 27t-28 65t28 66t66 28t66 -28q27 -28 27 -65z" />
    <glyph glyph-name="afii57423" unicode="&#x62f;" horiz-adv-x="1068" arabic-form="isolated" 
d="M967 298q0 -78 -69 -147q-69 -68 -208 -68h-401q-97 1 -144 43t-47 132t46 230l31 10q1 -172 45 -229t162 -57h314q56 0 98 31t41 75q0 44 -9 94q-19 76 -68 156l-284 474l51 163l343 -571q60 -102 80 -180t19 -156z" />
    <glyph glyph-name="afii57424" unicode="&#x630;" horiz-adv-x="921" arabic-form="isolated" 
d="M532 1401q0 -89 -104 -151q-17 294 -14 338v11q37 15 117 51zM691 497q-1 120 -65 204t-168 84q-104 -1 -168 -83t-64 -204t65 -204t169 -82t168 82t63 203zM820 501v-289q0 -538 -144 -750q-30 -41 -118 -132h-16q4 0 44 80q106 214 105 430v340q-42 -44 -104 -70
t-128 -27q-170 0 -267 123q-94 112 -94 290t101 299q101 120 260 120t260 -120t101 -294z" />
    <glyph glyph-name="afii57425" unicode="&#x631;" horiz-adv-x="477" arabic-form="isolated" 
d="M375 212q-1 -306 -39 -480t-105 -270q-29 -41 -119 -132h-14q2 0 42 80q104 206 104 430v945l131 130v-703z" />
    <glyph glyph-name="afii57426" unicode="&#x632;" horiz-adv-x="488" arabic-form="isolated" 
d="M375 212q-1 -306 -39 -480t-105 -270q-29 -41 -119 -132h-14q2 0 42 80q104 206 104 430v945l131 130v-703zM387 1135q0 -37 -28 -65t-66 -28t-65 27t-27 65t27 66t65 28t66 -28t28 -65z" />
    <glyph glyph-name="afii57427" unicode="&#x633;" horiz-adv-x="2153" arabic-form="isolated" 
d="M1844 83q-121 0 -193 84q-31 -43 -69 -63t-116 -21q-78 0 -150 48q2 -7 0 -8q0 -247 -145 -399q-167 -178 -462 -178t-453 167t-158 421t182 416q162 142 366 142h74l-16 -32q-204 0 -352 -142t-147 -350q0 -208 142 -350t343 -142q246 0 372 137t127 354v618l129 130
v-540q0 -67 45 -115t105 -48t84 42t23 121v410l130 130v-540q0 -67 36 -115t91 -48t72 42t17 121v410l131 130v-540q0 -143 -41 -208q-46 -84 -167 -84z" />
    <glyph glyph-name="afii57428" unicode="&#x634;" horiz-adv-x="2153" arabic-form="isolated" 
d="M1844 83q-121 0 -193 84q-31 -43 -69 -63t-116 -21q-78 0 -150 48q2 -7 0 -8q0 -247 -145 -399q-167 -178 -462 -178t-453 167t-158 421t182 416q162 142 366 142h74l-16 -32q-204 0 -352 -142t-147 -350q0 -208 142 -350t343 -142q246 0 372 137t127 354v618l129 130
v-540q0 -67 45 -115t105 -48t84 42t23 121v410l130 130v-540q0 -67 36 -115t91 -48t72 42t17 121v410l131 130v-540q0 -143 -41 -208q-46 -84 -167 -84zM1615 1135q-1 -37 -27 -65t-65 -28t-67 27t-27 65t27 66t66 28t66 -28t27 -65zM1842 1135q0 -37 -26 -65t-65 -28
q-37 0 -65 27t-28 65t26 66t66 28t66 -28t26 -65zM1731 1324q1 -38 -27 -65t-66 -27t-66 27t-28 65t27 65t66 27t67 -27t27 -65z" />
    <glyph glyph-name="afii57429" unicode="&#x635;" horiz-adv-x="1529" arabic-form="isolated" 
d="M741 344q1 -36 25 -54t71 -34l347 -108q28 -10 44 -46t15 -80q0 -44 -13 -63q-82 -114 -203 -179q-144 -73 -337 -73q-276 0 -434 167q-158 168 -158 422t182 414q162 144 366 144h74l-16 -32q-204 0 -352 -142t-147 -350q0 -210 142 -351t343 -141q127 0 232 41t158 99
q12 16 12 41t-21 29l-384 120q-31 12 -61 56t-31 81q0 123 108 266t264 241q51 34 133 60t174 56q32 17 76 40q50 31 76 50l-127 -235q-75 -15 -141 -29t-144 -64t-176 -161q-98 -110 -97 -185z" />
    <glyph glyph-name="afii57430" unicode="&#x636;" horiz-adv-x="1529" arabic-form="isolated" 
d="M813 -552q0 -38 -27 -66q-28 -28 -66 -27t-66 27t-27 65q-1 39 27 67t66 27q38 1 66 -27q27 -28 27 -66zM807 -824q0 -40 -27 -66q-28 -26 -66 -26t-66 26t-27 66q-1 40 27 66t66 26t66 -26q27 -26 27 -66zM741 344q1 -36 25 -54t71 -34l347 -108q28 -10 44 -46t15 -80
q0 -44 -13 -63q-82 -114 -203 -179q-144 -73 -337 -73q-276 0 -434 167q-158 168 -158 422t182 414q162 144 366 144h74l-16 -32q-204 0 -352 -142t-147 -350q0 -210 142 -351t343 -141q127 0 232 41t158 99q12 16 12 41t-21 29l-384 120q-31 12 -61 56t-31 81
q0 123 108 266t264 241q51 34 133 60t174 56q32 17 76 40q50 31 76 50l-127 -235q-75 -15 -141 -29t-144 -64t-176 -161q-98 -110 -97 -185z" />
    <glyph glyph-name="afii57431" unicode="&#x637;" horiz-adv-x="1541" arabic-form="isolated" 
d="M863 493q0 122 -84 207t-246 85h-135v-284q0 -118 63 -198q67 -91 171 -91t168 80t63 201zM533 915q229 0 343 -120t115 -295q0 -175 -89 -288h18q140 0 218 12q176 28 176 223q0 389 -239 615q-217 207 -531 207q-168 0 -286 -74t-118 -223q0 -49 18 -109t41 -86
l-20 -18q-52 42 -79 112t-27 110q0 212 144 323q125 96 344 96t425 -114t328 -321q128 -225 128 -518q0 -166 -54 -244t-177 -101q-90 -19 -291 -19h-920v129h355q-86 115 -86 289v414h264z" />
    <glyph glyph-name="afii57432" unicode="&#x638;" horiz-adv-x="651" arabic-form="isolated" 
d="M551 363q0 -280 -269 -280h-282v129h282q68 0 103 31q37 38 37 120v422l129 130v-552zM308 1299q-24 0 -48 -20q-24 -19 -25 -53q1 -34 37 -61t78 -27q147 36 201 36l-58 -89q-44 -8 -174 -44q-110 -36 -203 -36h-48l59 92h24q31 0 48 13q-63 38 -63 107t51 104t103 35
t83 -22t53 -47l-19 -15q-75 27 -99 27z" />
    <glyph glyph-name="afii57433" unicode="&#x639;" horiz-adv-x="1228" arabic-form="isolated" 
d="M505 880q-111 0 -195 -70t-84 -180t116 -194t248 -106q218 136 536 251l-91 -176q-117 -37 -273 -121t-262 -195q-137 -143 -137 -307t190 -312q134 -104 326 -176t219 -72l-18 -31q-58 0 -264 51t-363 164q-221 156 -221 383t227 441q-128 25 -236 127
q-125 115 -125 271t104 246q104 92 240 92q153 0 291 -100q20 -18 43 -39l-24 -19q-180 72 -247 72z" />
    <glyph glyph-name="afii57434" unicode="&#x63a;" horiz-adv-x="1228" arabic-form="isolated" 
d="M505 880q-111 0 -195 -70t-84 -180t116 -194t248 -106q218 136 536 251l-91 -176q-117 -37 -273 -121t-262 -195q-137 -143 -137 -307t190 -312q134 -104 326 -176t219 -72l-18 -31q-58 0 -264 51t-363 164q-221 156 -221 383t227 441q-128 25 -236 127
q-125 115 -125 271t104 246q104 92 240 92q153 0 291 -100q20 -18 43 -39l-24 -19q-180 72 -247 72zM531 1278q1 -40 -27 -66t-66 -26t-66 25t-28 65t27 68q27 26 66 26t67 -26t27 -66z" />
    <glyph glyph-name="afii57441" unicode="&#x641;" horiz-adv-x="1926" arabic-form="isolated" 
d="M1694 308v193q0 114 -65 199t-168 85t-167 -82t-64 -201q0 -118 85 -204t203 -86h70q46 0 76 28t30 68zM1825 308q-1 -108 -59 -166t-178 -59h-1068q-190 1 -306 75t-116 217q0 97 73 201q37 51 136 147l60 62l20 -26l-45 -63q-144 -182 -144 -283t114 -157
q88 -44 208 -44h696q-56 43 -86 122t-30 167q0 174 102 294t260 120t260 -119t103 -295v-193zM1285 1135q1 -37 -27 -65t-66 -28t-66 27t-28 65t27 66t66 28t67 -28t27 -65z" />
    <glyph glyph-name="afii57442" unicode="&#x642;" horiz-adv-x="1584" arabic-form="isolated" 
d="M1351 501q1 120 -63 202t-168 82t-168 -82q-64 -81 -63 -203q-1 -122 63 -205t168 -83t168 84t63 205zM1482 212q0 -294 -226 -480t-566 -186q-276 0 -434 167t-158 421t182 416q162 142 366 142h74l-16 -32q-204 0 -352 -142t-147 -350q0 -208 142 -350t343 -142
q259 0 460 148t201 343v9q-90 -93 -245 -93t-254 123q-94 112 -94 290t101 299q101 120 261 120t261 -120t101 -294v-289zM752 1135q0 -37 -27 -65t-65 -28t-66 27t-28 65t28 66t66 28t65 -28t27 -65zM980 1135q0 -37 -26 -65t-66 -28q-39 0 -66 27t-27 65q1 38 27 66t66 28
t66 -28t26 -65z" />
    <glyph glyph-name="afii57443" unicode="&#x643;" horiz-adv-x="1743" arabic-form="isolated" 
d="M949 601q0 11 -11 20l-85 39q-57 32 -57 71t15 59t47 40l78 40q66 33 122 33l-31 -94h-19q-12 0 -29 -8l-82 -41q-6 -6 -6 -16t6 -14l82 -41q65 -29 65 -91q0 -28 -14 -48q-14 -26 -57 -38l-37 -11q-32 -10 -67 -10t-116 49v14l43 -3q49 0 82 13l58 21q13 5 13 16z
M1640 363q0 -280 -269 -280h-851q-190 1 -306 75t-116 217q0 97 73 201q37 51 136 147l60 62l20 -26l-45 -63q-144 -182 -144 -283t114 -157q88 -44 208 -44h851q71 0 105 31q36 38 36 120v1260l128 129v-1389z" />
    <glyph glyph-name="afii57444" unicode="&#x644;" horiz-adv-x="1419" arabic-form="isolated" 
d="M1318 123q0 -228 -145 -390q-175 -187 -467 -187t-450 167t-158 421t182 416q162 142 366 142h74l-16 -32q-204 0 -352 -142t-147 -350q0 -208 142 -350t343 -142q250 0 374 133t125 358v1444l129 129v-1617z" />
    <glyph glyph-name="afii57445" unicode="&#x645;" horiz-adv-x="1414" arabic-form="isolated" 
d="M1184 212v277q0 114 -65 205t-168 91t-167 -82t-64 -201q0 -118 88 -204t196 -86h180zM1312 83h-308q-190 -1 -302 117t-112 294t92 291h-164q-143 0 -143 -141v-432q-1 -306 -39 -480t-105 -270q-29 -41 -119 -132h-14q2 0 42 80q104 206 104 430v817q0 104 69 181
t187 77h451q169 -1 265 -119t96 -307v-406z" />
    <glyph glyph-name="afii57446" unicode="&#x646;" horiz-adv-x="1419" arabic-form="isolated" 
d="M1318 123q0 -139 -68 -272t-208 -219t-352 -86q-276 0 -434 167t-158 421t182 416q162 142 366 142h74l-16 -32q-204 0 -352 -142t-147 -350q0 -208 142 -350t343 -142q246 0 372 137t127 354v618l129 130v-792zM838 306q0 -38 -27 -66t-65 -28t-66 27t-28 66t27 67
t66 27q39 1 66 -27t27 -66z" />
    <glyph glyph-name="afii57447" unicode="&#x647;" horiz-adv-x="955" arabic-form="isolated" 
d="M722 501v284h-133q-163 0 -267 -89q-96 -86 -96 -206t70 -198q70 -80 185 -80q113 0 177 85t64 204zM853 501q-1 -191 -101 -305t-270 -113t-277 109t-107 294t130 307q130 122 361 122h264v-414z" />
    <glyph glyph-name="afii57448" unicode="&#x648;" horiz-adv-x="921" arabic-form="isolated" 
d="M691 501q1 120 -63 202t-168 82t-169 -82q-65 -81 -65 -203t64 -205t168 -83t168 84t65 205zM820 501v-289q0 -538 -144 -750q-30 -41 -118 -132h-16q4 0 44 80q106 214 105 430v340q-42 -44 -104 -70t-128 -27q-170 0 -267 123q-94 112 -94 290t101 299q101 120 260 120
t260 -120t101 -294z" />
    <glyph glyph-name="afii57449" unicode="&#x649;" horiz-adv-x="1529" arabic-form="isolated" 
d="M741 344q1 -36 25 -54t71 -34l347 -108q28 -10 44 -46t15 -80q0 -44 -13 -63q-82 -114 -203 -179q-144 -73 -337 -73q-276 0 -434 167q-158 168 -158 422t182 414q162 144 366 144h74l-16 -32q-204 0 -352 -142t-147 -350q0 -210 142 -351t343 -141q127 0 232 41t158 99
q12 16 12 41t-21 29l-384 120q-31 12 -61 56t-31 81q0 123 108 266t264 241q51 34 133 60t174 56q32 17 76 40q50 31 76 50l-127 -235q-75 -15 -141 -29t-144 -64t-176 -161q-98 -110 -97 -185z" />
    <glyph glyph-name="afii57450" unicode="&#x64a;" horiz-adv-x="1529" arabic-form="isolated" 
d="M765 -546q0 -38 -28 -66t-66 -27t-65 27t-27 65t27 66t65 27t66 -27t28 -65zM991 -546q-1 -38 -27 -66t-65 -27t-65 27t-27 65q1 39 27 66t65 27t65 -27t27 -65zM741 344q1 -36 25 -54t71 -34l347 -108q28 -10 44 -46t15 -80q0 -44 -13 -63q-82 -114 -203 -179
q-144 -73 -337 -73q-276 0 -434 167q-158 168 -158 422t182 414q162 144 366 144h74l-16 -32q-204 0 -352 -142t-147 -350q0 -210 142 -351t343 -141q127 0 232 41t158 99q12 16 12 41t-21 29l-384 120q-31 12 -61 56t-31 81q0 123 108 266t264 241q51 34 133 60t174 56
q32 17 76 40q50 31 76 50l-127 -235q-75 -15 -141 -29t-144 -64t-176 -161q-98 -110 -97 -185z" />
    <glyph glyph-name="uni0677" unicode="&#x677;" horiz-adv-x="1418" arabic-form="isolated" 
d="M972 1351q0 69 51 105t103 35t83 -23t53 -47l-19 -14q-23 7 -47 17t-50 9q-26 1 -50 -19t-25 -54q1 -34 37 -61t78 -27q137 36 201 36l-58 -88q-44 -9 -174 -45q-110 -36 -203 -36h-48l59 93h24q31 0 48 13q-63 37 -63 106zM568 1442q0 -72 -54 -150t-130 -78
q-10 0 -24 10q110 63 110 190q-42 -8 -59 -8q-98 0 -98 97l7 27q46 71 112 71q66 1 101 -43t35 -116zM691 501q1 120 -63 202t-168 82t-169 -82q-65 -81 -65 -203t64 -205t168 -83t168 84t65 205zM820 501v-289q0 -538 -144 -750q-30 -41 -118 -132h-16q4 0 44 80
q106 214 105 430v340q-42 -44 -104 -70t-128 -27q-170 0 -267 123q-94 112 -94 290t101 299q101 120 260 120t260 -120t101 -294z" />
    <glyph glyph-name="afii57506" unicode="&#x67e;" horiz-adv-x="1743" arabic-form="isolated" 
d="M988 -410q0 -38 -26 -64t-65 -27q-39 1 -67 27t-28 64t28 66q28 26 67 26t65 -26q26 -28 26 -66zM1180 -133q0 -39 -27 -65t-66 -27q-39 1 -65 27t-26 65t26 65t65 27q39 -1 66 -27t27 -65zM766 -137q0 -39 -28 -66t-64 -27q-38 0 -66 27t-28 66t26 65t66 27
q38 -1 66 -27t28 -65zM1640 363q0 -280 -269 -280h-851q-190 1 -306 75t-116 217q0 97 73 201q37 51 136 147l60 62l20 -26l-45 -63q-144 -182 -144 -283t114 -157q88 -44 208 -44h851q71 0 105 31q36 38 36 120v422l128 130v-552z" />
    <glyph glyph-name="afii57507" unicode="&#x686;" horiz-adv-x="1361" arabic-form="isolated" 
d="M988 -410q0 -38 -26 -64t-65 -27q-39 1 -67 27t-28 64t28 66q28 26 67 26t65 -26q26 -28 26 -66zM1180 -133q0 -39 -27 -65t-66 -27q-39 1 -65 27t-26 65t26 65t65 27q39 -1 66 -27t27 -65zM766 -137q0 -39 -28 -66t-64 -27q-38 0 -66 27t-28 66t26 65t66 27
q38 -1 66 -27t28 -65zM98 701q0 107 53 179q61 77 161 77h19q126 0 253 -101l247 -204q35 -26 101 -48t122 -23h206l-129 -129h-114q-149 0 -317 -81t-280 -213t-112 -276q0 -174 186 -344q134 -124 322 -220t211 -96l-17 -31q-41 0 -251 76t-365 206q-214 180 -214 409
q0 108 64 229t198 232t335 184l-276 223q-37 30 -87 54t-83 23h-19q-57 0 -109 -51t-52 -116v-64l-21 -8q-32 67 -32 113z" />
    <glyph glyph-name="afii57508" unicode="&#x698;" horiz-adv-x="486" arabic-form="isolated" 
d="M372 1399q0 -37 -27 -65t-66 -28t-67 26t-28 66t27 66t67 26t67 -26t27 -65zM494 1146q0 -38 -28 -66t-65 -27q-37 0 -65 27q-28 28 -28 66t27 66t65 27q38 1 66 -27t28 -66zM284 1141q0 -37 -28 -65t-65 -28t-65 26t-28 66q0 38 26 66t66 28q38 0 66 -28t28 -65z
M396 212q0 -306 -38 -480t-106 -270q-29 -41 -119 -132h-15q2 0 42 80q106 208 106 430v945l130 130v-703z" />
    <glyph glyph-name="afii57567" unicode="&#x6a9;" horiz-adv-x="1501" arabic-form="isolated" 
 />
    <glyph glyph-name="afii57543-3" unicode="&#x6ad;" horiz-adv-x="1743" arabic-form="isolated" 
d="M884 1135q0 -37 -26 -65t-66 -28q-38 0 -66 27t-28 65t27 66t67 28t66 -28t26 -65zM1113 1135q1 -37 -27 -65t-66 -28t-66 27t-27 65t27 66t65 28t67 -28t27 -65zM1000 1324q0 -38 -27 -65t-65 -27t-64 27q-28 27 -28 65t26 65t65 27t66 -27t27 -65zM949 601q0 11 -11 20
l-85 39q-57 32 -57 71t15 59t47 40l78 40q66 33 122 33l-31 -94h-19q-12 0 -29 -8l-82 -41q-6 -6 -6 -16t6 -14l82 -41q65 -29 65 -91q0 -28 -14 -48q-14 -26 -57 -38l-37 -11q-32 -10 -67 -10t-116 49v14l43 -3q49 0 82 13l58 21q13 5 13 16zM1640 363q0 -280 -269 -280
h-851q-190 1 -306 75t-116 217q0 97 73 201q37 51 136 147l60 62l20 -26l-45 -63q-144 -182 -144 -283t114 -157q88 -44 208 -44h851q71 0 105 31q36 38 36 120v1272l128 129v-1401z" />
    <glyph glyph-name="afii57509" unicode="&#x6af;" horiz-adv-x="2029" arabic-form="isolated" 
d="M1859 1790q9 -120 -17 -172q-10 -20 -32 -40q-24 -22 -426 -224t-421 -214t-71 -73l-115 83q49 44 121 86t252 130q179 88 340 171q162 82 198 103q36 22 68 48t103 102zM2008 1548q0 -54 -56 -102t-223 -128l-582 -290q-119 -56 -119 -128q0 -34 22 -60t74 -62l405 -180
q213 -134 213 -280q0 -109 -80 -172t-185 -63h-1041q-149 -1 -211 22t-105 61t-69 121l156 88q16 -78 30 -105t68 -58h1172q48 0 91 30t43 85t-76 111q-20 18 -86 58l-401 178q-75 46 -112 96t-37 130q0 78 46 131t143 103l641 321q158 79 248 175q16 14 31 31v-113z" />
    <glyph glyph-name="afii57470" unicode="&#x647;" horiz-adv-x="1541" arabic-form="initial" 
d="M863 493q0 122 -84 207t-246 85h-135v-284q0 -118 63 -198q67 -91 171 -91t168 80t63 201zM533 915q229 0 343 -120t115 -295q0 -175 -89 -288h18q140 0 218 12q176 28 176 223q0 389 -239 615q-217 207 -531 207q-168 0 -286 -74t-118 -223q0 -49 18 -109t41 -86
l-20 -18q-52 42 -79 112t-27 110q0 212 144 323q125 96 344 96t425 -114t328 -321q128 -225 128 -518q0 -166 -54 -244t-177 -101q-90 -19 -291 -19h-920v129h355q-86 115 -86 289v414h264z" />
    <glyph glyph-name="afii57455-3" unicode="&#x6c5;" horiz-adv-x="921" arabic-form="isolated" 
d="M683 501q1 120 -63 202t-168 82t-169 -82q-65 -81 -65 -203t64 -205t168 -83t168 84t65 205zM812 501v-289q0 -538 -144 -750q-30 -41 -118 -132h-16q4 0 44 80q95 192 104 390h-534v90h535v290q-42 -44 -104 -70t-128 -27q-170 0 -267 123q-94 112 -94 290t101 299
q101 120 260 120t260 -120t101 -294z" />
    <glyph glyph-name="afii57458-3" unicode="&#x6c6;" horiz-adv-x="921" arabic-form="isolated" 
d="M680 1508q-84 -71 -122 -131t-94 -185q-5 16 -35 83q-60 134 -162 222l19 109q60 -31 110 -114q37 -72 75 -144q40 72 78 144q51 79 117 112zM691 501q1 120 -63 202t-168 82t-169 -82q-65 -81 -65 -203t64 -205t168 -83t168 84t65 205zM820 501v-289q0 -538 -144 -750
q-30 -41 -118 -132h-16q4 0 44 80q106 214 105 430v340q-42 -44 -104 -70t-128 -27q-170 0 -267 123q-94 112 -94 290t101 299q101 120 260 120t260 -120t101 -294z" />
    <glyph glyph-name="glyph1052" unicode="&#x6c7;" horiz-adv-x="921" arabic-form="isolated" 
d="M568 1442q0 -72 -54 -150t-130 -78q-10 0 -24 10q110 63 110 190q-42 -8 -59 -8q-98 0 -98 97l7 27q46 71 112 71q66 1 101 -43t35 -116zM691 501q1 120 -63 202t-168 82t-169 -82q-65 -81 -65 -203t64 -205t168 -83t168 84t65 205zM820 501v-289q0 -538 -144 -750
q-30 -41 -118 -132h-16q4 0 44 80q106 214 105 430v340q-42 -44 -104 -70t-128 -27q-170 0 -267 123q-94 112 -94 290t101 299q101 120 260 120t260 -120t101 -294z" />
    <glyph glyph-name="afii57494-3" unicode="&#x6c8;" horiz-adv-x="921" arabic-form="isolated" 
d="M532 1401q0 -89 -104 -151q-17 294 -14 338v11q37 15 117 51zM691 497q-1 120 -65 204t-168 84q-104 -1 -168 -83t-64 -204t65 -204t169 -82t168 82t63 203zM820 501v-289q0 -538 -144 -750q-30 -41 -118 -132h-16q4 0 44 80q106 214 105 430v340q-42 -44 -104 -70
t-128 -27q-170 0 -267 123q-94 112 -94 290t101 299q101 120 260 120t260 -120t101 -294z" />
    <glyph glyph-name="glyph1060" unicode="&#x6c9;" horiz-adv-x="921" arabic-form="isolated" 
d="M483 1606q74 -198 197 -305l-18 -109q-61 31 -110 114l-76 144q-38 -72 -78 -144q-49 -79 -115 -113l-16 97q85 71 123 131t93 185zM691 501q1 120 -63 202t-168 82t-169 -82q-65 -81 -65 -203t64 -205t168 -83t168 84t65 205zM820 501v-289q0 -538 -144 -750
q-30 -41 -118 -132h-16q4 0 44 80q106 214 105 430v340q-42 -44 -104 -70t-128 -27q-170 0 -267 123q-94 112 -94 290t101 299q101 120 260 120t260 -120t101 -294z" />
    <glyph glyph-name="glyph1062" unicode="&#x6cb;" horiz-adv-x="921" arabic-form="isolated" 
d="M422 1316q0 -38 -26 -65t-66 -27q-38 0 -66 27t-28 65t26 66q26 27 67 27t67 -27q26 -28 26 -66zM649 1316q0 -38 -27 -65q-26 -27 -64 -27t-66 27t-28 65t27 66q27 27 65 27t66 -27q27 -28 27 -66zM538 1506q0 -38 -28 -65t-66 -27t-65 26t-27 66t27 66q27 27 65 27
t66 -27q28 -28 28 -66zM691 501q1 120 -63 202t-168 82t-169 -82q-65 -81 -65 -203t64 -205t168 -83t168 84t65 205zM820 501v-289q0 -538 -144 -750q-30 -41 -118 -132h-16q4 0 44 80q106 214 105 430v340q-42 -44 -104 -70t-128 -27q-170 0 -267 123q-94 112 -94 290
t101 299q101 120 260 120t260 -120t101 -294z" />
    <glyph glyph-name="afii57555" unicode="&#x6cc;" horiz-adv-x="1529" arabic-form="isolated" 
d="M741 344q1 -36 25 -54t71 -34l347 -108q28 -10 44 -46t15 -80q0 -44 -13 -63q-82 -114 -203 -179q-144 -73 -337 -73q-276 0 -434 167q-158 168 -158 422t182 414q162 144 366 144h74l-16 -32q-204 0 -352 -142t-147 -350q0 -210 142 -351t343 -141q127 0 232 41t158 99
q12 16 12 41t-21 29l-384 120q-31 12 -61 56t-31 81q0 123 108 266t264 241q51 34 133 60t174 56q32 17 76 40q50 31 76 50l-127 -235q-75 -15 -141 -29t-144 -64t-176 -161q-98 -110 -97 -185z" />
    <glyph glyph-name="afii62881-3" unicode="&#x6d0;" horiz-adv-x="1529" arabic-form="isolated" 
d="M813 -552q0 -38 -27 -66q-28 -28 -66 -27t-66 27t-27 65q-1 39 27 67t66 27q38 1 66 -27q27 -28 27 -66zM807 -824q0 -40 -27 -66q-28 -26 -66 -26t-66 26t-27 66q-1 40 27 66t66 26t66 -26q27 -26 27 -66zM741 344q1 -36 25 -54t71 -34l347 -108q28 -10 44 -46t15 -80
q0 -44 -13 -63q-82 -114 -203 -179q-144 -73 -337 -73q-276 0 -434 167q-158 168 -158 422t182 414q162 144 366 144h74l-16 -32q-204 0 -352 -142t-147 -350q0 -210 142 -351t343 -141q127 0 232 41t158 99q12 16 12 41t-21 29l-384 120q-31 12 -61 56t-31 81
q0 123 108 266t264 241q51 34 133 60t174 56q32 17 76 40q50 31 76 50l-127 -235q-75 -15 -141 -29t-144 -64t-176 -161q-98 -110 -97 -185z" />
    <glyph glyph-name="afii62958" unicode="&#x67e;" horiz-adv-x="1850" arabic-form="final" 
d="M988 -410q0 -38 -26 -64t-65 -27q-39 1 -67 27t-28 64t28 66q28 26 67 26t65 -26q26 -28 26 -66zM1180 -133q0 -39 -27 -65t-66 -27q-39 1 -65 27t-26 65t26 65t65 27q39 -1 66 -27t27 -65zM766 -137q0 -39 -28 -66t-64 -27q-38 0 -66 27t-28 66t26 65t66 27
q38 -1 66 -27t28 -65zM1801 83q-154 0 -213 106q-16 -48 -68 -77t-127 -29h-873q-190 1 -306 75t-116 217q0 97 73 201q37 51 136 147l60 62l20 -26l-45 -63q-144 -182 -144 -283t114 -157q88 -44 208 -44h873q65 0 92 35t27 116v422l128 130v-521q0 -74 48 -128t113 -54h48
v-129h-48z" />
    <glyph glyph-name="afii62956" unicode="&#x67e;" horiz-adv-x="517" arabic-form="initial" 
d="M324 -413q0 -39 -28 -66t-65 -27t-65 27t-28 66t26 65t66 27q38 -1 66 -27t28 -65zM437 -126q-1 -40 -27 -66t-65 -26t-67 26t-27 65q-1 41 27 67t67 26t65 -26t27 -66zM206 -140q0 -38 -26 -66q-26 -26 -65 -26t-67 26t-28 66q0 38 28 65t67 27t65 -27t26 -65zM416 363
q0 -142 -70 -211t-198 -69h-148v129h148q68 0 104 34t35 117v422l129 130v-552z" />
    <glyph glyph-name="afii52957" unicode="&#x67e;" horiz-adv-x="527" arabic-form="medial" 
d="M358 -416q0 -38 -26 -66q-26 -26 -66 -26q-38 0 -66 26t-28 66q0 38 28 65t66 27q40 0 66 -27t26 -65zM472 -130q0 -38 -28 -64q-28 -27 -66 -27q-38 -1 -64 25q-27 26 -27 65q1 39 27 66t64 27t66 -27t28 -65zM242 -144q0 -40 -28 -66t-66 -26t-66 26t-27 66q0 40 27 66
q28 26 66 26t66 -26t28 -66zM529 83h-48q-83 0 -133 26t-82 80q-14 -48 -66 -77t-128 -29h-72v129h72q64 0 92 35t27 116v422l129 130v-521q0 -74 48 -128t113 -54h48v-129z" />
    <glyph glyph-name="afii62961" unicode="&#x686;" horiz-adv-x="1258" arabic-form="final" 
d="M988 -410q0 -38 -26 -64t-65 -27q-39 1 -67 27t-28 64t28 66q28 26 67 26t65 -26q26 -28 26 -66zM1180 -133q0 -39 -27 -65t-66 -27q-39 1 -65 27t-26 65t26 65t65 27q39 -1 66 -27t27 -65zM766 -137q0 -39 -28 -66t-64 -27q-38 0 -66 27t-28 66t26 65t66 27
q38 -1 66 -27t28 -65zM98 701q0 107 53 179q61 77 161 77h19q126 0 253 -101l247 -204q35 -26 101 -48t122 -23h206l-129 -129h-114q-79 0 -175 -27q20 -95 140 -157q104 -56 209 -56h69v-129h-69q-156 0 -294 73q-164 87 -182 220q-173 -80 -283 -208q-124 -138 -124 -286
q0 -174 186 -344q134 -124 322 -220t211 -96l-17 -31q-41 0 -251 76t-365 206q-214 180 -214 409q0 108 64 229t198 232t335 184l-276 223q-37 30 -87 54t-83 23h-19q-57 0 -109 -51t-52 -116v-64l-21 -8q-32 67 -32 113z" />
    <glyph glyph-name="afii62959" unicode="&#x686;" horiz-adv-x="1438" arabic-form="initial" 
d="M870 -410q0 -38 -27 -64t-65 -27q-38 1 -66 27t-28 64t28 66q28 26 66 26t65 -26q27 -28 27 -66zM1062 -133q0 -39 -26 -65t-66 -27q-39 1 -66 27t-27 65t27 65t66 27q40 -1 66 -27t26 -65zM649 -137q1 -39 -27 -66t-66 -27t-66 27t-28 66t27 65t66 27q39 -1 67 -27
t27 -65zM68 714q0 107 56 175t154 68h20q120 0 258 -88l321 -211q136 -82 209 -82h254l-130 -130h-93q-233 0 -404 -94q-136 -88 -269 -174q-164 -95 -365 -95h-79v129h79q141 0 273 63q52 24 210 125t262 134l-352 230q-36 26 -86 44t-88 19h-20q-56 -1 -106 -47t-50 -106
v-65l-19 -7q-35 55 -35 112z" />
    <glyph glyph-name="afii62960" unicode="&#x686;" horiz-adv-x="1365" arabic-form="medial" 
d="M778 -410q0 -38 -26 -64t-66 -27q-38 1 -66 27t-28 64t28 66q28 26 66 26q40 0 66 -26q26 -28 26 -66zM970 -133q0 -39 -27 -65t-65 -27q-38 1 -66 27q-27 26 -27 65t27 65q28 26 66 27q38 -1 65 -27t27 -65zM557 -137q1 -39 -27 -66t-66 -27t-66 27t-27 66q0 39 27 65
q28 26 66 27q38 -1 66 -27t27 -65zM68 714q0 107 56 175t154 68h20q120 0 258 -88l321 -211q136 -82 209 -82h254l-130 -130h-93q-72 0 -139 -9v-27q0 -102 118 -155q88 -43 213 -43h58v-129h-58q-188 0 -312 66q-146 76 -146 221v40q-113 -34 -263 -136t-202 -126
q-135 -65 -307 -65h-79v129h79q141 0 273 63q52 24 210 125t262 134l-352 230q-36 26 -86 44t-88 19h-20q-56 -1 -106 -47t-50 -106v-65l-19 -7q-35 55 -35 112z" />
    <glyph glyph-name="afii62962" unicode="&#x698;" horiz-adv-x="597" arabic-form="final" 
d="M372 1399q0 -37 -27 -65t-66 -28t-67 26t-28 66t27 66t67 26t67 -26t27 -65zM494 1146q0 -38 -28 -66t-65 -27q-37 0 -65 27q-28 28 -28 66t27 66t65 27q38 1 66 -27t28 -66zM284 1141q0 -37 -28 -65t-65 -28t-65 26t-28 66q0 38 26 66t66 28q38 0 66 -28t28 -65zM547 83
q-107 0 -151 55q0 -276 -39 -434t-108 -249q-20 -29 -116 -125h-15q2 0 42 80q106 208 106 430v945l130 130v-521q0 -76 40 -129t111 -53h62v-129h-62z" />
    <glyph glyph-name="afii62964" unicode="&#x6a9;" horiz-adv-x="1732" arabic-form="final" 
 />
    <glyph glyph-name="afii52305" unicode="&#x6a9;" horiz-adv-x="946" arabic-form="initial" 
 />
    <glyph glyph-name="afii52306" unicode="&#x6a9;" horiz-adv-x="1248" arabic-form="medial" 
 />
    <glyph glyph-name="afii62967" unicode="&#x6af;" horiz-adv-x="2033" arabic-form="final" 
d="M2066 1810q3 -131 -12 -161q-16 -31 -39 -52t-425 -223t-421 -214q-20 -12 -70 -74l-115 83q48 45 121 86t251 130t339 171t197 103t70 48q32 27 104 103zM2239 1599q0 -45 -60 -99t-219 -130l-754 -378q-119 -56 -119 -130q0 -36 33 -66q11 -13 63 -54l225 -144
q64 -54 176 -168t172 -155q98 -63 206 -63h61v-129h-61q-88 -1 -198 39t-167 105q-33 -68 -99 -106t-145 -38h-938q-139 1 -199 23t-103 60t-69 121l156 88q16 -78 30 -105t68 -58h1055q49 0 87 27t37 70t-43 89t-108 98l-219 142q-79 62 -114 106t-35 122q0 76 45 129
t143 103l814 405q134 66 250 175q14 18 29 34v-113z" />
    <glyph glyph-name="afii62965" unicode="&#x6af;" horiz-adv-x="1155" arabic-form="initial" 
d="M952 1910q9 -120 -17 -172q-10 -20 -33 -40q-23 -22 -425 -224t-421 -214t-68 -73l-117 83q51 44 121 86t250 130t340 171q160 82 198 103q38 22 69 48q32 26 103 102zM1100 1668q0 -54 -56 -102t-223 -128l-582 -290q-118 -58 -118 -128q-1 -34 21 -60t75 -62l477 -300
q94 -60 152 -128t59 -164t-79 -160q-80 -63 -185 -63h-648v129h648q47 0 91 30t43 85q0 55 -76 111q-19 18 -86 58l-472 298q-76 46 -112 96t-36 130q1 78 45 131t141 103l642 321q172 85 279 206v-113z" />
    <glyph glyph-name="afii62966" unicode="&#x6af;" horiz-adv-x="1187" arabic-form="medial" 
d="M1091 1966q3 -128 -12 -160t-39 -53t-426 -223t-420 -214q-20 -12 -71 -74l-114 83q47 45 121 86t252 130t338 171t198 103q36 21 68 48t105 103zM1263 1755q0 -45 -59 -99t-219 -130l-755 -378q-119 -57 -119 -138q0 -27 34 -58q11 -13 62 -54l382 -300q65 -54 177 -168
t190 -166t186 -52h61v-129h-61q-88 -1 -198 39t-167 105q-31 -68 -97 -106t-146 -38h-551v129h551q49 0 87 27t38 70q1 43 -43 89t-109 98l-375 298q-78 62 -114 106t-35 122q-1 76 45 129t143 103l814 405q134 66 250 175q14 18 28 34v-113z" />
    <glyph glyph-name="afii62827" unicode="&#x6be;" horiz-adv-x="1649" arabic-form="final" 
d="M863 493q0 122 -84 207t-246 85h-135v-284q0 -118 63 -198q67 -91 171 -91t168 80t63 201zM1649 212v-129h-55q-131 0 -232 91q-58 -57 -158 -74t-284 -17h-920v129h355q-86 115 -86 289v414h264q229 0 343 -120t115 -295q0 -175 -89 -288h18q140 0 218 12
q176 28 176 223q0 389 -239 615q-217 207 -531 207q-168 0 -286 -74t-118 -223q0 -49 18 -109t41 -86l-20 -18q-52 42 -79 112t-27 110q0 212 144 323q125 96 344 96t425 -114t328 -321q128 -225 128 -518q0 -90 -13 -153q76 -82 165 -82h55z" />
    <glyph glyph-name="afii57454-3" unicode="&#x6ad;" horiz-adv-x="1850" arabic-form="final" 
d="M884 1135q0 -37 -26 -65t-66 -28q-38 0 -66 27t-28 65t27 66t67 28t66 -28t26 -65zM1113 1135q1 -37 -27 -65t-66 -28t-66 27t-27 65t27 66t65 28t67 -28t27 -65zM1000 1324q0 -38 -27 -65t-65 -27t-64 27q-28 27 -28 65t26 65t65 27t66 -27t27 -65zM949 601q0 11 -11 20
l-85 39q-57 32 -57 71t15 59t47 40l78 40q66 33 122 33l-31 -94h-19q-12 0 -29 -8l-82 -41q-6 -6 -6 -16t6 -14l82 -41q65 -29 65 -91q0 -28 -14 -48q-14 -26 -57 -38l-37 -11q-32 -10 -67 -10t-116 49v14l43 -3q49 0 82 13l58 21q13 5 13 16zM1801 83q-154 0 -213 106
q-16 -48 -68 -77t-127 -29h-873q-190 1 -306 75t-116 217q0 97 73 201q37 51 136 147l60 62l20 -26l-45 -63q-144 -182 -144 -283t114 -157q88 -44 208 -44h873q65 0 92 35t27 116v1248l128 129v-1346q0 -74 48 -128t113 -54h48v-129h-48z" />
    <glyph glyph-name="afii57451-3" unicode="&#x6ad;" horiz-adv-x="1232" arabic-form="initial" 
d="M605 1391q-1 -39 -27 -65t-64 -27t-66 25t-27 66q0 40 27 66q28 26 66 26t64 -26t27 -65zM895 1524q-1 -40 -27 -66t-65 -26t-65 26t-26 66t26 66t65 26t65 -26t27 -66zM634 1669q0 -38 -26 -65t-66 -27q-38 0 -66 26t-28 65t26 66t66 27t68 -27q26 -27 26 -65z
M1264 1512q0 -54 -56 -102t-223 -128l-582 -290q-119 -57 -119 -138q0 -46 96 -112l322 -144q212 -133 212 -280q0 -109 -80 -172t-185 -63h-649v129h649q47 0 91 30t44 85t-76 111q-20 18 -86 58l-317 142q-77 46 -113 96t-36 130q0 78 46 131t142 103l641 321
q172 85 279 206v-113z" />
    <glyph glyph-name="glyph1051" unicode="&#x6ad;" horiz-adv-x="1252" arabic-form="medial" 
d="M629 1391q-1 -39 -27 -65t-64 -27t-66 25t-27 66q0 40 27 66q28 26 66 26t64 -26t27 -65zM919 1524q-1 -40 -27 -66t-65 -26t-65 26t-26 66t26 66t65 26t65 -26t27 -66zM658 1669q0 -38 -26 -65t-66 -27q-38 0 -66 26t-28 65t26 66t66 27t68 -27q26 -27 26 -65z
M1460 1599q0 -45 -59 -99t-219 -130l-755 -378q-119 -57 -119 -138q0 -27 34 -58q11 -13 62 -54l202 -144q64 -54 176 -168t190 -166t187 -52h61v-129h-61q-87 -1 -197 39t-168 105q-31 -68 -97 -106t-146 -38h-551v129h551q49 0 87 27t38 70t-44 89t-108 98l-195 142
q-77 62 -113 106t-36 122q0 76 46 129t142 103l814 405q134 66 250 175q14 18 28 34v-113z" />
    <glyph glyph-name="afii57471-3" unicode="&#x6c7;" horiz-adv-x="1041" arabic-form="final" 
d="M568 1442q0 -72 -54 -150t-130 -78q-10 0 -24 10q110 63 110 190q-42 -8 -59 -8q-98 0 -98 97l7 27q46 71 112 71q66 1 101 -43t35 -116zM459 212h232v289q-1 114 -65 199t-167 85t-168 -82q-65 -81 -65 -203t64 -205t169 -83zM1040 212v-129h-220q0 -253 -40 -399
t-107 -235q-15 -18 -115 -119h-16q4 0 44 80q106 214 105 430v243h-232q-170 0 -267 123q-94 112 -94 290t101 299q101 120 261 120t260 -117t100 -297v-289h220z" />
    <glyph glyph-name="afii57457-3" unicode="&#x6c6;" horiz-adv-x="1041" arabic-form="final" 
d="M680 1508q-84 -71 -122 -131t-94 -185q-5 16 -35 83q-60 134 -162 222l19 109q60 -31 110 -114q37 -72 75 -144q40 72 78 144q51 79 117 112zM459 212h232v289q-1 114 -65 199t-167 85t-168 -82q-65 -81 -65 -203t64 -205t169 -83zM1040 212v-129h-220q0 -253 -40 -399
t-107 -235q-15 -18 -115 -119h-16q4 0 44 80q106 214 105 430v243h-232q-170 0 -267 123q-94 112 -94 290t101 299q101 120 261 120t260 -117t100 -297v-289h220z" />
    <glyph glyph-name="afii57459-3" unicode="&#x6c8;" horiz-adv-x="1041" arabic-form="final" 
d="M532 1401q0 -89 -104 -151q-17 294 -14 338v11q37 15 117 51zM459 212h232v289q-1 114 -65 199t-167 85t-168 -82q-65 -81 -65 -203t64 -205t169 -83zM1040 212v-129h-220q0 -253 -40 -399t-107 -235q-15 -18 -115 -119h-16q4 0 44 80q106 214 105 430v243h-232
q-170 0 -267 123q-94 112 -94 290t101 299q101 120 261 120t260 -117t100 -297v-289h220z" />
    <glyph glyph-name="afii62884-3" unicode="&#x6cb;" horiz-adv-x="1041" arabic-form="final" 
d="M422 1316q0 -38 -26 -65t-66 -27q-38 0 -66 27t-28 65t26 66q26 27 67 27t67 -27q26 -28 26 -66zM649 1316q0 -38 -27 -65q-26 -27 -64 -27t-66 27t-28 65t27 66q27 27 65 27t66 -27q27 -28 27 -66zM538 1506q0 -38 -28 -65t-66 -27t-65 26t-27 66t27 66q27 27 65 27
t66 -27q28 -28 28 -66zM459 212h232v289q-1 114 -65 199t-167 85t-168 -82q-65 -81 -65 -203t64 -205t169 -83zM1040 212v-129h-220q0 -253 -40 -399t-107 -235q-15 -18 -115 -119h-16q4 0 44 80q106 214 105 430v243h-232q-170 0 -267 123q-94 112 -94 290t101 299
q101 120 261 120t260 -117t100 -297v-289h220z" />
    <glyph glyph-name="afii57452-3" unicode="&#x6c5;" horiz-adv-x="1041" arabic-form="final" 
d="M459 212h232v289q-1 114 -65 199t-167 85t-168 -82q-65 -81 -65 -203t64 -205t169 -83zM1040 212v-129h-220q0 -253 -40 -399t-107 -235q-15 -18 -115 -119h-16q4 0 44 80q95 192 104 390h-534v90h535v193h-232q-170 0 -267 123q-94 112 -94 290t101 299q101 120 261 120
t260 -117t100 -297v-289h220z" />
    <glyph glyph-name="glyph1061" unicode="&#x6c9;" horiz-adv-x="1041" arabic-form="final" 
d="M483 1606q74 -198 197 -305l-18 -109q-61 31 -110 114l-76 144q-38 -72 -78 -144q-49 -79 -115 -113l-16 97q85 71 123 131t93 185zM459 212h232v289q-1 114 -65 199t-167 85t-168 -82q-65 -81 -65 -203t64 -205t169 -83zM1040 212v-129h-220q0 -253 -40 -399t-107 -235
q-15 -18 -115 -119h-16q4 0 44 80q106 214 105 430v243h-232q-170 0 -267 123q-94 112 -94 290t101 299q101 120 261 120t260 -117t100 -297v-289h220z" />
    <glyph glyph-name="afii62886-3" unicode="&#x6d0;" horiz-adv-x="1300" arabic-form="final" 
d="M813 -577q0 -38 -27 -66q-28 -28 -66 -28t-66 27t-27 66q-1 38 27 66t66 28t66 -28q27 -28 27 -65zM807 -789q0 -39 -27 -65q-28 -26 -66 -27q-38 1 -66 27t-27 65q-1 39 27 65t66 26t66 -26q27 -26 27 -65zM1299 83h-381q-52 0 -92 -32l394 -123q29 -7 29 -45
q0 -37 -19 -66q-78 -125 -212 -198t-328 -73q-276 0 -434 167t-158 421t182 416q162 142 366 142h74l-16 -32q-204 0 -352 -142t-147 -350q0 -208 142 -350t343 -142q256 0 390 159l-404 127q-31 11 -31 50q0 16 21 45q137 155 252 155h381v-129z" />
    <glyph glyph-name="afii62883-3" unicode="&#x6d0;" horiz-adv-x="651" arabic-form="initial" 
d="M341 -204q0 -40 -27 -66t-65 -26t-66 26t-28 66q0 39 27 66t66 27t66 -27t27 -66zM334 -475q0 -39 -27 -66t-65 -27t-66 27t-27 66q0 39 27 65q28 26 66 27q38 -1 65 -27t27 -65zM551 363q0 -280 -269 -280h-282v129h282q68 0 103 31q37 38 37 120v422l129 130v-552z" />
    <glyph glyph-name="afii62885-3" unicode="&#x6d0;" horiz-adv-x="527" arabic-form="medial" 
d="M341 -204q0 -40 -27 -66t-65 -26t-66 26t-28 66q0 39 27 66t66 27t66 -27t27 -66zM334 -475q0 -39 -27 -66t-65 -27t-66 27t-27 66q0 39 27 65q28 26 66 27q38 -1 65 -27t27 -65zM529 83h-48q-83 0 -133 26t-82 80q-14 -48 -66 -77t-128 -29h-72v129h72q64 0 92 35
t27 116v422l129 130v-521q0 -74 48 -128t113 -54h48v-129z" />
    <glyph glyph-name="afii62882-3" unicode="&#x649;" horiz-adv-x="651" arabic-form="initial" 
d="M551 363q0 -280 -269 -280h-282v129h282q68 0 103 31q37 38 37 120v422l129 130v-552z" />
    <glyph glyph-name="afii57504-3" unicode="&#x649;" horiz-adv-x="527" arabic-form="medial" 
d="M529 83h-48q-83 0 -133 26t-82 80q-14 -48 -66 -77t-128 -29h-72v129h72q64 0 92 35t27 116v422l129 130v-521q0 -74 48 -128t113 -54h48v-129z" />
    <glyph glyph-name="uniFBEA" unicode="&#xfbea;" horiz-adv-x="1057" arabic-form="isolated" 
d="M960 363q0 -280 -269 -280h-593v1528l128 129v-1528h465q68 0 103 31q37 38 37 120v422l129 130v-552zM717 1299q-25 0 -49 -20q-24 -19 -24 -53t36 -61t79 -27q147 36 201 36l-58 -89q-44 -8 -174 -44q-110 -36 -203 -36h-48l59 92h24q31 0 48 13q-64 38 -64 107t51 104
t103 35t84 -22q31 -22 53 -47l-19 -15q-75 27 -99 27z" />
    <glyph glyph-name="uniFBEB" unicode="&#xfbeb;" horiz-adv-x="915" arabic-form="final" 
d="M889 83q-154 0 -215 106q-13 -48 -66 -77t-128 -29h-382v1528l128 129v-1528h254q62 0 90 35t28 116v422l130 130v-521q0 -74 48 -128t113 -54h48v-129h-48zM718 1299q-26 0 -50 -20q-24 -19 -25 -53q1 -34 37 -61t78 -27q144 36 200 36l-57 -89q-45 -8 -174 -44
q-111 -36 -203 -36h-48l59 92h24q31 0 48 13q-64 38 -64 107t51 104t115 35t125 -69l-20 -15q-70 27 -96 27z" />
    <glyph glyph-name="uniFBEC" unicode="&#xfbec;" horiz-adv-x="2127" arabic-form="isolated" 
d="M1456 83q-217 0 -308 172q-25 -66 -108 -117q-94 -55 -202 -55h-34q-314 0 -496 147q-210 169 -210 506v179h486q374 0 514 -216q49 -73 79 -195t100 -206q70 -86 179 -86h330q69 0 104 31q37 38 37 120v422l128 130v-552q0 -280 -269 -280h-330zM1815 1299
q-27 0 -51 -20q-24 -19 -24 -53t36 -61t79 -27q144 36 200 36l-57 -89q-45 -8 -174 -44q-111 -36 -203 -36h-48l59 92h24q31 0 48 13q-64 38 -64 107t51 104t116 35t123 -69l-19 -15q-70 27 -96 27zM1047 354v40q1 98 -37 184t-148 146t-300 61h-336v-93q0 -203 147 -335
q153 -145 409 -145h78q68 0 128 44t59 98z" />
    <glyph glyph-name="uniFBED" unicode="&#xfbed;" horiz-adv-x="2001" arabic-form="final" 
d="M1456 83q-217 0 -308 172q-25 -66 -108 -117q-94 -55 -202 -55h-34q-314 0 -496 147q-210 169 -210 506v179h486q374 0 514 -216q49 -73 79 -195t100 -206q70 -86 179 -86h102q64 0 92 35t27 116v422l130 130v-521q0 -74 48 -128t113 -54h48v-129h-48q-154 0 -215 106
q-13 -48 -66 -77t-129 -29h-102zM1797 1299q-27 0 -51 -20q-24 -19 -24 -53t36 -61t79 -27q144 36 200 36l-57 -89q-45 -8 -174 -44q-111 -36 -203 -36h-48l59 92h24q31 0 48 13q-64 38 -64 107t51 104t116 35t123 -69l-19 -15q-70 27 -96 27zM1047 354v40q1 98 -37 184
t-148 146t-300 61h-336v-93q0 -203 147 -335q153 -145 409 -145h78q68 0 128 44t59 98z" />
    <glyph glyph-name="uniFBEE" unicode="&#xfbee;" horiz-adv-x="1645" arabic-form="isolated" 
d="M1566 363q0 -280 -269 -280h-477q0 -253 -40 -399t-107 -235q-15 -18 -115 -119h-16q4 0 44 80q106 214 105 430v243h-232q-170 0 -267 123q-94 112 -94 290t101 299q101 120 261 120t260 -117t100 -297v-289h477q68 0 103 31q37 38 37 120v422l129 130v-552zM1323 1299
q-25 0 -49 -20q-24 -19 -24 -53t36 -61t79 -27q147 36 201 36l-58 -89q-44 -8 -174 -44q-110 -36 -203 -36h-48l59 92h24q31 0 48 13q-64 38 -64 107t51 104t103 35t84 -22q31 -22 53 -47l-19 -15q-75 27 -99 27zM459 212h232v289q-1 114 -65 199t-167 85t-168 -82
q-65 -81 -65 -203t64 -205t169 -83z" />
    <glyph glyph-name="uniFBEF" unicode="&#xfbef;" horiz-adv-x="1538" arabic-form="final" 
d="M1551 212v-129h-48q-83 0 -133 26t-82 80q-14 -48 -66 -77t-128 -29h-274q0 -253 -40 -399t-107 -235q-15 -18 -115 -119h-16q4 0 44 80q106 214 105 430v243h-232q-170 0 -267 123q-94 112 -94 290t101 299q101 120 261 120t260 -117t100 -297v-289h274q64 0 92 35
t27 116v422l129 130v-521q0 -74 48 -128t113 -54h48zM1257 1226q1 -34 37 -61t78 -27q147 36 201 36l-58 -89q-44 -8 -174 -44q-110 -36 -203 -36h-48l59 92h24q31 0 48 13q-63 38 -63 107t51 104t103 35t83 -22t53 -47l-19 -15q-74 27 -99 27q-24 0 -48 -20
q-24 -19 -25 -53zM459 212h232v289q-1 114 -65 199t-167 85t-168 -82q-65 -81 -65 -203t64 -205t169 -83z" />
    <glyph glyph-name="uniFBF0" unicode="&#xfbf0;" horiz-adv-x="1645" arabic-form="isolated" 
d="M568 1442q0 -72 -54 -150t-130 -78q-10 0 -24 10q110 63 110 190q-42 -8 -59 -8q-98 0 -98 97l7 27q46 71 112 71q66 1 101 -43t35 -116zM1566 363q0 -280 -269 -280h-477q0 -253 -40 -399t-107 -235q-15 -18 -115 -119h-16q4 0 44 80q106 214 105 430v243h-232
q-170 0 -267 123q-94 112 -94 290t101 299q101 120 261 120t260 -117t100 -297v-289h477q68 0 103 31q37 38 37 120v422l129 130v-552zM1323 1299q-25 0 -49 -20q-24 -19 -24 -53t36 -61t79 -27q147 36 201 36l-58 -89q-44 -8 -174 -44q-110 -36 -203 -36h-48l59 92h24
q31 0 48 13q-64 38 -64 107t51 104t103 35t84 -22q31 -22 53 -47l-19 -15q-75 27 -99 27zM459 212h232v289q-1 114 -65 199t-167 85t-168 -82q-65 -81 -65 -203t64 -205t169 -83z" />
    <glyph glyph-name="uniFBF1" unicode="&#xfbf1;" horiz-adv-x="1538" arabic-form="final" 
d="M568 1442q0 -72 -54 -150t-130 -78q-10 0 -24 10q110 63 110 190q-42 -8 -59 -8q-98 0 -98 97l7 27q46 71 112 71q66 1 101 -43t35 -116zM1551 212v-129h-48q-83 0 -133 26t-82 80q-14 -48 -66 -77t-128 -29h-274q0 -253 -40 -399t-107 -235q-15 -18 -115 -119h-16
q4 0 44 80q106 214 105 430v243h-232q-170 0 -267 123q-94 112 -94 290t101 299q101 120 261 120t260 -117t100 -297v-289h274q64 0 92 35t27 116v422l129 130v-521q0 -74 48 -128t113 -54h48zM1257 1226q1 -34 37 -61t78 -27q147 36 201 36l-58 -89q-44 -8 -174 -44
q-110 -36 -203 -36h-48l59 92h24q31 0 48 13q-63 38 -63 107t51 104t103 35t83 -22t53 -47l-19 -15q-74 27 -99 27q-24 0 -48 -20q-24 -19 -25 -53zM459 212h232v289q-1 114 -65 199t-167 85t-168 -82q-65 -81 -65 -203t64 -205t169 -83z" />
    <glyph glyph-name="uniFBF2" unicode="&#xfbf2;" horiz-adv-x="1645" arabic-form="isolated" 
d="M680 1508q-84 -71 -122 -131t-94 -185q-5 16 -35 83q-60 134 -162 222l19 109q60 -31 110 -114q37 -72 75 -144q40 72 78 144q51 79 117 112zM1566 363q0 -280 -269 -280h-477q0 -253 -40 -399t-107 -235q-15 -18 -115 -119h-16q4 0 44 80q106 214 105 430v243h-232
q-170 0 -267 123q-94 112 -94 290t101 299q101 120 261 120t260 -117t100 -297v-289h477q68 0 103 31q37 38 37 120v422l129 130v-552zM1323 1299q-25 0 -49 -20q-24 -19 -24 -53t36 -61t79 -27q147 36 201 36l-58 -89q-44 -8 -174 -44q-110 -36 -203 -36h-48l59 92h24
q31 0 48 13q-64 38 -64 107t51 104t103 35t84 -22q31 -22 53 -47l-19 -15q-75 27 -99 27zM459 212h232v289q-1 114 -65 199t-167 85t-168 -82q-65 -81 -65 -203t64 -205t169 -83z" />
    <glyph glyph-name="uniFBF3" unicode="&#xfbf3;" horiz-adv-x="1538" arabic-form="final" 
d="M680 1508q-84 -71 -122 -131t-94 -185q-5 16 -35 83q-60 134 -162 222l19 109q60 -31 110 -114q37 -72 75 -144q40 72 78 144q51 79 117 112zM1551 212v-129h-48q-83 0 -133 26t-82 80q-14 -48 -66 -77t-128 -29h-274q0 -253 -40 -399t-107 -235q-15 -18 -115 -119h-16
q4 0 44 80q106 214 105 430v243h-232q-170 0 -267 123q-94 112 -94 290t101 299q101 120 261 120t260 -117t100 -297v-289h274q64 0 92 35t27 116v422l129 130v-521q0 -74 48 -128t113 -54h48zM1257 1226q1 -34 37 -61t78 -27q147 36 201 36l-58 -89q-44 -8 -174 -44
q-110 -36 -203 -36h-48l59 92h24q31 0 48 13q-63 38 -63 107t51 104t103 35t83 -22t53 -47l-19 -15q-74 27 -99 27q-24 0 -48 -20q-24 -19 -25 -53zM459 212h232v289q-1 114 -65 199t-167 85t-168 -82q-65 -81 -65 -203t64 -205t169 -83z" />
    <glyph glyph-name="uniFBF4" unicode="&#xfbf4;" horiz-adv-x="1645" arabic-form="isolated" 
d="M532 1401q0 -89 -104 -151q-17 294 -14 338v11q37 15 117 51zM1566 363q0 -280 -269 -280h-477q0 -253 -40 -399t-107 -235q-15 -18 -115 -119h-16q4 0 44 80q106 214 105 430v243h-232q-170 0 -267 123q-94 112 -94 290t101 299q101 120 261 120t260 -117t100 -297v-289
h477q68 0 103 31q37 38 37 120v422l129 130v-552zM1323 1299q-25 0 -49 -20q-24 -19 -24 -53t36 -61t79 -27q147 36 201 36l-58 -89q-44 -8 -174 -44q-110 -36 -203 -36h-48l59 92h24q31 0 48 13q-64 38 -64 107t51 104t103 35t84 -22q31 -22 53 -47l-19 -15q-75 27 -99 27z
M459 212h232v289q-1 114 -65 199t-167 85t-168 -82q-65 -81 -65 -203t64 -205t169 -83z" />
    <glyph glyph-name="uniFBF5" unicode="&#xfbf5;" horiz-adv-x="1538" arabic-form="final" 
d="M532 1401q0 -89 -104 -151q-17 294 -14 338v11q37 15 117 51zM1551 212v-129h-48q-83 0 -133 26t-82 80q-14 -48 -66 -77t-128 -29h-274q0 -253 -40 -399t-107 -235q-15 -18 -115 -119h-16q4 0 44 80q106 214 105 430v243h-232q-170 0 -267 123q-94 112 -94 290t101 299
q101 120 261 120t260 -117t100 -297v-289h274q64 0 92 35t27 116v422l129 130v-521q0 -74 48 -128t113 -54h48zM1257 1226q1 -34 37 -61t78 -27q147 36 201 36l-58 -89q-44 -8 -174 -44q-110 -36 -203 -36h-48l59 92h24q31 0 48 13q-63 38 -63 107t51 104t103 35t83 -22
t53 -47l-19 -15q-74 27 -99 27q-24 0 -48 -20q-24 -19 -25 -53zM459 212h232v289q-1 114 -65 199t-167 85t-168 -82q-65 -81 -65 -203t64 -205t169 -83z" />
    <glyph glyph-name="uniFBF6" unicode="&#xfbf6;" horiz-adv-x="1882" arabic-form="isolated" 
d="M1815 363q0 -280 -269 -280h-628q-52 0 -92 -32l394 -123q29 -7 29 -45q0 -37 -19 -66q-78 -125 -212 -198t-328 -73q-276 0 -434 167t-158 421t182 416q162 142 366 142h74l-16 -32q-204 0 -352 -142t-147 -350q0 -208 142 -350t343 -142q256 0 390 159l-404 127
q-31 11 -31 50q0 16 21 45q137 155 252 155h628q69 0 104 31q37 38 37 120v422l128 130v-552zM1575 1299q-27 0 -51 -20q-24 -19 -24 -53t36 -61t79 -27q144 36 200 36l-57 -89q-45 -8 -174 -44q-111 -36 -203 -36h-48l59 92h24q31 0 48 13q-64 38 -64 107t51 104t116 35
t123 -69l-19 -15q-70 27 -96 27zM813 -577q0 -38 -27 -66q-28 -28 -66 -28t-66 27t-27 66q-1 38 27 66t66 28t66 -28q27 -28 27 -65zM807 -789q0 -39 -27 -65q-28 -26 -66 -27q-38 1 -66 27t-27 65q-1 39 27 65t66 26t66 -26q27 -26 27 -65z" />
    <glyph glyph-name="uniFBF7" unicode="&#xfbf7;" horiz-adv-x="1797" arabic-form="final" 
d="M1771 83q-154 0 -215 106q-13 -48 -66 -77t-128 -29h-444q-52 0 -92 -32l394 -123q29 -7 29 -45q0 -37 -19 -66q-78 -125 -212 -198t-328 -73q-276 0 -434 167t-158 421t182 416q162 142 366 142h74l-16 -32q-204 0 -352 -142t-147 -350q0 -208 142 -350t343 -142
q256 0 390 159l-404 127q-31 11 -31 50q0 16 21 45q137 155 252 155h444q62 0 90 35t28 116v422l130 130v-521q0 -74 48 -128t113 -54h48v-129h-48zM1600 1299q-26 0 -50 -20q-24 -19 -25 -53q1 -34 37 -61t78 -27q144 36 200 36l-57 -89q-45 -8 -174 -44q-111 -36 -203 -36
h-48l59 92h24q31 0 48 13q-64 38 -64 107t51 104t115 35t125 -69l-20 -15q-70 27 -96 27zM813 -577q0 -38 -27 -66q-28 -28 -66 -28t-66 27t-27 66q-1 38 27 66t66 28t66 -28q27 -28 27 -65zM807 -789q0 -39 -27 -65q-28 -26 -66 -27q-38 1 -66 27t-27 65q-1 39 27 65t66 26
t66 -26q27 -26 27 -65z" />
    <glyph glyph-name="uniFBF8" unicode="&#xfbf8;" horiz-adv-x="1182" arabic-form="initial" 
d="M1078 363q0 -280 -269 -280h-328q-83 0 -133 26t-82 80q-14 -48 -66 -77t-128 -29h-72v129h72q64 0 92 35t27 116v422l129 130v-521q0 -74 48 -128t113 -54h328q68 0 103 31q37 38 37 120v422l129 130v-552zM762 1226q0 -34 36 -61t79 -27q147 36 201 36l-58 -89
q-44 -8 -174 -44q-110 -36 -203 -36h-48l59 92h24q31 0 48 13q-64 38 -64 107t51 104t103 35t84 -22q31 -22 53 -47l-19 -15q-74 27 -99 27t-49 -20q-24 -19 -24 -53zM341 -204q0 -40 -27 -66t-65 -26t-66 26t-28 66q0 39 27 66t66 27t66 -27t27 -66zM334 -475
q0 -39 -27 -66t-65 -27t-66 27t-27 66q0 39 27 65q28 26 66 27q38 -1 65 -27t27 -65z" />
    <glyph glyph-name="uniFBF9" unicode="&#xfbf9;" horiz-adv-x="1882" arabic-form="isolated" 
d="M1815 363q0 -280 -269 -280h-628q-52 0 -92 -32l394 -123q29 -7 29 -45q0 -37 -19 -66q-78 -125 -212 -198t-328 -73q-276 0 -434 167t-158 421t182 416q162 142 366 142h74l-16 -32q-204 0 -352 -142t-147 -350q0 -208 142 -350t343 -142q256 0 390 159l-404 127
q-31 11 -31 50q0 16 21 45q137 155 252 155h628q69 0 104 31q37 38 37 120v422l128 130v-552zM1575 1299q-27 0 -51 -20q-24 -19 -24 -53t36 -61t79 -27q144 36 200 36l-57 -89q-45 -8 -174 -44q-111 -36 -203 -36h-48l59 92h24q31 0 48 13q-64 38 -64 107t51 104t116 35
t123 -69l-19 -15q-70 27 -96 27z" />
    <glyph glyph-name="uniFBFA" unicode="&#xfbfa;" horiz-adv-x="1797" arabic-form="final" 
d="M1771 83q-154 0 -215 106q-13 -48 -66 -77t-128 -29h-444q-52 0 -92 -32l394 -123q29 -7 29 -45q0 -37 -19 -66q-78 -125 -212 -198t-328 -73q-276 0 -434 167t-158 421t182 416q162 142 366 142h74l-16 -32q-204 0 -352 -142t-147 -350q0 -208 142 -350t343 -142
q256 0 390 159l-404 127q-31 11 -31 50q0 16 21 45q137 155 252 155h444q62 0 90 35t28 116v422l130 130v-521q0 -74 48 -128t113 -54h48v-129h-48zM1600 1299q-26 0 -50 -20q-24 -19 -25 -53q1 -34 37 -61t78 -27q144 36 200 36l-57 -89q-45 -8 -174 -44q-111 -36 -203 -36
h-48l59 92h24q31 0 48 13q-64 38 -64 107t51 104t115 35t125 -69l-20 -15q-70 27 -96 27z" />
    <glyph glyph-name="uniFBFB" unicode="&#xfbfb;" horiz-adv-x="1182" arabic-form="initial" 
d="M1078 363q0 -280 -269 -280h-328q-83 0 -133 26t-82 80q-14 -48 -66 -77t-128 -29h-72v129h72q64 0 92 35t27 116v422l129 130v-521q0 -74 48 -128t113 -54h328q68 0 103 31q37 38 37 120v422l129 130v-552zM762 1226q0 -34 36 -61t79 -27q147 36 201 36l-58 -89
q-44 -8 -174 -44q-110 -36 -203 -36h-48l59 92h24q31 0 48 13q-64 38 -64 107t51 104t103 35t84 -22q31 -22 53 -47l-19 -15q-74 27 -99 27t-49 -20q-24 -19 -24 -53z" />
    <glyph glyph-name="afii52364" unicode="&#x6cc;" horiz-adv-x="1300" arabic-form="final" 
d="M1299 83h-381q-52 0 -92 -32l394 -123q29 -7 29 -45q0 -37 -19 -66q-78 -125 -212 -198t-328 -73q-276 0 -434 167t-158 421t182 416q162 142 366 142h74l-16 -32q-204 0 -352 -142t-147 -350q0 -208 142 -350t343 -142q256 0 390 159l-404 127q-31 11 -31 50q0 16 21 45
q137 155 252 155h381v-129z" />
    <glyph glyph-name="afii62831" unicode="&#x6cc;" horiz-adv-x="651" arabic-form="initial" 
d="M282 -137q0 -39 -26 -66t-66 -27q-38 0 -66 27t-28 66t26 65t67 27q41 -1 67 -27t26 -65zM511 -137q1 -39 -27 -66t-66 -27t-66 27t-28 66t27 65t66 27q39 -1 67 -27t27 -65zM551 363q0 -280 -269 -280h-282v129h282q68 0 103 31q37 38 37 120v422l129 130v-552z" />
    <glyph glyph-name="afii62832" unicode="&#x6cc;" horiz-adv-x="527" arabic-form="medial" 
d="M282 -137q0 -39 -26 -66t-66 -27q-38 0 -66 27t-28 66t26 65t67 27q41 -1 67 -27t26 -65zM511 -137q1 -39 -27 -66t-66 -27t-66 27t-28 66t27 65t66 27q39 -1 67 -27t27 -65zM529 83h-48q-83 0 -133 26t-82 80q-14 -48 -66 -77t-128 -29h-72v129h72q64 0 92 35t27 116
v422l129 130v-521q0 -74 48 -128t113 -54h48v-129z" />
    <glyph glyph-name="afii62882" unicode="&#xfc5e;" horiz-adv-x="403" arabic-form="isolated" 
 />
    <glyph glyph-name="afii62883" unicode="&#xfc5f;" horiz-adv-x="381" arabic-form="isolated" 
 />
    <glyph glyph-name="afii62884" unicode="&#xfc60;" horiz-adv-x="381" arabic-form="isolated" 
 />
    <glyph glyph-name="afii62885" unicode="&#xfc61;" horiz-adv-x="379" arabic-form="isolated" 
 />
    <glyph glyph-name="afii62886" unicode="&#xfc62;" horiz-adv-x="381" arabic-form="isolated" 
 />
    <glyph glyph-name="afii52399" unicode="&#x621;" horiz-adv-x="504" arabic-form="isolated" 
d="M301 1299q-27 0 -51 -20q-24 -19 -24 -53t36 -61t79 -27q144 36 200 36l-57 -89q-45 -8 -174 -44q-111 -36 -203 -36h-48l59 92h24q31 0 48 13q-64 38 -64 107t51 104t115 35t125 -69l-20 -15q-70 27 -96 27z" />
    <glyph glyph-name="afii62753" unicode="&#x622;" horiz-adv-x="558" arabic-form="final" 
 />
    <glyph glyph-name="afii62754" unicode="&#x623;" horiz-adv-x="1041" arabic-form="final" 
d="M680 1508q-84 -71 -122 -131t-94 -185q-5 16 -35 83q-60 134 -162 222l19 109q60 -31 110 -114q37 -72 75 -144q40 72 78 144q51 79 117 112zM459 212h232v289q-1 114 -65 199t-167 85t-168 -82q-65 -81 -65 -203t64 -205t169 -83zM1040 212v-129h-220q0 -253 -40 -399
t-107 -235q-15 -18 -115 -119h-16q4 0 44 80q106 214 105 430v243h-232q-170 0 -267 123q-94 112 -94 290t101 299q101 120 261 120t260 -117t100 -297v-289h220z" />
    <glyph glyph-name="afii62755" unicode="&#x624;" horiz-adv-x="1041" arabic-form="final" 
d="M568 1442q0 -72 -54 -150t-130 -78q-10 0 -24 10q110 63 110 190q-42 -8 -59 -8q-98 0 -98 97l7 27q46 71 112 71q66 1 101 -43t35 -116zM459 212h232v289q-1 114 -65 199t-167 85t-168 -82q-65 -81 -65 -203t64 -205t169 -83zM1040 212v-129h-220q0 -253 -40 -399
t-107 -235q-15 -18 -115 -119h-16q4 0 44 80q106 214 105 430v243h-232q-170 0 -267 123q-94 112 -94 290t101 299q101 120 261 120t260 -117t100 -297v-289h220z" />
    <glyph glyph-name="afii62756" unicode="&#x625;" horiz-adv-x="1041" arabic-form="final" 
d="M422 1316q0 -38 -26 -65t-66 -27q-38 0 -66 27t-28 65t26 66q26 27 67 27t67 -27q26 -28 26 -66zM649 1316q0 -38 -27 -65q-26 -27 -64 -27t-66 27t-28 65t27 66q27 27 65 27t66 -27q27 -28 27 -66zM538 1506q0 -38 -28 -65t-66 -27t-65 26t-27 66t27 66q27 27 65 27
t66 -27q28 -28 28 -66zM459 212h232v289q-1 114 -65 199t-167 85t-168 -82q-65 -81 -65 -203t64 -205t169 -83zM1040 212v-129h-220q0 -253 -40 -399t-107 -235q-15 -18 -115 -119h-16q4 0 44 80q106 214 105 430v243h-232q-170 0 -267 123q-94 112 -94 290t101 299
q101 120 261 120t260 -117t100 -297v-289h220z" />
    <glyph glyph-name="afii62759" unicode="&#x626;" horiz-adv-x="529" arabic-form="final" 
d="M529 83h-48q-83 0 -133 26t-82 80q-14 -48 -66 -77t-128 -29h-72v129h72q64 0 92 35t27 116v422l129 130v-521q0 -74 48 -128t113 -54h48v-129zM308 1299q-24 0 -48 -20q-24 -19 -25 -53q1 -34 37 -61t78 -27q147 36 201 36l-58 -89q-44 -8 -174 -44q-110 -36 -203 -36
h-48l59 92h24q31 0 48 13q-63 38 -63 107t51 104t103 35t83 -22t53 -47l-19 -15q-75 27 -99 27z" />
    <glyph glyph-name="afii62757" unicode="&#x626;" horiz-adv-x="651" arabic-form="initial" 
d="M551 363q0 -280 -269 -280h-282v129h282q68 0 103 31q37 38 37 120v422l129 130v-552zM308 1299q-24 0 -48 -20q-24 -19 -25 -53q1 -34 37 -61t78 -27q147 36 201 36l-58 -89q-44 -8 -174 -44q-110 -36 -203 -36h-48l59 92h24q31 0 48 13q-63 38 -63 107t51 104t103 35
t83 -22t53 -47l-19 -15q-75 27 -99 27z" />
    <glyph glyph-name="afii62758" unicode="&#x626;" horiz-adv-x="529" arabic-form="medial" 
d="M529 83h-48q-83 0 -133 26t-82 80q-14 -48 -66 -77t-128 -29h-72v129h72q64 0 92 35t27 116v422l129 130v-521q0 -74 48 -128t113 -54h48v-129zM308 1299q-24 0 -48 -20q-24 -19 -25 -53q1 -34 37 -61t78 -27q147 36 201 36l-58 -89q-44 -8 -174 -44q-110 -36 -203 -36
h-48l59 92h24q31 0 48 13q-63 38 -63 107t51 104t103 35t83 -22t53 -47l-19 -15q-75 27 -99 27z" />
    <glyph glyph-name="afii62760" unicode="&#x627;" horiz-adv-x="419" arabic-form="final" 
d="M417 83h-319v1528l128 129v-1528h191v-129z" />
    <glyph glyph-name="afii62763" unicode="&#x628;" horiz-adv-x="1850" arabic-form="final" 
d="M1016 -137q0 -39 -27 -66t-66 -27t-67 27t-27 66q-1 39 27 65t67 27q39 -1 66 -27t27 -65zM1801 83q-154 0 -213 106q-16 -48 -68 -77t-127 -29h-873q-190 1 -306 75t-116 217q0 97 73 201q37 51 136 147l60 62l20 -26l-45 -63q-144 -182 -144 -283t114 -157
q88 -44 208 -44h873q65 0 92 35t27 116v422l128 130v-521q0 -74 48 -128t113 -54h48v-129h-48z" />
    <glyph glyph-name="afii62761" unicode="&#x628;" horiz-adv-x="514" arabic-form="initial" 
d="M278 -137q0 -39 -28 -66t-64 -27q-38 0 -66 27t-28 66t27 65t65 27q38 -1 66 -27t28 -65zM416 363q0 -142 -70 -211t-198 -69h-148v129h148q68 0 104 34t35 117v422l129 130v-552z" />
    <glyph glyph-name="afii62762" unicode="&#x628;" horiz-adv-x="527" arabic-form="medial" 
d="M362 -137q0 -39 -28 -66t-66 -27t-66 27t-27 66q0 39 27 65q28 26 66 27q38 -1 66 -27t28 -65zM529 83h-48q-83 0 -133 26t-82 80q-14 -48 -66 -77t-128 -29h-72v129h72q64 0 92 35t27 116v422l129 130v-521q0 -74 48 -128t113 -54h48v-129z" />
    <glyph glyph-name="afii62764" unicode="&#x629;" horiz-adv-x="1507" arabic-form="final" 
d="M1047 354v40q1 98 -37 184t-148 146t-300 61h-336v-93q0 -203 147 -335q153 -145 409 -145h78q68 0 128 44t59 98zM1456 83q-217 0 -308 172q-25 -66 -108 -117q-94 -55 -202 -55h-34q-314 0 -496 147q-210 169 -210 506v179h486q374 0 514 -216q49 -73 79 -195t100 -206
q70 -86 179 -86h51v-129h-51z" />
    <glyph glyph-name="afii62767" unicode="&#x62a;" horiz-adv-x="1850" arabic-form="final" 
d="M1801 83q-154 0 -213 106q-16 -48 -68 -77t-127 -29h-873q-190 1 -306 75t-116 217q0 97 73 201q37 51 136 147l60 62l20 -26l-45 -63q-144 -182 -144 -283t114 -157q88 -44 208 -44h873q65 0 92 35t27 116v422l128 130v-521q0 -74 48 -128t113 -54h48v-129h-48zM951 878
q0 -38 -27 -66q-28 -27 -66 -27t-66 27q-28 28 -27 66q-1 38 27 65t66 27t66 -27q27 -27 27 -65zM1180 878q0 -38 -28 -66q-28 -27 -66 -27t-66 27q-28 28 -27 66q0 38 27 65q28 27 66 27t66 -27t28 -65z" />
    <glyph glyph-name="afii62765" unicode="&#x62a;" horiz-adv-x="563" arabic-form="initial" 
d="M416 363q0 -142 -70 -211t-198 -69h-148v129h148q68 0 104 34t35 117v422l129 130v-552zM235 1135q-1 -37 -27 -65t-65 -28t-65 27t-26 65t26 66t65 28t65 -28t27 -65zM464 1135q0 -37 -26 -65t-65 -28t-67 27t-28 65t26 66t68 28q40 0 66 -28t26 -65z" />
    <glyph glyph-name="afii62766" unicode="&#x62a;" horiz-adv-x="527" arabic-form="medial" 
d="M529 83h-48q-83 0 -133 26t-82 80q-14 -48 -66 -77t-128 -29h-72v129h72q64 0 92 35t27 116v422l129 130v-521q0 -74 48 -128t113 -54h48v-129zM235 1135q-1 -37 -27 -65t-65 -28t-65 27t-26 65t26 66t65 28t65 -28t27 -65zM464 1135q0 -37 -26 -65t-65 -28t-67 27
t-28 65t26 66t68 28q40 0 66 -28t26 -65z" />
    <glyph glyph-name="afii62770" unicode="&#x62b;" horiz-adv-x="1850" arabic-form="final" 
d="M884 1135q0 -37 -26 -65t-66 -28q-38 0 -66 27t-28 65t27 66t67 28t66 -28t26 -65zM1113 1135q1 -37 -27 -65t-66 -28t-66 27t-27 65t27 66t65 28t67 -28t27 -65zM1000 1324q0 -38 -27 -65t-65 -27t-64 27q-28 27 -28 65t26 65t65 27t66 -27t27 -65zM949 601q0 11 -11 20
l-85 39q-57 32 -57 71t15 59t47 40l78 40q66 33 122 33l-31 -94h-19q-12 0 -29 -8l-82 -41q-6 -6 -6 -16t6 -14l82 -41q65 -29 65 -91q0 -28 -14 -48q-14 -26 -57 -38l-37 -11q-32 -10 -67 -10t-116 49v14l43 -3q49 0 82 13l58 21q13 5 13 16zM1801 83q-154 0 -213 106
q-16 -48 -68 -77t-127 -29h-873q-190 1 -306 75t-116 217q0 97 73 201q37 51 136 147l60 62l20 -26l-45 -63q-144 -182 -144 -283t114 -157q88 -44 208 -44h873q65 0 92 35t27 116v1248l128 129v-1346q0 -74 48 -128t113 -54h48v-129h-48z" />
    <glyph glyph-name="afii62768" unicode="&#x62b;" horiz-adv-x="1232" arabic-form="initial" 
d="M605 1391q-1 -39 -27 -65t-64 -27t-66 25t-27 66q0 40 27 66q28 26 66 26t64 -26t27 -65zM895 1524q-1 -40 -27 -66t-65 -26t-65 26t-26 66t26 66t65 26t65 -26t27 -66zM634 1669q0 -38 -26 -65t-66 -27q-38 0 -66 26t-28 65t26 66t66 27t68 -27q26 -27 26 -65z
M1264 1512q0 -54 -56 -102t-223 -128l-582 -290q-119 -57 -119 -138q0 -46 96 -112l322 -144q212 -133 212 -280q0 -109 -80 -172t-185 -63h-649v129h649q47 0 91 30t44 85t-76 111q-20 18 -86 58l-317 142q-77 46 -113 96t-36 130q0 78 46 131t142 103l641 321
q172 85 279 206v-113z" />
    <glyph glyph-name="afii62769" unicode="&#x62b;" horiz-adv-x="1252" arabic-form="medial" 
d="M629 1391q-1 -39 -27 -65t-64 -27t-66 25t-27 66q0 40 27 66q28 26 66 26t64 -26t27 -65zM919 1524q-1 -40 -27 -66t-65 -26t-65 26t-26 66t26 66t65 26t65 -26t27 -66zM658 1669q0 -38 -26 -65t-66 -27q-38 0 -66 26t-28 65t26 66t66 27t68 -27q26 -27 26 -65z
M1460 1599q0 -45 -59 -99t-219 -130l-755 -378q-119 -57 -119 -138q0 -27 34 -58q11 -13 62 -54l202 -144q64 -54 176 -168t190 -166t187 -52h61v-129h-61q-87 -1 -197 39t-168 105q-31 -68 -97 -106t-146 -38h-551v129h551q49 0 87 27t38 70t-44 89t-108 98l-195 142
q-77 62 -113 106t-36 122q0 76 46 129t142 103l814 405q134 66 250 175q14 18 28 34v-113z" />
    <glyph glyph-name="afii62773" unicode="&#x62c;" horiz-adv-x="1262" arabic-form="final" 
d="M871 -137q0 -39 -27 -66t-65 -27q-37 0 -65 27t-28 66t27 65t65 27q38 -1 66 -27q27 -26 27 -65zM98 701q0 107 53 179q61 77 161 77h19q126 0 253 -101l247 -204q35 -26 101 -48t122 -23h206l-129 -129h-114q-79 0 -175 -27q20 -95 140 -157q104 -56 209 -56h69v-129
h-69q-156 0 -294 73q-164 87 -182 220q-173 -80 -283 -208q-124 -138 -124 -286q0 -174 186 -344q134 -124 322 -220t211 -96l-17 -31q-41 0 -251 76t-365 206q-214 180 -214 409q0 108 64 229t198 232t335 184l-276 223q-37 30 -87 54t-83 23h-19q-57 0 -109 -51t-52 -116
v-64l-21 -8q-32 67 -32 113z" />
    <glyph glyph-name="afii62771" unicode="&#x62c;" horiz-adv-x="1438" arabic-form="initial" 
d="M751 -137q-1 -39 -27 -66t-64 -27t-64 27q-28 27 -28 66t27 65t65 27q38 -1 64 -27t27 -65zM68 714q0 107 56 175t154 68h20q120 0 258 -88l321 -211q136 -82 209 -82h254l-130 -130h-93q-233 0 -404 -94q-136 -88 -269 -174q-164 -95 -365 -95h-79v129h79q141 0 273 63
q52 24 210 125t262 134l-352 230q-36 26 -86 44t-88 19h-20q-56 -1 -106 -47t-50 -106v-65l-19 -7q-35 55 -35 112z" />
    <glyph glyph-name="afii62772" unicode="&#x62c;" horiz-adv-x="1365" arabic-form="medial" 
d="M751 -137q-1 -39 -27 -66t-64 -27t-64 27q-28 27 -28 66t27 65t65 27q38 -1 64 -27t27 -65zM68 714q0 107 56 175t154 68h20q120 0 258 -88l321 -211q136 -82 209 -82h254l-130 -130h-93q-72 0 -139 -9v-27q0 -102 118 -155q88 -43 213 -43h58v-129h-58q-188 0 -312 66
q-146 76 -146 221v40q-113 -34 -263 -136t-202 -126q-135 -65 -307 -65h-79v129h79q141 0 273 63q52 24 210 125t262 134l-352 230q-36 26 -86 44t-88 19h-20q-56 -1 -106 -47t-50 -106v-65l-19 -7q-35 55 -35 112z" />
    <glyph glyph-name="afii62776" unicode="&#x62d;" horiz-adv-x="1262" arabic-form="final" 
d="M98 701q0 107 53 179q61 77 161 77h19q126 0 253 -101l247 -204q35 -26 101 -48t122 -23h206l-129 -129h-114q-79 0 -175 -27q20 -95 140 -157q104 -56 209 -56h69v-129h-69q-156 0 -294 73q-164 87 -182 220q-173 -80 -283 -208q-124 -138 -124 -286q0 -174 186 -344
q134 -124 322 -220t211 -96l-17 -31q-41 0 -251 76t-365 206q-214 180 -214 409q0 108 64 229t198 232t335 184l-276 223q-37 30 -87 54t-83 23h-19q-57 0 -109 -51t-52 -116v-64l-21 -8q-32 67 -32 113z" />
    <glyph glyph-name="afii62774" unicode="&#x62d;" horiz-adv-x="1438" arabic-form="initial" 
d="M68 714q0 107 56 175t154 68h20q120 0 258 -88l321 -211q136 -82 209 -82h254l-130 -130h-93q-233 0 -404 -94q-136 -88 -269 -174q-164 -95 -365 -95h-79v129h79q141 0 273 63q52 24 210 125t262 134l-352 230q-36 26 -86 44t-88 19h-20q-56 -1 -106 -47t-50 -106v-65
l-19 -7q-35 55 -35 112z" />
    <glyph glyph-name="afii62775" unicode="&#x62d;" horiz-adv-x="1365" arabic-form="medial" 
d="M68 714q0 107 56 175t154 68h20q120 0 258 -88l321 -211q136 -82 209 -82h254l-130 -130h-93q-72 0 -139 -9v-27q0 -102 118 -155q88 -43 213 -43h58v-129h-58q-188 0 -312 66q-146 76 -146 221v40q-113 -34 -263 -136t-202 -126q-135 -65 -307 -65h-79v129h79
q141 0 273 63q52 24 210 125t262 134l-352 230q-36 26 -86 44t-88 19h-20q-56 -1 -106 -47t-50 -106v-65l-19 -7q-35 55 -35 112z" />
    <glyph glyph-name="afii62779" unicode="&#x62e;" horiz-adv-x="1262" arabic-form="final" 
d="M98 701q0 107 53 179q61 77 161 77h19q126 0 253 -101l247 -204q35 -26 101 -48t122 -23h206l-129 -129h-114q-79 0 -175 -27q20 -95 140 -157q104 -56 209 -56h69v-129h-69q-156 0 -294 73q-164 87 -182 220q-173 -80 -283 -208q-124 -138 -124 -286q0 -174 186 -344
q134 -124 322 -220t211 -96l-17 -31q-41 0 -251 76t-365 206q-214 180 -214 409q0 108 64 229t198 232t335 184l-276 223q-37 30 -87 54t-83 23h-19q-57 0 -109 -51t-52 -116v-64l-21 -8q-32 67 -32 113zM752 1135q0 -37 -27 -65t-65 -28t-66 27t-28 65t28 66t66 28t65 -28
t27 -65z" />
    <glyph glyph-name="afii62777" unicode="&#x62e;" horiz-adv-x="1438" arabic-form="initial" 
d="M68 714q0 107 56 175t154 68h20q120 0 258 -88l321 -211q136 -82 209 -82h254l-130 -130h-93q-233 0 -404 -94q-136 -88 -269 -174q-164 -95 -365 -95h-79v129h79q141 0 273 63q52 24 210 125t262 134l-352 230q-36 26 -86 44t-88 19h-20q-56 -1 -106 -47t-50 -106v-65
l-19 -7q-35 55 -35 112zM680 1162q0 -38 -28 -65t-64 -27q-38 0 -66 27t-29 65q0 38 27 65t66 27q38 0 66 -27t28 -65z" />
    <glyph glyph-name="afii62778" unicode="&#x62e;" horiz-adv-x="1365" arabic-form="medial" 
d="M68 714q0 107 56 175t154 68h20q120 0 258 -88l321 -211q136 -82 209 -82h254l-130 -130h-93q-72 0 -139 -9v-27q0 -102 118 -155q88 -43 213 -43h58v-129h-58q-188 0 -312 66q-146 76 -146 221v40q-113 -34 -263 -136t-202 -126q-135 -65 -307 -65h-79v129h79
q141 0 273 63q52 24 210 125t262 134l-352 230q-36 26 -86 44t-88 19h-20q-56 -1 -106 -47t-50 -106v-65l-19 -7q-35 55 -35 112zM680 1162q0 -38 -28 -65t-64 -27q-38 0 -66 27t-29 65q0 38 27 65t66 27q38 0 66 -27t28 -65z" />
    <glyph glyph-name="afii62780" unicode="&#x62f;" horiz-adv-x="1232" arabic-form="final" 
d="M1231 83h-76q-81 0 -129 29t-98 88q-25 -59 -79 -88t-159 -29h-401q-97 1 -144 43t-47 132t46 230l31 10q1 -172 45 -229t162 -57h314q56 0 98 31t41 69q0 83 -100 256l-285 474l51 163l346 -571q5 -8 69 -142t111 -193q68 -87 135 -87h69v-129z" />
    <glyph glyph-name="afii62781" unicode="&#x630;" horiz-adv-x="1041" arabic-form="final" 
d="M532 1401q0 -89 -104 -151q-17 294 -14 338v11q37 15 117 51zM459 212h232v289q-1 114 -65 199t-167 85t-168 -82q-65 -81 -65 -203t64 -205t169 -83zM1040 212v-129h-220q0 -253 -40 -399t-107 -235q-15 -18 -115 -119h-16q4 0 44 80q106 214 105 430v243h-232
q-170 0 -267 123q-94 112 -94 290t101 299q101 120 261 120t260 -117t100 -297v-289h220z" />
    <glyph glyph-name="afii62782" unicode="&#x631;" horiz-adv-x="589" arabic-form="final" 
d="M525 83q-105 0 -151 55q0 -276 -38 -434t-107 -249q-21 -29 -117 -125h-14q2 0 42 80q104 206 104 430v945l131 130v-521q0 -76 41 -129t109 -53h64v-129h-64z" />
    <glyph glyph-name="afii62783" unicode="&#x632;" horiz-adv-x="589" arabic-form="final" 
d="M525 83q-105 0 -151 55q0 -276 -38 -434t-107 -249q-21 -29 -117 -125h-14q2 0 42 80q104 206 104 430v945l131 130v-521q0 -76 41 -129t109 -53h64v-129h-64zM387 1135q0 -37 -28 -65t-66 -28t-65 27t-27 65t27 66t65 28t66 -28t28 -65z" />
    <glyph glyph-name="afii62786" unicode="&#x633;" horiz-adv-x="2286" arabic-form="final" 
d="M1651 167q-61 -84 -169 -84q-109 0 -166 48q2 -7 0 -8q0 -247 -145 -399q-167 -178 -462 -178t-453 167t-158 421t182 416q162 142 366 142h74l-16 -32q-204 0 -352 -142t-147 -350q0 -208 142 -350t343 -142q246 0 372 137t127 354v618l129 130v-540q0 -67 45 -115
t105 -48t84 42t23 121v410l130 130v-540q0 -67 36 -115t91 -48t72 42t17 121v410l131 130v-540q0 -71 52 -117t123 -46h59v-129h-59q-131 0 -217 79q-53 -79 -170 -79t-189 84z" />
    <glyph glyph-name="afii62784" unicode="&#x633;" horiz-adv-x="1180" arabic-form="initial" 
d="M109 212q113 0 113 163v410l128 130v-540q0 -67 44 -115t105 -48t84 42t23 121v410l132 130v-540q0 -67 35 -115t91 -48t74 49q15 35 15 114v410l129 130v-540q0 -143 -39 -208q-47 -84 -168 -84t-193 84q-29 -43 -67 -63q-39 -20 -105 -21t-123 25t-89 70
q-67 -95 -176 -95h-122v129h109z" />
    <glyph glyph-name="afii62785" unicode="&#x633;" horiz-adv-x="1256" arabic-form="medial" 
d="M68 212q112 0 112 163v410l130 130v-540q0 -67 45 -115t105 -48t84 42t24 121v410l129 130v-540q0 -67 36 -115q35 -48 91 -48t72 42t17 121v410l129 130v-540q0 -67 55 -115t123 -48h39v-129h-39q-130 0 -218 82q-48 -82 -170 -82t-189 84q-31 -43 -69 -63t-103 -21
q-137 0 -215 95q-65 -95 -173 -95h-83v129h68z" />
    <glyph glyph-name="afii62789" unicode="&#x634;" horiz-adv-x="2286" arabic-form="final" 
d="M1651 167q-61 -84 -169 -84q-109 0 -166 48q2 -7 0 -8q0 -247 -145 -399q-167 -178 -462 -178t-453 167t-158 421t182 416q162 142 366 142h74l-16 -32q-204 0 -352 -142t-147 -350q0 -208 142 -350t343 -142q246 0 372 137t127 354v618l129 130v-540q0 -67 45 -115
t105 -48t84 42t23 121v410l130 130v-540q0 -67 36 -115t91 -48t72 42t17 121v410l131 130v-540q0 -71 52 -117t123 -46h59v-129h-59q-131 0 -217 79q-53 -79 -170 -79t-189 84zM1615 1135q-1 -37 -27 -65t-65 -28t-67 27t-27 65t27 66t66 28t66 -28t27 -65zM1842 1135
q0 -37 -26 -65t-65 -28q-37 0 -65 27t-28 65t26 66t66 28t66 -28t26 -65zM1731 1324q1 -38 -27 -65t-66 -27t-66 27t-28 65t27 65t66 27t67 -27t27 -65z" />
    <glyph glyph-name="afii62787" unicode="&#x634;" horiz-adv-x="1180" arabic-form="initial" 
d="M109 212q113 0 113 163v410l128 130v-540q0 -67 44 -115t105 -48t84 42t23 121v410l132 130v-540q0 -67 35 -115t91 -48t74 49q15 35 15 114v410l129 130v-540q0 -143 -39 -208q-47 -84 -168 -84t-193 84q-29 -43 -67 -63q-39 -20 -105 -21t-123 25t-89 70
q-67 -95 -176 -95h-122v129h109zM638 1135q0 -37 -27 -65t-66 -28t-65 27t-26 65t26 66t65 28t66 -28t27 -65zM866 1135q0 -37 -26 -65t-65 -28t-67 27t-28 65t26 66t68 28q40 0 66 -28t26 -65zM754 1324q0 -38 -26 -65t-66 -27q-38 0 -66 27t-28 65t28 65t66 27
q40 0 66 -27t26 -65z" />
    <glyph glyph-name="afii62788" unicode="&#x634;" horiz-adv-x="1256" arabic-form="medial" 
d="M68 212q112 0 112 163v410l130 130v-540q0 -67 45 -115t105 -48t84 42t24 121v410l129 130v-540q0 -67 36 -115q35 -48 91 -48t72 42t17 121v410l129 130v-540q0 -67 55 -115t123 -48h39v-129h-39q-130 0 -218 82q-48 -82 -170 -82t-189 84q-31 -43 -69 -63t-103 -21
q-137 0 -215 95q-65 -95 -173 -95h-83v129h68zM626 1135q0 -37 -26 -65t-65 -28t-67 27t-28 65t26 66t68 28q40 0 66 -28t26 -65zM853 1135q-1 -37 -27 -65t-64 -28t-64 27q-28 27 -28 65t26 66t65 28t65 -28t27 -65zM743 1324q1 -38 -27 -65t-66 -27t-66 27t-27 65
q0 38 27 65q28 27 66 27t66 -27t27 -65z" />
    <glyph glyph-name="afii62792" unicode="&#x635;" horiz-adv-x="1300" arabic-form="final" 
d="M1299 83h-381q-52 0 -92 -32l394 -123q29 -7 29 -45q0 -37 -19 -66q-78 -125 -212 -198t-328 -73q-276 0 -434 167t-158 421t182 416q162 142 366 142h74l-16 -32q-204 0 -352 -142t-147 -350q0 -208 142 -350t343 -142q256 0 390 159l-404 127q-31 11 -31 50q0 16 21 45
q137 155 252 155h381v-129z" />
    <glyph glyph-name="afii62790" unicode="&#x635;" horiz-adv-x="651" arabic-form="initial" 
d="M551 363q0 -280 -269 -280h-282v129h282q68 0 103 31q37 38 37 120v422l129 130v-552z" />
    <glyph glyph-name="afii62791" unicode="&#x635;" horiz-adv-x="527" arabic-form="medial" 
d="M529 83h-48q-83 0 -133 26t-82 80q-14 -48 -66 -77t-128 -29h-72v129h72q64 0 92 35t27 116v422l129 130v-521q0 -74 48 -128t113 -54h48v-129z" />
    <glyph glyph-name="afii62795" unicode="&#x636;" horiz-adv-x="1300" arabic-form="final" 
d="M813 -577q0 -38 -27 -66q-28 -28 -66 -28t-66 27t-27 66q-1 38 27 66t66 28t66 -28q27 -28 27 -65zM807 -789q0 -39 -27 -65q-28 -26 -66 -27q-38 1 -66 27t-27 65q-1 39 27 65t66 26t66 -26q27 -26 27 -65zM1299 83h-381q-52 0 -92 -32l394 -123q29 -7 29 -45
q0 -37 -19 -66q-78 -125 -212 -198t-328 -73q-276 0 -434 167t-158 421t182 416q162 142 366 142h74l-16 -32q-204 0 -352 -142t-147 -350q0 -208 142 -350t343 -142q256 0 390 159l-404 127q-31 11 -31 50q0 16 21 45q137 155 252 155h381v-129z" />
    <glyph glyph-name="afii62793" unicode="&#x636;" horiz-adv-x="651" arabic-form="initial" 
d="M341 -204q0 -40 -27 -66t-65 -26t-66 26t-28 66q0 39 27 66t66 27t66 -27t27 -66zM334 -475q0 -39 -27 -66t-65 -27t-66 27t-27 66q0 39 27 65q28 26 66 27q38 -1 65 -27t27 -65zM551 363q0 -280 -269 -280h-282v129h282q68 0 103 31q37 38 37 120v422l129 130v-552z" />
    <glyph glyph-name="afii62794" unicode="&#x636;" horiz-adv-x="527" arabic-form="medial" 
d="M341 -204q0 -40 -27 -66t-65 -26t-66 26t-28 66q0 39 27 66t66 27t66 -27t27 -66zM334 -475q0 -39 -27 -66t-65 -27t-66 27t-27 66q0 39 27 65q28 26 66 27q38 -1 65 -27t27 -65zM529 83h-48q-83 0 -133 26t-82 80q-14 -48 -66 -77t-128 -29h-72v129h72q64 0 92 35
t27 116v422l129 130v-521q0 -74 48 -128t113 -54h48v-129z" />
    <glyph glyph-name="afii62798" unicode="&#x637;" horiz-adv-x="1649" arabic-form="final" 
d="M863 493q0 122 -84 207t-246 85h-135v-284q0 -118 63 -198q67 -91 171 -91t168 80t63 201zM1649 212v-129h-55q-131 0 -232 91q-58 -57 -158 -74t-284 -17h-920v129h355q-86 115 -86 289v414h264q229 0 343 -120t115 -295q0 -175 -89 -288h18q140 0 218 12
q176 28 176 223q0 389 -239 615q-217 207 -531 207q-168 0 -286 -74t-118 -223q0 -49 18 -109t41 -86l-20 -18q-52 42 -79 112t-27 110q0 212 144 323q125 96 344 96t425 -114t328 -321q128 -225 128 -518q0 -90 -13 -153q76 -82 165 -82h55z" />
    <glyph glyph-name="afii62796" unicode="&#x637;" horiz-adv-x="1541" arabic-form="initial" 
d="M863 493q0 122 -84 207t-246 85h-135v-284q0 -118 63 -198q67 -91 171 -91t168 80t63 201zM533 915q229 0 343 -120t115 -295q0 -175 -89 -288h18q140 0 218 12q176 28 176 223q0 389 -239 615q-217 207 -531 207q-168 0 -286 -74t-118 -223q0 -49 18 -109t41 -86
l-20 -18q-52 42 -79 112t-27 110q0 212 144 323q125 96 344 96t425 -114t328 -321q128 -225 128 -518q0 -166 -54 -244t-177 -101q-90 -19 -291 -19h-920v129h355q-86 115 -86 289v414h264z" />
    <glyph glyph-name="afii62797" unicode="&#x637;" horiz-adv-x="1649" arabic-form="medial" 
d="M863 493q0 122 -84 207t-246 85h-135v-284q0 -118 63 -198q67 -91 171 -91t168 80t63 201zM1649 212v-129h-55q-131 0 -232 91q-58 -57 -158 -74t-284 -17h-920v129h355q-86 115 -86 289v414h264q229 0 343 -120t115 -295q0 -175 -89 -288h18q140 0 218 12
q176 28 176 223q0 389 -239 615q-217 207 -531 207q-168 0 -286 -74t-118 -223q0 -49 18 -109t41 -86l-20 -18q-52 42 -79 112t-27 110q0 212 144 323q125 96 344 96t425 -114t328 -321q128 -225 128 -518q0 -90 -13 -153q76 -82 165 -82h55z" />
    <glyph glyph-name="afii62801" unicode="&#x638;" horiz-adv-x="529" arabic-form="final" 
d="M529 83h-48q-83 0 -133 26t-82 80q-14 -48 -66 -77t-128 -29h-72v129h72q64 0 92 35t27 116v422l129 130v-521q0 -74 48 -128t113 -54h48v-129zM308 1299q-24 0 -48 -20q-24 -19 -25 -53q1 -34 37 -61t78 -27q147 36 201 36l-58 -89q-44 -8 -174 -44q-110 -36 -203 -36
h-48l59 92h24q31 0 48 13q-63 38 -63 107t51 104t103 35t83 -22t53 -47l-19 -15q-75 27 -99 27z" />
    <glyph glyph-name="afii62799" unicode="&#x638;" horiz-adv-x="651" arabic-form="initial" 
d="M551 363q0 -280 -269 -280h-282v129h282q68 0 103 31q37 38 37 120v422l129 130v-552zM308 1299q-24 0 -48 -20q-24 -19 -25 -53q1 -34 37 -61t78 -27q147 36 201 36l-58 -89q-44 -8 -174 -44q-110 -36 -203 -36h-48l59 92h24q31 0 48 13q-63 38 -63 107t51 104t103 35
t83 -22t53 -47l-19 -15q-75 27 -99 27z" />
    <glyph glyph-name="afii62800" unicode="&#x638;" horiz-adv-x="529" arabic-form="medial" 
d="M529 83h-48q-83 0 -133 26t-82 80q-14 -48 -66 -77t-128 -29h-72v129h72q64 0 92 35t27 116v422l129 130v-521q0 -74 48 -128t113 -54h48v-129zM308 1299q-24 0 -48 -20q-24 -19 -25 -53q1 -34 37 -61t78 -27q147 36 201 36l-58 -89q-44 -8 -174 -44q-110 -36 -203 -36
h-48l59 92h24q31 0 48 13q-63 38 -63 107t51 104t103 35t83 -22t53 -47l-19 -15q-75 27 -99 27z" />
    <glyph glyph-name="afii62804" unicode="&#x639;" horiz-adv-x="1260" arabic-form="final" 
d="M967 840v12h-183q-201 0 -296 -4t-162 -18v-4q141 -35 407 -262q105 106 138 144q96 101 96 132zM1257 83h-53q-110 0 -196 48t-164 127q-57 63 -112 125q-224 -206 -302 -331q-79 -126 -79 -206q0 -173 189 -320q136 -105 327 -177t219 -72l-20 -31q-57 0 -218 40
q-251 62 -406 174q-220 157 -220 386q0 188 234 439q73 83 186 185q-96 80 -135 111q-181 131 -409 199v101q66 45 208 73t478 29h324v-131q0 -46 -60 -124q-10 -16 -219 -250q142 -162 224 -214q83 -52 151 -52h53v-129z" />
    <glyph glyph-name="afii62802" unicode="&#x639;" horiz-adv-x="1368" arabic-form="initial" 
d="M563 956q-119 0 -216 -75q-109 -79 -109 -195t78 -201q108 -122 346 -167q345 143 608 143l-70 -140q-130 0 -311 -53q-37 -12 -163 -52t-229 -69q-227 -64 -429 -64h-68v129h86q213 0 327 43q-72 29 -137 75q-66 46 -116 130t-50 210q0 164 132 272q118 100 263 100
q175 0 327 -116q21 -21 45 -41l-24 -19q-171 90 -290 90z" />
    <glyph glyph-name="afii62803" unicode="&#x639;" horiz-adv-x="1216" arabic-form="medial" 
d="M925 856v11h-182q-365 0 -463 -22v-5q128 -31 414 -261q42 43 96 99t87 99q48 57 48 79zM1218 83h-55q-109 0 -203 55q-65 41 -142 130q-61 64 -120 133q-98 -91 -147 -127q-240 -191 -483 -191h-68v129h68q203 0 402 158q68 50 130 118q-94 76 -158 123
q-153 113 -387 184v102q125 81 401 95q126 6 287 7h321v-132q0 -46 -57 -126q-11 -13 -219 -246q83 -89 168 -177q116 -106 207 -106h55v-129z" />
    <glyph glyph-name="afii62807" unicode="&#x63a;" horiz-adv-x="1260" arabic-form="final" 
d="M967 840v12h-183q-201 0 -296 -4t-162 -18v-4q141 -35 407 -262q105 106 138 144q96 101 96 132zM1257 83h-53q-110 0 -196 48t-164 127q-57 63 -112 125q-224 -206 -302 -331q-79 -126 -79 -206q0 -173 189 -320q136 -105 327 -177t219 -72l-20 -31q-57 0 -218 40
q-251 62 -406 174q-220 157 -220 386q0 188 234 439q73 83 186 185q-96 80 -135 111q-181 131 -409 199v101q66 45 208 73t478 29h324v-131q0 -46 -60 -124q-10 -16 -219 -250q142 -162 224 -214q83 -52 151 -52h53v-129zM642 1289q0 -39 -26 -65t-65 -27q-38 1 -66 27
t-28 65t27 65t66 26q40 0 66 -26t26 -65z" />
    <glyph glyph-name="afii62805" unicode="&#x63a;" horiz-adv-x="1368" arabic-form="initial" 
d="M563 956q-119 0 -216 -75q-109 -79 -109 -195t78 -201q108 -122 346 -167q345 143 608 143l-70 -140q-130 0 -311 -53q-37 -12 -163 -52t-229 -69q-227 -64 -429 -64h-68v129h86q213 0 327 43q-72 29 -137 75q-66 46 -116 130t-50 210q0 164 132 272q118 100 263 100
q175 0 327 -116q21 -21 45 -41l-24 -19q-171 90 -290 90zM437 1278q1 -40 -27 -66t-66 -26t-66 25t-27 65q0 40 27 68q28 26 66 26t66 -26t27 -66z" />
    <glyph glyph-name="afii62806" unicode="&#x63a;" horiz-adv-x="1216" arabic-form="medial" 
d="M925 856v11h-182q-365 0 -463 -22v-5q128 -31 414 -261q42 43 96 99t87 99q48 57 48 79zM1218 83h-55q-109 0 -203 55q-65 41 -142 130q-61 64 -120 133q-98 -91 -147 -127q-240 -191 -483 -191h-68v129h68q203 0 402 158q68 50 130 118q-94 76 -158 123
q-153 113 -387 184v102q125 81 401 95q126 6 287 7h321v-132q0 -46 -57 -126q-11 -13 -219 -246q83 -89 168 -177q116 -106 207 -106h55v-129zM678 1266q0 -38 -26 -66t-66 -27q-38 1 -66 27t-28 65t27 65t67 26t66 -26t26 -64z" />
    <glyph glyph-name="afii62810" unicode="&#x641;" horiz-adv-x="1963" arabic-form="final" 
d="M1736 501q0 120 -64 202t-168 82t-168 -82q-64 -81 -64 -203t64 -205t167 -83t168 84t65 205zM1962 83h-1442q-190 1 -306 75t-116 217q0 97 73 201q37 51 136 147l60 62l20 -26l-45 -63q-144 -182 -144 -283t114 -157q88 -44 208 -44h716q-94 118 -94 290t102 293
q102 120 260 120t260 -119q100 -119 100 -293t-93 -291h191v-129zM1364 1135q0 -37 -26 -65t-64 -28t-66 27t-28 65t26 66t66 28t66 -28t26 -65z" />
    <glyph glyph-name="afii62808" unicode="&#x641;" horiz-adv-x="874" arabic-form="initial" 
d="M647 308v193q-1 114 -65 199t-168 85t-168 -82t-64 -201q0 -118 84 -204t204 -86h72q46 0 76 28t29 68zM776 308q0 -225 -234 -225h-542v129h169q-55 43 -85 122t-31 167q-1 174 101 294t261 120t260 -119t101 -295v-193zM298 1135q0 -37 -27 -65t-65 -28t-68 27
q-28 27 -28 65t28 66t68 28q38 0 65 -28t27 -65z" />
    <glyph glyph-name="afii62809" unicode="&#x641;" horiz-adv-x="911" arabic-form="medial" 
d="M643 501q1 120 -63 202t-168 82t-168 -82q-64 -81 -65 -203q0 -122 63 -201q64 -87 168 -87t168 84t65 205zM914 83h-914v129h142q-93 118 -93 290t102 293q102 120 260 120q159 0 261 -119t102 -293t-94 -291h234v-129zM318 1135q0 -37 -27 -65t-66 -28t-67 27t-27 65
q-1 38 27 66t67 28t66 -28t27 -65z" />
    <glyph glyph-name="afii62813" unicode="&#x642;" horiz-adv-x="1683" arabic-form="final" 
d="M1351 501q1 114 -63 199t-168 85t-168 -82q-64 -81 -63 -203q-1 -122 63 -205t167 -83h232v289zM1681 83h-213q-48 -241 -264 -389t-503 -148t-445 167t-158 421t182 416q162 142 366 142h74l-16 -32q-204 0 -352 -142t-147 -350q0 -208 142 -350q143 -142 357 -142
t402 120t232 287h-219q-173 -1 -267 117t-94 296t101 299q101 120 261 120t261 -120t101 -294v-289h199v-129zM752 1135q0 -37 -27 -65t-65 -28t-66 27t-28 65t28 66t66 28t65 -28t27 -65zM980 1135q0 -37 -26 -65t-66 -28q-39 0 -66 27t-27 65q1 38 27 66t66 28t66 -28
t26 -65z" />
    <glyph glyph-name="afii62811" unicode="&#x642;" horiz-adv-x="874" arabic-form="initial" 
d="M647 308v193q-1 114 -65 199t-168 85t-168 -82t-64 -201q0 -118 84 -204t204 -86h72q46 0 76 28t29 68zM776 308q0 -225 -234 -225h-542v129h169q-55 43 -85 122t-31 167q-1 174 101 294t261 120t260 -119t101 -295v-193zM222 1135q0 -37 -27 -65t-65 -28t-67 27
q-28 27 -28 65t28 66q29 28 67 28t65 -28t27 -65zM449 1135q0 -37 -27 -65t-65 -28q-37 0 -65 27t-28 65t27 66t65 28t66 -28q27 -28 27 -65z" />
    <glyph glyph-name="afii62812" unicode="&#x642;" horiz-adv-x="911" arabic-form="medial" 
d="M643 501q1 120 -63 202t-168 82t-168 -82q-64 -81 -65 -203q0 -122 63 -201q64 -87 168 -87t168 84t65 205zM914 83h-914v129h142q-93 118 -93 290t102 293q102 120 260 120q159 0 261 -119t102 -293t-94 -291h234v-129zM276 1135q0 -37 -26 -65t-66 -28q-38 0 -66 27
t-27 65q-1 38 27 66t66 28t66 -28q26 -28 26 -65zM505 1135q0 -37 -28 -65t-66 -28t-65 27t-27 65t27 66t65 28t66 -28t28 -65z" />
    <glyph glyph-name="afii62816" unicode="&#x643;" horiz-adv-x="1850" arabic-form="final" 
d="M949 601q0 11 -11 20l-85 39q-57 32 -57 71t15 59t47 40l78 40q66 33 122 33l-31 -94h-19q-12 0 -29 -8l-82 -41q-6 -6 -6 -16t6 -14l82 -41q65 -29 65 -91q0 -28 -14 -48q-14 -26 -57 -38l-37 -11q-32 -10 -67 -10t-116 49v14l43 -3q49 0 82 13l58 21q13 5 13 16z
M1801 83q-154 0 -213 106q-16 -48 -68 -77t-127 -29h-873q-190 1 -306 75t-116 217q0 97 73 201q37 51 136 147l60 62l20 -26l-45 -63q-144 -182 -144 -283t114 -157q88 -44 208 -44h873q65 0 92 35t27 116v1272l128 129v-1370q0 -74 48 -128t113 -54h48v-129h-48z" />
    <glyph glyph-name="afii57410" unicode="&#x643;" horiz-adv-x="1206" arabic-form="initial" 
d="M1108 1668q0 -54 -56 -102t-223 -128l-582 -290q-119 -57 -119 -138q0 -46 96 -112l478 -300q212 -133 212 -280q0 -109 -80 -172t-185 -63h-649v129h649q47 0 91 30t44 85t-76 111q-20 18 -86 58l-473 298q-77 46 -113 96t-36 130q0 78 46 131t142 103l641 321
q172 85 279 206v-113z" />
    <glyph glyph-name="afii62815" unicode="&#x643;" horiz-adv-x="1244" arabic-form="medial" 
d="M1412 1611q0 -45 -59 -99t-219 -130l-755 -378q-119 -57 -119 -138q0 -27 34 -58q11 -13 62 -54l250 -156q64 -54 176 -168t190 -166t187 -52h61v-129h-61q-87 -1 -197 39t-168 105q-31 -68 -97 -106t-146 -38h-551v129h551q49 0 87 27t38 70t-44 89t-108 98l-243 154
q-77 62 -113 106t-36 122q0 76 46 129t142 103l814 405q134 66 250 175q14 18 28 34v-113z" />
    <glyph glyph-name="afii62819" unicode="&#x644;" horiz-adv-x="1574" arabic-form="final" 
d="M1502 83q-113 0 -184 58v-18q0 -228 -145 -390q-175 -187 -467 -187t-450 167t-158 421t182 416q162 142 366 142h74l-16 -32q-204 0 -352 -142t-147 -350q0 -208 142 -350t343 -142q250 0 374 133t125 358v1468l129 129v-1417q0 -55 62 -95t122 -40h71v-129h-71z" />
    <glyph glyph-name="afii62817" unicode="&#x644;" horiz-adv-x="436" arabic-form="initial" 
d="M68 212q141 0 141 151v1248l128 129v-1377q0 -280 -269 -280h-68v129h68z" />
    <glyph glyph-name="afii62818" unicode="&#x644;" horiz-adv-x="588" arabic-form="medial" 
d="M68 212q141 0 141 151v1260l128 129v-1358q1 -74 59 -128t124 -54h68v-129h-68q-158 0 -222 106q-71 -106 -230 -106h-68v129h68z" />
    <glyph glyph-name="afii62822" unicode="&#x645;" horiz-adv-x="1600" arabic-form="final" 
d="M1184 212v277q0 114 -65 205t-168 91t-167 -82t-64 -201q0 -118 88 -204t196 -86h180zM1600 83h-49q-65 1 -133 35t-106 92v-127h-308q-190 -1 -302 117t-112 294t92 291h-164q-143 0 -143 -141v-432q-1 -306 -39 -480t-105 -270q-29 -41 -119 -132h-14q2 0 42 80
q104 206 104 430v817q0 104 69 181t187 77h451q169 -1 265 -119t96 -307v-46q0 -73 85 -152t154 -79h49v-129z" />
    <glyph glyph-name="afii62820" unicode="&#x645;" horiz-adv-x="1112" arabic-form="initial" 
d="M884 212v265q0 131 -64 219t-166 89q-104 0 -169 -82t-65 -201q0 -118 93 -204t220 -86h151zM0 83v129h72q108 0 164 62t56 158v69q0 176 100 295t261 119t261 -125t100 -313v-394h-281q-110 1 -205 45t-152 123q-73 -168 -304 -168h-72z" />
    <glyph glyph-name="afii62821" unicode="&#x645;" horiz-adv-x="1300" arabic-form="medial" 
d="M884 212v265q0 131 -64 219t-166 89q-104 0 -169 -82t-65 -201q0 -118 93 -204t220 -86h151zM0 83v129h72q108 0 164 62t56 158v69q0 176 100 295t262 119q162 1 261 -115t99 -323v-29q0 -76 83 -156t157 -80h46v-129h-46q-138 0 -240 129v-129h-281q-110 1 -205 45
t-152 123q-73 -168 -304 -168h-72z" />
    <glyph glyph-name="afii62825" unicode="&#x646;" horiz-adv-x="1574" arabic-form="final" 
d="M838 306q0 -38 -27 -66t-65 -28t-66 27t-28 66t27 67t66 27q39 1 66 -27t27 -66zM1502 83q-113 0 -184 58v-18q0 -228 -145 -390q-175 -187 -467 -187t-450 167t-158 421t182 416q162 142 366 142h74l-16 -32q-204 0 -352 -142t-147 -350q0 -208 142 -350t343 -142
q250 0 374 133t125 358v618l129 130v-568q0 -55 62 -95t122 -40h71v-129h-71z" />
    <glyph glyph-name="afii62823" unicode="&#x646;" horiz-adv-x="514" arabic-form="initial" 
d="M416 363q0 -142 -70 -211t-198 -69h-148v129h148q68 0 104 34t35 117v422l129 130v-552zM324 1135q0 -37 -26 -65t-66 -28t-66 27t-26 65t26 66t66 28t66 -28t26 -65z" />
    <glyph glyph-name="afii62824" unicode="&#x646;" horiz-adv-x="527" arabic-form="medial" 
d="M529 83h-48q-83 0 -133 26t-82 80q-14 -48 -66 -77t-128 -29h-72v129h72q64 0 92 35t27 116v422l129 130v-521q0 -74 48 -128t113 -54h48v-129zM362 1135q0 -37 -28 -65t-66 -28t-66 27t-27 65q0 38 27 66q28 28 66 28t66 -28t28 -65z" />
    <glyph glyph-name="afii62828" unicode="&#x647;" horiz-adv-x="1507" arabic-form="final" 
d="M1047 354v40q1 98 -37 184t-148 146t-300 61h-336v-93q0 -203 147 -335q153 -145 409 -145h78q68 0 128 44t59 98zM1456 83q-217 0 -308 172q-25 -66 -108 -117q-94 -55 -202 -55h-34q-314 0 -496 147q-210 169 -210 506v179h486q374 0 514 -216q49 -73 79 -195t100 -206
q70 -86 179 -86h51v-129h-51z" />
    <glyph glyph-name="afii62829" unicode="&#x648;" horiz-adv-x="1041" arabic-form="final" 
d="M459 212h232v289q-1 114 -65 199t-167 85t-168 -82q-65 -81 -65 -203t64 -205t169 -83zM1040 212v-129h-220q0 -253 -40 -399t-107 -235q-15 -18 -115 -119h-16q4 0 44 80q106 214 105 430v243h-232q-170 0 -267 123q-94 112 -94 290t101 299q101 120 261 120t260 -117
t100 -297v-289h220z" />
    <glyph glyph-name="afii62830" unicode="&#x649;" horiz-adv-x="1300" arabic-form="final" 
d="M1299 83h-381q-52 0 -92 -32l394 -123q29 -7 29 -45q0 -37 -19 -66q-78 -125 -212 -198t-328 -73q-276 0 -434 167t-158 421t182 416q162 142 366 142h74l-16 -32q-204 0 -352 -142t-147 -350q0 -208 142 -350t343 -142q256 0 390 159l-404 127q-31 11 -31 50q0 16 21 45
q137 155 252 155h381v-129z" />
    <glyph glyph-name="afii62833" unicode="&#x64a;" horiz-adv-x="1300" arabic-form="final" 
d="M728 -670q0 -38 -26 -64q-26 -27 -66 -27q-40 -1 -66 25t-26 65t26 67t66 28t66 -28t26 -66zM957 -670q0 -38 -27 -64q-28 -27 -66 -27q-38 -1 -66 25t-27 65q-1 39 27 67t66 28t66 -28q27 -28 27 -66zM1299 83h-381q-52 0 -92 -32l394 -123q29 -7 29 -45q0 -37 -19 -66
q-78 -125 -212 -198t-328 -73q-276 0 -434 167t-158 421t182 416q162 142 366 142h74l-16 -32q-204 0 -352 -142t-147 -350q0 -208 142 -350t343 -142q256 0 390 159l-404 127q-31 11 -31 50q0 16 21 45q137 155 252 155h381v-129z" />
    <glyph glyph-name=".notdef" horiz-adv-x="1620" 
d="M318 150h984v1247h-984v-1247zM284 118v1313h1051v-1313h-1051z" />
    <glyph glyph-name=".null" horiz-adv-x="0" 
 />
    <glyph glyph-name="nonmarkingreturn" horiz-adv-x="512" 
 />
    <glyph glyph-name="space" unicode=" " horiz-adv-x="512" 
 />
    <glyph glyph-name="space" unicode="&#xa0;" horiz-adv-x="512" 
 />
    <glyph glyph-name="exclam" unicode="!" horiz-adv-x="606" 
d="M302 305q52 -1 88 -37t37 -88q-1 -52 -37 -88t-88 -36t-87 36q-36 36 -36 88t36 88q35 36 87 37zM375 1604v-1150h-147v1150h147z" />
    <glyph glyph-name="quotedbl" unicode="&#x22;" horiz-adv-x="637" 
d="M175 1137h-105l-22 467h149zM566 1137h-104l-22 467h149z" />
    <glyph glyph-name="numbersign" unicode="#" horiz-adv-x="1484" 
d="M946 1026h-337l-49 -336h334zM1241 690v-109h-249l-74 -498h-112l73 498h-336l-77 -498h-110l76 498h-248v109h265l52 336h-256v111h271l71 471h108l-68 -471h335l68 471h113l-70 -471h226v-111h-243l-48 -336h233z" />
    <glyph glyph-name="dollar" unicode="$" horiz-adv-x="1143" 
d="M935 438q0 88 -56 161t-212 157v-566q121 17 195 89q74 71 73 159zM313 1206q0 -139 222 -238v458q-141 -11 -195 -108q-26 -48 -27 -112zM535 1670h132v-110q99 -18 169 -64t134 -137l-108 -88q-78 120 -195 145v-504q264 -139 328 -225q83 -111 83 -233t-61 -214
t-147 -136q-86 -42 -203 -57v-315h-132v315q-125 9 -199 39t-146 88t-118 137l108 82q140 -186 355 -207v624q-158 77 -201 106q-168 115 -168 295q0 91 46 169q96 164 323 186v104z" />
    <glyph glyph-name="percent" unicode="%" horiz-adv-x="1599" 
d="M1204 610q-92 0 -156 -65q-65 -65 -65 -157t65 -156q64 -64 156 -64t157 64t65 156t-65 157t-157 65zM1204 737q144 0 246 -102q102 -103 103 -247q-1 -144 -103 -246t-246 -102t-246 102t-102 246t102 247q102 102 246 102zM394 1475q-92 -1 -156 -65t-64 -156t64 -157
t156 -65t157 65t65 157t-65 156t-157 65zM743 1259q0 -139 -96 -247t-249 -108q-152 0 -252 102t-100 246q0 96 46 175t128 128q84 49 172 49q38 0 146 -24t241 -23t233 15t260 59h119l-1080 -1651h-133l983 1505q-174 -43 -425 -43l-55 1q62 -87 62 -184z" />
    <glyph glyph-name="ampersand" unicode="&#x26;" horiz-adv-x="1560" 
d="M327 393q0 -78 72 -143t163 -65t188 42t259 157l-241 249q-61 63 -135 149q-189 -142 -247 -226t-59 -163zM851 1248q0 48 -50 86t-130 37t-130 -39t-50 -84t20 -82q50 -86 140 -188q108 84 154 153t46 117zM558 46q-171 0 -275 98t-104 245q0 112 70 223t286 281
q-122 148 -157 218t-35 134q1 111 93 189t239 78q93 0 169 -37t117 -100q40 -63 40 -135t-52 -157q-52 -84 -206 -215l224 -236l154 -155q112 93 180 155l101 -107q-97 -85 -174 -149q50 -54 137 -141t142 -152h-206l-191 199q-191 -144 -307 -190t-245 -46z" />
    <glyph glyph-name="quotesingle" unicode="'" horiz-adv-x="406" 
d="M255 1137h-104l-22 467h149z" />
    <glyph glyph-name="parenleft" unicode="(" horiz-adv-x="759" 
d="M267 582q0 586 205 1049h163q-99 -203 -159 -473t-59 -546q0 -555 168 -958h-155q-74 180 -118 423t-45 505z" />
    <glyph glyph-name="parenright" unicode=")" horiz-adv-x="759" 
d="M492 702q0 -579 -205 -1048h-163q100 202 158 472t59 547q0 560 -168 958h156q75 -179 119 -423t44 -506z" />
    <glyph glyph-name="asterisk" unicode="*" horiz-adv-x="876" 
d="M371 1604h131l-29 -300l249 177l66 -113l-280 -126l280 -123l-66 -114l-249 175l29 -300h-131l31 300l-248 -175l-66 114l283 123l-283 126l66 113l248 -177z" />
    <glyph glyph-name="plus" unicode="+" horiz-adv-x="1249" 
d="M555 893v438h138v-438h442v-138h-442v-437h-138v437h-440v138h440z" />
    <glyph glyph-name="comma" unicode="," horiz-adv-x="570" 
d="M296 356l137 -65l-205 -380l-100 42z" />
    <glyph glyph-name="hyphen" unicode="-" horiz-adv-x="987" 
d="M199 218h554v-124h-554v124z" />
    <glyph glyph-name="hyphen" unicode="&#xad;" horiz-adv-x="987" 
d="M199 218h554v-124h-554v124z" />
    <glyph glyph-name="period" unicode="." horiz-adv-x="569" 
d="M310 305q52 -1 88 -37t37 -88q-1 -52 -37 -88t-88 -36t-87 36q-36 36 -36 88t36 88q35 36 87 37z" />
    <glyph glyph-name="slash" unicode="/" horiz-adv-x="901" 
d="M842 1604l-615 -1722h-155l614 1722h156z" />
    <glyph glyph-name="zero" unicode="0" horiz-adv-x="1143" 
d="M205 822q0 -252 45 -380t133 -195q87 -67 185 -67t184 65t136 209t49 367q0 223 -49 366t-136 209t-185 66t-185 -66t-132 -194t-45 -380zM65 826q0 292 63 452t178 243t258 83t260 -84q253 -181 253 -695q0 -515 -252 -695q-118 -84 -261 -84t-257 82t-178 243
q-64 163 -64 455z" />
    <glyph glyph-name="one" unicode="1" horiz-adv-x="1138" 
d="M671 1566v-1483h-147v1338h-233l89 145h291z" />
    <glyph glyph-name="two" unicode="2" horiz-adv-x="1143" 
d="M590 1604q206 0 331 -132q126 -132 126 -312q0 -126 -60 -236t-235 -300l-368 -398h684v-143h-1007l566 612q173 185 225 274t51 201q0 112 -93 202q-94 90 -232 90t-232 -95t-107 -266h-143q6 221 147 362t347 141z" />
    <glyph glyph-name="three" unicode="3" horiz-adv-x="1142" 
d="M556 1604q116 0 216 -53t156 -143t55 -187q0 -192 -191 -304q107 -43 175 -127q97 -118 97 -254t-66 -250t-182 -178q-115 -62 -257 -62q-191 0 -319 110t-168 324h145q39 -144 121 -217t232 -73q152 0 250 96t98 228q0 86 -49 162t-131 114t-254 47v137q102 0 185 35
q159 67 159 212q0 97 -78 168t-184 71t-176 -54t-118 -184h-151q43 184 159 283t276 99z" />
    <glyph glyph-name="four" unicode="4" horiz-adv-x="1143" 
d="M761 570v618l-437 -618h437zM909 1604v-1034h180v-142h-180v-345h-148v345h-709l827 1176h30z" />
    <glyph glyph-name="five" unicode="5" horiz-adv-x="1143" 
d="M1014 1566v-141h-528l-73 -405q96 29 174 29q203 1 335 -135t131 -348q1 -146 -67 -268t-184 -187t-281 -65q-166 0 -290 110t-148 286h152q31 -160 167 -225q68 -33 143 -33q147 0 251 111t104 269t-94 252t-240 94q-145 0 -331 -80l137 736h642z" />
    <glyph glyph-name="six" unicode="6" horiz-adv-x="1142" 
d="M593 814q-129 0 -220 -91t-91 -221t91 -221t220 -91t221 91t91 221q1 130 -91 221t-221 91zM629 944q176 0 299 -128t123 -314q1 -126 -59 -230t-169 -165t-233 -61t-228 59t-164 165t-60 214q0 107 36 207t132 241l450 672l122 -81l-400 -606q80 27 151 27z" />
    <glyph glyph-name="seven" unicode="7" horiz-adv-x="1142" 
d="M147 1566h941l-793 -1520l-123 62l685 1318h-710v140z" />
    <glyph glyph-name="eight" unicode="8" horiz-adv-x="1143" 
d="M574 822q-148 0 -252 -100t-104 -231q0 -81 44 -154q92 -151 309 -151q163 0 259 96t95 221q1 127 -101 223t-250 96zM580 1460q-130 0 -210 -72t-80 -172t86 -180t201 -80q73 0 139 36t102 100t37 140q-1 76 -73 152t-202 76zM1005 1212q0 -200 -212 -315
q150 -75 215 -171t65 -217q0 -171 -112 -302q-137 -161 -387 -161t-378 140q-127 140 -127 310q1 125 67 224t221 177q-109 55 -163 139t-54 180t58 190q58 92 160 145t220 53t216 -54t154 -145q56 -92 57 -193z" />
    <glyph glyph-name="nine" unicode="9" horiz-adv-x="1142" 
d="M558 836q130 0 220 91q91 91 91 220t-91 220q-90 91 -220 91t-222 -91t-91 -220q-1 -129 91 -220t222 -91zM522 705q-176 -1 -299 127t-123 314q0 130 60 232t168 164q110 62 234 62t228 -60t164 -166q60 -108 59 -214t-37 -206t-131 -241l-450 -671l-122 78l401 607
q-81 -26 -152 -26z" />
    <glyph glyph-name="colon" unicode=":" horiz-adv-x="569" 
d="M310 305q52 -1 88 -37t37 -88q-1 -52 -37 -88t-88 -36t-87 36q-36 36 -36 88t36 88q35 36 87 37zM310 1208q52 0 88 -36t37 -88q-1 -52 -37 -90q-36 -36 -88 -36t-87 36q-36 36 -36 88t36 89q35 37 87 37z" />
    <glyph glyph-name="semicolon" unicode=";" horiz-adv-x="569" 
d="M296 356l137 -65l-205 -380l-100 42zM312 1208q52 0 87 -36q36 -36 36 -88t-36 -90q-35 -36 -87 -36t-88 36t-36 88t36 89t88 37z" />
    <glyph glyph-name="semicolon" unicode="&#x37e;" horiz-adv-x="569" 
d="M296 356l137 -65l-205 -380l-100 42zM312 1208q52 0 87 -36q36 -36 36 -88t-36 -90q-35 -36 -87 -36t-88 36t-36 88t36 89t88 37z" />
    <glyph glyph-name="less" unicode="&#x3c;" horiz-adv-x="1249" 
d="M1146 434v-148l-1042 473v131l1042 475v-149l-846 -392z" />
    <glyph glyph-name="equal" unicode="=" horiz-adv-x="1249" 
d="M1135 672v-138h-1020v138h1020zM1135 1115v-138h-1020v138h1020z" />
    <glyph glyph-name="greater" unicode="&#x3e;" horiz-adv-x="1249" 
d="M104 434l846 390l-846 392v149l1042 -475v-131l-1042 -473v148z" />
    <glyph glyph-name="question" unicode="?" horiz-adv-x="1216" 
d="M610 305q52 -1 88 -37t36 -88t-36 -88t-88 -36t-87 36q-36 36 -36 88t36 88q35 36 87 37zM610 1604q200 0 312 -100t113 -246q-1 -145 -125 -241q-62 -47 -238 -117t-218 -109t-42 -96t57 -103t152 -47q191 0 214 214h147q-7 -167 -104 -261t-261 -94q-165 0 -261 84
t-96 212q0 127 102 202q50 36 226 108t237 116q60 44 60 130q1 86 -73 146t-212 60t-221 -100q-59 -69 -63 -199h-146q2 203 122 322q118 119 318 119z" />
    <glyph glyph-name="at" unicode="@" horiz-adv-x="1788" 
d="M844 515q150 0 222 180q39 97 39 203t-57 170t-147 64q-121 0 -209 -100t-88 -236t67 -208t173 -73zM1132 390q-118 0 -120 112q-34 -43 -94 -72t-125 -29q-145 1 -239 101t-95 272q1 172 115 318q114 148 315 148q89 0 149 -34t114 -116l27 139h108l-117 -659
q-5 -32 -5 -48t14 -30t37 -13q59 0 154 69q95 70 148 178t53 240q0 256 -192 418t-457 163q-198 -1 -359 -91t-254 -254t-93 -355t94 -354t259 -256q167 -93 339 -93t291 53t256 190h106q-135 -168 -249 -237q-163 -94 -378 -94q-216 0 -402 104t-290 285t-105 396t105 401
t288 290t397 104q303 0 513 -195t210 -454q0 -189 -87 -325t-237 -213q-114 -59 -194 -59z" />
    <glyph glyph-name="A" unicode="A" horiz-adv-x="1527" 
d="M768 1252l-256 -538h508zM786 1566l691 -1483h-158l-233 489h-640l-231 -489h-166l701 1483h36z" />
    <glyph glyph-name="B" unicode="B" horiz-adv-x="1183" 
d="M328 797v-569h184q162 0 238 32t121 99q46 67 46 156q-1 89 -65 163t-158 96t-282 23h-84zM328 1421v-475h85q155 0 227 29t114 91t43 150q0 89 -71 147t-226 58h-172zM183 1566h293q176 0 271 -42t149 -129t55 -189q0 -212 -191 -314q117 -40 179 -92q132 -112 132 -291
t-131 -303t-350 -123h-407v1483z" />
    <glyph glyph-name="C" unicode="C" horiz-adv-x="1677" 
d="M914 1457q-178 0 -329 -85q-151 -84 -235 -228t-83 -324q0 -270 186 -452q185 -182 483 -182t507 244l118 -89q-111 -141 -277 -218t-370 -77q-390 0 -615 259q-188 219 -188 536q1 317 229 540t571 223q207 0 375 -82t275 -232l-118 -88q-194 255 -529 255z" />
    <glyph glyph-name="D" unicode="D" horiz-adv-x="1534" 
d="M321 224h171q307 0 427 38q167 54 263 196t96 351q0 210 -104 362t-289 208q-140 43 -459 43h-105v-1198zM179 83v1483h307q333 0 484 -54q214 -76 336 -262t122 -426t-96 -410t-250 -250t-431 -81h-472z" />
    <glyph glyph-name="E" unicode="E" horiz-adv-x="1105" 
d="M180 1566h850v-146h-702v-464h696v-144h-696v-582h696v-147h-844v1483z" />
    <glyph glyph-name="F" unicode="F" horiz-adv-x="999" 
d="M179 1566h743v-146h-595v-464h595v-146h-595v-727h-148v1483z" />
    <glyph glyph-name="G" unicode="G" horiz-adv-x="1798" 
d="M918 1456q-158 0 -314 -86q-158 -86 -245 -232t-87 -312t90 -316t248 -236t367 -86t367 129t188 334h-473v143h638q-1 -344 -203 -546t-542 -202q-410 0 -650 280q-185 216 -185 499q-1 211 105 392t291 284t395 103t377 -68q166 -68 325 -219l-115 -109
q-253 248 -577 248z" />
    <glyph glyph-name="H" unicode="H" horiz-adv-x="1407" 
d="M177 1566h149v-622h755v622h148v-1483h-148v715h-755v-715h-149v1483z" />
    <glyph glyph-name="I" unicode="I" horiz-adv-x="465" 
d="M158 1566h148v-1483h-148v1483z" />
    <glyph glyph-name="J" unicode="J" horiz-adv-x="993" 
d="M664 570v996h149v-1000q1 -232 -35 -322t-120 -144t-188 -54t-190 35q-88 35 -194 122l79 118q192 -137 291 -137q64 0 116 38t72 102t20 246z" />
    <glyph glyph-name="K" unicode="K" horiz-adv-x="1218" 
d="M179 1566h151v-556l592 556h200l-713 -666l768 -817h-195l-652 691v-691h-151v1483z" />
    <glyph glyph-name="L" unicode="L" horiz-adv-x="952" 
d="M179 1566h149v-1340h570v-143h-719v1483z" />
    <glyph glyph-name="M" unicode="M" horiz-adv-x="1895" 
d="M112 83l211 1483h24l603 -1216l596 1216h24l214 -1483h-147l-145 1061l-524 -1061h-38l-531 1068l-144 -1068h-143z" />
    <glyph glyph-name="N" unicode="N" horiz-adv-x="1524" 
d="M180 83v1483h32l986 -1135v1135h146v-1483h-34l-976 1121v-1121h-154z" />
    <glyph glyph-name="O" unicode="O" horiz-adv-x="1792" 
d="M895 1458q-165 0 -313 -86t-230 -230q-82 -146 -82 -324q0 -264 182 -446t441 -182q172 0 319 84t229 228t82 322q0 177 -82 320q-82 142 -231 228t-315 86zM887 1604q337 0 563 -225t226 -552t-226 -554t-554 -227t-554 226q-227 226 -227 546q0 213 103 396
q103 182 282 286t387 104z" />
    <glyph glyph-name="P" unicode="P" horiz-adv-x="1219" 
d="M326 1422v-504l252 -3q152 -1 222 27t110 90t41 138q-1 76 -41 138t-106 88t-216 26h-262zM178 1566h295q255 0 343 -22q128 -32 208 -129t80 -245t-78 -244t-198 -124t-396 -29h-106v-690h-148v1483z" />
    <glyph glyph-name="Q" unicode="Q" horiz-adv-x="1796" 
d="M1525 825q0 176 -82 319q-82 142 -231 228t-315 86q-165 0 -313 -85t-230 -231t-82 -324q0 -264 182 -446t441 -182q176 0 321 85l-330 420h180l265 -335q194 189 194 465zM1678 819q0 -333 -254 -575l219 -277h-182l-151 191q-181 -112 -409 -112q-330 0 -557 226
t-227 546q0 213 104 396q105 182 283 286t392 104q330 0 556 -226t226 -559z" />
    <glyph glyph-name="R" unicode="R" horiz-adv-x="1251" 
d="M335 1421v-504l255 -2q148 0 220 28t110 90q40 61 40 137t-40 137t-106 87q-65 26 -218 27h-261zM187 1566h295q247 0 335 -20q132 -30 215 -130t83 -232q0 -134 -57 -225q-58 -91 -164 -139t-292 -47l533 -690h-182l-533 690h-85v-690h-148v1483z" />
    <glyph glyph-name="S" unicode="S" horiz-adv-x="1027" 
d="M460 190q75 0 141 35t100 93t34 128t-60 156q-59 86 -245 224q-186 140 -230 203q-79 104 -79 214t46 189q47 80 131 126t186 46t192 -52q91 -52 193 -192l-121 -91q-83 109 -142 145q-58 36 -138 36t-137 -54t-57 -118t20 -110t62 -86t218 -172q178 -131 250 -242
t71 -222q-1 -162 -123 -281t-297 -119q-136 0 -246 72t-202 241l126 76q133 -245 307 -245z" />
    <glyph glyph-name="T" unicode="T" horiz-adv-x="879" 
d="M33 1422v144h814v-144h-332v-1339h-151v1339h-331z" />
    <glyph glyph-name="U" unicode="U" horiz-adv-x="1349" 
d="M184 1566h148v-895q0 -159 7 -199q11 -88 51 -146t124 -98t162 -40q79 0 147 31q137 63 179 221q16 56 16 231v895h148v-895q0 -199 -39 -321t-155 -214q-116 -90 -290 -90q-172 0 -300 86t-170 226q-28 88 -28 313v895z" />
    <glyph glyph-name="V" unicode="V" horiz-adv-x="1448" 
d="M67 1566h161l491 -1146l500 1146h162l-646 -1483h-32z" />
    <glyph glyph-name="W" unicode="W" horiz-adv-x="1980" 
d="M96 1566h152l302 -1069l424 1069h32l420 -1069l307 1069h151l-425 -1483h-29l-439 1122l-449 -1122h-27z" />
    <glyph glyph-name="X" unicode="X" horiz-adv-x="1255" 
d="M101 1566h173l355 -578l358 578h172l-442 -718l470 -765h-172l-386 622l-387 -622h-173l473 765z" />
    <glyph glyph-name="Y" unicode="Y" horiz-adv-x="1220" 
d="M688 83h-146v709l-479 774h172l379 -610l372 610h171l-469 -774v-709z" />
    <glyph glyph-name="Z" unicode="Z" horiz-adv-x="990" 
d="M122 1422v144h782l-619 -1339h588v-144h-817l624 1339h-558z" />
    <glyph glyph-name="bracketleft" unicode="[" horiz-adv-x="721" 
d="M290 1604h338v-144h-196v-1639h196v-138h-338v1921z" />
    <glyph glyph-name="backslash" unicode="\" horiz-adv-x="1248" 
d="M221 1604l960 -1722h-154l-961 1722h155z" />
    <glyph glyph-name="bracketright" unicode="]" horiz-adv-x="721" 
d="M431 -317h-338v143h197v1640h-197v138h338v-1921z" />
    <glyph glyph-name="asciicircum" unicode="^" horiz-adv-x="1385" 
d="M634 1566h118l514 -1114h-134l-442 958l-440 -958h-130z" />
    <glyph glyph-name="underscore" unicode="_" horiz-adv-x="1055" 
d="M1 212h1056v-129h-1056v129z" />
    <glyph glyph-name="grave" unicode="`" horiz-adv-x="777" 
d="M328 1694l220 -310h-139l-298 310h217z" />
    <glyph glyph-name="a" unicode="a" horiz-adv-x="1407" 
d="M684 1072q-117 0 -217 -58t-159 -162t-59 -222q0 -116 60 -222t160 -165t215 -59t219 58t160 158t56 226q1 190 -125 318t-310 128zM673 1208q272 0 437 -230v202h139v-1097h-139v189q-178 -216 -426 -216t-412 168q-165 168 -165 408t166 408t400 168z" />
    <glyph glyph-name="b" unicode="b" horiz-adv-x="1405" 
d="M729 191q119 1 219 59t158 162q59 104 59 221q1 117 -59 223t-160 166q-100 58 -216 58q-115 0 -219 -58t-160 -160q-56 -100 -56 -224q0 -191 126 -319t308 -128zM741 56q-271 0 -436 229v-202h-140v1521h140v-612q176 216 440 216q232 0 397 -169t165 -408t-166 -407
t-400 -168z" />
    <glyph glyph-name="c" unicode="c" horiz-adv-x="1334" 
d="M713 1076q-201 0 -333 -129t-133 -314q0 -121 61 -227t167 -164t238 -58q243 0 396 192l112 -73q-79 -119 -211 -183t-303 -64q-259 0 -431 165t-171 401q1 160 81 296t220 214q140 76 313 76q107 0 209 -33q199 -65 293 -223l-112 -70q-145 194 -396 194z" />
    <glyph glyph-name="d" unicode="d" horiz-adv-x="1411" 
d="M686 1072q-117 0 -217 -58t-159 -162t-59 -222q0 -116 60 -222t160 -165t215 -59t219 58t160 158t56 226q1 190 -125 318t-310 128zM675 1208q272 0 437 -230v626h139v-1521h-139v189q-178 -216 -426 -216t-412 168q-165 168 -165 408t166 408t400 168z" />
    <glyph glyph-name="e" unicode="e" horiz-adv-x="1340" 
d="M668 1073q-161 0 -277 -104q-84 -76 -127 -227h816q-28 112 -82 180t-143 110t-187 41zM104 622q0 215 128 378q162 208 438 208t444 -213q119 -150 120 -374h-985q4 -193 122 -315t291 -122q84 0 163 30t135 77q56 48 120 156l118 -63q-163 -328 -524 -328
q-268 0 -419 176t-151 390z" />
    <glyph glyph-name="f" unicode="f" horiz-adv-x="647" 
d="M482 1498q-48 0 -76 -16t-34 -38t-6 -116v-148h228v-121h-229v-976h-142v976h-144v121h144v172q-1 118 21 168t74 80t124 31q70 0 166 -27v-138q-78 32 -126 32z" />
    <glyph glyph-name="g" unicode="g" horiz-adv-x="1387" 
d="M682 1072q-118 0 -220 -58t-162 -160q-58 -102 -58 -221q0 -181 121 -299t315 -118t312 117t118 308q0 124 -54 221q-54 98 -154 154t-218 56zM1101 292q-163 -209 -449 -209q-140 0 -274 75q-134 74 -206 202t-72 280t76 284t209 208t269 76t242 -50t205 -169v191h143
v-874q0 -231 -41 -338q-55 -150 -193 -232t-304 -82q-167 0 -279 40t-183 107t-130 196h153q123 -213 405 -213q146 0 246 54t141 135q42 81 42 263v56z" />
    <glyph glyph-name="h" unicode="h" horiz-adv-x="1256" 
d="M708 1208q124 0 219 -62t140 -168q45 -105 45 -331v-564h-140v523q0 190 -16 254q-52 218 -276 218q-128 0 -230 -84t-133 -210q-19 -80 -19 -299v-402h-142v1521h142v-621q169 225 410 225z" />
    <glyph glyph-name="i" unicode="i" horiz-adv-x="412" 
d="M136 1180h141v-1097h-141v1097zM206 1631q48 0 82 -34t35 -82q-1 -49 -35 -83t-82 -34t-82 34t-34 83q0 48 34 82t82 34z" />
    <glyph glyph-name="j" unicode="j" horiz-adv-x="419" 
d="M141 1180h143v-1262q0 -138 -50 -201t-129 -63t-169 35v127q58 -30 109 -30t78 48q18 30 18 126v1220zM210 1631q48 0 82 -34t34 -82q0 -49 -34 -83t-82 -34t-82 34t-34 83q0 48 34 82t82 34z" />
    <glyph glyph-name="k" unicode="k" horiz-adv-x="1035" 
d="M155 1604h142v-866l507 442h208l-601 -523l636 -574h-200l-550 493v-493h-142v1521z" />
    <glyph glyph-name="l" unicode="l" horiz-adv-x="412" 
d="M135 1604h142v-1521h-142v1521z" />
    <glyph glyph-name="m" unicode="m" horiz-adv-x="1934" 
d="M155 1180h140v-190q74 105 152 154q107 64 205 64t170 -32t117 -82q45 -52 79 -149q70 129 176 196t224 67t205 -57t129 -161t43 -308v-599h-144v599q0 176 -25 242t-86 106t-155 41q-94 -1 -179 -61q-84 -60 -124 -161t-40 -336v-430h-141v562q-1 197 -25 269t-85 114
t-153 43q-92 0 -176 -59q-85 -58 -126 -158t-41 -306v-465h-140v1097z" />
    <glyph glyph-name="n" unicode="n" horiz-adv-x="1256" 
d="M708 1208q124 0 219 -62t140 -168t45 -331v-564h-140v523q0 190 -16 254q-50 218 -276 218q-128 0 -230 -84t-133 -210q-19 -82 -19 -299v-402h-142v1097h142v-197q167 225 410 225z" />
    <glyph glyph-name="o" unicode="o" horiz-adv-x="1349" 
d="M675 1070q-175 0 -301 -130t-126 -314q0 -118 58 -222t155 -160q98 -56 215 -55q116 -1 214 55t155 160t57 222q0 184 -126 314t-301 130zM675 1208q253 0 412 -176t159 -404t-160 -400t-412 -172t-410 172q-160 172 -160 400t159 404t412 176z" />
    <glyph glyph-name="p" unicode="p" horiz-adv-x="1405" 
d="M722 1072q-182 0 -308 -128t-126 -318q0 -126 56 -226t160 -158t219 -58t215 59t160 165t60 222t-59 222q-59 104 -159 162t-218 58zM738 56q-262 0 -440 216v-589h-140v1497h140v-202q165 230 436 230q234 0 400 -168t166 -408t-165 -408t-397 -168z" />
    <glyph glyph-name="q" unicode="q" horiz-adv-x="1405" 
d="M683 1072q-117 0 -217 -58t-159 -162t-59 -222q0 -116 60 -222t160 -165t215 -59t219 58t160 158t56 226q0 190 -126 318t-309 128zM672 1208q272 0 437 -230v202h139v-1497h-139v589q-177 -216 -425 -216t-413 168t-165 408t166 408t400 168z" />
    <glyph glyph-name="r" unicode="r" horiz-adv-x="620" 
d="M533 1208q58 0 124 -38l-73 -118q-44 19 -74 19q-70 1 -136 -57t-96 -166t-31 -394v-371h-144v1097h144v-161q129 189 286 189z" />
    <glyph glyph-name="s" unicode="s" horiz-adv-x="800" 
d="M397 1076q-69 0 -118 -45t-49 -102t40 -107t184 -122q144 -74 200 -150q55 -77 55 -173q-1 -133 -95 -227t-236 -94q-96 0 -182 40t-142 114l89 101q108 -122 229 -122q84 1 144 55t59 121q0 67 -39 114q-38 47 -182 120t-198 148t-53 185q-1 110 85 194q86 82 226 82
t294 -148l-90 -94q-114 110 -221 110z" />
    <glyph glyph-name="t" unicode="t" horiz-adv-x="698" 
d="M279 1587h143v-407h223v-121h-223v-976h-143v976h-192v121h192v407z" />
    <glyph glyph-name="u" unicode="u" horiz-adv-x="1253" 
d="M138 1180h142v-512q0 -188 25 -274t110 -144t203 -58t201 57q82 57 113 150q22 63 22 269v512h144v-539q0 -227 -54 -341q-114 -243 -427 -244q-314 0 -426 246q-53 116 -53 350v528z" />
    <glyph glyph-name="v" unicode="v" horiz-adv-x="1143" 
d="M53 1180h150l367 -798l364 798h151l-502 -1097h-25z" />
    <glyph glyph-name="w" unicode="w" horiz-adv-x="1715" 
d="M9 1180h145l336 -797l352 797h25l350 -797l342 797h148l-476 -1097h-28l-348 785l-352 -785h-26z" />
    <glyph glyph-name="x" unicode="x" horiz-adv-x="991" 
d="M33 1180h169l290 -407l291 407h169l-376 -521l423 -576h-171l-336 461l-331 -461h-168l415 576z" />
    <glyph glyph-name="y" unicode="y" horiz-adv-x="1106" 
d="M39 1180h149l377 -845l366 845h151l-655 -1497h-149l211 483z" />
    <glyph glyph-name="z" unicode="z" horiz-adv-x="877" 
d="M68 1180h805l-622 -972h602v-125h-844l620 973h-561v124z" />
    <glyph glyph-name="braceleft" unicode="{" horiz-adv-x="723" 
d="M602 1566h56v-158h-31q-105 0 -139 -39t-34 -169q0 -235 -10 -329t-56 -160t-145 -114q111 -47 161 -143t50 -300q0 -206 5 -250t21 -69t48 -37q31 -12 130 -11v-158h-56q-101 0 -158 21q-57 22 -98 78t-51 136t-11 262q-1 184 -21 250q-41 135 -188 139v163
q191 10 204 228q3 70 5 236t22 238q38 136 170 174q39 12 126 12z" />
    <glyph glyph-name="bar" unicode="|" horiz-adv-x="1377" 
d="M616 1604h144v-1921h-144v1921z" />
    <glyph glyph-name="braceright" unicode="}" horiz-adv-x="723" 
d="M121 -371h-56v158h31q106 1 140 39t34 168q0 240 11 334q23 196 199 269q-118 57 -164 149t-46 310t-10 263t-42 67t-122 22h-31v158h56q101 0 158 -22t98 -78t51 -135t12 -263q0 -184 20 -249q40 -135 188 -141v-163q-192 -3 -205 -249q-1 -48 -3 -214t-22 -237
q-40 -137 -171 -175q-39 -11 -126 -11z" />
    <glyph glyph-name="asciitilde" unicode="~" horiz-adv-x="1250" 
d="M882 666q-96 0 -248 69t-189 81t-75 12t-92 -19t-166 -86v161q110 62 160 80t96 17q98 0 244 -69t190 -83t82 -14t82 17t170 95v-163q-114 -64 -162 -81t-92 -17z" />
    <glyph glyph-name="exclamdown" unicode="&#xa1;" horiz-adv-x="606" 
d="M232 -346v1149h145v-1149h-145zM302 1202q52 0 88 -36t37 -88q-1 -52 -37 -90q-36 -36 -88 -36t-87 36q-36 36 -36 88t36 89q35 37 87 37z" />
    <glyph glyph-name="cent" unicode="&#xa2;" horiz-adv-x="1142" 
d="M648 1073q-172 1 -288 -121t-115 -328q0 -206 134 -330l391 758q-65 21 -122 21zM103 608q0 256 152 428t396 172q92 0 183 -33l134 259l121 -61l-133 -259q73 -46 118 -95l-85 -105q-47 44 -96 76l-398 -771q76 -33 146 -33q146 0 308 129l91 -107q-78 -70 -184 -111
t-209 -41q-102 0 -215 37l-154 -297l-117 64l152 302q-210 190 -210 446z" />
    <glyph glyph-name="sterling" unicode="&#xa3;" horiz-adv-x="1143" 
d="M279 333q-40 -1 -62 -23t-22 -54t20 -54t47 -22q76 0 126 112q-69 41 -109 41zM99 934h257q-56 193 -64 240t-8 97q0 137 105 235t258 98q195 0 292 -168q47 -81 58 -219h-137q-5 123 -60 187q-54 64 -152 64t-160 -57t-63 -148q0 -91 36 -184l46 -145h322v-130h-288
q37 -126 37 -250t-22 -206q60 -52 144 -102t135 -50q94 0 106 234h142q1 -118 -33 -213q-62 -171 -199 -171q-67 0 -161 42t-183 119q-84 -161 -239 -161q-97 0 -154 51t-57 143q1 92 67 162q66 68 146 68t155 -40q8 67 8 107q0 141 -45 267h-289v130z" />
    <glyph glyph-name="currency" unicode="&#xa4;" horiz-adv-x="985" 
d="M493 950q-146 0 -247 -102t-101 -245t102 -245q103 -102 245 -101t246 103t103 243q1 87 -47 172t-130 130t-171 45zM917 604q0 -145 -99 -270l138 -139l-55 -53l-137 137q-130 -99 -259 -99q-85 0 -165 29t-119 70l-140 -137l-54 53l138 139q-97 112 -97 266t97 276
l-138 135l54 55l140 -137q51 43 127 71t144 28q154 0 272 -99l137 137l55 -55l-138 -135q99 -127 99 -272z" />
    <glyph glyph-name="yen" unicode="&#xa5;" horiz-adv-x="1143" 
d="M1018 825v-118h-376v-156h376v-117h-376v-351h-146v351h-373v117h373v156h-373v118h357l-418 741h168l340 -607l343 607h167l-420 -741h358z" />
    <glyph glyph-name="brokenbar" unicode="&#xa6;" horiz-adv-x="1377" 
d="M616 -317v964l144 54v-1018h-144zM616 1604h144v-774l-144 -56v830z" />
    <glyph glyph-name="section" unicode="&#xa7;" horiz-adv-x="1266" 
d="M278 716q0 -78 61 -148t260 -176q123 15 191 77q68 63 68 133t-47 123t-287 195l-14 9q-112 -17 -172 -76t-60 -137zM586 1490q-102 0 -164 -53t-62 -129q0 -93 104 -181q58 -49 212 -141t212 -145q118 -104 118 -220q0 -115 -78 -201t-210 -111q108 -66 164 -156
t56 -182q0 -133 -104 -225t-268 -92q-166 0 -274 84t-130 206h149q24 -64 67 -99q74 -59 180 -59t168 54q63 54 63 124q-1 72 -51 137t-228 179t-216 140q-164 127 -164 284q0 62 31 124q65 129 231 178q-100 72 -140 144t-39 162q-1 140 101 230t272 89t268 -89t117 -255
h-149q-10 95 -72 149t-164 54z" />
    <glyph glyph-name="dieresis" unicode="&#xa8;" horiz-adv-x="762" 
d="M586 1613q48 0 83 -34q35 -35 35 -83t-35 -82t-83 -35q-48 1 -82 35t-34 82t34 83q34 34 82 34zM175 1613q49 0 83 -34q34 -35 34 -83t-34 -82t-83 -35q-49 1 -83 35t-34 82t34 83q34 34 83 34z" />
    <glyph glyph-name="copyright" unicode="&#xa9;" horiz-adv-x="1543" 
d="M785 1194q-127 0 -205 -90t-78 -262t74 -260t186 -88q224 0 261 248h137q-20 -166 -126 -264t-257 -97q-191 1 -305 123t-114 344t118 349t294 127t277 -84t113 -226h-137q-44 180 -238 180zM1454 846q0 184 -92 342t-250 250t-341 91q-183 1 -341 -91t-248 -250
q-92 -158 -92 -342t92 -342t250 -249t340 -91t340 91t250 249t92 342zM1564 846q0 -212 -106 -394t-290 -290q-184 -106 -396 -106t-396 106t-290 290q-106 182 -106 394t106 395t290 289t396 106t396 -106t290 -289t106 -395z" />
    <glyph glyph-name="ordfeminine" unicode="&#xaa;" horiz-adv-x="761" 
d="M368 1493q-78 0 -136 -70q-58 -71 -59 -181q0 -110 59 -182t136 -72q76 0 134 69t58 183t-58 183q-56 70 -134 70zM352 1604q120 0 202 -118v100h115v-687h-115v95q-84 -110 -204 -110t-206 102t-87 258q-1 154 87 257t208 103z" />
    <glyph glyph-name="guillemotleft" unicode="&#xab;" horiz-adv-x="876" 
d="M856 1180l-227 -551l227 -546h-150l-223 546l223 551h150zM394 1180l-225 -551l225 -546h-150l-223 546l223 551h150z" />
    <glyph glyph-name="logicalnot" unicode="&#xac;" horiz-adv-x="1249" 
d="M1135 1115v-581h-138l-1 443h-881v138h1020z" />
    <glyph glyph-name="registered" unicode="&#xae;" horiz-adv-x="1543" 
d="M587 1179v-270h223q102 0 138 23q54 34 54 108t-38 106t-144 33h-233zM443 1310h379q134 0 192 -26t96 -88q36 -60 36 -135t-23 -119t-91 -88q62 -30 83 -70t21 -137v-103q0 -73 32 -121l16 -24h-161q-16 56 -22 134l-7 112q-4 61 -20 86t-44 37t-115 11h-228v-380h-144
v911zM1454 847q0 183 -92 343t-249 251q-157 92 -339 92t-342 -92q-160 -91 -250 -251q-92 -160 -92 -343t92 -341t251 -250q161 -92 341 -92t338 92t250 250t92 341zM1564 846q0 -212 -106 -394q-106 -184 -290 -290t-396 -106q-210 0 -395 106t-291 290t-106 394t106 396
t290 292t396 106t395 -106t290 -291t107 -397z" />
    <glyph glyph-name="overscore" unicode="&#xaf;" horiz-adv-x="1032" 
d="M-12 1824h1056v-104h-1056v104z" />
    <glyph glyph-name="degree" unicode="&#xb0;" horiz-adv-x="825" 
d="M641 1257q0 101 -66 171t-160 69t-162 -71t-68 -169q1 -99 69 -169t161 -71t159 69t67 171zM761 1256q0 -146 -102 -246t-247 -100t-246 101t-101 246t103 246q102 101 246 101t246 -101t101 -247z" />
    <glyph glyph-name="plusminus" unicode="&#xb1;" horiz-adv-x="1132" 
d="M1076 245v-138h-1020v138h1020zM496 1004v438h138v-438h442v-138h-442v-438h-138v438h-440v138h440z" />
    <glyph glyph-name="twosuperior" unicode="&#xb2;" horiz-adv-x="685" 
d="M350 1604q130 0 208 -69t78 -165q0 -62 -33 -118t-145 -157l-190 -173h379v-100h-641l361 328q107 96 133 137t26 88t-50 88t-131 41t-131 -46t-58 -130h-107q3 120 87 198t214 78z" />
    <glyph glyph-name="threesuperior" unicode="&#xb3;" horiz-adv-x="709" 
d="M73 1386q53 218 279 218q110 0 184 -62t73 -146q0 -85 -91 -144q67 -32 103 -85t36 -111q0 -102 -85 -177q-86 -75 -218 -75q-264 0 -310 243h110q39 -143 194 -143q90 0 144 44t54 102q0 137 -256 146v94q104 0 154 33t50 75t-41 74t-103 32t-98 -26q-38 -26 -66 -92
h-113z" />
    <glyph glyph-name="acute" unicode="&#xb4;" horiz-adv-x="771" 
d="M454 1694h217l-298 -310h-139z" />
    <glyph glyph-name="mu1" unicode="&#xb5;" horiz-adv-x="1187" 
d="M289 -317h-142v1497h142v-605q0 -137 34 -205q33 -68 109 -112q76 -46 164 -46t158 44t108 120q38 77 37 212v592h141v-1097h-141v119q-117 -144 -306 -144t-304 142v-517z" />
    <glyph glyph-name="paragraph" unicode="&#xb6;" horiz-adv-x="1162" 
d="M486 -149v944q-74 1 -132 13t-122 63t-101 136t-37 190q0 191 116 311q99 100 303 100h517v-75h-85v-1682h-120v1682h-219v-1682h-120z" />
    <glyph glyph-name="periodcentered" unicode="&#xb7;" horiz-adv-x="569" 
d="M284 950q52 0 88 -37t37 -89q-1 -52 -37 -88q-36 -37 -88 -37t-87 37q-36 36 -36 88t36 89q35 37 87 37z" />
    <glyph glyph-name="periodcentered" unicode="&#x2219;" horiz-adv-x="569" 
d="M284 950q52 0 88 -37t37 -89q-1 -52 -37 -88q-36 -37 -88 -37t-87 37q-36 36 -36 88t36 89q35 37 87 37z" />
    <glyph glyph-name="cedilla" unicode="&#xb8;" horiz-adv-x="668" 
d="M282 -220q137 0 137 66q0 17 -17 30t-44 13t-73 -9l27 203h89l-17 -118q23 2 55 2q32 -1 66 -31t34 -86t-61 -103q-60 -46 -160 -46t-179 30l22 69q64 -20 121 -20z" />
    <glyph glyph-name="onesuperior" unicode="&#xb9;" horiz-adv-x="682" 
d="M413 1584v-762h-111v663h-151l73 99h189z" />
    <glyph glyph-name="ordmasculine" unicode="&#xba;" horiz-adv-x="761" 
d="M380 1492q-82 0 -145 -72q-62 -72 -62 -180t61 -178t146 -70q84 0 146 70t62 178t-63 180t-145 72zM380 1604q133 0 229 -104t96 -258t-95 -256q-96 -102 -230 -102t-230 102t-95 257q0 153 96 257t229 104z" />
    <glyph glyph-name="guillemotright" unicode="&#xbb;" horiz-adv-x="876" 
d="M21 83l224 550l-224 547h149l224 -547l-224 -550h-149zM483 83l224 550l-224 547h148l225 -547l-225 -550h-148z" />
    <glyph glyph-name="onequarter" unicode="&#xbc;" horiz-adv-x="1995" 
d="M1655 201v249l-216 -249h216zM1766 201h106v-97h-106v-172h-111v172h-436l547 630v-533zM506 46l930 1558h113l-932 -1558h-111zM377 1584v-762h-111v663h-151l73 99h189z" />
    <glyph glyph-name="onehalf" unicode="&#xbd;" horiz-adv-x="1981" 
d="M1478 713q130 0 208 -69t79 -165q1 -61 -33 -117t-145 -158l-192 -172h381v-100h-641l360 328q107 96 133 136t26 88t-50 89t-130 41q-82 0 -132 -46t-57 -131h-107q2 120 86 198t214 78zM375 46l930 1558h113l-932 -1558h-111zM366 1584v-762h-111v663h-151l73 99h189z
" />
    <glyph glyph-name="threequarters" unicode="&#xbe;" horiz-adv-x="1999" 
d="M1631 201v249l-216 -249h216zM1743 201h106v-97h-106v-172h-112v172h-435l547 630v-533zM543 46l931 1558h113l-932 -1558h-112zM98 1386q52 218 278 218q110 0 184 -62t74 -146q0 -85 -91 -144q67 -32 103 -85t36 -111q0 -102 -85 -177t-217 -75q-264 0 -311 243h110
q39 -143 194 -143q90 0 144 44t54 102q0 137 -256 146v94q103 0 153 33t51 75q0 42 -41 74q-40 32 -102 32t-100 -26t-65 -92h-113z" />
    <glyph glyph-name="questiondown" unicode="&#xbf;" horiz-adv-x="1216" 
d="M608 -346q-199 0 -312 100t-113 245t124 241q63 48 239 118t219 109q41 41 41 97t-57 102t-153 46t-148 -51q-54 -51 -66 -163h-146q7 168 104 262t261 95q165 -1 261 -85t96 -211t-102 -203q-48 -36 -226 -109q-176 -73 -237 -117t-61 -128q0 -86 74 -146t213 -60
q138 0 222 99q57 70 61 199h146q-2 -202 -122 -321t-318 -119zM607 1202q51 0 87 -36t37 -88q-1 -52 -37 -90q-36 -36 -87 -36t-87 36t-37 88q1 52 37 89t87 37z" />
    <glyph glyph-name="Agrave" unicode="&#xc0;" horiz-adv-x="1537" 
d="M780 1773l219 -286h-139l-297 286h217zM768 1161l-256 -496h508zM786 1451l691 -1368h-158l-233 450h-640l-231 -450h-166l701 1368h36z" />
    <glyph glyph-name="Aacute" unicode="&#xc1;" horiz-adv-x="1753" 
d="M764 1782h217l-297 -284h-139zM768 1155l-256 -492h508zM786 1444l691 -1361h-158l-233 448h-640l-231 -448h-166l701 1361h36z" />
    <glyph glyph-name="Acircumflex" unicode="&#xc2;" horiz-adv-x="1519" 
d="M705 1786h141l293 -259h-183l-176 153l-186 -153h-187zM768 1252l-256 -538h508zM786 1566l691 -1483h-158l-233 489h-640l-231 -489h-166l701 1483h36z" />
    <glyph glyph-name="Atilde" unicode="&#xc3;" horiz-adv-x="1552" 
d="M896 1580q-64 0 -134 34q-72 34 -93 41q-21 6 -53 6q-32 -1 -64 -13t-91 -56l-68 103q93 97 227 97q64 0 152 -40t141 -39q53 0 149 53l71 -98q-73 -52 -123 -70t-114 -18zM768 1252l-256 -538h508zM786 1566l691 -1483h-158l-233 489h-640l-231 -489h-166l701 1483h36z
" />
    <glyph glyph-name="Adieresis" unicode="&#xc4;" horiz-adv-x="1515" 
d="M979 1792q48 0 82 -34t34 -83t-34 -83t-82 -34t-82 34t-34 83t34 83t82 34zM568 1792q49 0 83 -34t34 -83t-34 -83t-83 -34t-83 34t-34 83t34 83t83 34zM768 1252l-256 -538h508zM786 1566l691 -1483h-158l-233 489h-640l-231 -489h-166l701 1483h36z" />
    <glyph glyph-name="Aring" unicode="&#xc5;" horiz-adv-x="1515" 
d="M759 1720q-34 0 -58 -24t-24 -58t21 -56t47 -27l5 11h36l3 -6q15 6 34 25q18 19 18 53t-24 58t-58 24zM759 1796q65 0 113 -47t48 -113t-46 -114q-23 -23 -51 -35l654 -1404h-158l-233 489h-640l-231 -489h-166l661 1399q-36 11 -73 49q-37 39 -37 105t46 113t113 47z
M768 1252l-256 -538h508z" />
    <glyph glyph-name="AE" unicode="&#xc6;" horiz-adv-x="2046" 
d="M1027 708v687l-444 -687h444zM1875 1566v-152h-698v-456h698v-146h-698v-584h698v-145h-848v486h-539l-314 -486h-173l958 1483h916z" />
    <glyph glyph-name="Ccedilla" unicode="&#xc7;" horiz-adv-x="1638" 
d="M914 1457q-178 0 -329 -85q-151 -84 -235 -228t-83 -324q0 -270 186 -452q185 -182 483 -182t507 244l118 -89q-111 -141 -277 -218t-370 -77h-14l-11 -81q23 2 55 2q32 -1 65 -31t33 -86t-60 -103q-60 -46 -160 -46t-178 30l21 69q65 -20 122 -20q135 0 135 66
q0 17 -16 30t-44 13q-26 0 -73 -9l24 171q-319 30 -511 251q-191 222 -191 539q1 317 229 540t571 223q207 0 375 -82t275 -232l-118 -88q-194 255 -529 255z" />
    <glyph glyph-name="Egrave" unicode="&#xc8;" horiz-adv-x="1240" 
d="M582 1782l220 -279h-140l-297 279h217zM180 1424h850v-132h-702v-420h696v-131h-696v-526h696v-132h-844v1341z" />
    <glyph glyph-name="Eacute" unicode="&#xc9;" horiz-adv-x="1144" 
d="M644 1792h218l-298 -284h-139zM180 1445h850v-134h-702v-426h696v-133h-696v-534h696v-135h-844v1362z" />
    <glyph glyph-name="Ecircumflex" unicode="&#xca;" horiz-adv-x="1146" 
d="M557 1790h140l292 -242h-181l-178 143l-185 -143h-187zM180 1468h850v-137h-702v-433h696v-136h-696v-542h696v-137h-844v1385z" />
    <glyph glyph-name="Edieresis" unicode="&#xcb;" horiz-adv-x="1240" 
d="M830 1781q48 -1 82 -33t35 -78q-1 -46 -35 -76q-34 -32 -82 -32t-83 32q-34 32 -34 76q0 46 34 78q35 32 83 33zM419 1781q49 -1 83 -33t34 -78t-34 -76q-34 -32 -83 -32t-83 32t-34 76q0 46 34 78t83 33zM180 1479h850v-137h-702v-437h696v-137h-696v-547h696v-138h-844
v1396z" />
    <glyph glyph-name="Igrave" unicode="&#xcc;" horiz-adv-x="437" 
d="M213 1763l220 -272h-139l-298 272h217zM152 1389h149v-1306h-149v1306z" />
    <glyph glyph-name="Iacute" unicode="&#xcd;" horiz-adv-x="536" 
d="M301 1763h217l-298 -265h-139zM158 1349h149v-1266h-149v1266z" />
    <glyph glyph-name="Icircumflex" unicode="&#xce;" horiz-adv-x="525" 
d="M167 1780h140l293 -241h-181l-178 143l-186 -143h-187zM161 1468h147v-1385h-147v1385z" />
    <glyph glyph-name="Idieresis" unicode="&#xcf;" horiz-adv-x="571" 
d="M440 1781q48 1 83 -31t35 -78t-35 -78t-83 -31q-48 -1 -82 31t-34 78t34 78t82 31zM30 1781q48 1 82 -31t34 -78t-34 -78t-82 -31q-48 -1 -83 31t-35 78t35 78t83 31zM160 1470h148v-1387h-148v1387z" />
    <glyph glyph-name="Eth" unicode="&#xd0;" horiz-adv-x="1629" 
d="M357 755v-531h231q308 0 426 38q168 54 264 196t96 351q0 210 -104 362t-289 208q-139 43 -459 43h-165v-529h390v-138h-390zM214 755h-180v138h180v673h370q331 0 482 -54q214 -76 336 -262t122 -426t-96 -410t-250 -250t-430 -81h-534v672z" />
    <glyph glyph-name="Ntilde" unicode="&#xd1;" horiz-adv-x="1434" 
d="M898 1572q-64 0 -136 35t-92 41t-52 6t-64 -12t-92 -58l-67 104q92 97 227 97q64 1 152 -39t140 -40t149 52l71 -97q-73 -53 -123 -71q-49 -18 -113 -18zM180 83v1483h32l986 -1135v1135h146v-1483h-34l-976 1121v-1121h-154z" />
    <glyph glyph-name="Ograve" unicode="&#xd2;" horiz-adv-x="2040" 
d="M834 1773l219 -268h-139l-296 268h216zM895 1263q-165 0 -313 -74q-148 -75 -230 -199t-82 -279q0 -227 182 -384t441 -157q172 0 319 72t229 198q82 124 82 276t-82 276q-82 123 -231 197t-315 74zM887 1388q337 0 563 -194t226 -476t-226 -476q-226 -196 -554 -196
t-554 194q-227 194 -227 471q0 185 103 342t282 246t387 89z" />
    <glyph glyph-name="Oacute" unicode="&#xd3;" horiz-adv-x="1742" 
d="M947 1782h216l-297 -278h-139zM895 1312q-165 0 -313 -77t-230 -207t-82 -290q0 -236 182 -399t441 -163q172 0 319 75t229 205t82 288t-82 286t-231 205t-315 77zM887 1442q337 0 563 -201t226 -495t-226 -496q-226 -204 -554 -204t-554 202q-227 202 -227 490
q0 191 103 355q103 165 282 257t387 92z" />
    <glyph glyph-name="Ocircumflex" unicode="&#xd4;" horiz-adv-x="2040" 
d="M830 1790h139l293 -238h-181l-178 140l-186 -140h-187zM895 1341q-165 -1 -313 -79t-230 -211t-82 -297q0 -242 182 -409t441 -167q172 0 319 77t229 210t82 295t-82 293t-231 209t-315 79zM887 1474q337 0 563 -206t226 -506t-226 -508t-554 -208t-554 207
q-227 207 -227 501q0 198 103 364t282 261t387 95z" />
    <glyph glyph-name="Otilde" unicode="&#xd5;" horiz-adv-x="1782" 
d="M1019 1577q-64 -1 -135 33q-70 34 -92 40t-54 5q-32 0 -63 -12q-32 -12 -92 -54l-66 99q91 92 227 92q64 0 152 -38t140 -38t149 51l70 -93q-72 -50 -122 -68t-114 -17zM895 1391q-165 1 -313 -81t-230 -220t-82 -308q0 -252 182 -426t441 -173q172 -1 319 79t229 219
t82 307t-82 304t-231 218t-315 81zM887 1529q337 0 563 -214q226 -213 226 -525t-226 -528t-554 -216t-554 215q-227 215 -227 521q0 202 103 376t282 272t387 99z" />
    <glyph glyph-name="Odieresis" unicode="&#xd6;" horiz-adv-x="1767" 
d="M1102 1791q49 0 83 -32q34 -31 34 -77t-34 -78t-83 -32t-83 32t-34 78t34 77q34 32 83 32zM690 1791q48 0 83 -32q34 -31 34 -77t-34 -78q-35 -32 -83 -32t-82 32t-35 78q1 46 35 77q34 32 82 32zM895 1368q-165 0 -313 -80t-230 -216t-82 -302q0 -250 182 -420t441 -170
q172 0 319 79t229 215t82 302t-82 298q-82 134 -231 214t-315 80zM887 1504q337 0 563 -210t226 -516t-226 -520q-226 -212 -554 -212t-554 211q-227 211 -227 513q0 199 103 370q103 172 282 268t387 96z" />
    <glyph glyph-name="multiply" unicode="&#xd7;" horiz-adv-x="1248" 
d="M717 824l333 -334l-92 -92l-334 333l-335 -333l-92 92l334 334l-334 334l92 94l335 -335l334 335l92 -94z" />
    <glyph glyph-name="Oslash" unicode="&#xd8;" horiz-adv-x="1790" 
d="M886 190q178 0 325 84t229 228t82 323q0 246 -156 421l-812 -958q154 -98 332 -98zM910 1458q-182 0 -330 -86t-229 -230q-82 -146 -82 -324q0 -258 177 -442l818 962q-172 120 -354 120zM1675 824q0 -324 -226 -551t-551 -227q-248 0 -441 128l-165 -194l-108 88
l166 195q-236 228 -236 555q0 213 104 396q104 182 283 286t394 104q259 0 471 -150l145 176l105 -88l-151 -180q210 -214 210 -538z" />
    <glyph glyph-name="Ugrave" unicode="&#xd9;" horiz-adv-x="1316" 
d="M612 1782l220 -289h-138l-298 289h216zM184 1466h148v-837q0 -149 7 -185q11 -82 51 -137t124 -92t162 -37q79 0 147 29q136 58 179 206q16 53 16 216v837h148v-837q0 -185 -39 -299t-155 -200q-116 -84 -290 -84q-172 0 -300 80t-170 212q-28 80 -28 291v837z" />
    <glyph glyph-name="Uacute" unicode="&#xda;" horiz-adv-x="1364" 
d="M696 1769h218l-298 -309h-139zM184 1566h148v-895q0 -159 7 -199q11 -88 51 -146t124 -98t162 -40q79 0 147 31q137 63 179 221q16 56 16 231v895h148v-895q0 -199 -39 -321t-155 -214q-116 -90 -290 -90q-172 0 -300 86t-170 226q-28 88 -28 313v895z" />
    <glyph glyph-name="Ucircumflex" unicode="&#xdb;" horiz-adv-x="1365" 
d="M609 1780h139l293 -238h-181l-178 141l-186 -141h-187zM184 1442h148v-822q0 -147 7 -183q11 -80 51 -134q40 -55 124 -91t162 -36q79 0 147 28q137 57 179 203q16 52 16 213v822h148v-822q0 -183 -39 -295q-39 -111 -155 -195t-290 -84q-172 0 -300 78t-170 209
q-28 79 -28 287v822z" />
    <glyph glyph-name="Udieresis" unicode="&#xdc;" horiz-adv-x="1315" 
d="M880 1779q48 -1 84 -35q34 -34 34 -82t-34 -83q-34 -34 -84 -34q-48 0 -82 34q-34 35 -34 83t34 82t82 35zM469 1779q49 -1 83 -35t34 -82t-34 -83q-34 -34 -83 -34t-83 34q-34 35 -34 83t34 82t83 35zM184 1443h148v-823q0 -147 7 -183q11 -80 51 -134q40 -55 124 -91
t162 -36q79 0 147 28q137 57 179 203q16 52 16 213v823h148v-823q0 -183 -39 -295q-39 -111 -155 -195t-290 -84q-172 0 -300 78t-170 209q-28 80 -28 287v823z" />
    <glyph glyph-name="Yacute" unicode="&#xdd;" horiz-adv-x="1197" 
d="M661 1773h217l-298 -289h-139zM688 83h-146v661l-479 722h172l379 -569l372 569h171l-469 -722v-661z" />
    <glyph glyph-name="Thorn" unicode="&#xde;" horiz-adv-x="1219" 
d="M326 1076v-504l252 -4q152 0 222 28t110 90t41 138q-1 76 -41 137q-40 63 -106 89t-216 26h-262zM178 1566h148v-346h147q253 0 342 -23q127 -31 208 -129t81 -244q0 -148 -78 -244t-198 -125t-396 -29h-106v-343h-148v1483z" />
    <glyph glyph-name="germandbls" unicode="&#xdf;" horiz-adv-x="1142" 
d="M162 83v1003q0 228 44 325t144 159t237 61q177 1 287 -103t110 -262q0 -98 -50 -176t-141 -125q-49 -25 -138 -37q97 -16 150 -42q109 -58 171 -158t61 -233q1 -195 -117 -317t-303 -122q-124 0 -210 49v133q105 -49 189 -49q130 1 215 87t85 230t-102 241
q-102 96 -296 102v157h32q140 0 224 74t85 178q-1 102 -71 170t-167 68t-169 -47t-100 -117t-28 -259v-990h-142z" />
    <glyph glyph-name="agrave" unicode="&#xe0;" horiz-adv-x="1393" 
d="M643 1694l220 -310h-139l-298 310h217zM684 1072q-117 0 -217 -58t-159 -162t-59 -222q0 -116 60 -222t160 -165t215 -59t219 58t160 158t56 226q1 190 -125 318t-310 128zM673 1208q272 0 437 -230v202h139v-1097h-139v189q-178 -216 -426 -216t-412 168
q-165 168 -165 408t166 408t400 168z" />
    <glyph glyph-name="aacute" unicode="&#xe1;" horiz-adv-x="1393" 
d="M773 1694h217l-297 -310h-140zM684 1072q-117 0 -217 -58t-159 -162t-59 -222q0 -116 60 -222t160 -165t215 -59t219 58t160 158t56 226q1 190 -125 318t-310 128zM673 1208q272 0 437 -230v202h139v-1097h-139v189q-178 -216 -426 -216t-412 168q-165 168 -165 408
t166 408t400 168z" />
    <glyph glyph-name="acircumflex" unicode="&#xe2;" horiz-adv-x="1393" 
d="M637 1637h141l291 -259h-181l-177 154l-185 -154h-187zM684 1072q-117 0 -217 -58t-159 -162t-59 -222q0 -116 60 -222t160 -165t215 -59t219 58t160 158t56 226q1 190 -125 318t-310 128zM673 1208q272 0 437 -230v202h139v-1097h-139v189q-178 -216 -426 -216t-412 168
q-165 168 -165 408t166 408t400 168z" />
    <glyph glyph-name="atilde" unicode="&#xe3;" horiz-adv-x="1393" 
d="M838 1401q-64 1 -136 35t-92 40t-52 6t-64 -12t-92 -57l-67 103q92 97 227 97q64 1 152 -39t140 -40t149 53l71 -97q-73 -53 -123 -71q-49 -18 -113 -18zM684 1072q-117 0 -217 -58t-159 -162t-59 -222q0 -116 60 -222t160 -165t215 -59t219 58t160 158t56 226
q1 190 -125 318t-310 128zM673 1208q272 0 437 -230v202h139v-1097h-139v189q-178 -216 -426 -216t-412 168q-165 168 -165 408t166 408t400 168z" />
    <glyph glyph-name="adieresis" unicode="&#xe4;" horiz-adv-x="1393" 
d="M910 1613q48 0 83 -34q34 -35 34 -83t-34 -82q-35 -34 -83 -35q-48 1 -82 35t-35 82q1 48 35 83q34 34 82 34zM499 1613q48 0 83 -34q35 -35 35 -83t-35 -82t-83 -35q-48 1 -82 35t-34 82t34 83q34 34 82 34zM684 1072q-117 0 -217 -58t-159 -162t-59 -222
q0 -116 60 -222t160 -165t215 -59t219 58t160 158t56 226q1 190 -125 318t-310 128zM673 1208q272 0 437 -230v202h139v-1097h-139v189q-178 -216 -426 -216t-412 168q-165 168 -165 408t166 408t400 168z" />
    <glyph glyph-name="aring" unicode="&#xe5;" horiz-adv-x="1385" 
d="M702 1686q-46 0 -78 -33t-32 -79t32 -78t78 -32t78 32t33 78q-1 46 -33 79t-78 33zM704 1787q88 0 151 -63q63 -64 63 -152t-62 -151t-152 -63q-88 0 -151 63t-63 151t63 152q63 63 151 63zM684 1072q-117 0 -217 -58t-159 -162t-59 -222q0 -116 60 -222t160 -165
t215 -59t219 58t160 158t56 226q1 190 -125 318t-310 128zM673 1208q272 0 437 -230v202h139v-1097h-139v189q-178 -216 -426 -216t-412 168q-165 168 -165 408t166 408t400 168z" />
    <glyph glyph-name="ae" unicode="&#xe6;" horiz-adv-x="2387" 
d="M696 1072q-118 0 -220 -58q-100 -58 -156 -158q-56 -102 -56 -224q0 -190 125 -316t308 -127t307 125t124 315q0 267 -211 385q-103 58 -221 58zM1702 1073q-94 -1 -185 -43q-180 -85 -231 -290h822q-26 115 -80 182t-143 109t-183 42zM1709 184q257 0 399 259l122 -60
q-76 -157 -216 -242t-306 -85t-270 59q-105 59 -184 164v-196h-130v203q-88 -112 -192 -171t-247 -59q-233 0 -399 168t-166 411q0 157 74 288t207 208q132 77 277 77t270 -69q88 -50 176 -158v199h130v-199q106 127 206 177t234 50q248 0 410 -166t162 -425h-988
q5 -116 63 -220q58 -105 154 -159t214 -54z" />
    <glyph glyph-name="ccedilla" unicode="&#xe7;" horiz-adv-x="1367" 
d="M616 -220q136 0 136 66q0 17 -16 30t-44 13q-27 0 -72 -9l23 179q-217 18 -367 162q-172 165 -171 401q1 160 81 296t220 214q140 76 313 76q107 0 209 -33q199 -65 293 -223l-112 -70q-145 194 -396 194q-201 0 -333 -129t-133 -314q0 -121 61 -227t167 -164t238 -58
q243 0 396 192l112 -73q-79 -118 -207 -180t-283 -67l-13 -91q24 2 56 2q32 -1 65 -31t33 -86t-60 -103q-60 -46 -160 -46t-179 30l22 69q65 -20 121 -20z" />
    <glyph glyph-name="egrave" unicode="&#xe8;" horiz-adv-x="1383" 
d="M608 1694l220 -310h-138l-298 310h216zM668 1073q-161 0 -277 -104q-84 -76 -127 -227h816q-28 112 -82 180t-143 110t-187 41zM104 622q0 215 128 378q162 208 438 208t444 -213q119 -150 120 -374h-985q4 -193 122 -315t291 -122q84 0 163 30t135 77q56 48 120 156
l118 -63q-163 -328 -524 -328q-268 0 -419 176t-151 390z" />
    <glyph glyph-name="eacute" unicode="&#xe9;" horiz-adv-x="1376" 
d="M740 1694h217l-297 -310h-140zM668 1073q-161 0 -277 -104q-84 -76 -127 -227h816q-28 112 -82 180t-143 110t-187 41zM104 622q0 215 128 378q162 208 438 208t444 -213q119 -150 120 -374h-985q4 -193 122 -315t291 -122q84 0 163 30t135 77q56 48 120 156l118 -63
q-163 -328 -524 -328q-268 0 -419 176t-151 390z" />
    <glyph glyph-name="ecircumflex" unicode="&#xea;" horiz-adv-x="1383" 
d="M604 1637h140l292 -259h-181l-177 154l-186 -154h-188zM668 1073q-161 0 -277 -104q-84 -76 -127 -227h816q-28 112 -82 180t-143 110t-187 41zM104 622q0 215 128 378q162 208 438 208t444 -213q119 -150 120 -374h-985q4 -193 122 -315t291 -122q84 0 163 30t135 77
q56 48 120 156l118 -63q-163 -328 -524 -328q-268 0 -419 176t-151 390z" />
    <glyph glyph-name="edieresis" unicode="&#xeb;" horiz-adv-x="1369" 
d="M876 1613q48 0 83 -34q34 -35 34 -83t-34 -82q-35 -34 -83 -35q-48 1 -82 35t-35 82q1 48 35 83q34 34 82 34zM464 1613q48 0 84 -34q34 -35 34 -83t-34 -82t-84 -35q-48 1 -82 35t-34 82t34 83q34 34 82 34zM668 1073q-161 0 -277 -104q-84 -76 -127 -227h816
q-28 112 -82 180t-143 110t-187 41zM104 622q0 215 128 378q162 208 438 208t444 -213q119 -150 120 -374h-985q4 -193 122 -315t291 -122q84 0 163 30t135 77q56 48 120 156l118 -63q-163 -328 -524 -328q-268 0 -419 176t-151 390z" />
    <glyph glyph-name="igrave" unicode="&#xec;" horiz-adv-x="483" 
d="M146 1694l220 -310h-139l-298 310h217zM138 1180h141v-1097h-141v1097z" />
    <glyph glyph-name="iacute" unicode="&#xed;" horiz-adv-x="483" 
d="M275 1694h217l-298 -310h-139zM135 1180h142v-1097h-142v1097z" />
    <glyph glyph-name="icircumflex" unicode="&#xee;" horiz-adv-x="532" 
d="M141 1637h140l293 -259h-181l-178 154l-185 -154h-188zM137 1180h143v-1097h-143v1097z" />
    <glyph glyph-name="idieresis" unicode="&#xef;" horiz-adv-x="518" 
d="M413 1613q48 0 83 -34q35 -35 35 -83t-35 -82t-83 -35q-48 1 -82 35t-34 82t34 83q34 34 82 34zM3 1613q48 0 82 -34q34 -35 34 -83t-34 -82t-82 -35q-48 1 -83 35t-35 82t35 83q35 34 83 34zM137 1180h142v-1097h-142v1097z" />
    <glyph glyph-name="eth" unicode="&#xf0;" horiz-adv-x="1350" 
d="M685 1073q-158 0 -284 -98q-154 -123 -154 -325t126 -332q126 -128 302 -128q115 0 215 58t157 160q56 102 56 227q0 126 -54 227t-151 156t-213 55zM1249 659q0 -171 -76 -311q-77 -140 -209 -216t-294 -76q-234 0 -400 168t-165 409q0 241 164 408t388 167
q118 0 253 -65q-95 128 -215 236l-219 -90l-53 107l176 73q-96 81 -166 135h198q52 -38 103 -80l165 69l53 -108l-119 -47q220 -212 318 -410t98 -369z" />
    <glyph glyph-name="ntilde" unicode="&#xf1;" horiz-adv-x="1221" 
d="M762 1401q-64 1 -136 35q-70 34 -92 40t-54 6t-63 -12q-32 -12 -92 -57l-66 103q91 97 227 97q64 1 152 -39t140 -40t150 53l69 -97q-71 -53 -121 -71t-114 -18zM708 1208q124 0 219 -62t140 -168t45 -331v-564h-140v523q0 190 -16 254q-50 218 -276 218q-128 0 -230 -84
t-133 -210q-19 -82 -19 -299v-402h-142v1097h142v-197q167 225 410 225z" />
    <glyph glyph-name="ograve" unicode="&#xf2;" horiz-adv-x="1363" 
d="M614 1694l220 -310h-140l-297 310h217zM675 1070q-175 0 -301 -130t-126 -314q0 -118 58 -222t155 -160q98 -56 215 -55q116 -1 214 55t155 160t57 222q0 184 -126 314t-301 130zM675 1208q253 0 412 -176t159 -404t-160 -400t-412 -172t-410 172q-160 172 -160 400
t159 404t412 176z" />
    <glyph glyph-name="oacute" unicode="&#xf3;" horiz-adv-x="1348" 
d="M745 1694h217l-298 -310h-139zM675 1070q-175 0 -301 -130t-126 -314q0 -118 58 -222t155 -160q98 -56 215 -55q116 -1 214 55t155 160t57 222q0 184 -126 314t-301 130zM675 1208q253 0 412 -176t159 -404t-160 -400t-412 -172t-410 172q-160 172 -160 400t159 404
t412 176z" />
    <glyph glyph-name="ocircumflex" unicode="&#xf4;" horiz-adv-x="1371" 
d="M609 1637h141l291 -259h-181l-178 154l-184 -154h-189zM675 1070q-175 0 -301 -130t-126 -314q0 -118 58 -222t155 -160q98 -56 215 -55q116 -1 214 55t155 160t57 222q0 184 -126 314t-301 130zM675 1208q253 0 412 -176t159 -404t-160 -400t-412 -172t-410 172
q-160 172 -160 400t159 404t412 176z" />
    <glyph glyph-name="otilde" unicode="&#xf5;" horiz-adv-x="1393" 
d="M808 1401q-64 1 -135 35t-92 40t-53 6t-64 -12t-92 -57l-66 103q91 97 226 97q64 1 152 -39t140 -40t150 53l71 -97q-73 -53 -123 -71t-114 -18zM675 1070q-175 0 -301 -130t-126 -314q0 -118 58 -222t155 -160q98 -56 215 -55q116 -1 214 55t155 160t57 222
q0 184 -126 314t-301 130zM675 1208q253 0 412 -176t159 -404t-160 -400t-412 -172t-410 172q-160 172 -160 400t159 404t412 176z" />
    <glyph glyph-name="odieresis" unicode="&#xf6;" horiz-adv-x="1348" 
d="M881 1613q49 0 83 -34q34 -35 34 -83t-34 -82t-83 -35q-49 1 -83 35t-34 82t34 83q34 34 83 34zM470 1613q48 0 82 -34q34 -35 34 -83t-34 -82t-82 -35q-48 1 -82 35t-34 82t34 83q34 34 82 34zM675 1070q-175 0 -301 -130t-126 -314q0 -118 58 -222t155 -160
q98 -56 215 -55q116 -1 214 55t155 160t57 222q0 184 -126 314t-301 130zM675 1208q253 0 412 -176t159 -404t-160 -400t-412 -172t-410 172q-160 172 -160 400t159 404t412 176z" />
    <glyph glyph-name="divide" unicode="&#xf7;" horiz-adv-x="1132" 
d="M464 552h203v-206h-203v206zM56 893h1020v-138h-1020v138zM464 1300h203v-204h-203v204z" />
    <glyph glyph-name="oslash" unicode="&#xf8;" horiz-adv-x="1345" 
d="M678 189q112 -1 210 55t155 160t57 234q0 132 -86 254l-552 -649q104 -54 216 -54zM688 1070q-126 0 -225 -59t-158 -163t-59 -207q0 -203 124 -327l564 663q-120 93 -246 93zM1244 620q0 -222 -160 -392q-160 -172 -411 -172q-164 0 -301 81l-116 -137l-90 74l115 135
q-179 173 -179 411t159 413t411 175q203 0 354 -120l118 138l92 -75l-126 -147q134 -162 134 -384z" />
    <glyph glyph-name="ugrave" unicode="&#xf9;" horiz-adv-x="1229" 
d="M564 1694l220 -310h-140l-297 310h217zM138 1180h142v-512q0 -188 25 -274t110 -144t203 -58t201 57q82 57 113 150q22 63 22 269v512h144v-539q0 -227 -54 -341q-114 -243 -427 -244q-314 0 -426 246q-53 116 -53 350v528z" />
    <glyph glyph-name="uacute" unicode="&#xfa;" horiz-adv-x="1244" 
d="M695 1694h217l-298 -310h-139zM138 1180h142v-512q0 -188 25 -274t110 -144t203 -58t201 57q82 57 113 150q22 63 22 269v512h144v-539q0 -227 -54 -341q-114 -243 -427 -244q-314 0 -426 246q-53 116 -53 350v528z" />
    <glyph glyph-name="ucircumflex" unicode="&#xfb;" horiz-adv-x="1229" 
d="M559 1637h141l291 -259h-181l-178 154l-184 -154h-188zM138 1180h142v-512q0 -188 25 -274t110 -144t203 -58t201 57q82 57 113 150q22 63 22 269v512h144v-539q0 -227 -54 -341q-114 -243 -427 -244q-314 0 -426 246q-53 116 -53 350v528z" />
    <glyph glyph-name="udieresis" unicode="&#xfc;" horiz-adv-x="1229" 
d="M832 1613q48 0 82 -34q34 -35 34 -83t-34 -82t-82 -35q-48 1 -83 35t-35 82t35 83q35 34 83 34zM420 1613q48 0 84 -34q34 -35 34 -83t-34 -82t-84 -35q-48 1 -82 35t-34 82t34 83q34 34 82 34zM138 1180h142v-512q0 -188 25 -274t110 -144t203 -58t201 57q82 57 113 150
q22 63 22 269v512h144v-539q0 -227 -54 -341q-114 -243 -427 -244q-314 0 -426 246q-53 116 -53 350v528z" />
    <glyph glyph-name="yacute" unicode="&#xfd;" horiz-adv-x="1169" 
d="M622 1694h217l-297 -310h-139zM39 1180h149l377 -845l366 845h151l-655 -1497h-149l211 483z" />
    <glyph glyph-name="thorn" unicode="&#xfe;" horiz-adv-x="1405" 
d="M722 1072q-182 0 -308 -128t-126 -318q0 -126 56 -226t160 -158t219 -58t215 59t160 165t60 222t-59 222q-59 104 -159 162t-218 58zM738 56q-262 0 -440 216v-589h-140v1921h140v-626q165 230 436 230q234 0 400 -168t166 -408t-165 -408t-397 -168z" />
    <glyph glyph-name="ydieresis" unicode="&#xff;" horiz-adv-x="1176" 
d="M770 1613q48 0 83 -34q34 -35 34 -83t-34 -82q-35 -34 -83 -35q-48 1 -82 35t-35 82q1 48 35 83q34 34 82 34zM359 1613q49 0 83 -34q34 -35 34 -83t-34 -82t-83 -35q-48 1 -82 35t-34 82t34 83q34 34 82 34zM39 1180h149l377 -845l366 845h151l-655 -1497h-149l211 483z
" />
    <glyph glyph-name="Amacron" unicode="&#x100;" horiz-adv-x="1268" 
d="M387 1648h696v-120h-696v120zM735 1177l-256 -484h508zM753 1459l691 -1334h-158l-233 440h-640l-231 -440h-166l701 1334h36z" />
    <glyph glyph-name="amacron" unicode="&#x101;" horiz-adv-x="1203" 
d="M330 1574h696v-120h-696v120zM669 1072q-117 0 -217 -58t-159 -162t-59 -222q0 -116 60 -222t160 -165t215 -59t219 58t160 158t56 226q0 190 -126 318t-309 128zM658 1208q272 0 437 -230v202h139v-1097h-139v189q-177 -216 -425 -216t-413 168t-165 408t166 408
t400 168z" />
    <glyph glyph-name="Abreve" unicode="&#x102;" horiz-adv-x="1542" 
d="M766 1562q-148 0 -242 58t-120 147h133q69 -101 230 -101q80 0 129 22t94 79h129q-21 -89 -113 -147t-240 -58zM768 1210l-256 -518h508zM786 1514l691 -1431h-158l-233 471h-640l-231 -471h-166l701 1431h36z" />
    <glyph glyph-name="abreve" unicode="&#x103;" horiz-adv-x="1393" 
d="M667 1516q81 0 130 23t94 81h129q-23 -92 -114 -152t-240 -60q-148 0 -242 60t-119 152h133q70 -104 229 -104zM684 1072q-117 0 -217 -58t-159 -162t-59 -222q0 -116 60 -222t160 -165t215 -59t219 58t160 158t56 226q1 190 -125 318t-310 128zM673 1208q272 0 437 -230
v202h139v-1097h-139v189q-178 -216 -426 -216t-412 168q-165 168 -165 408t166 408t400 168z" />
    <glyph glyph-name="Cacute" unicode="&#x106;" horiz-adv-x="1641" 
d="M1009 1760h217l-298 -266h-139zM914 1256q-178 0 -329 -74t-235 -196q-84 -123 -83 -276q0 -232 186 -388q185 -156 483 -156t507 209l118 -76q-111 -121 -277 -187t-370 -66q-390 0 -615 222q-188 188 -188 460q1 272 229 462t571 190q207 0 375 -70t275 -197l-118 -77
q-196 220 -529 220z" />
    <glyph glyph-name="cacute" unicode="&#x107;" horiz-adv-x="1315" 
d="M781 1694h216l-298 -310h-138zM713 1076q-201 0 -333 -129t-133 -314q0 -121 61 -227t167 -164t238 -58q243 0 396 192l112 -73q-79 -119 -211 -183t-303 -64q-259 0 -431 165t-171 401q1 160 81 296t220 214q140 76 313 76q107 0 209 -33q199 -65 293 -223l-112 -70
q-145 194 -396 194z" />
    <glyph glyph-name="Ccircumflex" unicode="&#x108;" horiz-adv-x="1403" 
d="M756 1733h126l264 -208h-163l-160 124l-168 -124h-168zM237 738q0 -244 186 -408q185 -164 483 -163q298 0 507 220l118 -80q-111 -127 -277 -197t-370 -69q-390 0 -615 234q-188 197 -188 482q1 285 229 486t571 201q207 0 375 -74t275 -209l-118 -79q-195 229 -529 229
q-178 -1 -329 -77t-235 -205t-83 -291z" />
    <glyph glyph-name="ccircumflex" unicode="&#x109;" horiz-adv-x="1124" 
d="M575 1637h140l293 -259h-181l-178 154l-186 -154h-187zM686 1076q-202 0 -334 -129t-132 -314q0 -121 61 -227t167 -164t238 -58q243 0 396 192l112 -73q-80 -119 -212 -183t-302 -64q-258 0 -430 165t-172 401q0 160 80 296t220 214q140 76 314 76q108 0 210 -33
q199 -65 292 -223l-112 -70q-145 194 -396 194z" />
    <glyph glyph-name="Ccaron" unicode="&#x10c;" horiz-adv-x="1638" 
d="M992 1553h-141l-291 232h181l179 -137l183 137h188zM267 738q0 -242 186 -404q185 -162 483 -163q298 0 507 218l118 -79q-111 -126 -277 -195t-370 -69q-390 0 -615 232q-188 196 -188 480q1 284 229 482t571 199q207 0 375 -73t275 -206l-118 -80q-195 228 -529 228
q-178 0 -329 -76t-235 -204t-83 -290z" />
    <glyph glyph-name="ccaron" unicode="&#x10d;" horiz-adv-x="1344" 
d="M791 1378h-139l-293 259h182l178 -152l185 152h187zM713 1076q-201 0 -333 -129t-133 -314q0 -121 61 -227t167 -164t238 -58q243 0 396 192l112 -73q-79 -119 -211 -183t-303 -64q-259 0 -431 165t-171 401q1 160 81 296t220 214q140 76 313 76q107 0 209 -33
q199 -65 293 -223l-112 -70q-145 194 -396 194z" />
    <glyph glyph-name="Dslash" unicode="&#x110;" horiz-adv-x="1281" 
 />
    <glyph glyph-name="dmacron" unicode="&#x111;" horiz-adv-x="1413" 
d="M686 1072q-117 0 -217 -58t-159 -162t-59 -222q0 -116 60 -222t160 -165t215 -59t219 58t160 158t56 226q1 190 -125 318t-310 128zM675 1208q272 0 437 -230v330h-308v117h308v179h139v-179h161v-117h-161v-1225h-139v189q-178 -216 -426 -216t-412 168
q-165 168 -165 408t166 408t400 168z" />
    <glyph glyph-name="Emacron" unicode="&#x112;" horiz-adv-x="965" 
d="M263 1748h696v-120h-696v120zM180 1566h850v-146h-702v-464h696v-144h-696v-582h696v-147h-844v1483z" />
    <glyph glyph-name="emacron" unicode="&#x113;" horiz-adv-x="1126" 
d="M270 1574h696v-120h-696v120zM643 1073q-161 0 -277 -104q-84 -76 -127 -227h816q-28 112 -82 180t-143 110t-187 41zM79 622q0 215 128 378q162 208 438 208t444 -213q119 -150 120 -374h-985q4 -193 122 -315t291 -122q84 0 163 30q78 30 134 77q56 48 121 156l118 -63
q-163 -328 -524 -328q-268 0 -419 176t-151 390z" />
    <glyph glyph-name="Ebreve" unicode="&#x114;" horiz-adv-x="965" 
d="M632 1650q81 0 130 21t94 73h129q-23 -82 -114 -136t-240 -55q-149 0 -243 54t-118 137h133q68 -94 229 -94zM180 1449h850v-131h-702v-418h696v-129h-696v-524h696v-132h-844v1334z" />
    <glyph glyph-name="ebreve" unicode="&#x115;" horiz-adv-x="1126" 
d="M647 1408q-149 0 -243 60t-118 152h133q68 -104 229 -104q81 0 130 23t94 81h129q-23 -92 -114 -152t-240 -60zM643 1073q-161 0 -277 -104q-84 -76 -127 -227h816q-28 112 -82 180t-143 110t-187 41zM79 622q0 215 128 378q162 208 438 208t444 -213q119 -150 120 -374
h-985q4 -193 122 -315t291 -122q84 0 163 30q78 30 134 77q56 48 121 156l118 -63q-163 -328 -524 -328q-268 0 -419 176t-151 390z" />
    <glyph glyph-name="Edot" unicode="&#x116;" horiz-adv-x="966" 
d="M607 1740q49 0 83 -34t34 -82t-34 -84q-34 -34 -83 -34t-83 34t-34 84q0 48 34 82t83 34zM180 1459h850v-131h-702v-418h696v-129h-696v-524h696v-132h-844v1334z" />
    <glyph glyph-name="edot" unicode="&#x117;" horiz-adv-x="1126" 
d="M638 1613q49 0 83 -34q34 -35 34 -83t-34 -82t-83 -35q-49 1 -83 35t-34 82t34 83q34 34 83 34zM643 1073q-161 0 -277 -104q-84 -76 -127 -227h816q-28 112 -82 180t-143 110t-187 41zM79 622q0 215 128 378q162 208 438 208t444 -213q119 -150 120 -374h-985
q4 -193 122 -315t291 -122q84 0 163 30q78 30 134 77q56 48 121 156l118 -63q-163 -328 -524 -328q-268 0 -419 176t-151 390z" />
    <glyph glyph-name="Ecaron" unicode="&#x11a;" horiz-adv-x="965" 
d="M693 1524h-139l-293 208h181l179 -122l185 122h187zM180 1449h850v-131h-702v-418h696v-129h-696v-524h696v-132h-844v1334z" />
    <glyph glyph-name="ecaron" unicode="&#x11b;" horiz-adv-x="1144" 
d="M723 1386h-139l-293 259h181l179 -152l185 152h187zM668 1073q-161 0 -277 -104q-84 -76 -127 -227h816q-28 112 -82 180t-143 110t-187 41zM104 622q0 215 128 378q162 208 438 208t444 -213q119 -150 120 -374h-985q4 -193 122 -315t291 -122q84 0 163 30t135 77
q56 48 120 156l118 -63q-163 -328 -524 -328q-268 0 -419 176t-151 390z" />
    <glyph glyph-name="Gcircumflex" unicode="&#x11c;" horiz-adv-x="1537" 
d="M803 1752h126l264 -208h-163l-160 124l-168 -124h-168zM272 794q0 -150 90 -286t248 -212q158 -77 367 -77t367 116t188 301h-473v129h638q-1 -310 -203 -492t-542 -182q-410 0 -650 252q-185 195 -185 450q-1 189 105 352t291 256t395 93t377 -62q166 -62 325 -197
l-115 -98q-251 223 -577 223q-158 0 -314 -77q-158 -77 -245 -209q-87 -130 -87 -280z" />
    <glyph glyph-name="gcircumflex" unicode="&#x11d;" horiz-adv-x="1172" 
d="M620 1637h140l293 -259h-181l-178 154l-186 -154h-187zM659 1072q-119 0 -221 -58t-160 -160t-59 -221q0 -181 121 -299t315 -118t312 117t118 308q-1 124 -55 221q-54 98 -154 154t-217 56zM1078 292q-164 -209 -450 -209q-140 0 -272 75q-134 74 -206 202t-73 280
t75 284t210 208t270 76t241 -50q106 -50 205 -169v191h143v-874q0 -231 -41 -338q-54 -150 -192 -232t-305 -82t-279 40t-183 107t-130 196h153q124 -213 406 -213q146 0 244 54q100 54 142 135t42 263v56z" />
    <glyph glyph-name="Gbreve" unicode="&#x11e;" horiz-adv-x="1792" 
d="M903 1676q79 0 129 22t94 75h130q-23 -85 -114 -141q-92 -56 -240 -56t-242 56t-119 141h133q71 -97 229 -97zM918 1350q-158 0 -314 -79q-158 -79 -245 -215t-87 -288t90 -292t248 -220t367 -79q209 -1 367 119t188 309h-473v133h638q-1 -318 -203 -505t-542 -187
q-410 0 -650 259q-185 199 -185 462q-1 195 105 363t291 262t395 95q210 0 377 -63q166 -63 325 -202l-115 -101q-252 229 -577 229z" />
    <glyph glyph-name="gbreve" unicode="&#x11f;" horiz-adv-x="1569" 
d="M699 1408q-149 0 -243 60t-118 152h133q66 -104 228 -104q80 0 130 23t94 81h129q-22 -92 -113 -152t-240 -60zM682 1072q-118 0 -220 -58t-162 -160q-58 -102 -58 -221q0 -181 121 -299t315 -118t312 117t118 308q0 124 -54 221q-54 98 -154 154t-218 56zM1101 292
q-163 -209 -449 -209q-140 0 -274 75q-134 74 -206 202t-72 280t76 284t209 208t269 76t242 -50t205 -169v191h143v-874q0 -231 -41 -338q-55 -150 -193 -232t-304 -82q-167 0 -279 40t-183 107t-130 196h153q123 -213 405 -213q146 0 246 54t141 135q42 81 42 263v56z" />
    <glyph glyph-name="Itilde" unicode="&#x128;" horiz-adv-x="438" 
d="M452 1576q-89 0 -160 28t-92 32q-21 5 -68 5t-141 -56l-66 83q91 77 227 77q64 1 152 -31t140 -32t149 43l71 -78q-123 -71 -212 -71zM207 1459h148v-1334h-148v1334z" />
    <glyph glyph-name="itilde" unicode="&#x129;" horiz-adv-x="386" 
d="M401 1379q-64 1 -135 35t-92 40q-20 6 -52 6t-64 -12t-93 -57l-66 103q91 97 227 97q64 1 152 -39t140 -40t149 53l71 -97q-73 -53 -123 -71t-114 -18zM179 1180h142v-1097h-142v1097z" />
    <glyph glyph-name="Imacron" unicode="&#x12a;" horiz-adv-x="431" 
d="M-71 1715h696v-120h-696v120zM197 1459h148v-1334h-148v1334z" />
    <glyph glyph-name="imacron" unicode="&#x12b;" horiz-adv-x="386" 
d="M-112 1544h696v-120h-696v120zM171 1180h142v-1097h-142v1097z" />
    <glyph glyph-name="Ibreve" unicode="&#x12c;" horiz-adv-x="438" 
d="M292 1657q73 1 117 19t84 64h117q-21 -74 -103 -122t-216 -48t-218 48t-107 122h120q59 -83 206 -83zM206 1459h148v-1334h-148v1334z" />
    <glyph glyph-name="ibreve" unicode="&#x12d;" horiz-adv-x="386" 
d="M266 1523q81 0 130 23t94 81h129q-23 -91 -114 -151t-240 -61q-149 0 -243 60t-118 152h133q68 -104 229 -104zM176 1180h142v-1097h-142v1097z" />
    <glyph glyph-name="Idotaccent" unicode="&#x130;" horiz-adv-x="502" 
d="M233 1965q49 -1 83 -35t34 -82t-34 -83q-34 -34 -83 -34t-83 34q-34 35 -34 83t34 82t83 35zM158 1566h149v-1483h-149v1483z" />
    <glyph glyph-name="dotlessi" unicode="&#x131;" horiz-adv-x="412" 
d="M135 1180h142v-1097h-142v1097z" />
    <glyph glyph-name="IJ" unicode="&#x132;" horiz-adv-x="1685" 
d="M964 184q64 0 116 38t72 102t20 246v996h149v-1000q1 -232 -35 -322t-120 -144t-188 -54t-190 35q-88 35 -194 122l79 118q192 -137 291 -137zM40 1566h148v-1483h-148v1483z" />
    <glyph glyph-name="ij" unicode="&#x133;" horiz-adv-x="1131" 
d="M560 1180h143v-1262q0 -138 -50 -201t-129 -63t-169 35v127q58 -30 109 -30t78 48q18 30 18 126v1220zM630 1631q48 0 82 -34t33 -82q1 -49 -33 -83t-82 -34t-83 34q-34 34 -34 83q0 48 34 82q35 34 83 34zM85 1180h141v-1097h-141v1097zM155 1631q49 0 83 -34t34 -82
q0 -49 -34 -83t-83 -34q-48 0 -82 34t-34 83q0 48 34 82t82 34z" />
    <glyph glyph-name="Jcircumflex" unicode="&#x134;" horiz-adv-x="882" 
d="M648 1800h126l264 -208h-163l-160 124l-168 -124h-168zM392 226q64 0 116 34t72 92q20 57 20 221v896h149v-900q1 -208 -35 -289t-120 -130t-188 -49q-104 -1 -190 31q-88 32 -194 111l79 106q191 -123 291 -123z" />
    <glyph glyph-name="jcircumflex" unicode="&#x135;" horiz-adv-x="701" 
d="M187 -239q58 0 58 78q0 21 -8 102t-12 362v593l1 52q0 60 -21 88t-94 32v40h400v-995q0 -141 -23 -223t-100 -138t-200 -57q-123 1 -184 51t-61 124q0 44 32 78t72 34q86 0 86 -94l-4 -56q0 -71 58 -71zM467 1611l214 -385h-85l-245 205l-245 -205h-84l214 385h231z" />
    <glyph glyph-name="Kcedilla" unicode="&#x136;" horiz-adv-x="1219" 
d="M179 1566h151v-556l592 556h200l-713 -666l768 -817l2 -409l-125 -1l2 408h-80l-646 693v-691h-151v1483z" />
    <glyph glyph-name="kcedilla" unicode="&#x137;" horiz-adv-x="1035" 
d="M155 1604h142v-866l507 442h208l-601 -523l636 -574l1 -403h-117l-1 401h-81l-552 495v-493h-142v1521z" />
    <glyph glyph-name="kgreenlandic" unicode="&#x138;" horiz-adv-x="1035" 
d="M155 1180h142v-442l507 442h208l-601 -523l636 -574h-200l-550 493v-493h-142v1097z" />
    <glyph glyph-name="Lslash" unicode="&#x141;" horiz-adv-x="1067" 
d="M441 226h571v-143h-719v564l-204 -170v176l204 171v742h148v-619l268 223v-176l-268 -223v-545z" />
    <glyph glyph-name="lslash" unicode="&#x142;" horiz-adv-x="618" 
d="M379 83h-140v747l-186 -119v140l186 120v633h140v-542l202 130v-142l-202 -129v-838z" />
    <glyph glyph-name="Nacute" unicode="&#x143;" horiz-adv-x="1515" 
d="M834 1769h217l-297 -309h-140zM180 83v1483h32l986 -1135v1135h146v-1483h-34l-976 1121v-1121h-154z" />
    <glyph glyph-name="nacute" unicode="&#x144;" horiz-adv-x="1236" 
d="M667 1694h216l-296 -310h-139zM708 1208q124 0 219 -62t140 -168t45 -331v-564h-140v523q0 190 -16 254q-50 218 -276 218q-128 0 -230 -84t-133 -210q-19 -82 -19 -299v-402h-142v1097h142v-197q167 225 410 225z" />
    <glyph glyph-name="Ncaron" unicode="&#x147;" horiz-adv-x="1498" 
d="M836 1508h-140l-292 259h182l178 -153l184 153h188zM180 83v1483h32l986 -1135v1135h146v-1483h-34l-976 1121v-1121h-154z" />
    <glyph glyph-name="ncaron" unicode="&#x148;" horiz-adv-x="1236" 
d="M700 1370h-140l-292 259h181l179 -153l184 153h188zM708 1208q124 0 219 -62t140 -168t45 -331v-564h-140v523q0 190 -16 254q-50 218 -276 218q-128 0 -230 -84t-133 -210q-19 -82 -19 -299v-402h-142v1097h142v-197q167 225 410 225z" />
    <glyph glyph-name="napostrophe" unicode="&#x149;" horiz-adv-x="1493" 
d="M979 1208q124 0 219 -62t140 -168t45 -331v-564h-140v523q0 190 -16 254q-50 218 -276 218q-127 0 -229 -84t-134 -210q-19 -82 -19 -299v-402h-142v1097h142v-197q167 225 410 225zM-3 1326v278h182v-174q0 -130 -17 -204t-69 -176l-78 45q37 75 51 119t20 112h-89z" />
    <glyph glyph-name="Eng" unicode="&#x14a;" horiz-adv-x="1601" 
d="M902 186q187 0 308 186t121 458q-1 274 -157 454t-385 179q-137 -1 -259 -71t-203 -181v-1128h-149v1483h149v-180q199 218 490 218t480 -227t189 -563t-168 -552t-421 -216q-221 0 -365 190l106 91q104 -141 264 -141z" />
    <glyph glyph-name="eng" unicode="&#x14b;" horiz-adv-x="1256" 
d="M1112 647v-729q0 -264 -188 -264q-72 0 -158 35v127q54 -30 98 -30t69 22t32 48q7 28 7 104v646q0 191 -21 277q-21 87 -90 141t-173 54t-182 -44q-76 -44 -126 -120q-50 -74 -66 -153t-16 -276v-402h-142v1097h142v-197q169 225 409 225q143 0 242 -78t131 -185t32 -298
z" />
    <glyph glyph-name="Omacron" unicode="&#x14c;" horiz-adv-x="1530" 
d="M540 1700h696v-120h-696v120zM895 1352q-165 0 -313 -77t-230 -208t-82 -291q0 -237 182 -401t441 -164q172 -1 319 75t229 206t82 290t-82 288t-231 205t-315 77zM887 1484q337 0 563 -202t226 -498q0 -294 -226 -498t-554 -205q-328 0 -554 203q-227 203 -227 492
q0 192 103 356t282 258t387 94z" />
    <glyph glyph-name="omacron" unicode="&#x14d;" horiz-adv-x="1158" 
d="M343 1574h696v-120h-696v120zM675 1070q-175 0 -301 -130t-126 -314q0 -118 58 -222t155 -160q98 -56 215 -55q116 -1 214 55t155 160t57 222q0 184 -126 314t-301 130zM675 1208q253 0 412 -176t159 -404t-160 -400t-412 -172t-410 172q-160 172 -160 400t159 404
t412 176z" />
    <glyph glyph-name="Obreve" unicode="&#x14e;" horiz-adv-x="1522" 
d="M921 1726q73 0 117 18t84 65h117q-21 -73 -103 -121t-216 -49q-134 0 -218 48t-107 122h120q59 -83 206 -83zM895 1362q-165 0 -313 -77t-230 -208t-82 -291q0 -237 182 -401t441 -164q172 -1 319 75t229 206t82 290t-82 288t-231 205t-315 77zM887 1494q337 0 563 -202
t226 -498q0 -294 -226 -498t-554 -205q-328 0 -554 203q-227 203 -227 492q0 192 103 356t282 258t387 94z" />
    <glyph glyph-name="obreve" unicode="&#x14f;" horiz-adv-x="1158" 
d="M659 1516q81 0 130 23t94 81h129q-23 -92 -114 -152t-240 -60q-148 0 -242 60t-119 152h133q68 -104 229 -104zM675 1070q-175 0 -301 -130t-126 -314q0 -118 58 -222t155 -160q98 -56 215 -55q116 -1 214 55t155 160t57 222q0 184 -126 314t-301 130zM675 1208
q253 0 412 -176t159 -404t-160 -400t-412 -172t-410 172q-160 172 -160 400t159 404t412 176z" />
    <glyph glyph-name="Odblacute" unicode="&#x150;" horiz-adv-x="1775" 
d="M1185 1774h216l-297 -268h-139zM866 1774h217l-297 -268h-139zM895 1263q-165 0 -313 -74q-148 -75 -230 -199t-82 -279q0 -227 182 -384t441 -157q172 0 319 72t229 198q82 124 82 276t-82 276q-82 123 -231 197t-315 74zM887 1388q337 0 563 -194t226 -475t-226 -477
t-554 -196t-554 194q-227 194 -227 471q0 185 103 342t282 246t387 89z" />
    <glyph glyph-name="odblacute" unicode="&#x151;" horiz-adv-x="1371" 
d="M985 1694h216l-297 -310h-139zM666 1694h217l-298 -310h-139zM675 1070q-175 0 -301 -130t-126 -314q0 -118 58 -222t155 -160q98 -56 215 -55q116 -1 214 55t155 160t57 222q0 184 -126 314t-301 130zM675 1208q253 0 412 -176t159 -404t-160 -400t-412 -172t-410 172
q-160 172 -160 400t159 404t412 176z" />
    <glyph glyph-name="OE" unicode="&#x152;" horiz-adv-x="2463" 
d="M898 1460q-250 0 -436 -188t-187 -450q0 -260 184 -446q183 -186 445 -186t444 186t183 450q1 173 -83 317q-84 145 -235 231t-315 86zM1534 1566h844v-146h-694v-461h694v-146h-694v-583h694v-147h-844v287q-100 -126 -190 -191q-184 -133 -444 -133q-372 0 -602 275
q-184 219 -184 497q0 208 103 392t290 289t391 105t367 -94t269 -232v288z" />
    <glyph glyph-name="oe" unicode="&#x153;" horiz-adv-x="2345" 
d="M1664 1071q-152 0 -270 -101q-93 -77 -134 -230h816q-40 159 -150 245t-262 86zM676 1072q-112 0 -210 -58t-156 -162t-58 -224q0 -118 57 -220t161 -163q104 -60 215 -60t212 59q101 58 155 158t55 222q0 190 -125 319t-306 129zM112 652q0 258 208 426q160 130 343 130
t321 -88q100 -64 190 -202q85 134 180 197q137 93 316 93q234 0 398 -163t164 -391l-1 -36h-984q15 -224 141 -328t272 -105t252 67t164 195l120 -61q-94 -174 -222 -252t-308 -78q-98 0 -190 30t-156 82q-64 50 -146 165q-181 -277 -492 -277q-238 0 -404 169t-166 427z
" />
    <glyph glyph-name="Sacute" unicode="&#x15a;" horiz-adv-x="1003" 
d="M525 1782h217l-297 -278h-139zM122 1284v129h782l-619 -1200h588v-130h-817l624 1201h-558z" />
    <glyph glyph-name="sacute" unicode="&#x15b;" horiz-adv-x="946" 
d="M543 1694h216l-298 -310h-138zM68 1180h805l-622 -972h602v-125h-844l620 973h-561v124z" />
    <glyph glyph-name="Scircumflex" unicode="&#x15c;" horiz-adv-x="884" 
d="M438 1748h126l264 -208h-163l-160 124l-168 -124h-168zM460 221q75 -1 141 31t100 84t34 115t-60 140q-59 77 -245 203t-230 182q-79 94 -79 193t46 170q47 71 131 113t186 42t192 -48q91 -48 193 -172l-121 -82q-83 99 -142 131q-58 32 -138 32t-137 -49t-57 -106
q0 -56 20 -98t62 -78t218 -155q178 -118 250 -218t71 -200q-1 -145 -123 -253t-297 -107q-136 0 -246 65t-202 217l126 69q133 -221 307 -221z" />
    <glyph glyph-name="scircumflex" unicode="&#x15d;" horiz-adv-x="689" 
d="M351 1637h140l293 -259h-181l-178 154l-186 -154h-187zM407 1076q-69 0 -118 -45t-49 -102t40 -107t184 -122q144 -74 200 -150q55 -77 55 -173q-1 -133 -95 -227t-236 -94q-96 0 -182 40t-142 114l89 101q108 -122 229 -122q84 1 144 55t59 121q0 67 -39 114
q-38 47 -182 120t-198 148t-53 185q-1 110 85 194q86 82 226 82t294 -148l-90 -94q-114 110 -221 110z" />
    <glyph glyph-name="Scedilla" unicode="&#x15e;" horiz-adv-x="1165" 
d="M391 -220q136 0 136 66q-1 17 -17 30t-42 13t-74 -9l23 169q-102 12 -200 77q-98 64 -190 233l126 76q133 -245 307 -245q75 0 141 35t100 93t34 128t-60 156q-59 86 -245 224q-186 140 -230 203q-79 104 -79 214t46 189q47 80 131 126t186 46t192 -52q91 -52 193 -192
l-121 -91q-83 109 -142 145q-58 36 -138 36t-137 -54t-57 -118t20 -110t62 -86t218 -172q178 -131 250 -242t71 -222q0 -162 -117 -276t-273 -123l-12 -82q24 2 38 2q49 -1 83 -31t33 -86t-61 -103q-60 -46 -160 -46t-178 30l23 69q63 -20 120 -20z" />
    <glyph glyph-name="scedilla" unicode="&#x15f;" horiz-adv-x="904" 
d="M305 -220q137 0 137 66q0 17 -17 30t-43 13t-74 -9l25 178q-70 7 -147 43q-76 36 -132 109l89 101q108 -122 229 -122q84 1 144 55t59 121q0 67 -39 114q-38 47 -182 120t-198 148t-53 185q-1 110 85 194q86 82 226 82t294 -148l-90 -94q-114 110 -221 110
q-69 0 -118 -45t-49 -102t40 -107t184 -122q144 -74 200 -150q55 -77 55 -173q0 -134 -87 -220t-201 -99l-14 -93q24 2 38 2q49 -1 83 -31t34 -86t-61 -103q-61 -46 -161 -46t-178 30l23 69q63 -20 120 -20z" />
    <glyph glyph-name="Scaron" unicode="&#x160;" horiz-adv-x="943" 
d="M581 1558h-140l-293 232h183l177 -137l185 137h187zM460 174q75 0 141 32t100 83q34 52 34 115q0 64 -60 140q-59 76 -245 200t-230 182q-79 93 -79 191q0 97 46 169q47 72 131 112t186 41q102 0 192 -46q91 -46 193 -171l-121 -82q-83 98 -142 130q-58 32 -138 32
t-137 -48t-57 -129q0 -80 94 -163q28 -26 206 -144t250 -216q72 -99 71 -198q-1 -146 -123 -252t-278 -106t-265 64q-110 64 -202 217l126 67q133 -220 307 -220z" />
    <glyph glyph-name="scaron" unicode="&#x161;" horiz-adv-x="813" 
d="M466 1378h-139l-293 259h181l179 -152l185 152h187zM396 1076q-68 0 -116 -45t-49 -102q0 -57 40 -107t183 -122q143 -74 200 -150q56 -77 56 -173q0 -133 -95 -227t-238 -94q-95 0 -181 40t-142 114l89 101q108 -122 228 -122q85 1 145 55t59 121q0 67 -39 114
q-40 47 -183 120t-196 148t-53 185t85 194q85 82 225 82t294 -148l-91 -94q-113 110 -221 110z" />
    <glyph glyph-name="Tbar" unicode="&#x166;" horiz-adv-x="879" 
d="M515 867h284v-139h-284v-645h-151v645h-283v139h283v555h-331v144h814v-144h-332v-555z" />
    <glyph glyph-name="tbar" unicode="&#x167;" horiz-adv-x="699" 
d="M422 695h248v-117h-248v-495h-142v495h-217v117h217v364h-193v121h193v407h142v-407h224v-121h-224v-364z" />
    <glyph glyph-name="Utilde" unicode="&#x168;" horiz-adv-x="1188" 
d="M846 1558q-89 0 -160 28t-92 32q-21 5 -68 5t-141 -56l-66 83q91 77 227 77q64 1 152 -31t140 -32t149 43l71 -78q-123 -71 -212 -71zM184 1459h148v-805q0 -143 7 -179q11 -79 51 -132t124 -89t162 -35q79 0 147 28q137 57 179 199q16 50 16 208v805h148v-805
q0 -180 -39 -290t-155 -192t-290 -81q-172 -1 -300 77t-170 204q-28 79 -28 282v805z" />
    <glyph glyph-name="utilde" unicode="&#x169;" horiz-adv-x="1085" 
d="M753 1401q-64 1 -135 35t-92 40q-20 6 -52 6t-64 -12t-93 -57l-66 103q91 97 227 97q64 1 152 -39t140 -40t149 53l71 -97q-73 -53 -123 -71t-114 -18zM131 1180h142v-512q0 -188 25 -274t110 -144q86 -58 204 -58t200 57t113 150q22 63 22 269v512h144v-539
q1 -227 -53 -341q-114 -244 -428 -244t-426 246q-53 116 -53 350v528z" />
    <glyph glyph-name="Umacron" unicode="&#x16a;" horiz-adv-x="1188" 
d="M340 1700h696v-120h-696v120zM184 1459h148v-805q0 -143 7 -179q11 -79 51 -132t124 -89t162 -35q79 0 147 28q137 57 179 199q16 50 16 208v805h148v-805q0 -180 -39 -290t-155 -192t-290 -81q-172 -1 -300 77t-170 204q-28 79 -28 282v805z" />
    <glyph glyph-name="umacron" unicode="&#x16b;" horiz-adv-x="1092" 
d="M274 1567h696v-120h-696v120zM138 1180h142v-512q0 -188 25 -274t110 -144t203 -58t201 57q82 57 113 150q22 63 22 269v512h144v-539q0 -227 -54 -341q-114 -243 -427 -244q-314 0 -426 246q-53 116 -53 350v528z" />
    <glyph glyph-name="Ubreve" unicode="&#x16c;" horiz-adv-x="1188" 
d="M685 1642q73 0 117 18t84 65h117q-21 -73 -103 -121t-216 -49q-134 0 -218 48t-107 122h120q59 -83 206 -83zM184 1459h148v-805q0 -143 7 -179q11 -79 51 -132t124 -89t162 -35q79 0 147 28q137 57 179 199q16 50 16 208v805h148v-805q0 -180 -39 -290t-155 -192
t-290 -81q-172 -1 -300 77t-170 204q-28 79 -28 282v805z" />
    <glyph glyph-name="ubreve" unicode="&#x16d;" horiz-adv-x="1092" 
d="M634 1509q81 0 130 23t94 81h129q-23 -91 -114 -151t-240 -61q-149 0 -243 60t-118 152h133q68 -104 229 -104zM138 1180h142v-512q0 -188 25 -274t110 -144t203 -58t201 57q82 57 113 150q22 63 22 269v512h144v-539q0 -227 -54 -341q-114 -243 -427 -244
q-314 0 -426 246q-53 116 -53 350v528z" />
    <glyph glyph-name="Uring" unicode="&#x16e;" horiz-adv-x="1283" 
d="M612 1830q-36 0 -62 -26t-26 -64q0 -36 26 -62t62 -26q37 0 63 26t26 62t-26 64q-26 26 -63 26zM614 1911q72 -1 122 -51t50 -121t-50 -121t-122 -51q-72 1 -122 51t-50 121t50 121t122 51zM48 1449h148v-805q0 -143 7 -179q11 -79 51 -132t124 -89t162 -35q79 0 147 28
q137 57 179 199q16 50 16 208v805h148v-805q0 -180 -39 -290t-155 -192t-290 -81q-172 -1 -300 77t-170 204q-28 79 -28 282v805z" />
    <glyph glyph-name="uring" unicode="&#x16f;" horiz-adv-x="997" 
d="M495 1686q-46 0 -78 -33t-32 -79t32 -78t78 -32q47 0 79 32t32 78t-32 79t-79 33zM497 1787q89 0 152 -63q63 -64 63 -152t-62 -151t-152 -63t-153 63t-63 151t63 152q63 63 152 63zM63 1180h142v-512q0 -188 25 -274t110 -144q86 -58 204 -58t200 57t113 150
q22 63 22 269v512h144v-539q1 -227 -53 -341q-114 -243 -428 -244q-314 0 -426 246q-53 116 -53 350v528z" />
    <glyph glyph-name="Udblacute" unicode="&#x170;" horiz-adv-x="1275" 
d="M967 1861h195l-268 -279h-125zM680 1861h196l-269 -279h-125zM48 1449h148v-805q0 -143 7 -179q11 -79 51 -132t124 -89t162 -35q79 0 147 28q137 57 179 199q16 50 16 208v805h148v-805q0 -180 -39 -290t-155 -192t-290 -81q-172 -1 -300 77t-170 204q-28 79 -28 282
v805z" />
    <glyph glyph-name="udblacute" unicode="&#x171;" horiz-adv-x="1139" 
d="M939 1694h216l-298 -310h-139zM620 1694h217l-298 -310h-139zM63 1180h142v-512q0 -188 25 -274t110 -144q86 -58 204 -58t200 57t113 150q22 63 22 269v512h144v-539q1 -227 -53 -341q-114 -243 -428 -244q-314 0 -426 246q-53 116 -53 350v528z" />
    <glyph glyph-name="Ydieresis" unicode="&#x178;" horiz-adv-x="1185" 
d="M826 1781q48 -1 82 -33t35 -78q-1 -46 -35 -78t-82 -33q-48 1 -83 33q-34 32 -34 78t34 78q35 32 83 33zM414 1781q49 -1 83 -33t34 -78t-34 -78t-83 -33q-49 1 -83 33t-34 78t34 78t83 33zM688 83h-146v675l-479 736h172l379 -582l372 582h171l-469 -736v-675z" />
    <glyph glyph-name="Zacute" unicode="&#x179;" horiz-adv-x="1178" 
d="M711 1862h195l-268 -279h-125zM99 1330v129h782l-619 -1205h588v-129h-817l624 1205h-558z" />
    <glyph glyph-name="zacute" unicode="&#x17a;" horiz-adv-x="909" 
d="M598 1694h217l-298 -310h-139zM80 1180h805l-622 -972h602v-125h-844l620 973h-561v124z" />
    <glyph glyph-name="Zdot" unicode="&#x17b;" horiz-adv-x="823" 
d="M492 1738q49 0 83 -34t34 -82t-34 -84q-34 -34 -83 -34t-83 34t-34 84q0 48 34 82t83 34zM99 1320v129h782l-619 -1205h588v-129h-817l624 1205h-558z" />
    <glyph glyph-name="zdot" unicode="&#x17c;" horiz-adv-x="747" 
d="M436 1606q49 0 83 -34t34 -82t-34 -84q-34 -34 -83 -34t-83 34t-34 84q0 48 34 82t83 34zM80 1180h805l-622 -972h602v-125h-844l620 973h-561v124z" />
    <glyph glyph-name="Zcaron" unicode="&#x17d;" horiz-adv-x="971" 
d="M562 1551h-140l-292 229h182l177 -136l185 136h187zM122 1272v128h782l-619 -1188h588v-129h-817l624 1189h-558z" />
    <glyph glyph-name="zcaron" unicode="&#x17e;" horiz-adv-x="946" 
d="M505 1378h-140l-292 259h181l179 -152l184 152h188zM68 1180h805l-622 -972h602v-125h-844l620 973h-561v124z" />
    <glyph glyph-name="uni018f" unicode="&#x18f;" horiz-adv-x="1689" 
d="M771 1457q-336 0 -530 -255l-117 88q107 150 274 232t375 82q343 0 571 -223t229 -540q0 -317 -188 -536q-224 -259 -614 -259q-205 0 -371 77q-354 163 -353 668v34l1370 -1q-1 178 -83 320q-82 143 -234 228t-329 85zM1407 698l-1199 -2q30 -240 162 -370t392 -140
q283 0 469 182q143 140 176 330z" />
    <glyph glyph-name="uni018f" unicode="&#x4d8;" horiz-adv-x="1689" 
d="M771 1457q-336 0 -530 -255l-117 88q107 150 274 232t375 82q343 0 571 -223t229 -540q0 -317 -188 -536q-224 -259 -614 -259q-205 0 -371 77q-354 163 -353 668v34l1370 -1q-1 178 -83 320q-82 143 -234 228t-329 85zM1407 698l-1199 -2q30 -240 162 -370t392 -140
q283 0 469 182q143 140 176 330z" />
    <glyph glyph-name="florin" unicode="&#x192;" horiz-adv-x="1142" 
d="M176 -346q-70 0 -144 49l18 126q56 -45 120 -45t116 73t83 298l102 694h-141l16 123h143l49 322q28 185 65 241q67 96 159 96t187 -65l-18 -134q-77 73 -133 73q-56 1 -84 -45q-26 -46 -46 -191l-42 -297h233l-17 -123h-235l-108 -715q-29 -198 -75 -294t-111 -140
q-67 -46 -137 -46z" />
    <glyph glyph-name="uni01A2" unicode="&#x1a2;" horiz-adv-x="2196" 
d="M1749 1601q119 0 203 -54t120 -144t35 -321v-1001h-149v996q0 181 -20 245t-73 102q-52 38 -108 39q-56 0 -115 -26t-158 -94q192 -215 192 -529t-226 -541t-554 -227t-554 226q-227 226 -227 546q0 213 103 396q103 182 282 286t387 104q289 0 498 -167l-5 7
q187 157 369 157zM895 1458q-165 0 -313 -86t-230 -230q-82 -146 -82 -324q0 -264 182 -446t441 -182q172 0 319 84t229 228t82 322q0 177 -82 320q-82 142 -231 228t-315 86z" />
    <glyph glyph-name="uni01A3" unicode="&#x1a3;" horiz-adv-x="1808" 
d="M1568 -357q-187 0 -187 264v1099l-216 -75q81 -135 81 -303q0 -228 -160 -400t-412 -172t-410 172q-160 172 -160 400t159 404t410 176t416 -177l292 138h143v-1220q0 -96 18 -126q27 -48 78 -48t109 30v-127q-90 -35 -161 -35zM675 1070q-175 0 -301 -130t-126 -314
q0 -118 58 -222t155 -160q98 -56 215 -55q116 -1 214 55t155 160t57 222q0 184 -126 314t-301 130z" />
    <glyph glyph-name="uni01CD" unicode="&#x1cd;" horiz-adv-x="1530" 
d="M643 1539l-208 243h78l246 -130l251 127h84l-219 -240h-232zM768 1185l-256 -507h508zM786 1481l691 -1398h-158l-233 460h-640l-231 -460h-166l701 1398h36z" />
    <glyph glyph-name="uni01CE" unicode="&#x1ce;" horiz-adv-x="1393" 
d="M561 1388l-208 258h78l246 -140l251 136h84l-220 -254h-231zM684 1072q-117 0 -217 -58t-159 -162t-59 -222q0 -116 60 -222t160 -165t215 -59t219 58t160 158t56 226q1 190 -125 318t-310 128zM673 1208q272 0 437 -230v202h139v-1097h-139v189q-178 -216 -426 -216
t-412 168q-165 168 -165 408t166 408t400 168z" />
    <glyph glyph-name="uni01CF" unicode="&#x1cf;" horiz-adv-x="918" 
d="M288 1530l-207 258h78l246 -139l250 136h84l-219 -255h-232zM768 182v-34h-727v34h47q108 0 138 66q11 21 11 117v835q1 98 -11 122t-46 43q-34 18 -92 18h-47v36h727v-36h-45q-107 0 -138 -60q-14 -27 -14 -123v-835q0 -97 12 -121q30 -61 140 -62h45z" />
    <glyph glyph-name="uni01D0" unicode="&#x1d0;" horiz-adv-x="679" 
d="M184 1221l-208 390h78l246 -210l251 205h84l-220 -385h-231zM445 1108v-761q-1 -102 23 -130t94 -32v-37h-519v37q63 1 89 31t26 131v559q0 102 -24 130t-91 32v40h402z" />
    <glyph glyph-name="uni01D1" unicode="&#x1d1;" horiz-adv-x="1644" 
d="M693 1505l-207 295h78l246 -158l250 155h84l-219 -292h-232zM822 1402q-191 0 -291 -184q-80 -148 -80 -454t125 -466q86 -109 244 -109q106 0 186 54q80 55 130 189t50 372t-51 364q-51 128 -130 181t-183 53zM842 1463q311 0 513 -187t202 -476q0 -248 -155 -436
q-205 -248 -580 -248t-580 237q-162 189 -162 445q0 290 206 478t494 187h62z" />
    <glyph glyph-name="uni01D2" unicode="&#x1d2;" horiz-adv-x="1174" 
d="M406 1221l-207 390h78l246 -210l251 205h84l-220 -385h-232zM521 1062q-47 0 -85 -39t-50 -156t-11 -275t13 -242t49 -122t83 -38t82 30t54 110t17 316q0 234 -20 300q-21 66 -53 91t-79 25zM520 1136q126 0 234 -65t164 -184t56 -260q0 -204 -104 -341
q-124 -167 -343 -167t-336 152q-117 151 -117 355t120 357t326 153z" />
    <glyph glyph-name="uni01D3" unicode="&#x1d3;" horiz-adv-x="1544" 
d="M696 1520l-208 284h78l246 -154l251 150h84l-219 -280h-232zM48 1413h719v-36h-36q-83 0 -113 -15q-30 -14 -42 -42t-13 -135v-623q0 -168 28 -224t93 -92q64 -36 170 -37q106 0 186 47t120 128t39 282v519q0 138 -69 171q-46 21 -132 21v36h482v-36h-29q-118 0 -154 -87
q-12 -28 -12 -105v-483q-1 -223 -33 -322q-32 -98 -157 -182t-324 -84t-315 52t-172 146q-56 93 -56 250v623q0 108 -13 135q-13 26 -46 42t-121 15v36z" />
    <glyph glyph-name="uni01D4" unicode="&#x1d4;" horiz-adv-x="1312" 
d="M454 1221l-207 390h78l246 -210l250 205h84l-219 -385h-232zM995 1108v-752q1 -110 21 -137t84 -34v-37h-391v128q-69 -81 -138 -119t-153 -38t-145 50q-63 51 -85 117t-22 232v381q0 108 -20 135t-83 34v40h391v-656q0 -102 10 -133q19 -61 79 -61q37 0 73 24t93 104
v513q-1 108 -21 135t-84 34v40h391z" />
    <glyph glyph-name="uni01D5" unicode="&#x1d5;" horiz-adv-x="1541" 
d="M682 1532q0 -32 -26 -54t-62 -22t-63 22t-27 54t26 56t63 24t63 -24t26 -56zM1012 1532q0 -32 -26 -54t-63 -22t-63 22t-25 54q-1 32 25 56t63 24t63 -24t26 -56zM1012 1684h-508v116h508v-116zM48 1376h719v-35h-36q-83 -1 -113 -15t-42 -41t-13 -131v-604
q0 -164 28 -218t93 -90q64 -36 170 -35q106 0 186 45t120 124t39 275v503q0 135 -69 166q-46 21 -132 21v35h482v-35h-29q-118 0 -154 -84q-12 -28 -12 -103v-468q-1 -216 -33 -313t-157 -178t-324 -81t-297 44q-134 58 -190 148t-56 244v604q0 106 -13 132t-46 41t-121 14
v35z" />
    <glyph glyph-name="uni01D6" unicode="&#x1d6;" horiz-adv-x="1174" 
d="M250 1746h659v-166h-659v166zM390 1472q57 0 96 -40t39 -96q1 -56 -39 -96t-96 -41q-56 1 -97 41q-40 40 -40 96t40 96t97 40zM774 1472q57 0 96 -40t39 -96q1 -56 -39 -96t-96 -41q-56 1 -97 41q-40 40 -40 96t40 96t97 40zM995 1108v-752q1 -110 21 -137t84 -34v-37
h-391v128q-69 -81 -138 -119t-153 -38t-145 50q-63 51 -85 117t-22 232v381q0 108 -20 135t-83 34v40h391v-656q0 -102 10 -133q19 -61 79 -61q37 0 73 24t93 104v513q-1 108 -21 135t-84 34v40h391z" />
    <glyph glyph-name="uni01D7" unicode="&#x1d7;" horiz-adv-x="1545" 
d="M682 1530q0 -32 -26 -56q-26 -22 -62 -22t-63 22t-27 56q0 32 26 54t63 23q37 -1 63 -23t26 -54zM1012 1529q0 -33 -26 -55t-63 -22t-63 22t-25 55q-1 33 25 55t63 23q37 -1 63 -23t26 -55zM961 1796l-203 -158h-81l51 158h233zM48 1372h719v-35h-36q-83 -1 -113 -15
t-42 -41t-13 -130v-602q0 -163 28 -217t93 -90q64 -36 170 -35q106 0 186 45q80 46 120 124t39 274v501q0 135 -69 166q-46 20 -132 20v35h482v-35h-29q-119 0 -154 -84q-12 -27 -12 -102v-467q-1 -216 -33 -312t-157 -177t-324 -81t-297 44q-134 58 -190 148t-56 243v602
q0 105 -13 131t-46 41t-121 14v35z" />
    <glyph glyph-name="uni01D8" unicode="&#x1d8;" horiz-adv-x="1175" 
d="M841 1796l-272 -255h-69l95 255h246zM390 1472q57 0 96 -40t39 -96q1 -56 -39 -96t-96 -41q-56 1 -97 41q-40 40 -40 96t40 96t97 40zM774 1472q57 0 96 -40t39 -96q1 -56 -39 -96t-96 -41q-56 1 -97 41q-40 40 -40 96t40 96t97 40zM995 1108v-752q1 -110 21 -137t84 -34
v-37h-391v128q-69 -81 -138 -119t-153 -38t-145 50q-63 51 -85 117t-22 232v381q0 108 -20 135t-83 34v40h391v-656q0 -102 10 -133q19 -61 79 -61q37 0 73 24t93 104v513q-1 108 -21 135t-84 34v40h391z" />
    <glyph glyph-name="uni01D9" unicode="&#x1d9;" horiz-adv-x="1509" 
d="M682 1532q0 -32 -26 -54t-62 -22t-63 22t-27 54t26 56t63 24t63 -24t26 -56zM1012 1532q0 -32 -26 -54t-63 -22t-63 22t-25 54q-1 32 25 56t63 24t63 -24t26 -56zM985 1800l-139 -157h-176l-141 157h72l174 -72l138 72h72zM48 1376h719v-35h-36q-83 -1 -113 -15t-42 -41
t-13 -131v-604q0 -164 28 -218t93 -90q64 -36 170 -35q106 0 186 45t120 124t39 275v503q0 135 -69 166q-46 21 -132 21v35h482v-35h-29q-118 0 -154 -84q-12 -28 -12 -103v-468q-1 -216 -33 -313t-157 -178t-324 -81t-297 44q-134 58 -190 148t-56 244v604q0 106 -13 132
t-46 41t-121 14v35z" />
    <glyph glyph-name="uni01DA" unicode="&#x1da;" horiz-adv-x="1151" 
d="M459 1526l-208 279h78l246 -150l251 147h84l-219 -276h-232zM390 1472q57 0 96 -40t39 -96q1 -56 -39 -96t-96 -41q-56 1 -97 41q-40 40 -40 96t40 96t97 40zM774 1472q57 0 96 -40t39 -96q1 -56 -39 -96t-96 -41q-56 1 -97 41q-40 40 -40 96t40 96t97 40zM995 1108v-752
q1 -110 21 -137t84 -34v-37h-391v128q-69 -81 -138 -119t-153 -38t-145 50q-63 51 -85 117t-22 232v381q0 108 -20 135t-83 34v40h391v-656q0 -102 10 -133q19 -61 79 -61q37 0 73 24t93 104v513q-1 108 -21 135t-84 34v40h391z" />
    <glyph glyph-name="uni01DB" unicode="&#x1db;" horiz-adv-x="1541" 
d="M682 1530q0 -32 -26 -56q-26 -22 -62 -22t-63 22t-27 56q0 32 26 54t63 23q37 -1 63 -23t26 -54zM839 1638h-81l-202 158h232zM1012 1529q0 -33 -26 -55t-63 -22t-63 22t-25 55q-1 33 25 55t63 23q37 -1 63 -23t26 -55zM48 1372h719v-35h-36q-83 -1 -113 -15t-42 -41
t-13 -130v-602q0 -163 28 -217t93 -90q64 -36 170 -35q106 0 186 45q80 46 120 124t39 274v501q0 135 -69 166q-46 20 -132 20v35h482v-35h-29q-119 0 -154 -84q-12 -27 -12 -102v-467q-1 -216 -33 -312t-157 -177t-324 -81t-297 44q-134 58 -190 148t-56 243v602
q0 105 -13 131t-46 41t-121 14v35z" />
    <glyph glyph-name="uni01DC" unicode="&#x1dc;" horiz-adv-x="1135" 
d="M373 1796h217l84 -260h-61zM390 1472q57 0 96 -40t39 -96q1 -56 -39 -96t-96 -41q-56 1 -97 41q-40 40 -40 96t40 96t97 40zM774 1472q57 0 96 -40t39 -96q1 -56 -39 -96t-96 -41q-56 1 -97 41q-40 40 -40 96t40 96t97 40zM995 1108v-752q1 -110 21 -137t84 -34v-37h-391
v128q-69 -81 -138 -119t-153 -38t-145 50q-63 51 -85 117t-22 232v381q0 108 -20 135t-83 34v40h391v-656q0 -102 10 -133q19 -61 79 -61q37 0 73 24t93 104v513q-1 108 -21 135t-84 34v40h391z" />
    <glyph glyph-name="eturn" unicode="&#x1dd;" horiz-adv-x="1112" 
d="M557 268q113 0 193 82t92 214h-583q13 -158 99 -227t199 -69zM538 1203q232 -1 363 -143t131 -390t-130 -396q-130 -150 -354 -150q-113 0 -218 50q-106 50 -178 169t-72 364h772q-11 173 -98 263t-216 90q-200 0 -273 -214l-179 22q43 162 160 248t292 87z" />
    <glyph glyph-name="uni0224" unicode="&#x224;" horiz-adv-x="990" 
d="M122 1422v144h782l-619 -1339h588v-491h-145l1 347h-673l624 1339h-558z" />
    <glyph glyph-name="uni0225" unicode="&#x225;" horiz-adv-x="877" 
d="M68 1180h805l-622 -972h602v-496h-110v371h-734l620 973h-561v124z" />
    <glyph glyph-name="uni0251" unicode="&#x251;" horiz-adv-x="1113" 
d="M536 268q114 0 194 94t80 284t-73 302t-209 112t-206 -109t-69 -263q0 -154 37 -242q36 -88 104 -134q68 -44 142 -44zM969 148h-175v114h-4q-96 -138 -280 -138t-310 150t-126 394t120 390t310 145q190 0 286 -142h4v118h175v-1031z" />
    <glyph glyph-name="uni0253" unicode="&#x253;" horiz-adv-x="1113" 
d="M578 268q116 0 200 100q83 100 83 286q-1 188 -71 297t-206 109t-208 -112q-73 -112 -73 -302q-1 -190 79 -284t196 -94zM610 1203q191 0 310 -146q119 -147 119 -391q1 -244 -127 -393t-310 -149t-279 138h-4v-114h-176v1031q0 393 425 393v-142q-115 0 -182 -49
t-67 -202v-118h4q96 142 287 142z" />
    <glyph glyph-name="uni0254" unicode="&#x254;" horiz-adv-x="998" 
d="M449 1203q211 0 340 -138q129 -139 129 -393t-122 -401t-347 -147q-153 0 -275 92t-156 288l174 22q34 -258 258 -258q140 0 214 103t75 291t-75 294q-76 104 -224 104q-183 0 -235 -209l-169 25q26 161 140 244t273 83z" />
    <glyph glyph-name="uni0255" unicode="&#x255;" horiz-adv-x="998" 
d="M548 268q112 0 176 48t64 102t-61 53q-96 0 -201 -203h22zM558 1060q-148 0 -224 -104t-75 -291q0 -264 140 -357q154 298 354 298q95 0 148 -47t53 -139t-116 -194t-289 -102q-47 0 -89 6q-39 -92 -63 -163l-126 44q50 129 63 156q-124 61 -189 191t-65 317t70 308
t176 171t245 49q137 0 251 -83t140 -244l-169 -25q-52 209 -235 209z" />
    <glyph glyph-name="uni0256" unicode="&#x256;" horiz-adv-x="1106" 
d="M536 268q114 0 194 94t80 284t-73 302t-209 112t-206 -109t-69 -263q0 -154 37 -242q36 -88 104 -134q68 -44 142 -44zM1218 -269q-424 0 -424 393v138h-4q-91 -138 -277 -138q-187 0 -313 150t-126 394t120 390t310 145q190 0 286 -142h4v511h175v-1448q0 -108 27 -156
q53 -95 222 -94v-143z" />
    <glyph glyph-name="uni0257" unicode="&#x257;" horiz-adv-x="1106" 
d="M536 268q114 0 194 94t80 284t-73 302t-209 112t-206 -109t-69 -263q0 -154 37 -242q36 -88 104 -134q68 -44 142 -44zM1218 1430q-116 0 -182 -49t-67 -202v-1031h-163v131h-4q-94 -155 -284 -155t-318 150q-126 150 -126 394t120 390t310 145q190 0 286 -142h4v118
q0 393 424 393v-142z" />
    <glyph glyph-name="uni0259" unicode="&#x259;" horiz-adv-x="1340" 
d="M670 190q161 0 278 104q84 76 127 227h-816q27 -113 81 -181t143 -108q89 -42 187 -42zM664 1208q268 0 419 -176t151 -391t-128 -378q-162 -207 -438 -207t-444 212q-119 150 -120 374h985q-3 192 -121 314t-292 123q-84 1 -163 -29t-134 -78t-120 -156l-119 63
q166 329 524 329z" />
    <glyph glyph-name="uni0259" unicode="&#x4d9;" horiz-adv-x="1340" 
d="M670 190q161 0 278 104q84 76 127 227h-816q27 -113 81 -181t143 -108q89 -42 187 -42zM664 1208q268 0 419 -176t151 -391t-128 -378q-162 -207 -438 -207t-444 212q-119 150 -120 374h985q-3 192 -121 314t-292 123q-84 1 -163 -29t-134 -78t-120 -156l-119 63
q166 329 524 329z" />
    <glyph glyph-name="uni025A" unicode="&#x25a;" horiz-adv-x="1549" 
d="M547 268q138 0 218 98t87 284l-581 -173q33 -109 111 -159t165 -50zM1344 536q-76 0 -128 58t-51 149l-133 -39v-32q0 -248 -130 -398t-355 -150q-177 0 -305 108t-158 336l756 223q-28 127 -108 198t-194 71q-201 0 -273 -214l-179 22q44 162 160 248t297 87
q181 -1 305 -93t165 -267l271 80v-152q0 -125 77 -125q56 0 95 85l84 -57q-72 -138 -196 -138z" />
    <glyph glyph-name="uni025B" unicode="&#x25b;" horiz-adv-x="969" 
d="M504 124q-206 0 -318 80t-112 219q0 91 62 162t160 85q-98 14 -160 80t-62 158q0 152 118 224t298 71q266 0 389 -161l-138 -94q-72 116 -243 116q-119 0 -182 -44t-63 -110q0 -169 266 -169v-139q-266 0 -266 -177q0 -162 257 -162q186 0 241 127l147 -67
q-118 -199 -394 -199z" />
    <glyph glyph-name="uni025C" unicode="&#x25c;" horiz-adv-x="969" 
d="M896 423q0 -139 -112 -219t-318 -80q-276 0 -394 199l146 67q56 -127 242 -127q256 0 256 162q0 177 -266 177v139q266 0 266 169q0 62 -58 108t-186 46q-171 0 -244 -116l-138 94q124 161 390 161q192 -1 304 -77t112 -218q0 -92 -62 -158t-161 -80q99 -14 161 -85
t62 -162z" />
    <glyph glyph-name="uni025E" unicode="&#x25e;" horiz-adv-x="1038" 
d="M517 741q267 0 267 169q0 68 -52 111t-153 43q-326 0 -326 -401q-1 -193 79 -297t235 -103q107 -1 162 43t55 119q0 177 -267 177v139zM963 423q0 -137 -103 -218t-287 -81q-235 0 -367 150t-132 392t134 390t380 147q169 0 272 -77t103 -218q-1 -92 -63 -158t-159 -80
q99 -14 161 -85t61 -162z" />
    <glyph glyph-name="uni0260" unicode="&#x260;" horiz-adv-x="1106" 
d="M528 291q116 1 202 89t86 285t-82 296t-206 99q-123 0 -201 -102t-78 -290q0 -190 82 -284q81 -94 197 -93zM1229 1430q-117 0 -183 -49t-66 -202v-892q0 -219 -44 -327t-156 -169q-112 -60 -276 -60q-165 -1 -282 77t-117 255l170 -27q19 -162 237 -162q135 0 198 55
q64 55 78 135t14 220q-114 -136 -301 -136t-309 149t-122 375t119 379q119 152 329 152q174 0 282 -132h4v108q0 393 425 393v-142z" />
    <glyph glyph-name="uni0261" unicode="&#x261;" horiz-adv-x="1113" 
d="M528 291q116 1 202 89t86 285t-82 296t-206 99q-123 0 -201 -102t-78 -290q0 -190 82 -284q81 -94 197 -93zM980 287q0 -219 -44 -327t-156 -169q-112 -60 -276 -60q-165 -1 -282 77t-117 255l170 -27q20 -162 237 -162q135 0 198 55q64 55 78 135t14 220
q-114 -136 -301 -136t-309 149t-122 375t119 379q119 152 315 152t310 -147h5v123h161v-892z" />
    <glyph glyph-name="uni0262" unicode="&#x262;" horiz-adv-x="1113" 
d="M583 124q-217 0 -363 144t-146 394t137 396t359 145q178 -1 292 -77t149 -208l-169 -48q-59 190 -272 190q-150 0 -234 -101t-83 -291q-1 -190 89 -294q90 -106 236 -106q92 0 154 22t128 82v156h-235v144h408v-364q-125 -108 -223 -146t-227 -38z" />
    <glyph glyph-name="uni0263" unicode="&#x263;" horiz-adv-x="997" 
d="M596 -47q0 64 -103 273q-88 -152 -88 -254q-1 -56 29 -93t77 -37q85 0 85 111zM751 -36q-1 -101 -63 -167t-176 -66t-181 67q-66 67 -66 172t62 220l96 179l-396 810h191l294 -624l287 624h172l-387 -778q24 -53 96 -195t71 -242z" />
    <glyph glyph-name="uni0264" unicode="&#x264;" horiz-adv-x="997" 
d="M413 314q1 -45 27 -76t66 -31q40 -1 60 27q21 28 21 70t-33 95l-61 91q-80 -100 -80 -176zM511 124q-113 0 -175 54t-62 142q0 39 20 89t129 185l-396 585h185l296 -454l291 454h172l-391 -565q33 -52 81 -114q82 -107 82 -188q0 -80 -60 -134t-172 -54z" />
    <glyph glyph-name="uni0265" unicode="&#x265;" horiz-adv-x="1115" 
d="M973 -246h-176v521h-3q-111 -151 -306 -151q-108 0 -200 50t-122 138t-31 227v640h175v-571q0 -136 14 -196t68 -98q55 -38 143 -39q88 1 175 69t87 284v551h176v-1425z" />
    <glyph glyph-name="uni0266" unicode="&#x266;" horiz-adv-x="1114" 
d="M979 148h-175v652q0 252 -217 252q-107 0 -191 -74t-84 -266v-564h-175v1031q0 393 424 393v-142q-117 0 -183 -49t-66 -202v-118q124 142 311 142q99 0 191 -41q92 -42 128 -126t37 -235v-653z" />
    <glyph glyph-name="uni0267" unicode="&#x267;" horiz-adv-x="1114" 
d="M979 124q0 -393 -424 -393v143q117 0 183 48t66 202v676q0 252 -217 252q-107 0 -191 -74t-84 -266v-564h-175v1031q0 393 424 393v-142q-117 0 -183 -49t-66 -202v-118q124 142 311 142q99 0 191 -41q92 -42 128 -126t37 -235v-677z" />
    <glyph glyph-name="uni0268" unicode="&#x268;" horiz-adv-x="483" 
d="M486 670h-158v-522h-175v522h-157v91h157v418h175v-418h158v-91zM328 1374h-175v198h175v-198z" />
    <glyph glyph-name="uni0269" unicode="&#x269;" horiz-adv-x="566" 
d="M312 442q0 -169 138 -169q69 0 111 8v-143q-48 -14 -104 -14q-320 0 -320 318v737h175v-737z" />
    <glyph glyph-name="uni026A" unicode="&#x26a;" horiz-adv-x="713" 
d="M645 148h-577v144h200v744h-200v143h577v-143h-201v-744h201v-144z" />
    <glyph glyph-name="uni026B" unicode="&#x26b;" horiz-adv-x="710" 
d="M496 791q-30 0 -54 9v-652h-175v728q-30 11 -54 11q-73 0 -114 -72l-85 61q73 119 199 119q30 0 54 -7v584h175v-662q30 -10 54 -10q74 0 114 72l86 -62q-74 -119 -200 -119z" />
    <glyph glyph-name="uni026D" unicode="&#x26d;" horiz-adv-x="443" 
d="M561 -269q-424 0 -424 393v1448h175v-1448q0 -154 66 -202t183 -48v-143z" />
    <glyph glyph-name="uni026E" unicode="&#x26e;" horiz-adv-x="1270" 
d="M1197 162q0 -190 -124 -310t-326 -121q-290 0 -462 222l136 107q110 -186 326 -186q129 0 199 79t71 221t-101 218t-299 75h-203l496 575q-115 -6 -197 -6h-401v-888h-175v1424h175v-393h822v-113l-410 -478q204 0 338 -118t135 -308z" />
    <glyph glyph-name="uni026F" unicode="&#x26f;" horiz-adv-x="1666" 
d="M1533 148h-158v143h-3q-106 -167 -322 -167t-281 181q-114 -181 -318 -181q-320 0 -320 347v708h175v-651q0 -153 50 -203t144 -50t169 72t75 233v599h175v-670q0 -134 47 -184t147 -50q100 -1 172 77t72 292v535h176v-1031z" />
    <glyph glyph-name="uni0271" unicode="&#x271;" horiz-adv-x="1666" 
d="M1535 124q0 -393 -424 -393v143q115 0 181 48t67 202v676q1 72 -9 123t-50 90t-134 39t-170 -72q-75 -72 -75 -233v-599h-175v671q0 133 -46 183t-148 50q-100 0 -172 -78t-72 -291v-535h-175v1031h157v-143h4q104 167 320 167t282 -181q114 181 318 181q321 0 321 -347
v-732z" />
    <glyph glyph-name="uni0272" unicode="&#x272;" horiz-adv-x="1108" 
d="M973 148h-177v626q0 158 -56 218t-146 60q-89 0 -159 -38t-99 -107t-29 -195v-588q0 -393 -424 -393v143q117 0 183 48t65 202v1055h159v-145h3q112 169 324 169q82 1 162 -29q79 -30 125 -88t58 -124t11 -179v-635z" />
    <glyph glyph-name="uni0273" unicode="&#x273;" horiz-adv-x="1108" 
d="M1229 -269q-425 0 -425 393v650q0 158 -57 218t-147 60t-158 -38q-70 -38 -99 -107t-29 -195v-564h-175v1031h157v-145h4q113 169 325 169q81 1 161 -29t125 -88t57 -124t12 -179v-659q0 -154 66 -202t183 -48v-143z" />
    <glyph glyph-name="uni0274" unicode="&#x274;" horiz-adv-x="1119" 
d="M980 148h-186l-475 760h-5v-760h-175v1031h186l475 -760h4v760h176v-1031z" />
    <glyph glyph-name="uni0275" unicode="&#x275;" horiz-adv-x="1111" 
d="M562 268q124 0 202 87t93 249h-604q15 -170 99 -253q86 -83 210 -83zM556 1060q-118 0 -202 -80t-101 -245h604q-15 157 -99 241t-202 84zM557 1203q207 -1 345 -137t137 -386q-1 -304 -149 -430t-339 -126t-335 129t-144 405t139 411q139 134 346 134z" />
    <glyph glyph-name="uni0276" unicode="&#x276;" horiz-adv-x="1426" 
d="M488 1060q-235 0 -235 -396q-1 -396 239 -396q116 0 174 97q56 97 56 301t-57 299t-177 95zM1376 148h-644v94h-3q-79 -118 -241 -118q-200 0 -307 146t-107 394t108 394t306 145q154 0 239 -109h2v85h625v-135h-456v-295h420v-135h-420v-330h478v-136z" />
    <glyph glyph-name="uni0277" unicode="&#x277;" horiz-adv-x="1346" 
d="M762 610q0 -162 36 -252t132 -90q163 0 163 317q0 215 -114 347t-306 132t-306 -132t-114 -347q0 -317 163 -317q97 0 132 90t35 252h179zM432 124q-166 0 -262 122t-96 329q0 280 162 454t436 174q272 1 436 -173t165 -455q-1 -207 -97 -329t-262 -122q-100 0 -167 62
t-74 161q-7 -99 -74 -161t-167 -62z" />
    <glyph glyph-name="uni0278" unicode="&#x278;" horiz-adv-x="1115" 
d="M253 672q1 -152 59 -256t164 -137v771q-223 -70 -223 -378zM862 672q0 308 -223 378v-771q107 33 165 137t58 256zM1041 675q-1 -223 -107 -367t-295 -178v-399h-163v399q-186 35 -294 174t-108 363t106 362t296 168v375h163v-375q190 -31 296 -165t106 -357z" />
    <glyph glyph-name="uni027E" unicode="&#x27e;" horiz-adv-x="624" 
d="M466 1024q-160 0 -160 -254v-622h-175v641q0 206 93 310t249 104q90 0 180 -55l-60 -162q-66 38 -127 38z" />
    <glyph glyph-name="uni027F" unicode="&#x27f;" horiz-adv-x="624" 
d="M493 148h-175v622q0 254 -160 254q-62 0 -127 -38l-60 162q90 55 180 55q156 0 249 -104t93 -310v-641z" />
    <glyph glyph-name="uni0280" unicode="&#x280;" horiz-adv-x="1059" 
d="M306 728h211q252 0 252 169q-1 65 -59 102t-159 37h-245v-308zM395 578h-89v-430h-175v1031h440q182 -1 280 -75t98 -207q0 -244 -274 -301v-2q105 -44 181 -163l179 -283h-206q-169 274 -211 332t-88 78t-135 20z" />
    <glyph glyph-name="uni0281" unicode="&#x281;" horiz-adv-x="1059" 
d="M306 291h245q102 -1 160 37t58 103q0 169 -252 169h-211v-309zM949 431q0 -135 -98 -209t-280 -74h-440v1031h175v-430h89q89 0 135 20t88 78q43 58 211 332h206q-185 -291 -209 -327q-48 -71 -151 -118v-3q274 -57 274 -300z" />
    <glyph glyph-name="uni0282" unicode="&#x282;" horiz-adv-x="1000" 
d="M484 1060q-100 0 -162 -34t-62 -97t49 -89t203 -66t236 -72q80 -32 126 -90t46 -162q0 -138 -113 -232t-307 -94t-306 85v-95q0 -122 55 -186t145 -64t145 34v-120q-62 -44 -151 -44q-141 0 -233 94t-92 266v226l154 82q111 -134 286 -134q116 0 177 48t61 106t-28 86
t-71 42t-190 50q-220 52 -290 127t-71 192q0 117 103 201t277 83q370 0 410 -289l-171 -23q-23 169 -226 169z" />
    <glyph glyph-name="uni0283" unicode="&#x283;" horiz-adv-x="421" 
d="M447 1430q-149 0 -149 -215v-1131q0 -166 -92 -260t-232 -93q-62 0 -144 17l27 140q49 -14 117 -14q149 0 149 215v1131q-1 166 91 259t233 93q63 0 143 -16l-26 -140q-49 14 -117 14z" />
    <glyph glyph-name="uni0285" unicode="&#x285;" horiz-adv-x="421" 
d="M447 -269q-143 -1 -233 95t-91 258v1131q0 215 -149 215q-68 0 -117 -14l-27 140q82 16 144 16q144 0 234 -94t90 -258v-1131q0 -215 149 -215q68 0 117 14l26 -140q-80 -17 -143 -17z" />
    <glyph glyph-name="uni0288" unicode="&#x288;" horiz-adv-x="553" 
d="M586 -269q-424 0 -424 393v920h-127v135h127v257l175 106v-363h176v-135h-176v-920q0 -154 67 -202t182 -48v-143z" />
    <glyph glyph-name="uni028A" unicode="&#x28a;" horiz-adv-x="1115" 
d="M1041 1044h-79q-84 0 -84 -60q0 -26 12 -50t58 -85q93 -118 93 -245q1 -220 -139 -350t-345 -130t-344 130t-139 350q0 127 94 245q46 61 58 85t11 50q0 60 -84 60h-79v135h91q95 -1 153 -51t58 -126t-62 -174t-61 -217q-1 -173 89 -258t220 -85t214 90q86 90 86 253
q0 119 -62 217t-61 174q-1 76 57 126t154 51h91v-135z" />
    <glyph glyph-name="uni028B" unicode="&#x28b;" horiz-adv-x="1113" 
d="M1039 695q0 -269 -114 -420t-353 -151q-197 0 -317 117t-120 319v619h175v-611q0 -142 74 -218t208 -75q268 0 268 417q0 234 -196 387l144 124q231 -187 231 -508z" />
    <glyph glyph-name="uni028C" unicode="&#x28c;" horiz-adv-x="997" 
d="M971 148h-178l-239 658q-39 106 -54 168h-4q-24 -99 -57 -195l-227 -631h-185l391 1031h165z" />
    <glyph glyph-name="uni028D" unicode="&#x28d;" horiz-adv-x="1438" 
d="M1427 148h-171q-218 733 -234 794h-4l-203 -794h-180q-206 755 -218 816l-226 -816h-181l317 1031h182l205 -793h4l204 793h181z" />
    <glyph glyph-name="uni028E" unicode="&#x28e;" horiz-adv-x="997" 
d="M759 1598q47 0 114 -21l17 -165q-51 16 -99 16q-97 0 -135 -54t-84 -193l392 -1033h-188l-244 676q-22 62 -46 160h-3q-24 -112 -63 -214l-226 -622h-178l395 1049q1 2 1 7q56 174 132 284t215 110z" />
    <glyph glyph-name="uni028F" unicode="&#x28f;" horiz-adv-x="996" 
d="M585 148h-174v438l-407 593h211l285 -442l289 442h203l-407 -588v-443z" />
    <glyph glyph-name="uni0290" unicode="&#x290;" horiz-adv-x="987" 
d="M1150 -266q-142 0 -233 94t-91 266v54h-785v140l658 754q-117 -6 -198 -6h-422v143h844v-113l-559 -654l-108 -121q99 8 221 8h477v-185q0 -122 56 -186t146 -64q89 0 145 34v-120q-62 -44 -151 -44z" />
    <glyph glyph-name="uni0291" unicode="&#x291;" horiz-adv-x="1125" 
d="M702 296q103 0 158 38t55 97t-62 59q-94 0 -183 -194h32zM869 627q107 0 159 -48t52 -126q0 -137 -94 -221t-271 -84h-103l-49 -157l-126 37q12 43 37 120h-433v140l658 754q-117 -6 -198 -6h-422v143h844v-113l-559 -654l-108 -121q99 5 221 5h52q69 171 151 251t189 80
z" />
    <glyph glyph-name="uni0292" unicode="&#x292;" horiz-adv-x="1058" 
d="M985 162q0 -190 -123 -310t-313 -121q-190 0 -320 85t-184 244l163 81q18 -123 110 -195t218 -72t198 79q71 79 71 221q1 142 -101 218t-298 75h-204l496 575q-115 -6 -197 -6h-422v143h843v-113l-409 -478q203 0 337 -118t135 -308z" />
    <glyph glyph-name="uni0293" unicode="&#x293;" horiz-adv-x="1058" 
d="M298 120q-101 0 -101 -60q0 -90 228 -90q68 0 130 13q-125 137 -257 137zM985 233q0 -200 -208 -316q42 -63 74 -125l-119 -61q-55 91 -85 134q-110 -31 -257 -31t-242 59t-95 158q-1 99 65 152t183 53q196 0 388 -222q116 74 116 199q0 234 -399 234h-203l496 575
q-117 -6 -198 -6h-422v143h844v-113l-410 -478q219 0 345 -93t127 -262z" />
    <glyph glyph-name="uni0298" unicode="&#x298;" horiz-adv-x="1226" 
d="M613 773q45 -1 77 -33t32 -76t-32 -76t-77 -33q-45 1 -77 33t-32 76t32 76t77 33zM613 254q169 0 289 120t121 290q0 170 -120 290q-119 120 -289 119q-170 0 -290 -120q-120 -119 -120 -289t120 -290t289 -120zM613 1203q221 0 381 -159q160 -158 159 -380t-159 -381
t-380 -159t-381 159t-159 381t159 380q159 159 380 159z" />
    <glyph glyph-name="uni0299" unicode="&#x299;" horiz-adv-x="1053" 
d="M327 291h211q148 0 210 36q62 37 62 119t-65 124t-238 41h-180v-320zM327 755h157q263 0 263 143q0 72 -57 105t-178 33h-185v-281zM992 447q0 -299 -460 -299h-380v1031h358q200 1 306 -69t106 -196q0 -168 -174 -219q122 -19 183 -85t61 -163z" />
    <glyph glyph-name="uni029A" unicode="&#x29a;" horiz-adv-x="1038" 
d="M519 602q-266 0 -266 -177q0 -75 55 -119t162 -43q154 -1 234 103t80 297q0 401 -326 401q-100 0 -152 -43t-53 -111q0 -169 266 -169v-139zM74 908q0 141 103 218t273 77q246 1 380 -147t133 -390q1 -242 -131 -392t-368 -150q-186 0 -288 81t-102 218q0 91 62 162
t160 85q-98 14 -160 80t-62 158z" />
    <glyph glyph-name="uni029B" unicode="&#x29b;" horiz-adv-x="1109" 
d="M1161 1251q-150 0 -150 -172v-161l-169 -48q-59 190 -272 190q-150 0 -234 -101t-83 -291q-1 -190 89 -294q90 -106 236 -106q92 0 154 22t128 82v156h-235v144h408v-364q-125 -108 -223 -146t-227 -38q-217 0 -363 144t-146 394t137 396t359 145q186 0 308 -88
q12 259 283 259v-123z" />
    <glyph glyph-name="uni029C" unicode="&#x29c;" horiz-adv-x="1119" 
d="M980 148h-176v448h-490v-448h-175v1031h175v-441h490v441h176v-1031z" />
    <glyph glyph-name="uni029D" unicode="&#x29d;" horiz-adv-x="434" 
d="M-4 24q-58 0 -86 -22t-28 -54t26 -54t73 -23q106 0 135 134q-62 19 -120 19zM-12 -246q-106 0 -175 50t-69 132q0 84 63 136t153 52t166 -18v1073h175v-1055q0 -50 -7 -88q100 -59 193 -174l-78 -69q-66 84 -148 141q-87 -180 -273 -180zM301 1374h-175v198h175v-198z
" />
    <glyph glyph-name="uni029E" unicode="&#x29e;" horiz-adv-x="1000" 
d="M865 -246h-175v812l-414 -418h-228l394 382l-434 649h215l343 -527l124 118v409h175v-1425z" />
    <glyph glyph-name="uni029F" unicode="&#x29f;" horiz-adv-x="833" 
d="M811 148h-674v1031h175v-887h499v-144z" />
    <glyph glyph-name="uni02A0" unicode="&#x2a0;" horiz-adv-x="1106" 
d="M536 268q114 0 194 94t80 284t-73 302t-209 112t-206 -109t-69 -263q0 -154 37 -242q36 -88 104 -134q68 -44 142 -44zM1218 1430q-116 0 -182 -49t-67 -202v-1425h-175v508h-4q-92 -138 -278 -138t-312 150t-126 394t120 390t310 145q190 0 286 -142h4v118
q0 393 424 393v-142z" />
    </font>
</defs>
</svg>
